<svg xmlns="http://www.w3.org/2000/svg" xmlns:xlink="http://www.w3.org/1999/xlink" width="1920" zoomAndPan="magnify" viewBox="0 0 1440 809.999993" height="1080" preserveAspectRatio="xMidYMid meet" version="1.0"><defs><filter x="0%" y="0%" width="100%" height="100%" id="72a6566ca1"><feColorMatrix values="0 0 0 0 1 0 0 0 0 1 0 0 0 0 1 0 0 0 1 0" color-interpolation-filters="sRGB"/></filter><mask id="c96c3ea20a"><g filter="url(#72a6566ca1)"><rect x="-144" width="1728" fill="#000000" y="-80.999999" height="971.999992" fill-opacity="0.149"/></g></mask><clipPath id="64ead0b783"><rect x="0" width="653" y="0" height="654"/></clipPath></defs><path fill="#6664ac" d="M 1088.523438 401.039062 C 1088.523438 406.699219 1088.382812 412.359375 1088.105469 418.011719 C 1087.828125 423.664062 1087.414062 429.308594 1086.859375 434.941406 C 1086.304688 440.574219 1085.609375 446.191406 1084.78125 451.792969 C 1083.949219 457.390625 1082.984375 462.964844 1081.878906 468.519531 C 1080.773438 474.070312 1079.535156 479.59375 1078.160156 485.082031 C 1076.785156 490.574219 1075.277344 496.027344 1073.632812 501.445312 C 1071.988281 506.863281 1070.214844 512.234375 1068.308594 517.566406 C 1066.402344 522.894531 1064.367188 528.175781 1062.199219 533.40625 C 1060.035156 538.632812 1057.742188 543.808594 1055.320312 548.925781 C 1052.902344 554.042969 1050.359375 559.097656 1047.691406 564.089844 C 1045.023438 569.082031 1042.234375 574.003906 1039.324219 578.859375 C 1036.414062 583.714844 1033.386719 588.496094 1030.242188 593.203125 C 1027.101562 597.910156 1023.84375 602.535156 1020.472656 607.082031 C 1017.101562 611.628906 1013.617188 616.089844 1010.027344 620.46875 C 1006.4375 624.84375 1002.742188 629.128906 998.941406 633.320312 C 995.140625 637.515625 991.242188 641.613281 987.238281 645.617188 C 983.238281 649.621094 979.140625 653.523438 974.945312 657.324219 C 970.753906 661.125 966.46875 664.820312 962.09375 668.414062 C 957.71875 672.003906 953.257812 675.484375 948.714844 678.859375 C 944.167969 682.230469 939.542969 685.488281 934.835938 688.632812 C 930.128906 691.777344 925.351562 694.804688 920.496094 697.714844 C 915.644531 700.625 910.71875 703.414062 905.730469 706.082031 C 900.738281 708.753906 895.683594 711.296875 890.566406 713.714844 C 885.453125 716.136719 880.28125 718.429688 875.050781 720.597656 C 869.824219 722.761719 864.542969 724.800781 859.214844 726.707031 C 853.886719 728.613281 848.515625 730.386719 843.097656 732.03125 C 837.683594 733.675781 832.230469 735.183594 826.742188 736.558594 C 821.25 737.933594 815.730469 739.175781 810.179688 740.277344 C 804.628906 741.382812 799.054688 742.351562 793.457031 743.179688 C 787.859375 744.011719 782.246094 744.703125 776.613281 745.261719 C 770.980469 745.816406 765.335938 746.230469 759.683594 746.507812 C 754.03125 746.785156 748.375 746.925781 742.71875 746.925781 C 737.058594 746.925781 731.402344 746.785156 725.75 746.507812 C 720.097656 746.230469 714.453125 745.816406 708.820312 745.261719 C 703.191406 744.703125 697.574219 744.011719 691.976562 743.179688 C 686.378906 742.351562 680.804688 741.382812 675.253906 740.277344 C 669.703125 739.175781 664.183594 737.933594 658.691406 736.558594 C 653.203125 735.183594 647.75 733.675781 642.335938 732.03125 C 636.917969 730.386719 631.546875 728.613281 626.21875 726.707031 C 620.890625 724.800781 615.613281 722.761719 610.382812 720.597656 C 605.15625 718.429688 599.980469 716.136719 594.867188 713.714844 C 589.75 711.296875 584.695312 708.753906 579.707031 706.082031 C 574.714844 703.414062 569.792969 700.625 564.9375 697.714844 C 560.082031 694.804688 555.304688 691.777344 550.597656 688.632812 C 545.890625 685.488281 541.265625 682.230469 536.722656 678.859375 C 532.175781 675.484375 527.714844 672.003906 523.339844 668.414062 C 518.964844 664.820312 514.679688 661.125 510.488281 657.324219 C 506.292969 653.523438 502.199219 649.621094 498.195312 645.617188 C 494.195312 641.613281 490.292969 637.515625 486.492188 633.320312 C 482.691406 629.128906 478.996094 624.84375 475.40625 620.46875 C 471.816406 616.089844 468.335938 611.628906 464.964844 607.082031 C 461.59375 602.535156 458.335938 597.910156 455.191406 593.203125 C 452.046875 588.496094 449.019531 583.714844 446.109375 578.859375 C 443.199219 574.003906 440.410156 569.082031 437.742188 564.089844 C 435.074219 559.097656 432.53125 554.042969 430.113281 548.925781 C 427.691406 543.808594 425.398438 538.632812 423.234375 533.40625 C 421.070312 528.175781 419.03125 522.894531 417.125 517.566406 C 415.21875 512.234375 413.445312 506.863281 411.800781 501.445312 C 410.160156 496.027344 408.648438 490.574219 407.273438 485.082031 C 405.898438 479.59375 404.660156 474.070312 403.554688 468.519531 C 402.453125 462.964844 401.484375 457.390625 400.652344 451.792969 C 399.824219 446.191406 399.132812 440.574219 398.578125 434.941406 C 398.023438 429.308594 397.605469 423.664062 397.328125 418.011719 C 397.050781 412.359375 396.910156 406.699219 396.910156 401.039062 C 396.910156 395.378906 397.050781 389.722656 397.328125 384.066406 C 397.605469 378.414062 398.023438 372.769531 398.578125 367.136719 C 399.132812 361.503906 399.824219 355.886719 400.652344 350.289062 C 401.484375 344.6875 402.453125 339.113281 403.554688 333.5625 C 404.660156 328.007812 405.898438 322.488281 407.273438 316.996094 C 408.648438 311.503906 410.160156 306.050781 411.800781 300.632812 C 413.445312 295.21875 415.21875 289.84375 417.125 284.515625 C 419.03125 279.183594 421.070312 273.90625 423.234375 268.675781 C 425.398438 263.445312 427.691406 258.273438 430.113281 253.15625 C 432.53125 248.039062 435.074219 242.984375 437.742188 237.992188 C 440.410156 232.996094 443.199219 228.074219 446.109375 223.21875 C 449.019531 218.363281 452.046875 213.582031 455.191406 208.875 C 458.335938 204.167969 461.59375 199.542969 464.964844 194.996094 C 468.335938 190.449219 471.816406 185.988281 475.40625 181.613281 C 478.996094 177.238281 482.691406 172.953125 486.492188 168.757812 C 490.292969 164.5625 494.195312 160.464844 498.195312 156.460938 C 502.199219 152.457031 506.292969 148.558594 510.488281 144.753906 C 514.679688 140.953125 518.964844 137.257812 523.339844 133.667969 C 527.714844 130.074219 532.175781 126.59375 536.722656 123.222656 C 541.265625 119.851562 545.890625 116.589844 550.597656 113.445312 C 555.304688 110.300781 560.082031 107.273438 564.9375 104.363281 C 569.792969 101.453125 574.714844 98.664062 579.707031 95.996094 C 584.695312 93.328125 589.75 90.78125 594.867188 88.363281 C 599.980469 85.941406 605.15625 83.648438 610.382812 81.484375 C 615.613281 79.316406 620.890625 77.28125 626.21875 75.375 C 631.546875 73.464844 636.917969 71.691406 642.335938 70.046875 C 647.75 68.40625 653.203125 66.894531 658.691406 65.519531 C 664.183594 64.144531 669.703125 62.90625 675.253906 61.800781 C 680.804688 60.695312 686.378906 59.726562 691.976562 58.898438 C 697.574219 58.066406 703.191406 57.375 708.824219 56.820312 C 714.453125 56.265625 720.097656 55.847656 725.75 55.570312 C 731.402344 55.292969 737.058594 55.152344 742.71875 55.152344 C 748.375 55.152344 754.03125 55.292969 759.683594 55.570312 C 765.335938 55.847656 770.980469 56.265625 776.613281 56.820312 C 782.246094 57.375 787.859375 58.066406 793.457031 58.898438 C 799.054688 59.726562 804.628906 60.695312 810.179688 61.800781 C 815.730469 62.90625 821.25 64.144531 826.742188 65.519531 C 832.230469 66.894531 837.683594 68.40625 843.097656 70.046875 C 848.515625 71.691406 853.886719 73.464844 859.214844 75.375 C 864.542969 77.28125 869.824219 79.316406 875.050781 81.484375 C 880.28125 83.648438 885.453125 85.941406 890.566406 88.363281 C 895.683594 90.78125 900.738281 93.328125 905.730469 95.996094 C 910.71875 98.664062 915.644531 101.453125 920.496094 104.363281 C 925.351562 107.273438 930.132812 110.300781 934.835938 113.445312 C 939.542969 116.589844 944.167969 119.851562 948.714844 123.222656 C 953.257812 126.59375 957.71875 130.074219 962.09375 133.667969 C 966.46875 137.257812 970.753906 140.953125 974.945312 144.753906 C 979.140625 148.558594 983.238281 152.457031 987.238281 156.460938 C 991.242188 160.464844 995.140625 164.5625 998.941406 168.757812 C 1002.742188 172.953125 1006.4375 177.238281 1010.027344 181.613281 C 1013.617188 185.988281 1017.097656 190.449219 1020.472656 194.996094 C 1023.84375 199.542969 1027.101562 204.167969 1030.242188 208.875 C 1033.386719 213.582031 1036.414062 218.363281 1039.324219 223.21875 C 1042.234375 228.074219 1045.023438 232.996094 1047.691406 237.992188 C 1050.359375 242.984375 1052.902344 248.039062 1055.320312 253.15625 C 1057.742188 258.273438 1060.035156 263.445312 1062.199219 268.675781 C 1064.367188 273.90625 1066.402344 279.183594 1068.308594 284.515625 C 1070.214844 289.84375 1071.988281 295.21875 1073.632812 300.632812 C 1075.277344 306.050781 1076.785156 311.503906 1078.160156 316.996094 C 1079.535156 322.488281 1080.773438 328.007812 1081.878906 333.5625 C 1082.980469 339.113281 1083.949219 344.6875 1084.78125 350.289062 C 1085.609375 355.886719 1086.304688 361.503906 1086.859375 367.136719 C 1087.414062 372.769531 1087.828125 378.414062 1088.105469 384.066406 C 1088.382812 389.722656 1088.523438 395.378906 1088.523438 401.039062 Z M 1088.523438 401.039062 " fill-opacity="1" fill-rule="nonzero"/><path fill="#ee93bf" d="M 672.101562 62.382812 C 672.101562 62.382812 863.183594 105.460938 883.128906 160.800781 C 898.8125 136.839844 890.382812 88.1875 890.382812 88.1875 C 890.382812 88.1875 803.519531 35.785156 672.105469 62.382812 Z M 672.101562 62.382812 " fill-opacity="1" fill-rule="nonzero"/><path fill="#ee93bf" d="M 883.113281 160.800781 C 883.113281 160.800781 942.6875 350.675781 723.234375 746.917969 C 951.0625 754.621094 1045.089844 579.554688 1059.71875 539.433594 C 1078.914062 319.792969 922.644531 169.1875 883.113281 160.800781 Z M 883.113281 160.800781 " fill-opacity="1" fill-rule="nonzero"/><path fill="#fdc74f" d="M 426.9375 542.183594 C 426.9375 542.183594 560.421875 255.785156 883.113281 160.796875 C 931.363281 394.574219 723.234375 746.910156 723.234375 746.910156 C 723.234375 746.910156 518.347656 746.910156 426.9375 542.183594 Z M 426.9375 542.183594 " fill-opacity="1" fill-rule="nonzero"/><path fill="#fdc74f" d="M 883.113281 160.800781 C 883.113281 160.800781 954.933594 148.367188 1019.96875 194.292969 C 961.421875 115.78125 890.371094 88.1875 890.371094 88.1875 C 890.371094 88.1875 894.332031 133.78125 883.117188 160.800781 Z M 883.113281 160.800781 " fill-opacity="1" fill-rule="nonzero"/><path fill="#eaeaea" d="M 941.597656 198.167969 C 940.945312 199.183594 940.203125 200.136719 939.371094 201.027344 C 938.539062 201.917969 937.613281 202.742188 936.605469 203.5 C 935.59375 204.257812 934.5 204.945312 933.324219 205.5625 C 932.144531 206.179688 930.890625 206.722656 929.558594 207.195312 C 928.226562 207.664062 926.824219 208.058594 925.347656 208.378906 C 923.871094 208.699219 922.332031 208.941406 920.730469 209.105469 C 919.125 209.269531 917.464844 209.355469 915.75 209.363281 C 914.03125 209.375 912.269531 209.304688 910.457031 209.15625 C 908.640625 209.011719 906.789062 208.785156 904.898438 208.484375 C 903.007812 208.183594 901.085938 207.804688 899.132812 207.351562 C 897.179688 206.898438 895.207031 206.371094 893.210938 205.769531 C 891.214844 205.171875 889.210938 204.5 887.191406 203.757812 C 885.175781 203.015625 883.15625 202.207031 881.136719 201.328125 C 879.117188 200.453125 877.101562 199.515625 875.097656 198.511719 C 873.09375 197.507812 871.109375 196.449219 869.140625 195.332031 C 867.171875 194.210938 865.226562 193.039062 863.3125 191.816406 C 861.398438 190.59375 859.519531 189.320312 857.679688 188.003906 C 855.839844 186.6875 854.042969 185.328125 852.289062 183.929688 C 850.539062 182.53125 848.84375 181.097656 847.199219 179.632812 C 845.554688 178.164062 843.972656 176.671875 842.453125 175.152344 C 840.933594 173.632812 839.480469 172.09375 838.097656 170.535156 C 836.714844 168.976562 835.410156 167.40625 834.179688 165.824219 C 832.949219 164.242188 831.796875 162.65625 830.730469 161.0625 C 829.664062 159.472656 828.679688 157.886719 827.785156 156.300781 C 826.890625 154.71875 826.089844 153.144531 825.375 151.582031 C 824.664062 150.019531 824.042969 148.476562 823.519531 146.953125 C 822.996094 145.429688 822.570312 143.929688 822.242188 142.457031 C 821.910156 140.984375 821.679688 139.542969 821.546875 138.136719 C 821.414062 136.730469 821.378906 135.359375 821.445312 134.035156 C 821.511719 132.707031 821.675781 131.425781 821.9375 130.1875 C 822.203125 128.953125 822.5625 127.769531 823.023438 126.640625 C 823.480469 125.507812 824.035156 124.433594 824.683594 123.417969 C 825.332031 122.402344 826.074219 121.449219 826.910156 120.558594 C 827.742188 119.667969 828.664062 118.84375 829.675781 118.085938 C 830.683594 117.328125 831.777344 116.640625 832.957031 116.023438 C 834.132812 115.40625 835.386719 114.863281 836.722656 114.390625 C 838.054688 113.921875 839.457031 113.527344 840.933594 113.207031 C 842.40625 112.886719 843.945312 112.644531 845.550781 112.480469 C 847.152344 112.316406 848.8125 112.230469 850.53125 112.222656 C 852.246094 112.210938 854.011719 112.28125 855.824219 112.429688 C 857.636719 112.574219 859.488281 112.800781 861.382812 113.101562 C 863.273438 113.402344 865.195312 113.78125 867.148438 114.234375 C 869.101562 114.6875 871.074219 115.214844 873.070312 115.816406 C 875.0625 116.414062 877.070312 117.085938 879.085938 117.828125 C 881.105469 118.570312 883.121094 119.378906 885.144531 120.257812 C 887.164062 121.132812 889.175781 122.070312 891.179688 123.074219 C 893.183594 124.078125 895.171875 125.136719 897.140625 126.253906 C 899.109375 127.375 901.050781 128.546875 902.964844 129.769531 C 904.878906 130.992188 906.757812 132.265625 908.601562 133.582031 C 910.441406 134.898438 912.238281 136.257812 913.988281 137.65625 C 915.738281 139.054688 917.4375 140.488281 919.082031 141.953125 C 920.726562 143.421875 922.304688 144.914062 923.828125 146.433594 C 925.347656 147.953125 926.796875 149.492188 928.179688 151.050781 C 929.5625 152.609375 930.871094 154.179688 932.101562 155.761719 C 933.332031 157.34375 934.480469 158.929688 935.550781 160.519531 C 936.617188 162.113281 937.597656 163.699219 938.492188 165.285156 C 939.386719 166.867188 940.191406 168.441406 940.90625 170.003906 C 941.617188 171.566406 942.234375 173.109375 942.757812 174.632812 C 943.28125 176.15625 943.710938 177.65625 944.039062 179.128906 C 944.367188 180.601562 944.601562 182.042969 944.734375 183.449219 C 944.867188 184.855469 944.898438 186.226562 944.832031 187.550781 C 944.769531 188.878906 944.605469 190.160156 944.339844 191.398438 C 944.078125 192.632812 943.714844 193.816406 943.257812 194.945312 C 942.800781 196.078125 942.246094 197.152344 941.597656 198.167969 Z M 941.597656 198.167969 " fill-opacity="1" fill-rule="nonzero"/><g mask="url(#c96c3ea20a)"><g transform="matrix(1, 0, 0, 1, 431, 59)"><g clip-path="url(#64ead0b783)"><path fill="#ffffff" d="M 651.847656 327.171875 C 651.847656 332.496094 651.71875 337.816406 651.457031 343.136719 C 651.195312 348.453125 650.804688 353.761719 650.28125 359.0625 C 649.761719 364.359375 649.109375 369.640625 648.328125 374.910156 C 647.546875 380.175781 646.636719 385.421875 645.597656 390.640625 C 644.558594 395.863281 643.394531 401.058594 642.101562 406.222656 C 640.808594 411.386719 639.386719 416.519531 637.84375 421.613281 C 636.296875 426.707031 634.628906 431.761719 632.835938 436.777344 C 631.039062 441.789062 629.125 446.753906 627.089844 451.675781 C 625.050781 456.59375 622.894531 461.460938 620.617188 466.273438 C 618.34375 471.085938 615.949219 475.839844 613.441406 480.535156 C 610.929688 485.230469 608.308594 489.863281 605.570312 494.429688 C 602.835938 498.996094 599.988281 503.496094 597.03125 507.921875 C 594.074219 512.347656 591.007812 516.699219 587.839844 520.976562 C 584.667969 525.253906 581.394531 529.449219 578.015625 533.566406 C 574.640625 537.683594 571.164062 541.710938 567.589844 545.65625 C 564.011719 549.601562 560.34375 553.457031 556.578125 557.222656 C 552.816406 560.988281 548.960938 564.65625 545.015625 568.234375 C 541.074219 571.808594 537.042969 575.285156 532.929688 578.664062 C 528.8125 582.042969 524.617188 585.316406 520.34375 588.488281 C 516.066406 591.660156 511.714844 594.726562 507.289062 597.683594 C 502.863281 600.640625 498.367188 603.488281 493.800781 606.226562 C 489.234375 608.964844 484.605469 611.585938 479.910156 614.097656 C 475.214844 616.605469 470.464844 619 465.652344 621.277344 C 460.839844 623.554688 455.972656 625.710938 451.054688 627.746094 C 446.136719 629.785156 441.171875 631.699219 436.160156 633.496094 C 431.148438 635.289062 426.09375 636.957031 421 638.503906 C 415.90625 640.050781 410.777344 641.46875 405.613281 642.761719 C 400.453125 644.054688 395.257812 645.222656 390.039062 646.261719 C 384.816406 647.300781 379.574219 648.210938 374.308594 648.992188 C 369.042969 649.773438 363.761719 650.425781 358.464844 650.945312 C 353.164062 651.46875 347.859375 651.859375 342.542969 652.121094 C 337.226562 652.382812 331.90625 652.511719 326.582031 652.511719 C 321.257812 652.511719 315.9375 652.382812 310.621094 652.121094 C 305.304688 651.859375 299.996094 651.46875 294.699219 650.945312 C 289.402344 650.425781 284.121094 649.773438 278.855469 648.992188 C 273.589844 648.210938 268.347656 647.300781 263.125 646.261719 C 257.90625 645.222656 252.710938 644.054688 247.546875 642.761719 C 242.386719 641.46875 237.257812 640.050781 232.160156 638.503906 C 227.066406 636.957031 222.015625 635.289062 217.003906 633.496094 C 211.992188 631.699219 207.027344 629.785156 202.109375 627.746094 C 197.191406 625.710938 192.324219 623.554688 187.511719 621.277344 C 182.699219 619 177.945312 616.605469 173.253906 614.097656 C 168.558594 611.585938 163.925781 608.964844 159.363281 606.226562 C 154.796875 603.488281 150.300781 600.640625 145.875 597.683594 C 141.449219 594.726562 137.097656 591.660156 132.820312 588.488281 C 128.546875 585.316406 124.351562 582.042969 120.234375 578.664062 C 116.121094 575.285156 112.089844 571.808594 108.144531 568.234375 C 104.203125 564.65625 100.347656 560.988281 96.582031 557.222656 C 92.820312 553.457031 89.148438 549.601562 85.574219 545.65625 C 82 541.710938 78.523438 537.683594 75.148438 533.566406 C 71.769531 529.449219 68.496094 525.253906 65.324219 520.976562 C 62.15625 516.699219 59.089844 512.347656 56.132812 507.921875 C 53.175781 503.496094 50.328125 498.996094 47.589844 494.429688 C 44.855469 489.863281 42.230469 485.230469 39.722656 480.535156 C 37.214844 475.839844 34.820312 471.085938 32.542969 466.273438 C 30.269531 461.460938 28.113281 456.59375 26.074219 451.675781 C 24.039062 446.753906 22.121094 441.789062 20.328125 436.777344 C 18.535156 431.761719 16.867188 426.707031 15.320312 421.613281 C 13.777344 416.519531 12.355469 411.386719 11.0625 406.222656 C 9.769531 401.058594 8.605469 395.863281 7.566406 390.640625 C 6.527344 385.421875 5.617188 380.175781 4.835938 374.910156 C 4.054688 369.640625 3.402344 364.359375 2.882812 359.0625 C 2.359375 353.761719 1.96875 348.453125 1.707031 343.136719 C 1.445312 337.816406 1.316406 332.496094 1.316406 327.171875 C 1.316406 321.847656 1.445312 316.527344 1.707031 311.207031 C 1.96875 305.890625 2.359375 300.582031 2.882812 295.28125 C 3.402344 289.984375 4.054688 284.699219 4.835938 279.433594 C 5.617188 274.167969 6.527344 268.921875 7.566406 263.699219 C 8.605469 258.476562 9.769531 253.285156 11.0625 248.121094 C 12.355469 242.957031 13.777344 237.824219 15.320312 232.730469 C 16.867188 227.632812 18.535156 222.582031 20.328125 217.566406 C 22.121094 212.554688 24.039062 207.589844 26.074219 202.667969 C 28.113281 197.75 30.269531 192.882812 32.542969 188.070312 C 34.820312 183.257812 37.214844 178.503906 39.722656 173.808594 C 42.230469 169.109375 44.855469 164.480469 47.589844 159.914062 C 50.328125 155.34375 53.175781 150.847656 56.132812 146.421875 C 59.089844 141.996094 62.15625 137.640625 65.324219 133.367188 C 68.496094 129.089844 71.769531 124.894531 75.148438 120.777344 C 78.523438 116.660156 82 112.628906 85.574219 108.6875 C 89.148438 104.742188 92.820312 100.886719 96.582031 97.121094 C 100.347656 93.355469 104.203125 89.683594 108.144531 86.109375 C 112.089844 82.535156 116.121094 79.058594 120.234375 75.679688 C 124.351562 72.300781 128.546875 69.027344 132.820312 65.855469 C 137.097656 62.683594 141.449219 59.617188 145.875 56.660156 C 150.300781 53.703125 154.796875 50.855469 159.363281 48.117188 C 163.925781 45.378906 168.558594 42.757812 173.253906 40.246094 C 177.945312 37.734375 182.699219 35.34375 187.511719 33.066406 C 192.324219 30.789062 197.191406 28.632812 202.109375 26.59375 C 207.027344 24.558594 211.992188 22.640625 217.003906 20.847656 C 222.015625 19.054688 227.066406 17.386719 232.160156 15.839844 C 237.257812 14.292969 242.386719 12.875 247.546875 11.582031 C 252.710938 10.285156 257.90625 9.121094 263.125 8.082031 C 268.347656 7.042969 273.589844 6.132812 278.855469 5.351562 C 284.121094 4.570312 289.402344 3.917969 294.699219 3.398438 C 299.996094 2.875 305.304688 2.484375 310.621094 2.222656 C 315.9375 1.960938 321.257812 1.832031 326.582031 1.832031 C 331.90625 1.832031 337.226562 1.960938 342.542969 2.222656 C 347.859375 2.484375 353.164062 2.875 358.464844 3.398438 C 363.761719 3.917969 369.042969 4.570312 374.308594 5.351562 C 379.574219 6.132812 384.816406 7.042969 390.039062 8.082031 C 395.257812 9.121094 400.453125 10.285156 405.613281 11.582031 C 410.777344 12.875 415.90625 14.292969 421 15.839844 C 426.09375 17.386719 431.148438 19.054688 436.160156 20.847656 C 441.171875 22.640625 446.136719 24.558594 451.054688 26.59375 C 455.972656 28.632812 460.839844 30.789062 465.652344 33.066406 C 470.464844 35.34375 475.214844 37.734375 479.910156 40.246094 C 484.605469 42.757812 489.234375 45.378906 493.800781 48.117188 C 498.367188 50.855469 502.863281 53.703125 507.289062 56.660156 C 511.714844 59.617188 516.066406 62.683594 520.34375 65.855469 C 524.617188 69.027344 528.8125 72.300781 532.929688 75.679688 C 537.042969 79.058594 541.074219 82.535156 545.015625 86.109375 C 548.960938 89.683594 552.816406 93.355469 556.578125 97.121094 C 560.34375 100.886719 564.011719 104.742188 567.589844 108.6875 C 571.164062 112.628906 574.640625 116.660156 578.015625 120.777344 C 581.394531 124.894531 584.667969 129.089844 587.839844 133.367188 C 591.007812 137.640625 594.074219 141.996094 597.03125 146.421875 C 599.988281 150.847656 602.835938 155.34375 605.570312 159.914062 C 608.308594 164.480469 610.929688 169.109375 613.441406 173.808594 C 615.949219 178.503906 618.34375 183.257812 620.617188 188.070312 C 622.894531 192.882812 625.050781 197.75 627.089844 202.667969 C 629.125 207.589844 631.039062 212.554688 632.835938 217.566406 C 634.628906 222.582031 636.296875 227.632812 637.84375 232.730469 C 639.386719 237.824219 640.808594 242.957031 642.101562 248.121094 C 643.394531 253.285156 644.558594 258.476562 645.597656 263.699219 C 646.636719 268.921875 647.546875 274.167969 648.328125 279.433594 C 649.109375 284.699219 649.761719 289.984375 650.28125 295.28125 C 650.804688 300.582031 651.195312 305.890625 651.457031 311.207031 C 651.71875 316.527344 651.847656 321.847656 651.847656 327.171875 Z M 651.847656 327.171875 " fill-opacity="1" fill-rule="nonzero"/></g></g></g></svg>