<svg xmlns="http://www.w3.org/2000/svg" xmlns:xlink="http://www.w3.org/1999/xlink" width="1122" zoomAndPan="magnify" viewBox="0 0 841.92 595.499987" height="793" preserveAspectRatio="xMidYMid meet" version="1.0"><defs><clipPath id="559ffe6ae5"><path d="M 499 289 L 624.878906 289 L 624.878906 531 L 499 531 Z M 499 289 " clip-rule="nonzero"/></clipPath><clipPath id="450593d269"><path d="M 260.042969 289 L 385 289 L 385 531 L 260.042969 531 Z M 260.042969 289 " clip-rule="nonzero"/></clipPath><clipPath id="d3f86a46d4"><path d="M 272 59.460938 L 613 59.460938 L 613 400 L 272 400 Z M 272 59.460938 " clip-rule="nonzero"/></clipPath><clipPath id="5537bd7f90"><path d="M 441 59.460938 L 613 59.460938 L 613 400 L 441 400 Z M 441 59.460938 " clip-rule="nonzero"/></clipPath></defs><path fill="#991b28" d="M 546.703125 521.5 L 479.238281 561.769531 L 427.097656 320.972656 L 499.878906 305.230469 L 546.703125 521.5 " fill-opacity="1" fill-rule="nonzero"/><g clip-path="url(#559ffe6ae5)"><path fill="#c32435" d="M 546.703125 521.5 L 624.785156 530.273438 L 572.675781 289.480469 L 499.878906 305.230469 L 546.703125 521.5 " fill-opacity="1" fill-rule="nonzero"/></g><path fill="#b32130" d="M 585.757812 525.882812 L 546.703125 521.5 L 516.617188 382.535156 L 520.476562 382.667969 L 536.460938 358.949219 L 548.851562 355.394531 L 585.757812 525.882812 " fill-opacity="1" fill-rule="nonzero"/><path fill="#8d1924" d="M 512.960938 541.605469 L 480.304688 390.671875 L 491.839844 381.667969 L 516.617188 382.535156 L 546.703125 521.5 L 512.960938 541.605469 " fill-opacity="1" fill-rule="nonzero"/><path fill="#991b28" d="M 338.058594 521.5 L 405.550781 561.769531 L 457.660156 320.972656 L 384.859375 305.230469 L 338.058594 521.5 " fill-opacity="1" fill-rule="nonzero"/><g clip-path="url(#450593d269)"><path fill="#c32435" d="M 338.058594 521.5 L 259.972656 530.273438 L 312.117188 289.480469 L 384.859375 305.230469 L 338.058594 521.5 " fill-opacity="1" fill-rule="nonzero"/></g><path fill="#b32130" d="M 299.027344 525.882812 L 335.914062 355.398438 L 348.265625 358.949219 L 364.28125 382.667969 L 368.132812 382.535156 L 338.058594 521.5 L 299.027344 525.882812 " fill-opacity="1" fill-rule="nonzero"/><path fill="#8d1924" d="M 371.800781 541.605469 L 338.058594 521.5 L 368.132812 382.535156 L 392.894531 381.667969 L 404.457031 390.6875 L 371.800781 541.605469 " fill-opacity="1" fill-rule="nonzero"/><g clip-path="url(#d3f86a46d4)"><path fill="#d89816" d="M 442.363281 69.453125 L 469.285156 59.675781 L 491.839844 77.285156 L 520.476562 76.3125 L 536.460938 100.027344 L 564.011719 107.914062 L 571.902344 135.425781 L 595.632812 151.433594 L 594.65625 180.027344 L 612.273438 202.597656 L 602.464844 229.472656 L 612.273438 256.378906 L 594.65625 278.925781 L 595.632812 307.519531 L 571.902344 323.527344 L 564.011719 351.03125 L 536.460938 358.949219 L 520.476562 382.667969 L 491.839844 381.667969 L 469.285156 399.277344 L 442.363281 389.5 L 415.476562 399.277344 L 392.894531 381.667969 L 364.28125 382.667969 L 348.265625 358.949219 L 320.75 351.03125 L 312.859375 323.527344 L 289.125 307.519531 L 290.136719 278.925781 L 272.511719 256.378906 L 282.300781 229.472656 L 272.511719 202.597656 L 290.136719 180.027344 L 289.125 151.433594 L 312.859375 135.425781 L 320.75 107.914062 L 348.265625 100.027344 L 364.28125 76.3125 L 392.894531 77.285156 L 415.476562 59.675781 L 442.363281 69.453125 " fill-opacity="1" fill-rule="nonzero"/></g><path fill="#f5c116" d="M 442.363281 85.972656 L 466.53125 77.195312 L 486.757812 93.007812 L 512.414062 92.109375 L 526.765625 113.394531 L 551.46875 120.449219 L 558.527344 145.117188 L 579.824219 159.492188 L 578.933594 185.128906 L 594.71875 205.355469 L 585.9375 229.472656 L 594.71875 253.601562 L 578.933594 273.820312 L 579.824219 299.460938 L 558.527344 313.832031 L 551.46875 338.5 L 526.765625 345.582031 L 512.414062 366.867188 L 486.757812 365.949219 L 466.53125 381.753906 L 442.363281 372.976562 L 418.261719 381.753906 L 398 365.949219 L 372.34375 366.867188 L 358 345.582031 L 333.324219 338.5 L 326.230469 313.832031 L 304.945312 299.460938 L 305.859375 273.820312 L 290.019531 253.601562 L 298.824219 229.472656 L 290.019531 205.355469 L 305.859375 185.128906 L 304.945312 159.492188 L 326.230469 145.117188 L 333.324219 120.449219 L 358 113.394531 L 372.34375 92.109375 L 398 93.007812 L 418.261719 77.195312 L 442.363281 85.972656 " fill-opacity="1" fill-rule="nonzero"/><path fill="#d89816" d="M 557.636719 229.472656 L 557.050781 229.472656 C 557.050781 261.136719 544.214844 289.792969 523.46875 310.535156 C 502.710938 331.28125 474.046875 344.105469 442.363281 344.105469 C 410.699219 344.105469 382.042969 331.28125 361.292969 310.535156 C 340.542969 289.792969 327.710938 261.136719 327.710938 229.472656 C 327.710938 197.828125 340.542969 169.183594 361.292969 148.4375 C 382.042969 127.699219 410.699219 114.878906 442.363281 114.878906 C 474.046875 114.878906 502.710938 127.699219 523.46875 148.4375 C 544.214844 169.183594 557.050781 197.828125 557.050781 229.472656 L 558.230469 229.472656 C 558.230469 165.527344 506.367188 113.695312 442.363281 113.695312 C 378.390625 113.695312 326.527344 165.527344 326.527344 229.472656 C 326.527344 293.445312 378.390625 345.285156 442.363281 345.285156 C 506.367188 345.285156 558.230469 293.445312 558.230469 229.472656 L 557.636719 229.472656 " fill-opacity="1" fill-rule="nonzero"/><path fill="#e9e9e9" d="M 442.363281 69.453125 L 441.820312 69.253906 L 442.363281 69.453125 " fill-opacity="1" fill-rule="nonzero"/><g clip-path="url(#5537bd7f90)"><path fill="#c68b14" d="M 469.285156 399.277344 L 442.796875 389.652344 L 442.363281 389.5 L 441.820312 389.695312 L 441.820312 373.175781 L 442.363281 372.976562 L 466.53125 381.753906 L 486.757812 365.949219 L 512.414062 366.867188 L 526.765625 345.582031 L 551.46875 338.5 L 558.527344 313.832031 L 579.824219 299.460938 L 578.933594 273.820312 L 594.71875 253.601562 L 585.9375 229.472656 L 594.71875 205.355469 L 578.933594 185.128906 L 579.824219 159.492188 L 558.527344 145.117188 L 551.46875 120.449219 L 526.765625 113.394531 L 512.414062 92.109375 L 486.757812 93.007812 L 466.53125 77.195312 L 442.363281 85.972656 L 441.820312 85.777344 L 441.820312 69.253906 L 442.363281 69.453125 L 469.285156 59.675781 L 491.839844 77.285156 L 520.476562 76.3125 L 536.460938 100.027344 L 564.011719 107.914062 L 571.902344 135.425781 L 595.632812 151.433594 L 594.65625 180.027344 L 612.273438 202.597656 L 602.464844 229.472656 L 612.273438 256.378906 L 594.65625 278.925781 L 595.632812 307.519531 L 571.902344 323.527344 L 564.011719 351.03125 L 536.460938 358.949219 L 520.476562 382.667969 L 516.617188 382.535156 L 491.839844 381.667969 L 480.304688 390.671875 L 469.285156 399.277344 " fill-opacity="1" fill-rule="nonzero"/></g><path fill="#e0b014" d="M 466.53125 381.753906 L 442.363281 372.976562 L 441.820312 373.175781 L 441.820312 345.285156 C 442.003906 345.285156 442.183594 345.285156 442.363281 345.285156 C 506.367188 345.285156 558.230469 293.445312 558.230469 229.472656 C 558.230469 165.527344 506.367188 113.695312 442.363281 113.695312 C 442.183594 113.695312 442.003906 113.695312 441.820312 113.695312 L 441.820312 85.777344 L 442.363281 85.972656 L 466.53125 77.195312 L 486.757812 93.007812 L 512.414062 92.109375 L 526.765625 113.394531 L 551.46875 120.449219 L 558.527344 145.117188 L 579.824219 159.492188 L 578.933594 185.128906 L 594.71875 205.355469 L 585.9375 229.472656 L 594.71875 253.601562 L 578.933594 273.820312 L 579.824219 299.460938 L 558.527344 313.832031 L 551.46875 338.5 L 526.765625 345.582031 L 512.414062 366.867188 L 486.757812 365.949219 L 466.53125 381.753906 M 442.363281 344.105469 C 442.183594 344.105469 442.003906 344.105469 441.820312 344.105469 L 441.820312 114.878906 C 442.003906 114.878906 442.183594 114.878906 442.363281 114.878906 C 474.046875 114.878906 502.710938 127.699219 523.46875 148.4375 C 544.214844 169.183594 557.050781 197.828125 557.050781 229.472656 C 557.050781 261.136719 544.214844 289.792969 523.46875 310.535156 C 502.710938 331.28125 474.046875 344.105469 442.363281 344.105469 " fill-opacity="1" fill-rule="nonzero"/><path fill="#c68b14" d="M 442.363281 345.285156 C 442.183594 345.285156 442.003906 345.285156 441.820312 345.285156 L 441.820312 344.105469 C 442.003906 344.105469 442.183594 344.105469 442.363281 344.105469 C 474.046875 344.105469 502.710938 331.28125 523.46875 310.535156 C 544.214844 289.792969 557.050781 261.136719 557.050781 229.472656 C 557.050781 197.828125 544.214844 169.183594 523.46875 148.4375 C 502.710938 127.699219 474.046875 114.878906 442.363281 114.878906 C 442.183594 114.878906 442.003906 114.878906 441.820312 114.878906 L 441.820312 113.695312 C 442.003906 113.695312 442.183594 113.695312 442.363281 113.695312 C 506.367188 113.695312 558.230469 165.527344 558.230469 229.472656 C 558.230469 293.445312 506.367188 345.285156 442.363281 345.285156 " fill-opacity="1" fill-rule="nonzero"/></svg>