<svg xmlns="http://www.w3.org/2000/svg" xmlns:xlink="http://www.w3.org/1999/xlink" width="1920" zoomAndPan="magnify" viewBox="0 0 1440 809.999993" height="1080" preserveAspectRatio="xMidYMid meet" version="1.0"><defs><clipPath id="2c0ba6f2f5"><path d="M 152 109.617188 L 1306 109.617188 L 1306 240 L 152 240 Z M 152 109.617188 " clip-rule="nonzero"/></clipPath><clipPath id="52f90e0fb3"><path d="M 147 109.617188 L 1311 109.617188 L 1311 335 L 147 335 Z M 147 109.617188 " clip-rule="nonzero"/></clipPath></defs><path fill="#3da99c" d="M 1321.917969 418.859375 C 1321.917969 451.640625 1319.835938 483.21875 1314.394531 509.507812 C 1307.496094 542.640625 1300.632812 561.015625 1281.574219 583.550781 C 1241.835938 630.589844 1177.75 649.148438 1119.480469 660.421875 C 1066.941406 670.574219 1013.667969 675.90625 960.238281 678.617188 C 918.039062 680.761719 875.734375 681.0625 833.5 680.542969 C 788.066406 679.976562 741.917969 680.507812 695.507812 681.050781 C 589.324219 682.265625 481.800781 683.496094 378.457031 671.5 C 279.398438 660.011719 166.796875 623.386719 143.234375 509.507812 C 137.78125 483.21875 135.734375 451.640625 135.734375 418.859375 C 135.542969 389.152344 137.3125 358.078125 139.863281 328.789062 C 142.007812 303.800781 144.667969 280.183594 147.304688 259.820312 C 147.304688 342.773438 407.664062 410.007812 728.820312 410.007812 C 1050 410.007812 1310.324219 342.773438 1310.324219 259.820312 C 1312.960938 280.183594 1315.660156 303.800781 1317.765625 328.789062 C 1320.316406 358.078125 1322.085938 389.152344 1321.917969 418.859375 " fill-opacity="1" fill-rule="nonzero"/><path fill="#fbda8a" d="M 147.304688 259.785156 C 147.304688 256.363281 147.738281 252.992188 148.640625 249.632812 C 148.207031 252.917969 147.738281 256.304688 147.304688 259.785156 " fill-opacity="1" fill-rule="nonzero"/><g clip-path="url(#2c0ba6f2f5)"><path fill="#fbda8a" d="M 1305.269531 239.972656 L 152.359375 239.972656 C 189.945312 166.425781 433.703125 109.65625 728.820312 109.65625 C 1023.925781 109.65625 1267.683594 166.425781 1305.269531 239.972656 " fill-opacity="1" fill-rule="nonzero"/></g><path fill="#fbda8a" d="M 1310.324219 259.785156 C 1309.890625 256.304688 1309.421875 252.917969 1308.988281 249.632812 C 1309.890625 252.992188 1310.324219 256.363281 1310.324219 259.785156 " fill-opacity="1" fill-rule="nonzero"/><g clip-path="url(#52f90e0fb3)"><path fill="#25655e" d="M 225.125 334.910156 C 325.664062 290.023438 513.585938 259.832031 728.832031 259.832031 C 944.058594 259.832031 1131.964844 290.023438 1232.503906 334.910156 C 1281.984375 312.820312 1310.324219 287.183594 1310.324219 259.832031 C 1310.324219 176.878906 1049.988281 109.65625 728.832031 109.65625 C 407.664062 109.65625 147.316406 176.878906 147.316406 259.832031 C 147.316406 287.183594 175.632812 312.820312 225.125 334.910156 " fill-opacity="1" fill-rule="nonzero"/></g><path fill="#215953" d="M 862.058594 217.71875 C 815.140625 203.664062 766.3125 197.015625 717.40625 195.644531 C 662.496094 194.113281 607.5625 198.339844 553.179688 205.867188 C 531.703125 208.84375 510.359375 212.359375 489.0625 216.441406 C 469.425781 220.1875 449.476562 223.847656 429.417969 224.125 C 411.734375 224.367188 392.085938 222.714844 376.808594 212.839844 C 364.839844 205.121094 358.820312 195.679688 355.667969 181.984375 C 353.558594 172.894531 352.378906 159.164062 349.609375 145.976562 C 225.75 173.519531 147.316406 214.308594 147.316406 259.832031 C 147.316406 287.183594 175.632812 312.820312 225.125 334.910156 C 325.664062 290.023438 513.585938 259.832031 728.832031 259.832031 C 819.679688 259.832031 905.652344 265.226562 982.246094 274.824219 C 943.371094 252.894531 905.328125 230.6875 862.058594 217.71875 " fill-opacity="1" fill-rule="nonzero"/><path fill="#fbda8a" d="M 1274.253906 363.714844 C 1274.253906 306.34375 1030.066406 259.832031 728.820312 259.832031 C 427.578125 259.832031 183.363281 306.34375 183.363281 363.714844 C 183.363281 402.347656 294.121094 436.058594 458.46875 453.953125 L 458.46875 491.683594 C 458.46875 513.265625 477.40625 530.765625 500.773438 530.765625 L 956.855469 530.765625 C 980.234375 530.765625 999.160156 513.265625 999.160156 491.683594 L 999.160156 453.953125 C 1163.507812 436.058594 1274.253906 402.347656 1274.253906 363.714844 " fill-opacity="1" fill-rule="nonzero"/><path fill="#fac485" d="M 907.132812 472.875 C 886.148438 473.269531 864.394531 473.164062 843.734375 477.148438 C 823.808594 480.992188 804.605469 487.386719 785.261719 493.40625 C 767.453125 498.957031 749.191406 504.617188 730.480469 506.050781 C 716.757812 507.101562 702.960938 507.101562 689.210938 506.269531 C 648.386719 503.800781 605.261719 496.550781 568.457031 477.835938 C 527.476562 456.988281 506.734375 415.523438 484.929688 376.988281 C 464.667969 341.230469 441.386719 306.535156 410.625 279.328125 C 273.003906 298.203125 183.363281 328.960938 183.363281 363.714844 C 183.363281 402.347656 294.121094 436.058594 458.46875 453.953125 L 458.46875 491.683594 C 458.46875 513.265625 477.40625 530.765625 500.773438 530.765625 L 956.855469 530.765625 C 980.234375 530.765625 999.160156 513.265625 999.160156 491.683594 L 999.160156 483.039062 C 969.328125 474.402344 938.253906 472.285156 907.132812 472.875 " fill-opacity="1" fill-rule="nonzero"/><path fill="#3da99c" d="M 1317.765625 328.789062 C 1315.660156 303.800781 1312.960938 280.183594 1310.324219 259.820312 C 1314.910156 295.214844 1241.640625 300.597656 1219.898438 305.644531 C 1170.816406 317.046875 1122.40625 330.789062 1075.332031 348.84375 C 1045.414062 360.320312 999.882812 374.589844 991.457031 410.296875 C 986.0625 433.144531 993.863281 463.683594 999.160156 486.265625 C 999.160156 510.84375 980.234375 530.765625 956.855469 530.765625 L 500.773438 530.765625 C 477.40625 530.765625 458.46875 510.84375 458.46875 486.265625 C 463.355469 465.816406 466.199219 445.078125 466.777344 424.015625 C 468.847656 348.214844 329.410156 330.464844 277.148438 318.925781 C 243.980469 311.605469 209.570312 304.621094 177.945312 291.832031 C 165.554688 286.820312 145.113281 276.8125 147.304688 259.820312 C 144.667969 280.183594 142.007812 303.800781 139.863281 328.789062 C 137.3125 358.078125 135.542969 389.152344 135.734375 418.859375 C 135.734375 451.640625 137.78125 483.21875 143.234375 509.507812 C 166.796875 623.386719 279.398438 660.011719 378.457031 671.5 C 481.800781 683.496094 589.324219 682.265625 695.507812 681.050781 C 741.917969 680.507812 788.066406 679.976562 833.5 680.542969 C 875.734375 681.0625 918.039062 680.761719 960.238281 678.617188 C 1013.667969 675.90625 1066.941406 670.574219 1119.480469 660.421875 C 1177.75 649.148438 1241.835938 630.589844 1281.574219 583.550781 C 1300.632812 561.015625 1307.496094 542.640625 1314.394531 509.507812 C 1319.835938 483.21875 1321.917969 451.640625 1321.917969 418.859375 C 1322.085938 389.152344 1320.316406 358.078125 1317.765625 328.789062 " fill-opacity="1" fill-rule="nonzero"/><path fill="#efefef" d="M 960.238281 678.617188 C 970.773438 678.074219 981.304688 677.449219 991.828125 676.691406 C 981.304688 677.449219 970.773438 678.074219 960.238281 678.617188 " fill-opacity="1" fill-rule="nonzero"/><path fill="#efefef" d="M 991.875 676.691406 C 991.949219 676.679688 992.019531 676.679688 992.09375 676.667969 C 992.019531 676.679688 991.949219 676.679688 991.875 676.691406 " fill-opacity="1" fill-rule="nonzero"/><path fill="#1f544f" d="M 246.929688 312.230469 C 225.882812 307.414062 204.828125 301.996094 184.757812 294.480469 C 204.816406 301.996094 225.871094 307.390625 246.917969 312.207031 C 246.929688 312.21875 246.929688 312.21875 246.929688 312.230469 M 184.6875 294.457031 C 184.636719 294.445312 184.601562 294.417969 184.554688 294.40625 C 184.601562 294.417969 184.636719 294.445312 184.6875 294.457031 M 178.328125 291.988281 C 178.316406 291.988281 178.316406 291.976562 178.304688 291.976562 C 178.304688 291.976562 178.316406 291.988281 178.328125 291.988281 M 178.148438 291.914062 C 178.078125 291.890625 178.015625 291.855469 177.945312 291.832031 C 178.015625 291.855469 178.078125 291.890625 178.148438 291.914062 " fill-opacity="1" fill-rule="nonzero"/><path fill="#399d92" d="M 598.292969 681.796875 C 524.238281 681.796875 450.332031 679.84375 378.457031 671.5 C 279.398438 660.011719 166.796875 623.386719 143.234375 509.507812 C 137.78125 483.21875 135.734375 451.640625 135.734375 418.859375 C 135.722656 417.34375 135.722656 415.835938 135.722656 414.320312 C 135.722656 385.996094 137.445312 356.585938 139.863281 328.789062 C 142.007812 303.800781 144.667969 280.183594 147.304688 259.820312 C 147.195312 260.664062 147.136719 261.492188 147.136719 262.300781 C 147.125 277.800781 166.167969 287.074219 177.945312 291.832031 C 178.015625 291.855469 178.078125 291.890625 178.148438 291.914062 C 178.195312 291.9375 178.246094 291.949219 178.304688 291.976562 C 178.316406 291.976562 178.316406 291.988281 178.328125 291.988281 C 180.398438 292.816406 182.472656 293.625 184.554688 294.40625 C 184.601562 294.417969 184.636719 294.445312 184.6875 294.457031 C 184.710938 294.46875 184.722656 294.480469 184.757812 294.480469 C 204.828125 301.996094 225.882812 307.414062 246.929688 312.230469 C 253.707031 354.660156 243.871094 397.664062 253.429688 439.972656 C 263.289062 483.664062 289.933594 520.167969 325.917969 546.132812 C 363.417969 573.179688 409.648438 585.910156 454.761719 592.917969 C 499.882812 599.941406 545.753906 600.855469 591.359375 600.855469 C 593.453125 600.855469 595.558594 600.855469 597.640625 600.84375 C 631.292969 600.792969 664.917969 600.519531 698.554688 600.519531 C 709.039062 600.519531 719.527344 600.542969 730.011719 600.613281 C 819.210938 601.191406 910.996094 605.46875 995.378906 637.082031 C 1018.253906 645.644531 1040.152344 656.625 1060.597656 669.863281 C 1037.84375 672.8125 1014.992188 675.015625 992.09375 676.667969 C 992.019531 676.679688 991.949219 676.679688 991.875 676.691406 C 991.863281 676.691406 991.839844 676.691406 991.828125 676.691406 C 981.304688 677.449219 970.773438 678.074219 960.238281 678.617188 C 929.464844 680.171875 898.644531 680.761719 867.824219 680.761719 C 867.824219 680.761719 867.8125 680.761719 867.8125 680.761719 C 856.375 680.761719 844.9375 680.6875 833.5 680.542969 C 819.730469 680.375 805.882812 680.304688 791.976562 680.304688 C 791.976562 680.304688 791.964844 680.304688 791.964844 680.304688 C 760.039062 680.304688 727.832031 680.675781 695.507812 681.050781 C 663.183594 681.421875 630.738281 681.796875 598.304688 681.796875 L 598.292969 681.796875 " fill-opacity="1" fill-rule="nonzero"/><path fill="#349187" d="M 282.167969 420.183594 C 289.882812 431.324219 289.003906 437.117188 283.839844 441.34375 C 277.4375 446.621094 264.347656 449.5 252.875 457.300781 L 252.464844 457.578125 C 242.933594 464.203125 234.550781 474.667969 227.0625 480.726562 C 221.285156 484.074219 215.566406 482.871094 207.835938 471.730469 C 204.25 466.527344 201.324219 458.351562 201.828125 449.125 C 202.613281 434.804688 210.894531 419.847656 218.746094 411.742188 C 219.238281 411.238281 219.71875 410.707031 220.273438 410.273438 L 220.285156 410.261719 C 220.898438 409.9375 221.550781 409.636719 222.199219 409.347656 C 232.53125 404.855469 249.433594 402.324219 263.109375 406.625 C 271.933594 409.382812 278.566406 414.984375 282.167969 420.183594 " fill-opacity="1" fill-rule="nonzero"/><path fill="#349187" d="M 246.289062 380.179688 C 243.523438 389.1875 246.53125 398.121094 253.03125 400.132812 C 259.546875 402.144531 267.058594 396.460938 269.839844 387.453125 C 272.644531 378.433594 269.609375 369.496094 263.121094 367.496094 C 256.609375 365.484375 249.097656 371.15625 246.289062 380.179688 " fill-opacity="1" fill-rule="nonzero"/><path fill="#349187" d="M 199.675781 393.484375 C 206.152344 400.351562 207.367188 409.707031 202.40625 414.367188 C 197.460938 419.027344 188.191406 417.234375 181.738281 410.359375 C 175.273438 403.480469 174.054688 394.136719 179.015625 389.476562 C 183.976562 384.816406 193.234375 386.609375 199.675781 393.484375 " fill-opacity="1" fill-rule="nonzero"/><path fill="#349187" d="M 208.609375 387.296875 C 212.773438 395.75 221.105469 400.167969 227.207031 397.160156 C 233.3125 394.160156 234.890625 384.851562 230.710938 376.398438 C 226.546875 367.929688 218.214844 363.511719 212.113281 366.523438 C 206.007812 369.53125 204.441406 378.828125 208.609375 387.296875 " fill-opacity="1" fill-rule="nonzero"/><path fill="#349187" d="M 183.445312 424.414062 C 192.835938 425.363281 199.867188 431.625 199.179688 438.394531 C 198.507812 445.164062 190.34375 449.882812 180.964844 448.933594 C 171.574219 447.980469 164.519531 441.71875 165.207031 434.949219 C 165.90625 428.183594 174.054688 423.460938 183.445312 424.414062 " fill-opacity="1" fill-rule="nonzero"/><path fill="#349187" d="M 392.878906 593.59375 C 392.386719 607.140625 388.246094 611.25 381.5625 611.550781 C 373.253906 611.921875 361.058594 606.394531 347.203125 605.78125 L 346.699219 605.757812 C 335.105469 605.347656 322.148438 608.71875 312.507812 609.09375 C 305.871094 608.308594 302.007812 603.925781 302.5 590.378906 C 302.730469 584.042969 305.269531 575.746094 311.207031 568.652344 C 320.414062 557.65625 335.996094 550.648438 347.128906 548.839844 C 347.828125 548.734375 348.527344 548.601562 349.226562 548.589844 L 349.25 548.589844 C 349.9375 548.695312 350.632812 548.828125 351.332031 548.996094 C 362.289062 551.585938 377.347656 559.679688 385.726562 571.3125 C 391.144531 578.804688 393.109375 587.269531 392.878906 593.59375 " fill-opacity="1" fill-rule="nonzero"/><path fill="#349187" d="M 388.101562 540.0625 C 380.480469 545.613281 377.542969 554.585938 381.550781 560.078125 C 385.558594 565.582031 394.972656 565.53125 402.605469 559.992188 C 410.226562 554.429688 413.152344 545.46875 409.144531 539.964844 C 405.148438 534.460938 395.722656 534.511719 388.101562 540.0625 " fill-opacity="1" fill-rule="nonzero"/><path fill="#349187" d="M 342.785156 522.804688 C 343.84375 532.1875 339.222656 540.398438 332.46875 541.15625 C 325.699219 541.929688 319.367188 534.957031 318.308594 525.574219 C 317.25 516.203125 321.871094 507.992188 328.625 507.21875 C 335.390625 506.449219 341.726562 513.433594 342.785156 522.804688 " fill-opacity="1" fill-rule="nonzero"/><path fill="#349187" d="M 353.644531 523.191406 C 351.921875 532.460938 355.945312 541 362.625 542.242188 C 369.332031 543.480469 376.132812 536.964844 377.867188 527.695312 C 379.589844 518.421875 375.554688 509.894531 368.875 508.652344 C 362.191406 507.414062 355.367188 513.917969 353.644531 523.191406 " fill-opacity="1" fill-rule="nonzero"/><path fill="#349187" d="M 311.265625 537.859375 C 318.210938 544.242188 320.113281 553.476562 315.503906 558.488281 C 310.917969 563.496094 301.550781 562.390625 294.617188 556.007812 C 287.65625 549.636719 285.765625 540.398438 290.355469 535.378906 C 294.964844 530.367188 304.320312 531.476562 311.265625 537.859375 " fill-opacity="1" fill-rule="nonzero"/><path fill="#349187" d="M 772.316406 645.789062 C 771.835938 659.335938 767.671875 663.441406 760.988281 663.757812 C 752.707031 664.117188 740.5 658.589844 726.640625 657.976562 L 726.148438 657.964844 C 714.542969 657.542969 701.574219 660.925781 691.945312 661.300781 C 685.3125 660.515625 681.457031 656.121094 681.941406 642.585938 C 682.167969 636.25 684.710938 627.953125 690.644531 620.859375 C 699.84375 609.863281 715.433594 602.84375 726.558594 601.046875 C 727.269531 600.9375 727.964844 600.808594 728.664062 600.78125 L 728.675781 600.78125 C 729.375 600.890625 730.074219 601.035156 730.769531 601.191406 C 741.726562 603.78125 756.789062 611.886719 765.167969 623.507812 C 770.585938 631.011719 772.535156 639.464844 772.316406 645.789062 " fill-opacity="1" fill-rule="nonzero"/><path fill="#349187" d="M 767.527344 592.269531 C 759.917969 597.820312 756.980469 606.78125 760.976562 612.285156 C 765 617.789062 774.414062 617.738281 782.035156 612.1875 C 789.667969 606.636719 792.59375 597.675781 788.582031 592.171875 C 784.574219 586.667969 775.160156 586.714844 767.527344 592.269531 " fill-opacity="1" fill-rule="nonzero"/><path fill="#349187" d="M 722.222656 575.011719 C 723.28125 584.378906 718.660156 592.605469 711.894531 593.363281 C 705.140625 594.136719 698.796875 587.148438 697.746094 577.78125 C 696.6875 568.410156 701.3125 560.1875 708.066406 559.425781 C 714.820312 558.65625 721.164062 565.640625 722.222656 575.011719 " fill-opacity="1" fill-rule="nonzero"/><path fill="#349187" d="M 733.082031 575.394531 C 731.359375 584.667969 735.382812 593.195312 742.0625 594.449219 C 748.757812 595.675781 755.570312 589.171875 757.304688 579.898438 C 759.027344 570.628906 754.992188 562.101562 748.324219 560.859375 C 741.628906 559.609375 734.804688 566.121094 733.082031 575.394531 " fill-opacity="1" fill-rule="nonzero"/><path fill="#349187" d="M 690.703125 590.066406 C 697.652344 596.433594 699.554688 605.671875 694.941406 610.683594 C 690.34375 615.703125 680.988281 614.597656 674.042969 608.214844 C 667.082031 601.832031 665.195312 592.59375 669.792969 587.582031 C 674.390625 582.574219 683.757812 583.683594 690.703125 590.066406 " fill-opacity="1" fill-rule="nonzero"/><path fill="#349187" d="M 1175.484375 420.183594 C 1167.769531 431.324219 1168.648438 437.117188 1173.800781 441.34375 C 1180.230469 446.621094 1193.316406 449.5 1204.777344 457.300781 L 1205.1875 457.578125 C 1214.734375 464.203125 1223.101562 474.667969 1230.589844 480.726562 C 1236.367188 484.074219 1242.097656 482.871094 1249.816406 471.730469 C 1253.414062 466.527344 1256.339844 458.351562 1255.835938 449.125 C 1255.054688 434.804688 1246.757812 419.847656 1238.921875 411.742188 C 1238.414062 411.238281 1237.945312 410.707031 1237.378906 410.273438 L 1237.378906 410.261719 C 1236.753906 409.9375 1236.105469 409.636719 1235.464844 409.347656 C 1225.136719 404.855469 1208.222656 402.324219 1194.554688 406.625 C 1185.71875 409.382812 1179.097656 414.984375 1175.484375 420.183594 " fill-opacity="1" fill-rule="nonzero"/><path fill="#349187" d="M 1211.351562 380.179688 C 1214.132812 389.1875 1211.132812 398.121094 1204.621094 400.132812 C 1198.121094 402.144531 1190.59375 396.460938 1187.800781 387.453125 C 1185.019531 378.433594 1188.042969 369.496094 1194.542969 367.496094 C 1201.035156 365.484375 1208.570312 371.15625 1211.351562 380.179688 " fill-opacity="1" fill-rule="nonzero"/><path fill="#349187" d="M 1257.964844 393.484375 C 1251.515625 400.351562 1250.296875 409.707031 1255.246094 414.367188 C 1260.21875 419.027344 1269.476562 417.234375 1275.917969 410.359375 C 1282.394531 403.480469 1283.597656 394.136719 1278.636719 389.476562 C 1273.691406 384.816406 1264.433594 386.609375 1257.964844 393.484375 " fill-opacity="1" fill-rule="nonzero"/><path fill="#349187" d="M 1249.046875 387.296875 C 1244.878906 395.75 1236.550781 400.167969 1230.445312 397.160156 C 1224.351562 394.160156 1222.777344 384.851562 1226.953125 376.398438 C 1231.121094 367.929688 1239.449219 363.511719 1245.554688 366.523438 C 1251.644531 369.53125 1253.210938 378.828125 1249.046875 387.296875 " fill-opacity="1" fill-rule="nonzero"/><path fill="#349187" d="M 1274.21875 424.414062 C 1264.828125 425.363281 1257.785156 431.625 1258.460938 438.394531 C 1259.160156 445.164062 1267.320312 449.882812 1276.699219 448.933594 C 1286.078125 447.980469 1293.132812 441.71875 1292.445312 434.949219 C 1291.761719 428.183594 1283.597656 423.460938 1274.21875 424.414062 " fill-opacity="1" fill-rule="nonzero"/><path fill="#349187" d="M 1064.785156 593.59375 C 1065.269531 607.140625 1069.421875 611.25 1076.089844 611.550781 C 1084.398438 611.921875 1096.59375 606.394531 1110.449219 605.78125 L 1110.957031 605.757812 C 1122.5625 605.347656 1135.515625 608.71875 1145.148438 609.09375 C 1151.769531 608.308594 1155.632812 603.925781 1155.164062 590.378906 C 1154.933594 584.042969 1152.371094 575.746094 1146.449219 568.652344 C 1137.25 557.65625 1121.671875 550.648438 1110.535156 548.839844 C 1109.835938 548.734375 1109.125 548.601562 1108.429688 548.589844 C 1107.71875 548.695312 1107.019531 548.828125 1106.332031 548.996094 C 1095.367188 551.585938 1080.316406 559.679688 1071.925781 571.3125 C 1066.496094 578.804688 1064.546875 587.269531 1064.785156 593.59375 " fill-opacity="1" fill-rule="nonzero"/><path fill="#349187" d="M 1069.554688 540.0625 C 1077.175781 545.613281 1080.101562 554.585938 1076.101562 560.078125 C 1072.105469 565.582031 1062.679688 565.53125 1055.058594 559.992188 C 1047.425781 554.429688 1044.488281 545.46875 1048.496094 539.964844 C 1052.507812 534.460938 1061.945312 534.511719 1069.554688 540.0625 " fill-opacity="1" fill-rule="nonzero"/><path fill="#349187" d="M 1114.867188 522.804688 C 1113.808594 532.1875 1118.433594 540.398438 1125.1875 541.15625 C 1131.953125 541.929688 1138.285156 534.957031 1139.355469 525.574219 C 1140.417969 516.203125 1135.792969 507.992188 1129.027344 507.21875 C 1122.273438 506.449219 1115.917969 513.433594 1114.867188 522.804688 " fill-opacity="1" fill-rule="nonzero"/><path fill="#349187" d="M 1104.023438 523.191406 C 1105.742188 532.460938 1101.710938 541 1095.027344 542.242188 C 1088.335938 543.480469 1081.507812 536.964844 1079.800781 527.695312 C 1078.054688 518.421875 1082.097656 509.894531 1088.78125 508.652344 C 1095.472656 507.414062 1102.289062 513.917969 1104.023438 523.191406 " fill-opacity="1" fill-rule="nonzero"/><path fill="#349187" d="M 1146.386719 537.859375 C 1139.429688 544.242188 1137.550781 553.476562 1142.136719 558.488281 C 1146.738281 563.496094 1156.101562 562.390625 1163.050781 556.007812 C 1169.996094 549.636719 1171.898438 540.398438 1167.289062 535.378906 C 1162.699219 530.367188 1153.335938 531.476562 1146.386719 537.859375 " fill-opacity="1" fill-rule="nonzero"/><path fill="#5bb7ad" d="M 1027.210938 511.050781 C 1037.011719 498.453125 1040.925781 485.941406 1037.421875 470.117188 C 1034.339844 456.207031 1027.523438 443.296875 1025.128906 429.179688 C 1023.828125 421.59375 1024.636719 413.308594 1027.980469 406.277344 C 1043.332031 374.191406 1111.003906 355.792969 1142.511719 354.429688 C 1143.546875 354.382812 1144.570312 354.359375 1145.582031 354.359375 C 1166.035156 354.359375 1181.625 363.546875 1168.902344 383.40625 C 1156.621094 402.519531 1128.003906 407.625 1108.910156 416.632812 C 1093.03125 424.097656 1084.433594 437.492188 1078.414062 453.386719 C 1072.984375 467.730469 1069.191406 484.363281 1057.441406 495.175781 C 1048.964844 502.980469 1037.035156 505.472656 1027.210938 511.050781 " fill-opacity="1" fill-rule="nonzero"/><path fill="#fce3a2" d="M 709.339844 463.902344 C 699.53125 463.902344 689.886719 462.878906 680.554688 460.492188 C 640.199219 450.195312 606.070312 433.289062 570.890625 410.925781 C 549.847656 397.554688 536.144531 377.578125 522.722656 357.128906 C 517.808594 349.660156 482.65625 308.773438 484.4375 303.546875 C 486.292969 298.105469 493.25 296.070312 502.542969 296.070312 C 525.839844 296.070312 563.765625 308.859375 572.40625 312.582031 C 591.515625 320.792969 605.347656 334.234375 620.503906 346.710938 C 639.382812 362.269531 660.246094 369.136719 684.167969 375.230469 C 691.355469 377.058594 698.398438 377.84375 705.332031 377.84375 C 725.894531 377.84375 745.519531 370.953125 765.203125 364.066406 C 784.898438 357.175781 804.65625 350.289062 825.507812 350.289062 C 826.976562 350.289062 828.457031 350.324219 829.9375 350.394531 C 863.613281 352.007812 928.910156 362.03125 922.628906 410.417969 C 920.109375 429.855469 905.398438 433.671875 887.339844 433.671875 C 881.488281 433.671875 875.277344 433.277344 869.027344 432.867188 C 862.769531 432.46875 856.472656 432.070312 850.417969 432.070312 C 842.917969 432.070312 835.789062 432.6875 829.636719 434.683594 C 792.90625 446.597656 749.660156 463.902344 709.339844 463.902344 " fill-opacity="1" fill-rule="nonzero"/></svg>