<svg xmlns="http://www.w3.org/2000/svg" xmlns:xlink="http://www.w3.org/1999/xlink" width="1920" zoomAndPan="magnify" viewBox="0 0 1440 809.999993" height="1080" preserveAspectRatio="xMidYMid meet" version="1.0"><defs><clipPath id="150e7ed1e7"><path d="M 184.085938 169 L 1315.242188 169 L 1315.242188 728.769531 L 184.085938 728.769531 Z M 184.085938 169 " clip-rule="nonzero"/></clipPath><clipPath id="c7d28ec725"><path d="M 184 115.335938 L 1316 115.335938 L 1316 580 L 184 580 Z M 184 115.335938 " clip-rule="nonzero"/></clipPath></defs><path fill="#fdac49" d="M 191.996094 302.957031 C 187.789062 368.21875 232.832031 541.132812 248.128906 595.375 C 263.425781 649.621094 530.105469 725.90625 741.808594 725.90625 C 953.511719 725.90625 1218.882812 647.660156 1236.519531 605.542969 C 1258.179688 553.84375 1300.261719 393.648438 1307.050781 319.910156 C 1307.050781 319.910156 945.917969 250.410156 729.152344 250.410156 C 559.601562 250.410156 191.996094 302.957031 191.996094 302.957031 " fill-opacity="1" fill-rule="nonzero"/><g clip-path="url(#150e7ed1e7)"><path stroke-linecap="butt" transform="matrix(0.226231, 0, 0, -0.226133, 184.084934, 728.769895)" fill="none" stroke-linejoin="miter" d="M 34.969314 1883.015913 C 16.37318 1594.417645 215.474417 829.762655 283.090447 589.894603 C 350.706477 350.009277 1529.497687 12.66352 2465.278681 12.66352 C 3401.059675 12.66352 4574.066572 358.680872 4652.0253 544.93014 C 4747.768632 773.552758 4933.781781 1481.963301 4963.791143 1808.04635 C 4963.791143 1808.04635 3367.493392 2115.387008 2409.334877 2115.387008 C 1659.877831 2115.387008 34.969314 1883.015913 34.969314 1883.015913 Z M 34.969314 1883.015913 " stroke="#fdac49" stroke-width="25.330999" stroke-opacity="1" stroke-miterlimit="10"/></g><path fill="#fdac49" d="M 385.519531 380.160156 C 395.152344 347.539062 474.863281 291.941406 741.808594 291.941406 C 1008.761719 291.941406 1114.136719 353.414062 1142.597656 383.234375 L 1190.628906 402.96875 C 1190.628906 402.96875 1281.140625 344.492188 1281.140625 298.71875 C 1281.140625 252.953125 1028.734375 149.964844 758.472656 151.238281 C 488.214844 152.507812 247.855469 191.171875 239.625 284.734375 C 231.40625 378.296875 385.519531 380.160156 385.519531 380.160156 " fill-opacity="1" fill-rule="nonzero"/><path fill="#1d1d1b" d="M 388.675781 384.410156 C 387.859375 384.929688 386.757812 385.328125 385.703125 385.410156 C 384.28125 385.460938 385.09375 385.417969 384.679688 385.425781 L 383.945312 385.410156 L 382.480469 385.355469 L 379.5625 385.222656 C 377.628906 385.117188 375.691406 385 373.765625 384.851562 C 369.914062 384.585938 366.078125 384.207031 362.242188 383.792969 C 354.570312 382.945312 346.925781 381.820312 339.335938 380.410156 C 324.144531 377.589844 309.085938 373.570312 294.574219 367.699219 C 287.347656 364.683594 280.25 361.257812 273.480469 357.105469 C 266.757812 352.882812 260.367188 347.988281 254.667969 342.257812 C 248.96875 336.507812 244.230469 329.6875 240.695312 322.292969 C 239.890625 320.402344 238.910156 318.585938 238.285156 316.632812 L 236.4375 310.757812 C 235.878906 308.789062 235.613281 306.757812 235.191406 304.75 C 235.011719 303.753906 234.792969 302.746094 234.640625 301.738281 L 234.414062 298.699219 C 234.296875 296.675781 234.050781 294.636719 234.050781 292.621094 L 234.261719 286.582031 C 234.34375 282.5625 235.109375 278.367188 236.066406 274.375 C 238.203125 266.371094 241.835938 258.816406 246.582031 252.238281 C 256.082031 239.011719 268.78125 229.09375 282.027344 220.929688 C 295.355469 212.804688 309.429688 206.269531 323.773438 200.703125 C 338.125 195.09375 352.761719 190.4375 367.5 186.3125 C 397.007812 178.097656 426.992188 172.101562 457.082031 167.179688 C 487.191406 162.324219 517.449219 158.628906 547.753906 155.714844 C 608.375 149.929688 669.210938 147.136719 730.019531 146.238281 C 745.226562 146.023438 760.417969 145.867188 775.699219 146.023438 C 790.941406 146.203125 806.1875 146.6875 821.421875 147.480469 C 851.875 149.097656 882.257812 151.917969 912.488281 155.828125 C 972.945312 163.71875 1032.84375 175.898438 1091.46875 192.753906 C 1120.761719 201.207031 1149.75 210.863281 1178.125 222.238281 C 1192.308594 227.9375 1206.34375 234.074219 1220.082031 240.921875 C 1233.808594 247.792969 1247.328125 255.222656 1260.035156 264.355469 C 1266.347656 268.992188 1272.550781 273.90625 1277.976562 280.203125 C 1280.652344 283.382812 1283.214844 286.882812 1284.941406 291.316406 C 1285.851562 293.488281 1286.335938 296.058594 1286.441406 298.710938 L 1286.257812 301.949219 L 1286.152344 303.566406 L 1285.894531 305.140625 C 1284.558594 313.585938 1281.261719 321.207031 1277.285156 328.125 C 1273.265625 335.039062 1268.554688 341.375 1263.546875 347.34375 C 1253.46875 359.269531 1242.175781 369.84375 1230.433594 379.753906 C 1218.609375 389.628906 1206.449219 398.808594 1193.511719 407.402344 C 1192.035156 408.390625 1190.230469 408.515625 1188.703125 407.898438 L 1188.605469 407.855469 L 1140.601562 388.128906 L 1140.585938 388.121094 C 1140.082031 387.925781 1139.640625 387.652344 1139.257812 387.316406 L 1138.765625 386.875 C 1135.8125 384.277344 1133.152344 381.46875 1129.863281 379.128906 L 1125.136719 375.472656 C 1123.503906 374.3125 1121.789062 373.234375 1120.125 372.113281 L 1115.105469 368.765625 C 1113.375 367.722656 1111.597656 366.742188 1109.847656 365.71875 C 1106.3125 363.730469 1102.910156 361.566406 1099.199219 359.851562 L 1088.277344 354.402344 L 1077.019531 349.5625 L 1071.398438 347.140625 L 1065.636719 345.003906 L 1054.113281 340.753906 C 1023.191406 329.847656 991.015625 322.285156 958.554688 316.597656 L 946.386719 314.386719 L 921.875 310.90625 C 917.78125 310.359375 913.726562 309.628906 909.617188 309.210938 L 884.988281 306.519531 C 880.878906 306.09375 876.777344 305.546875 872.660156 305.238281 L 860.296875 304.308594 L 835.5625 302.453125 C 827.308594 302.003906 819.027344 301.722656 810.773438 301.351562 C 802.5 301.042969 794.238281 300.527344 785.964844 300.40625 L 761.125 300.105469 C 728.03125 299.566406 694.855469 300.050781 661.804688 301.554688 C 645.269531 302.242188 628.78125 303.433594 612.308594 304.769531 C 595.863281 306.289062 579.433594 307.976562 563.09375 310.203125 C 530.464844 314.671875 497.9375 320.710938 466.910156 330.925781 C 451.4375 335.996094 436.246094 342.027344 422.386719 350.039062 C 415.503906 354.078125 408.957031 358.609375 403.253906 363.847656 C 400.5 366.503906 397.777344 369.234375 395.648438 372.265625 C 395.074219 372.996094 394.535156 373.75 394.089844 374.535156 C 393.640625 375.3125 393.058594 376.0625 392.695312 376.859375 L 392.101562 378.050781 L 391.800781 378.640625 L 391.652344 378.941406 L 391.574219 379.09375 L 391.441406 379.429688 C 390.722656 381.195312 389.726562 382.953125 388.675781 384.410156 Z M 382.375 375.914062 C 382.019531 375.417969 381.710938 375.207031 381.691406 375.027344 L 381.683594 374.992188 L 381.78125 374.800781 L 381.957031 374.394531 L 383.070312 371.953125 C 383.546875 370.859375 384.203125 369.90625 384.769531 368.882812 C 385.324219 367.839844 385.953125 366.875 386.625 365.949219 C 389.179688 362.097656 392.234375 358.800781 395.355469 355.613281 C 401.746094 349.429688 408.832031 344.289062 416.175781 339.730469 C 430.914062 330.730469 446.664062 324.015625 462.648438 318.371094 C 494.71875 307.285156 527.832031 300.644531 561 295.574219 C 594.21875 290.609375 627.640625 287.863281 661.042969 286.121094 C 677.753906 285.21875 694.464844 284.71875 711.179688 284.371094 C 719.539062 284.132812 727.890625 284.179688 736.25 284.0625 C 740.421875 283.984375 744.601562 284.035156 748.78125 284.125 L 761.320312 284.335938 L 786.390625 284.761719 C 794.75 284.921875 803.101562 285.484375 811.460938 285.828125 C 819.820312 286.246094 828.171875 286.5625 836.523438 287.066406 L 861.558594 289.054688 L 874.074219 290.050781 C 878.253906 290.378906 882.40625 290.960938 886.570312 291.402344 L 911.542969 294.257812 C 919.851562 295.316406 928.128906 296.730469 936.417969 297.984375 L 948.835938 299.9375 L 961.199219 302.347656 C 994.152344 308.628906 1026.921875 316.695312 1058.574219 328.484375 L 1070.355469 333.140625 L 1076.242188 335.480469 L 1082.019531 338.125 L 1093.5625 343.40625 L 1104.828125 349.351562 C 1119.695312 357.582031 1134.125 366.910156 1146.445312 379.585938 L 1144.625 378.351562 L 1144.640625 378.359375 L 1192.644531 398.085938 L 1187.75 398.535156 C 1200.078125 390.347656 1212.164062 381.238281 1223.601562 371.671875 C 1235.019531 362.042969 1245.933594 351.796875 1255.421875 340.550781 C 1260.152344 334.933594 1264.507812 329.050781 1268.097656 322.859375 C 1271.667969 316.675781 1274.386719 310.121094 1275.414062 303.585938 L 1275.617188 302.355469 L 1275.6875 301.136719 L 1275.835938 298.71875 C 1275.730469 297.597656 1275.617188 296.386719 1275.035156 295.050781 C 1274.027344 292.417969 1272.117188 289.65625 1269.917969 287.066406 C 1265.445312 281.855469 1259.710938 277.226562 1253.816406 272.914062 C 1241.886719 264.328125 1228.734375 257.078125 1215.347656 250.371094 C 1201.933594 243.695312 1188.136719 237.652344 1174.164062 232.042969 C 1146.203125 220.835938 1117.527344 211.277344 1088.515625 202.910156 C 1030.464844 186.214844 971.050781 174.125 911.117188 166.316406 C 881.144531 162.429688 851.035156 159.636719 820.863281 158.039062 C 805.78125 157.25 790.675781 156.765625 775.574219 156.597656 C 760.488281 156.429688 745.324219 156.597656 730.175781 156.800781 C 669.589844 157.703125 609.027344 160.484375 548.769531 166.234375 C 518.652344 169.132812 488.613281 172.796875 458.789062 177.613281 C 428.980469 182.488281 399.339844 188.414062 370.355469 196.488281 C 355.878906 200.542969 341.554688 205.101562 327.636719 210.542969 C 313.707031 215.949219 300.160156 222.257812 287.578125 229.933594 C 275.074219 237.609375 263.460938 246.855469 255.234375 258.339844 C 251.105469 264.054688 248.117188 270.390625 246.332031 277.003906 C 245.554688 280.371094 244.894531 283.65625 244.839844 287.21875 L 244.644531 292.515625 C 244.636719 294.285156 244.875 296.015625 244.972656 297.773438 C 245.925781 311.800781 252.40625 324.785156 262.25 334.882812 C 267.242188 339.890625 272.941406 344.269531 279.066406 348.121094 C 285.234375 351.902344 291.828125 355.09375 298.597656 357.917969 C 312.222656 363.441406 326.636719 367.308594 341.28125 370.019531 C 348.597656 371.382812 355.984375 372.46875 363.410156 373.289062 C 367.113281 373.6875 370.824219 374.046875 374.542969 374.3125 C 376.398438 374.453125 378.253906 374.5625 380.109375 374.667969 L 382.886719 374.789062 L 384.253906 374.84375 L 384.9375 374.859375 C 384.769531 374.878906 385.820312 374.84375 384.625 374.898438 C 383.8125 374.976562 382.949219 375.382812 382.375 375.914062 " fill-opacity="1" fill-rule="nonzero"/><path fill="#ffffff" d="M 1070.789062 405.558594 C 1030.242188 415.664062 1002.609375 434.761719 983.433594 470.515625 C 968.558594 498.253906 954.128906 515.230469 911.039062 521.183594 C 858.386719 528.457031 680.882812 528.90625 603.648438 517.105469 C 561.300781 510.628906 535.390625 490.710938 520.738281 467.109375 C 503.210938 438.867188 482.691406 409.9375 444.871094 397.890625 C 384.953125 378.820312 268.9375 354.191406 276.609375 302.523438 C 288.664062 221.0625 443.472656 180.484375 741.796875 180.484375 C 938.945312 180.484375 1214.710938 233.183594 1223.769531 302.523438 C 1231.429688 361.011719 1122.160156 392.785156 1070.789062 405.558594 Z M 1308.304688 288.53125 C 1296.816406 174.132812 987.054688 123.261719 741.894531 123.261719 C 370.929688 123.261719 192.402344 187.621094 192.003906 302.949219 C 191.675781 390.265625 303.367188 415.6875 367.074219 426.695312 C 415.714844 435.113281 449.507812 474.175781 464.816406 496.214844 C 480.09375 518.242188 515.277344 550.335938 567.917969 558.382812 C 663.960938 573.074219 884.679688 575.582031 950.125 566.542969 C 1003.707031 559.175781 1021.53125 525.566406 1040.148438 500.445312 C 1060.597656 472.902344 1082.570312 448.753906 1132.800781 435.386719 C 1163.878906 427.121094 1319.757812 402.96875 1308.304688 288.53125 " fill-opacity="1" fill-rule="nonzero"/><g clip-path="url(#c7d28ec725)"><path fill="#1d1d1b" d="M 1314.613281 287.90625 C 1316.011719 301.941406 1315.199219 316.492188 1311.078125 330.289062 C 1307.058594 344.085938 1299.953125 356.910156 1290.914062 367.890625 C 1281.910156 378.960938 1270.933594 388.039062 1259.355469 395.804688 C 1247.726562 403.5625 1235.382812 409.992188 1222.707031 415.433594 C 1197.347656 426.296875 1170.710938 433.503906 1144.347656 439.484375 C 1131.394531 442.3125 1118.96875 446.21875 1107.179688 451.527344 C 1101.242188 454.078125 1095.65625 457.257812 1090.1875 460.5625 C 1084.796875 464.015625 1079.652344 467.8125 1074.78125 471.964844 C 1069.964844 476.1875 1065.40625 480.730469 1061.085938 485.542969 C 1056.773438 490.382812 1052.699219 495.515625 1048.714844 500.78125 C 1040.75 511.175781 1033.523438 522.714844 1024.375 533.492188 C 1015.34375 544.222656 1004.351562 554.144531 991.5 560.925781 C 978.757812 567.851562 964.671875 572.003906 950.664062 573.851562 C 943.808594 574.601562 936.914062 575.527344 930.128906 575.941406 L 919.921875 576.71875 L 909.738281 577.277344 L 899.558594 577.816406 L 889.398438 578.1875 C 882.628906 578.425781 875.839844 578.691406 869.082031 578.796875 C 842.003906 579.484375 814.953125 579.53125 787.902344 579.292969 C 733.808594 578.761719 679.742188 577.003906 625.660156 572.675781 C 618.898438 572.066406 612.148438 571.589844 605.378906 570.882812 L 585.089844 568.691406 C 578.292969 567.738281 571.59375 566.96875 564.710938 565.847656 C 557.738281 564.664062 550.820312 563.117188 544.03125 561.058594 C 530.464844 556.988281 517.441406 551.164062 505.324219 543.878906 C 499.332031 540.125 493.4375 536.191406 487.949219 531.722656 C 482.382812 527.359375 477.132812 522.589844 472.210938 517.484375 C 467.28125 512.378906 462.632812 506.964844 458.496094 501.011719 C 454.757812 495.65625 450.816406 490.550781 446.628906 485.597656 C 438.277344 475.683594 428.9375 466.65625 418.773438 458.832031 C 408.644531 450.960938 397.476562 444.617188 385.722656 440.105469 C 384.238281 439.574219 382.796875 438.921875 381.285156 438.46875 L 376.769531 437.117188 C 373.792969 436.09375 370.683594 435.632812 367.632812 434.917969 C 366.15625 434.574219 364.476562 434.273438 362.789062 433.992188 L 357.769531 433.089844 L 347.722656 431.191406 C 334.335938 428.550781 320.964844 425.546875 307.726562 421.800781 C 294.488281 418.101562 281.363281 413.710938 268.558594 408.277344 C 255.738281 402.914062 243.285156 396.316406 231.601562 388.269531 C 225.832031 384.117188 220.203125 379.703125 215.023438 374.675781 C 209.914062 369.605469 204.976562 364.242188 200.910156 358.140625 C 196.792969 352.117188 193.167969 345.648438 190.589844 338.75 C 189.113281 335.367188 188.230469 331.78125 187.152344 328.273438 C 186.699219 326.488281 186.375 324.6875 185.984375 322.894531 L 185.4375 320.199219 C 185.269531 319.300781 185.199219 318.378906 185.074219 317.480469 L 184.429688 312.039062 C 184.28125 310.226562 184.261719 308.40625 184.183594 306.589844 C 183.917969 302.949219 184.261719 299.363281 184.421875 295.75 C 184.5625 293.949219 184.507812 292.144531 184.828125 290.351562 L 185.648438 284.980469 C 185.957031 283.199219 186.144531 281.386719 186.566406 279.621094 L 187.945312 274.347656 C 191.703125 260.308594 198.464844 247.167969 207.125 235.734375 C 215.792969 224.296875 226.148438 214.34375 237.433594 206.011719 C 248.703125 197.664062 260.5625 190.210938 272.976562 184.085938 L 277.589844 181.695312 C 279.136719 180.925781 280.726562 180.246094 282.292969 179.519531 L 291.703125 175.21875 C 294.859375 173.824219 298.074219 172.613281 301.257812 171.304688 C 304.464844 170.058594 307.609375 168.648438 310.863281 167.542969 C 336.625 158.019531 363.027344 150.8125 389.628906 144.921875 C 442.863281 133.164062 496.859375 126.714844 550.855469 122.238281 C 604.882812 118.023438 659.003906 115.957031 713.09375 115.496094 C 726.625 115.453125 740.128906 115.277344 753.683594 115.375 C 767.230469 115.46875 780.78125 115.707031 794.316406 116.097656 C 821.394531 116.867188 848.445312 118.324219 875.460938 120.285156 C 902.484375 122.253906 929.457031 124.824219 956.363281 128.023438 C 983.265625 131.300781 1010.09375 135.175781 1036.808594 139.894531 C 1063.515625 144.628906 1090.105469 150.140625 1116.460938 156.808594 C 1142.792969 163.488281 1168.917969 171.296875 1194.429688 181.09375 C 1219.871094 190.949219 1244.996094 202.503906 1267.664062 218.777344 C 1273.335938 222.804688 1278.761719 227.273438 1283.921875 232.070312 C 1289.09375 236.847656 1293.945312 242.097656 1298.222656 247.855469 C 1302.507812 253.605469 1306.265625 259.867188 1309.117188 266.609375 C 1311.972656 273.339844 1313.871094 280.566406 1314.613281 287.90625 Z M 1301.988281 289.167969 C 1300.765625 277.039062 1295.542969 265.523438 1287.972656 255.515625 C 1284.207031 250.480469 1279.867188 245.789062 1275.140625 241.441406 C 1270.421875 237.085938 1265.410156 232.980469 1260.089844 229.226562 C 1238.84375 214.078125 1214.558594 202.824219 1189.71875 193.425781 C 1164.789062 184.078125 1139.082031 176.605469 1113.101562 170.226562 C 1087.09375 163.867188 1060.785156 158.640625 1034.335938 154.179688 C 1007.886719 149.734375 981.277344 146.121094 954.597656 143.09375 C 927.910156 140.0625 901.160156 137.625 874.355469 135.785156 C 820.730469 132.128906 767.054688 130.65625 713.246094 131.34375 C 659.445312 131.8125 605.679688 133.859375 552.125 138.03125 C 498.636719 142.472656 445.230469 148.867188 393.066406 160.40625 C 367.015625 166.171875 341.261719 173.214844 316.429688 182.390625 C 313.285156 183.453125 310.28125 184.8125 307.203125 186.011719 C 304.15625 187.269531 301.054688 188.425781 298.039062 189.757812 L 289.0625 193.855469 C 287.566406 194.554688 286.058594 195.199219 284.589844 195.933594 L 280.222656 198.195312 C 268.445312 203.988281 257.40625 210.976562 247.039062 218.644531 C 236.648438 226.292969 227.40625 235.257812 219.824219 245.285156 C 212.238281 255.292969 206.503906 266.511719 203.296875 278.464844 L 202.105469 282.949219 C 201.742188 284.453125 201.609375 286.015625 201.335938 287.535156 L 200.621094 292.136719 C 200.335938 293.65625 200.40625 295.238281 200.285156 296.792969 C 200.152344 299.902344 199.824219 303.019531 200.070312 306.101562 C 200.140625 307.640625 200.140625 309.203125 200.265625 310.730469 L 200.824219 315.308594 C 200.917969 316.066406 200.972656 316.835938 201.113281 317.59375 L 201.582031 319.839844 C 201.910156 321.332031 202.175781 322.839844 202.546875 324.316406 C 203.472656 327.222656 204.164062 330.207031 205.410156 333 C 207.519531 338.714844 210.542969 344.078125 214.007812 349.148438 C 217.402344 354.28125 221.660156 358.871094 226.078125 363.28125 C 230.570312 367.652344 235.570312 371.566406 240.730469 375.292969 C 251.257812 382.527344 262.726562 388.660156 274.78125 393.683594 C 286.800781 398.789062 299.304688 402.988281 312.03125 406.539062 C 324.753906 410.140625 337.71875 413.054688 350.789062 415.644531 L 360.625 417.492188 L 365.554688 418.375 C 367.191406 418.65625 368.835938 418.949219 370.644531 419.355469 C 374.164062 420.160156 377.742188 420.734375 381.164062 421.882812 L 386.332031 423.4375 C 388.054688 423.957031 389.699219 424.679688 391.386719 425.300781 C 404.792969 430.441406 417.304688 437.605469 428.449219 446.261719 C 439.648438 454.875 449.765625 464.6875 458.769531 475.367188 C 463.277344 480.695312 467.574219 486.265625 471.539062 491.957031 C 475.085938 497.0625 479.238281 501.910156 483.664062 506.476562 C 488.074219 511.0625 492.820312 515.382812 497.855469 519.332031 C 502.824219 523.375 508.171875 526.925781 513.585938 530.335938 C 524.570312 536.933594 536.34375 542.199219 548.609375 545.875 C 554.734375 547.738281 561 549.132812 567.316406 550.210938 C 573.734375 551.253906 580.449219 552.023438 587.007812 552.949219 L 606.945312 555.105469 C 613.589844 555.804688 620.289062 556.269531 626.96875 556.871094 C 653.699219 558.992188 680.539062 560.546875 707.414062 561.625 C 734.285156 562.730469 761.179688 563.558594 788.078125 563.886719 C 814.980469 564.246094 841.898438 564.335938 868.753906 563.78125 C 875.46875 563.710938 882.175781 563.46875 888.875 563.265625 L 898.933594 562.949219 L 908.960938 562.472656 L 918.992188 561.96875 L 928.953125 561.253906 C 935.640625 560.882812 942.121094 560.027344 948.675781 559.34375 C 961.402344 557.738281 973.625 554.117188 984.609375 548.222656 C 987.425781 546.871094 989.972656 545.0625 992.625 543.429688 C 993.921875 542.570312 995.132812 541.582031 996.398438 540.664062 L 998.28125 539.265625 C 998.890625 538.78125 999.472656 538.242188 1000.066406 537.738281 C 1004.925781 533.78125 1009.273438 529.125 1013.472656 524.277344 C 1021.847656 514.550781 1029.042969 503.246094 1037.488281 492.292969 C 1041.660156 486.851562 1045.992188 481.453125 1050.675781 476.257812 C 1055.375 471.082031 1060.394531 466.128906 1065.75 461.5 C 1071.152344 456.933594 1076.894531 452.753906 1082.878906 448.964844 C 1088.949219 445.332031 1095.144531 441.878906 1101.613281 439.132812 C 1114.433594 433.433594 1127.929688 429.328125 1141.335938 426.484375 C 1154.496094 423.53125 1167.414062 420.441406 1180.175781 416.730469 C 1192.910156 412.96875 1205.433594 408.632812 1217.554688 403.480469 C 1229.664062 398.3125 1241.328125 392.246094 1252.152344 385.074219 C 1262.933594 377.875 1272.957031 369.578125 1280.988281 359.730469 C 1289.066406 349.941406 1295.261719 338.769531 1298.8125 326.726562 C 1302.4375 314.699219 1303.214844 301.871094 1301.988281 289.167969 " fill-opacity="1" fill-rule="nonzero"/></g><path fill="#1d1d1b" d="M 1069.25 399.417969 C 1090.734375 394.046875 1111.96875 387.890625 1132.542969 380.214844 C 1142.828125 376.378906 1152.9375 372.148438 1162.675781 367.316406 C 1172.390625 362.476562 1181.84375 357.140625 1190.328125 350.789062 C 1198.847656 344.511719 1206.464844 337.167969 1211.582031 328.707031 C 1214.144531 324.484375 1215.832031 319.960938 1216.769531 315.34375 C 1216.929688 314.183594 1217.253906 313.035156 1217.300781 311.863281 L 1217.46875 308.335938 C 1217.46875 307.152344 1217.300781 305.96875 1217.238281 304.796875 C 1217.21875 303.558594 1216.964844 302.535156 1216.769531 301.5 C 1215.902344 297.3125 1213.527344 293.214844 1210.546875 289.398438 C 1207.535156 285.574219 1203.796875 282.058594 1199.75 278.808594 C 1195.710938 275.546875 1191.300781 272.578125 1186.730469 269.816406 C 1182.179688 267.03125 1177.4375 264.453125 1172.582031 262.050781 C 1162.890625 257.191406 1152.816406 252.933594 1142.546875 249.066406 C 1132.296875 245.179688 1121.859375 241.65625 1111.324219 238.402344 C 1090.25 231.902344 1068.792969 226.445312 1047.175781 221.621094 C 1003.933594 212 960.050781 204.917969 915.996094 199.5625 C 893.957031 196.90625 871.863281 194.714844 849.746094 192.984375 C 827.625 191.261719 805.46875 189.890625 783.308594 189.148438 C 772.234375 188.769531 761.152344 188.523438 750.078125 188.441406 C 739.023438 188.34375 727.84375 188.496094 716.738281 188.511719 C 694.492188 188.742188 672.25 189.085938 650.042969 189.863281 C 605.609375 191.332031 561.21875 193.988281 517.167969 198.882812 C 495.144531 201.339844 473.191406 204.308594 451.472656 208.253906 C 429.757812 212.195312 408.203125 216.949219 387.277344 223.34375 C 366.414062 229.78125 345.867188 237.519531 327.671875 248.5625 C 318.613281 254.09375 310.121094 260.390625 303.035156 267.773438 C 295.945312 275.140625 290.371094 283.640625 287.195312 292.933594 L 286.039062 296.4375 C 285.640625 297.597656 285.519531 298.832031 285.234375 300.035156 L 284.484375 303.636719 L 284.246094 306.808594 C 284.175781 310.988281 285.207031 315.058594 287.269531 318.980469 C 291.359375 326.878906 299.339844 333.6875 307.980469 339.378906 C 316.679688 345.15625 326.433594 349.863281 336.359375 354.199219 C 346.316406 358.5 356.605469 362.316406 367.023438 365.851562 C 387.878906 372.9375 409.230469 378.941406 430.703125 385.285156 C 436.078125 386.867188 441.457031 388.5 446.847656 390.203125 C 449.625 391.167969 452.496094 392.148438 455.269531 393.226562 C 458 394.460938 460.828125 395.496094 463.464844 396.917969 C 474.183594 402.296875 484.105469 409.277344 492.597656 417.492188 C 501.171875 425.644531 508.578125 434.734375 515.160156 444.132812 C 518.492188 448.8125 521.585938 453.59375 524.625 458.363281 C 527.726562 463.34375 530.308594 467.398438 533.523438 471.480469 C 539.886719 479.507812 547.636719 486.382812 556.296875 491.972656 C 565.046875 497.449219 574.597656 501.777344 584.691406 504.765625 C 589.746094 506.222656 594.871094 507.511719 600.113281 508.429688 C 605.246094 509.445312 610.824219 510.011719 616.203125 510.769531 C 627.09375 512.105469 638.085938 513.164062 649.125 513.976562 C 671.191406 515.628906 693.363281 516.867188 715.578125 517.539062 C 737.777344 518.242188 760.011719 518.710938 782.246094 518.746094 C 804.472656 518.84375 826.714844 518.746094 848.90625 518.101562 C 859.996094 517.765625 871.078125 517.351562 882.113281 516.707031 C 887.636719 516.441406 893.089844 515.921875 898.585938 515.539062 C 903.976562 514.929688 909.457031 514.515625 914.699219 513.589844 C 919.992188 512.792969 925.132812 511.59375 930.179688 510.207031 C 935.121094 508.617188 940.042969 506.964844 944.46875 504.535156 C 948.933594 502.175781 953.128906 499.429688 956.867188 496.074219 C 960.597656 492.714844 963.964844 488.882812 967.050781 484.703125 C 970.152344 480.535156 972.890625 475.933594 975.558594 471.25 L 977.519531 467.691406 L 979.660156 463.917969 C 981.046875 461.375 982.601562 458.917969 984.191406 456.472656 C 987.320312 451.5625 990.890625 446.898438 994.628906 442.382812 C 998.527344 437.992188 1002.558594 433.683594 1007.054688 429.867188 C 1011.4375 425.925781 1016.253906 422.507812 1021.125 419.230469 C 1026.117188 416.148438 1031.207031 413.214844 1036.519531 410.796875 C 1047.085938 405.839844 1058.117188 402.183594 1069.25 399.417969 Z M 1072.316406 411.695312 C 1061.828125 414.347656 1051.601562 417.792969 1042.007812 422.339844 C 1037.164062 424.558594 1032.601562 427.234375 1028.121094 430.007812 C 1023.765625 432.96875 1019.472656 436.015625 1015.589844 439.554688 C 1011.589844 442.957031 1008.019531 446.835938 1004.535156 450.773438 C 1001.195312 454.847656 997.988281 459.042969 995.160156 463.539062 C 993.71875 465.765625 992.304688 468.019531 991.035156 470.359375 L 989.0625 473.867188 L 987.003906 477.609375 C 984.175781 482.601562 981.269531 487.617188 977.777344 492.433594 C 974.304688 497.246094 970.34375 501.867188 965.828125 506 C 961.304688 510.144531 956.152344 513.597656 950.796875 516.484375 C 945.441406 519.464844 939.769531 521.441406 934.121094 523.304688 C 928.441406 524.941406 922.714844 526.316406 916.988281 527.234375 C 911.242188 528.296875 905.59375 528.773438 899.90625 529.472656 C 894.285156 529.921875 888.628906 530.503906 883.023438 530.832031 C 871.792969 531.609375 860.585938 532.128906 849.390625 532.589844 C 804.59375 534.242188 759.863281 534.320312 715.09375 533.074219 C 692.707031 532.492188 670.316406 531.441406 647.894531 529.78125 C 636.6875 528.949219 625.476562 527.882812 614.226562 526.503906 C 608.570312 525.699219 603.039062 525.152344 597.222656 524.011719 C 591.46875 523.003906 585.761719 521.582031 580.113281 519.941406 C 568.820312 516.601562 557.863281 511.691406 547.714844 505.320312 C 542.722656 502.015625 537.863281 498.484375 533.410156 494.429688 C 528.972656 490.382812 524.765625 486.046875 521.054688 481.3125 C 517.351562 476.65625 513.957031 471.292969 511.183594 466.824219 C 508.242188 462.214844 505.28125 457.636719 502.160156 453.257812 C 495.964844 444.414062 489.214844 436.183594 481.640625 428.972656 C 474.121094 421.6875 465.585938 415.742188 456.382812 411.113281 C 454.121094 409.875 451.683594 409.011719 449.339844 407.933594 C 446.929688 407.003906 444.515625 406.175781 442.03125 405.308594 C 436.785156 403.65625 431.5 402.050781 426.179688 400.476562 C 404.882812 394.199219 383.273438 388.121094 361.890625 380.851562 C 351.195312 377.230469 340.546875 373.289062 330.046875 368.75 C 319.558594 364.15625 309.128906 359.164062 299.234375 352.617188 C 294.25 349.449219 289.476562 345.675781 284.953125 341.480469 C 280.425781 337.300781 276.320312 332.222656 273.171875 326.3125 C 270.035156 320.414062 268.179688 313.40625 268.347656 306.457031 C 268.460938 304.742188 268.585938 303.003906 268.753906 301.304688 L 269.683594 296.738281 C 270.035156 295.230469 270.238281 293.683594 270.722656 292.207031 L 272.164062 287.773438 C 276.1875 275.988281 283.195312 265.488281 291.527344 256.839844 C 299.878906 248.136719 309.457031 241.097656 319.410156 235.019531 C 339.390625 222.917969 360.960938 214.890625 382.648438 208.175781 C 404.386719 201.542969 426.472656 196.683594 448.632812 192.65625 C 470.808594 188.628906 493.09375 185.617188 515.398438 183.125 C 560.027344 178.167969 604.777344 175.492188 649.511719 174.027344 C 671.878906 173.242188 694.246094 172.886719 716.613281 172.65625 C 727.808594 172.648438 738.933594 172.488281 750.195312 172.585938 C 761.417969 172.675781 772.640625 172.921875 783.855469 173.300781 C 828.710938 174.8125 873.417969 178.644531 917.898438 184.273438 C 962.367188 189.933594 1006.628906 197.347656 1050.417969 207.347656 C 1072.308594 212.363281 1094.082031 218.035156 1115.59375 224.808594 C 1137.078125 231.644531 1158.390625 239.347656 1178.839844 249.726562 C 1183.949219 252.308594 1188.996094 255.089844 1193.925781 258.15625 C 1198.867188 261.195312 1203.707031 264.488281 1208.3125 268.25 C 1212.917969 272.003906 1217.34375 276.183594 1221.195312 281.128906 C 1224.988281 286.078125 1228.410156 291.84375 1229.824219 298.601562 C 1232.542969 311.5625 1229.320312 324.820312 1222.867188 335.4375 C 1216.355469 346.039062 1207.492188 354.324219 1198.113281 361.222656 C 1188.71875 368.210938 1178.65625 373.835938 1168.414062 378.898438 C 1158.160156 383.949219 1147.664062 388.304688 1137.039062 392.226562 C 1115.8125 400.089844 1094.117188 406.300781 1072.316406 411.695312 " fill-opacity="1" fill-rule="nonzero"/><path fill="#ffffff" d="M 1156.84375 543.570312 C 1175.023438 543.339844 1187.757812 556.28125 1184.574219 569.945312 C 1180.492188 587.460938 1157.730469 607.335938 1126.570312 609.679688 C 1101.222656 611.585938 1098.980469 592.71875 1104.226562 580.414062 C 1109.363281 568.363281 1131.984375 543.886719 1156.84375 543.570312 " fill-opacity="1" fill-rule="nonzero"/><path stroke-linecap="round" transform="matrix(0.226232, 0, 0, -0.226133, 184.084934, 728.769895)" fill="none" stroke-linejoin="round" d="M 4299.838058 818.983674 C 4380.196838 820.002845 4436.485971 762.773772 4422.413688 702.348992 C 4404.370086 624.891955 4303.757577 537.001366 4166.021868 526.636909 C 4053.978867 518.207152 4044.067835 601.641025 4067.274153 656.05442 C 4089.962472 709.345 4189.953382 817.584472 4299.838058 818.983674 Z M 4299.838058 818.983674 " stroke="#ffffff" stroke-width="35.681999" stroke-opacity="1" stroke-miterlimit="10"/><path fill="#ffffff" d="M 1151.214844 491.65625 C 1161.457031 491.300781 1168.261719 498.007812 1168.261719 506.59375 C 1168.261719 516.761719 1162.6875 524.390625 1151.214844 524.390625 C 1139.746094 524.390625 1134.222656 516.273438 1134.292969 508.015625 C 1134.390625 497.792969 1141.972656 491.972656 1151.214844 491.65625 " fill-opacity="1" fill-rule="nonzero"/><path stroke-linecap="round" transform="matrix(0.226232, 0, 0, -0.226133, 184.084934, 728.769895)" fill="none" stroke-linejoin="round" d="M 4274.95688 1048.556381 C 4320.229919 1050.128323 4350.308345 1020.468704 4350.308345 982.500246 C 4350.308345 937.53578 4325.668899 903.799474 4274.95688 903.799474 C 4224.262127 903.799474 4199.847147 939.695042 4200.157946 976.212476 C 4200.589611 1021.41878 4234.104092 1047.157179 4274.95688 1048.556381 Z M 4274.95688 1048.556381 " stroke="#ffffff" stroke-width="35.681999" stroke-opacity="1" stroke-miterlimit="10"/><path fill="#ffffff" d="M 1098.539062 513.84375 C 1108.78125 513.492188 1115.59375 520.203125 1115.59375 528.789062 C 1115.59375 538.957031 1110.007812 546.589844 1098.539062 546.589844 C 1087.066406 546.589844 1081.542969 538.472656 1081.613281 530.203125 C 1081.710938 519.992188 1089.300781 514.164062 1098.539062 513.84375 " fill-opacity="1" fill-rule="nonzero"/><path stroke-linecap="round" transform="matrix(0.226232, 0, 0, -0.226133, 184.084934, 728.769895)" fill="none" stroke-linejoin="round" d="M 4042.116709 950.439528 C 4087.389748 951.994196 4117.502707 922.317303 4117.502707 884.348845 C 4117.502707 839.384379 4092.811462 805.630799 4042.116709 805.630799 C 3991.40469 805.630799 3966.98971 841.526366 3967.300509 878.095623 C 3967.732174 923.250104 4001.281188 949.023052 4042.116709 950.439528 Z M 4042.116709 950.439528 " stroke="#ffffff" stroke-width="35.681999" stroke-opacity="1" stroke-miterlimit="10"/><path fill="#ffffff" d="M 1196.550781 519.101562 C 1203.496094 518.863281 1208.128906 523.421875 1208.128906 529.242188 C 1208.128906 536.148438 1204.335938 541.324219 1196.550781 541.324219 C 1188.765625 541.324219 1185.007812 535.8125 1185.0625 530.203125 C 1185.125 523.269531 1190.277344 519.320312 1196.550781 519.101562 " fill-opacity="1" fill-rule="nonzero"/><path stroke-linecap="round" transform="matrix(0.226232, 0, 0, -0.226133, 184.084934, 728.769895)" fill="none" stroke-linejoin="round" d="M 4475.353099 927.188598 C 4506.053123 928.242317 4526.531317 908.08345 4526.531317 882.34505 C 4526.531317 851.804452 4509.765444 828.916278 4475.353099 828.916278 C 4440.940755 828.916278 4424.330281 853.290024 4424.572014 878.095623 C 4424.848279 908.757139 4447.622932 926.221248 4475.353099 927.188598 Z M 4475.353099 927.188598 " stroke="#ffffff" stroke-width="35.681999" stroke-opacity="1" stroke-miterlimit="10"/><path fill="#ffffff" d="M 1072.734375 558.957031 C 1079.792969 558.71875 1084.496094 563.347656 1084.496094 569.265625 C 1084.496094 576.289062 1080.652344 581.542969 1072.734375 581.542969 C 1064.816406 581.542969 1061.007812 575.953125 1061.058594 570.246094 C 1061.121094 563.195312 1066.351562 559.175781 1072.734375 558.957031 " fill-opacity="1" fill-rule="nonzero"/><path stroke-linecap="round" transform="matrix(0.226232, 0, 0, -0.226133, 184.084934, 728.769895)" fill="none" stroke-linejoin="round" d="M 3928.053515 750.941018 C 3959.254271 751.994738 3980.043263 731.524936 3980.043263 705.354684 C 3980.043263 674.295864 3963.052924 651.062207 3928.053515 651.062207 C 3893.054106 651.062207 3876.219166 675.781436 3876.443632 701.018887 C 3876.719898 732.198626 3899.839882 749.973669 3928.053515 750.941018 Z M 3928.053515 750.941018 " stroke="#ffffff" stroke-width="35.681999" stroke-opacity="1" stroke-miterlimit="10"/><path fill="#ffffff" d="M 335.925781 543.570312 C 317.757812 543.339844 305.011719 556.28125 308.203125 569.945312 C 312.285156 587.460938 335.042969 607.335938 366.210938 609.679688 C 391.554688 611.585938 393.800781 592.71875 388.550781 580.414062 C 383.417969 568.363281 360.785156 543.886719 335.925781 543.570312 " fill-opacity="1" fill-rule="nonzero"/><path stroke-linecap="round" transform="matrix(0.226232, 0, 0, -0.226133, 184.084934, 728.769895)" fill="none" stroke-linejoin="round" d="M 671.174647 818.983674 C 590.867666 820.002845 534.526733 762.773772 548.63355 702.348992 C 566.677152 624.891955 667.272394 537.001366 805.042637 526.636909 C 917.068371 518.207152 926.996669 601.641025 903.790352 656.05442 C 881.102032 709.345 781.059322 817.584472 671.174647 818.983674 Z M 671.174647 818.983674 " stroke="#ffffff" stroke-width="35.681999" stroke-opacity="1" stroke-miterlimit="10"/><path fill="#ffffff" d="M 341.554688 491.65625 C 331.320312 491.300781 324.507812 498.007812 324.507812 506.59375 C 324.507812 516.761719 330.082031 524.390625 341.554688 524.390625 C 353.035156 524.390625 358.558594 516.273438 358.476562 508.015625 C 358.390625 497.792969 350.808594 491.972656 341.554688 491.65625 " fill-opacity="1" fill-rule="nonzero"/><path stroke-linecap="round" transform="matrix(0.226232, 0, 0, -0.226133, 184.084934, 728.769895)" fill="none" stroke-linejoin="round" d="M 696.055825 1048.556381 C 650.817319 1050.128323 620.70436 1020.468704 620.70436 982.500246 C 620.70436 937.53578 645.343805 903.799474 696.055825 903.799474 C 746.802377 903.799474 771.217357 939.695042 770.854758 976.212476 C 770.474893 1021.41878 736.960412 1047.157179 696.055825 1048.556381 Z M 696.055825 1048.556381 " stroke="#ffffff" stroke-width="35.681999" stroke-opacity="1" stroke-miterlimit="10"/><path fill="#ffffff" d="M 394.234375 513.84375 C 384 513.492188 377.1875 520.203125 377.1875 528.789062 C 377.1875 538.957031 382.761719 546.589844 394.234375 546.589844 C 405.710938 546.589844 411.226562 538.472656 411.15625 530.203125 C 411.058594 519.992188 403.476562 514.164062 394.234375 513.84375 " fill-opacity="1" fill-rule="nonzero"/><path stroke-linecap="round" transform="matrix(0.226232, 0, 0, -0.226133, 184.084934, 728.769895)" fill="none" stroke-linejoin="round" d="M 928.913262 950.439528 C 883.674757 951.994196 853.561797 922.317303 853.561797 884.348845 C 853.561797 839.384379 878.201243 805.630799 928.913262 805.630799 C 979.642548 805.630799 1004.022995 841.526366 1003.712196 878.095623 C 1003.280531 923.250104 969.76605 949.023052 928.913262 950.439528 Z M 928.913262 950.439528 " stroke="#ffffff" stroke-width="35.681999" stroke-opacity="1" stroke-miterlimit="10"/><path fill="#ffffff" d="M 296.230469 519.101562 C 289.273438 518.863281 284.652344 523.421875 284.652344 529.242188 C 284.652344 536.148438 288.433594 541.324219 296.230469 541.324219 C 304.015625 541.324219 307.761719 535.8125 307.71875 530.203125 C 307.644531 523.269531 302.503906 519.320312 296.230469 519.101562 " fill-opacity="1" fill-rule="nonzero"/><path stroke-linecap="round" transform="matrix(0.226232, 0, 0, -0.226133, 184.084934, 728.769895)" fill="none" stroke-linejoin="round" d="M 495.711405 927.188598 C 464.959581 928.242317 444.533187 908.08345 444.533187 882.34505 C 444.533187 851.804452 461.247261 828.916278 495.711405 828.916278 C 530.123749 828.916278 546.682423 853.290024 546.492491 878.095623 C 546.164425 908.757139 523.441573 926.221248 495.711405 927.188598 Z M 495.711405 927.188598 " stroke="#ffffff" stroke-width="35.681999" stroke-opacity="1" stroke-miterlimit="10"/><path fill="#ffffff" d="M 420.046875 558.957031 C 412.984375 558.71875 408.285156 563.347656 408.285156 569.265625 C 408.285156 576.289062 412.128906 581.542969 420.046875 581.542969 C 427.964844 581.542969 431.773438 575.953125 431.71875 570.246094 C 431.65625 563.195312 426.417969 559.175781 420.046875 558.957031 " fill-opacity="1" fill-rule="nonzero"/><path stroke-linecap="round" transform="matrix(0.226232, 0, 0, -0.226133, 184.084934, 728.769895)" fill="none" stroke-linejoin="round" d="M 1043.010989 750.941018 C 1011.792967 751.994738 991.021241 731.524936 991.021241 705.354684 C 991.021241 674.295864 1008.01158 651.062207 1043.010989 651.062207 C 1078.010398 651.062207 1094.845338 675.781436 1094.603605 701.018887 C 1094.32734 732.198626 1071.172822 749.973669 1043.010989 750.941018 Z M 1043.010989 750.941018 " stroke="#ffffff" stroke-width="35.681999" stroke-opacity="1" stroke-miterlimit="10"/><path fill="#fdac49" d="M 502.46875 385.335938 C 511.191406 369.515625 520.628906 360.667969 535.847656 351.558594 " fill-opacity="1" fill-rule="nonzero"/><path fill="#1d1d1b" d="M 497.894531 382.828125 C 498.890625 378.617188 500.660156 374.632812 502.875 370.851562 C 505.105469 367.070312 507.871094 363.527344 511.042969 360.402344 C 514.199219 357.265625 517.730469 354.5625 521.433594 352.320312 C 525.183594 350.109375 529.042969 348.273438 533.160156 347.089844 C 536.035156 346.269531 539.03125 347.917969 539.851562 350.78125 C 540.390625 352.671875 539.859375 354.605469 538.613281 355.941406 L 538.542969 356.019531 C 535.777344 358.980469 532.886719 361.503906 530.175781 364.066406 C 527.425781 366.59375 524.792969 369.058594 522.273438 371.601562 C 519.765625 374.144531 517.335938 376.761719 514.867188 379.480469 C 512.386719 382.191406 509.929688 385.054688 507.046875 387.855469 L 506.949219 387.953125 C 504.804688 390.035156 501.375 389.992188 499.28125 387.855469 C 497.945312 386.484375 497.496094 384.558594 497.894531 382.828125 " fill-opacity="1" fill-rule="nonzero"/><path fill="#fdac49" d="M 542.070312 399.851562 C 545.765625 391.582031 554.988281 378.746094 564.320312 373.269531 " fill-opacity="1" fill-rule="nonzero"/><path fill="#1d1d1b" d="M 537.296875 397.730469 C 537.835938 394.355469 539.03125 391.328125 540.496094 388.472656 C 541.972656 385.636719 543.714844 382.960938 545.765625 380.496094 C 547.804688 378.03125 550.085938 375.71875 552.699219 373.6875 C 555.316406 371.671875 558.242188 369.851562 561.671875 368.785156 C 564.488281 367.910156 567.484375 369.472656 568.371094 372.289062 C 568.925781 374.082031 568.492188 375.949219 567.371094 377.289062 L 566.964844 377.765625 L 562.050781 383.554688 C 560.414062 385.539062 558.761719 387.582031 557.121094 389.65625 C 555.492188 391.742188 553.804688 393.808594 552.117188 395.894531 C 550.429688 397.96875 548.714844 400.035156 546.84375 401.980469 L 546.507812 402.316406 C 544.4375 404.460938 541.027344 404.523438 538.878906 402.457031 C 537.570312 401.195312 537.042969 399.398438 537.296875 397.730469 " fill-opacity="1" fill-rule="nonzero"/></svg>