<svg xmlns="http://www.w3.org/2000/svg" xmlns:xlink="http://www.w3.org/1999/xlink" width="1920" zoomAndPan="magnify" viewBox="0 0 1440 809.999993" height="1080" preserveAspectRatio="xMidYMid meet" version="1.0"><defs><clipPath id="9e6fc6ee6d"><path d="M 157.925781 91.742188 L 1334 91.742188 L 1334 762.199219 L 157.925781 762.199219 Z M 157.925781 91.742188 " clip-rule="nonzero"/></clipPath></defs><g clip-path="url(#9e6fc6ee6d)"><path fill="#d54f49" d="M 1290.324219 498.125 C 1290.324219 498.125 1228.191406 226.816406 1227.160156 224.621094 C 1214.179688 184.195312 1162.570312 151.75 1073.148438 127.976562 C 985.257812 104.625 868.96875 91.742188 745.71875 91.742188 C 622.46875 91.742188 506.199219 104.625 418.308594 127.976562 C 328.847656 151.75 277.222656 184.234375 264.277344 224.675781 C 263.246094 226.851562 201.128906 498.125 201.128906 498.125 C 176 506.875 157.925781 530.703125 157.925781 558.796875 C 157.925781 629.800781 225.578125 683.808594 359.019531 719.265625 C 463.140625 746.953125 600.476562 762.199219 745.71875 762.199219 L 745.753906 762.199219 C 890.996094 762.199219 1028.316406 746.953125 1132.417969 719.285156 C 1265.859375 683.808594 1333.53125 629.800781 1333.53125 558.796875 C 1333.53125 530.703125 1315.457031 506.875 1290.324219 498.125 Z M 957.523438 554.566406 C 957.523438 584.785156 932.964844 609.332031 902.757812 609.332031 C 873.4375 609.332031 849.414062 586.167969 848.03125 557.1875 L 643.40625 557.1875 C 642.042969 586.167969 618.019531 609.332031 588.699219 609.332031 C 558.488281 609.332031 533.914062 584.785156 533.914062 554.566406 C 533.914062 540.261719 539.433594 527.234375 548.445312 517.488281 C 539.433594 507.703125 533.914062 494.671875 533.914062 480.367188 C 533.914062 450.191406 558.488281 425.605469 588.699219 425.605469 C 618.019531 425.605469 642.042969 448.75 643.40625 477.730469 L 848.03125 477.730469 C 849.414062 448.75 873.4375 425.605469 902.757812 425.605469 C 932.964844 425.605469 957.523438 450.191406 957.523438 480.367188 C 957.523438 494.671875 952.019531 507.703125 943.011719 517.488281 C 952.019531 527.234375 957.523438 540.261719 957.523438 554.566406 Z M 1047.925781 292.988281 C 966.460938 313.585938 859.128906 324.9375 745.71875 324.9375 C 632.3125 324.9375 524.996094 313.585938 443.53125 292.988281 C 365.167969 273.199219 337.601562 251.417969 330.84375 242.414062 C 337.65625 233.257812 365.277344 211.496094 443.53125 191.710938 C 525.015625 171.128906 632.328125 159.796875 745.71875 159.796875 C 859.128906 159.796875 966.441406 171.128906 1047.90625 191.710938 C 1126.011719 211.460938 1153.671875 233.148438 1160.558594 242.355469 C 1153.707031 251.550781 1126.085938 273.238281 1047.925781 292.988281 Z M 1047.925781 292.988281 " fill-opacity="1" fill-rule="nonzero"/></g></svg>