<svg xmlns="http://www.w3.org/2000/svg" xmlns:xlink="http://www.w3.org/1999/xlink" width="1122" zoomAndPan="magnify" viewBox="0 0 841.92 595.499987" height="793" preserveAspectRatio="xMidYMid meet" version="1.0"><defs><clipPath id="19b6ef2e5c"><path d="M 166.183594 74 L 689 74 L 689 526.90625 L 166.183594 526.90625 Z M 166.183594 74 " clip-rule="nonzero"/></clipPath><clipPath id="09789036e2"><path d="M 258 510 L 281 510 L 281 526.90625 L 258 526.90625 Z M 258 510 " clip-rule="nonzero"/></clipPath><clipPath id="61cbdc0bff"><path d="M 187 139 L 716.804688 139 L 716.804688 524 L 187 524 Z M 187 139 " clip-rule="nonzero"/></clipPath></defs><path fill="#ff2273" d="M 632.570312 175.058594 L 632.203125 174.195312 L 630.613281 173.914062 C 624.277344 143.199219 599.402344 118.613281 567.214844 110.613281 C 560.390625 100.621094 551.75 88.261719 548.839844 85.417969 C 546.195312 82.824219 539.65625 81.222656 531.195312 81.015625 C 530.613281 80.285156 530.097656 79.675781 529.746094 79.328125 C 526.246094 75.914062 509.128906 74.59375 493.171875 81.117188 C 477.210938 87.640625 472.722656 93.84375 471.535156 99.152344 C 471.363281 99.941406 471.277344 101.160156 471.246094 102.597656 C 467.894531 106.121094 465.804688 109.851562 464.910156 113.875 C 463.726562 119.203125 465.070312 136.167969 466.03125 146.269531 L 304.992188 195.050781 L 303.933594 195.59375 C 298.5625 192.867188 292.871094 190.628906 286.921875 188.929688 C 280.742188 178.886719 273.273438 167.070312 270.636719 164.222656 C 268.117188 161.5 261.546875 159.585938 253.238281 158.96875 C 252.683594 158.207031 252.199219 157.574219 251.859375 157.207031 C 248.535156 153.621094 231.503906 151.472656 215.246094 157.207031 C 198.976562 162.945312 194.191406 168.921875 192.757812 174.167969 C 192.546875 174.945312 192.394531 176.15625 192.296875 177.59375 C 188.78125 180.949219 186.503906 184.574219 185.414062 188.542969 C 183.960938 193.886719 184.507812 211.320312 184.972656 221.390625 C 175.519531 233.859375 169.574219 248.785156 168.46875 264.9375 C 168.46875 264.9375 179.347656 444 182.902344 470.890625 C 187.128906 502.855469 208.082031 523.257812 240.402344 525.128906 C 242.09375 525.226562 261.703125 525.011719 268.726562 522.363281 C 288.871094 514.757812 302.628906 496.679688 308.328125 470.484375 C 317.730469 427.238281 337.910156 343.355469 344.207031 337.507812 C 350.335938 331.820312 390.984375 318.636719 417.875 310.054688 L 427.636719 306.828125 C 438.554688 303.324219 449.464844 299.613281 459.226562 296.347656 C 474.605469 291.199219 487.886719 286.726562 492.542969 285.789062 C 494.917969 285.316406 497.875 284.71875 501.066406 284.71875 C 509.300781 284.71875 516.101562 288.867188 521.847656 297.417969 C 541.851562 327.207031 591.777344 396.472656 623.269531 396.472656 C 623.707031 396.472656 624.144531 396.457031 624.574219 396.429688 C 664.964844 393.976562 687.210938 374.265625 687.210938 340.933594 C 687.214844 303.609375 634.800781 180.289062 632.570312 175.058594 Z M 632.570312 175.058594 " fill-opacity="1" fill-rule="nonzero"/><g clip-path="url(#19b6ef2e5c)"><path fill="#000000" d="M 241.609375 526.90625 C 240.960938 526.90625 240.507812 526.898438 240.300781 526.886719 C 207.632812 524.992188 185.519531 504.148438 181.15625 471.121094 C 177.636719 444.480469 166.820312 266.835938 166.710938 265.042969 C 167.789062 249.023438 173.484375 233.828125 183.183594 220.839844 C 182.632812 208.628906 182.296875 193.292969 183.714844 188.082031 C 184.828125 184.019531 187.132812 180.226562 190.589844 176.796875 C 190.699219 175.457031 190.855469 174.441406 191.054688 173.703125 C 193.089844 166.28125 200.589844 160.511719 214.660156 155.546875 C 223.195312 152.535156 231.035156 151.90625 236.113281 151.90625 C 244.277344 151.90625 250.808594 153.476562 253.15625 156.007812 C 253.421875 156.300781 253.777344 156.742188 254.179688 157.277344 C 262.769531 158.011719 269.21875 160.089844 271.933594 163.027344 C 274.125 165.394531 279.558594 173.601562 288.070312 187.425781 C 293.539062 189.027344 298.859375 191.105469 303.925781 193.621094 L 304.191406 193.484375 L 464.144531 145 C 463.050781 133.136719 462.0625 118.59375 463.195312 113.492188 C 464.125 109.316406 466.1875 105.511719 469.503906 101.886719 C 469.550781 100.546875 469.65625 99.523438 469.816406 98.777344 C 471.492188 91.253906 478.703125 85.128906 492.503906 79.488281 C 500.007812 76.421875 508.570312 74.730469 516.617188 74.730469 C 523.472656 74.730469 528.84375 75.976562 530.980469 78.066406 C 531.265625 78.34375 531.636719 78.765625 532.058594 79.28125 C 537.464844 79.472656 546.234375 80.390625 550.078125 84.164062 C 552.460938 86.488281 558.585938 94.867188 568.292969 109.066406 C 600.457031 117.308594 625.332031 142.023438 632.085938 172.386719 L 633.449219 172.628906 L 634.195312 174.367188 C 636.429688 179.613281 688.980469 303.265625 688.980469 340.929688 C 688.980469 375.332031 666.144531 395.664062 624.6875 398.1875 C 624.226562 398.214844 623.753906 398.230469 623.277344 398.230469 C 590.921875 398.230469 540.546875 328.414062 520.394531 298.394531 C 514.996094 290.375 508.679688 286.476562 501.070312 286.476562 C 498.085938 286.476562 495.253906 287.039062 492.980469 287.496094 C 488.535156 288.390625 476.074219 292.5625 461.652344 297.390625 L 453.515625 300.121094 C 445.449219 302.828125 436.816406 305.726562 428.179688 308.5 L 418.433594 311.726562 C 398.425781 318.113281 351.605469 333.050781 345.414062 338.800781 C 340.058594 343.769531 321.109375 420.042969 310.058594 470.855469 C 304.203125 497.789062 290.125 516.167969 269.359375 524.007812 C 261.757812 526.878906 241.808594 526.90625 241.609375 526.90625 Z M 236.113281 155.429688 C 231.3125 155.429688 223.894531 156.023438 215.832031 158.867188 C 198.90625 164.839844 195.527344 170.726562 194.457031 174.632812 C 194.34375 175.058594 194.175781 175.9375 194.058594 177.710938 L 194.011719 178.394531 L 193.519531 178.867188 C 190.214844 182.019531 188.125 185.332031 187.121094 189.011719 C 186.101562 192.746094 185.960938 204.519531 186.738281 221.3125 L 186.765625 221.945312 L 186.378906 222.453125 C 176.863281 235.011719 171.277344 249.742188 170.230469 265.058594 C 170.339844 266.625 181.148438 444.140625 184.652344 470.660156 C 188.84375 502.347656 209.199219 521.558594 240.507812 523.371094 C 240.679688 523.382812 241.058594 523.386719 241.609375 523.386719 C 246.644531 523.386719 262.328125 522.898438 268.113281 520.714844 C 287.707031 513.320312 301.015625 495.820312 306.605469 470.109375 C 312.371094 443.621094 335.433594 343.257812 343.007812 336.222656 C 348.960938 330.699219 382.253906 319.578125 417.34375 308.378906 L 427.082031 305.152344 C 435.71875 302.382812 444.335938 299.484375 452.386719 296.78125 L 460.527344 294.050781 C 475.066406 289.183594 487.617188 284.980469 492.195312 284.0625 C 494.714844 283.558594 497.738281 282.953125 501.0625 282.953125 C 509.9375 282.953125 517.210938 287.363281 523.308594 296.433594 C 543.160156 325.980469 592.617188 394.707031 623.273438 394.707031 C 623.675781 394.707031 624.070312 394.695312 624.464844 394.667969 C 663.792969 392.277344 685.449219 373.191406 685.449219 340.929688 C 685.449219 304.011719 633.273438 181.207031 630.957031 175.765625 L 629.128906 175.441406 L 628.886719 174.269531 C 622.742188 144.488281 598.367188 120.171875 566.785156 112.324219 L 566.136719 112.164062 L 565.753906 111.605469 C 556.238281 97.667969 549.789062 88.816406 547.601562 86.683594 C 545.832031 84.945312 540.585938 83.011719 531.152344 82.777344 L 530.328125 82.757812 L 529.816406 82.117188 C 529.289062 81.457031 528.832031 80.902344 528.507812 80.585938 C 527.359375 79.464844 523.148438 78.257812 516.609375 78.257812 C 512.210938 78.257812 503.398438 78.839844 493.832031 82.75 C 477.230469 89.535156 474.136719 95.582031 473.253906 99.539062 C 473.160156 99.964844 473.039062 100.855469 473.003906 102.632812 L 472.988281 103.316406 L 472.515625 103.8125 C 469.378906 107.113281 467.453125 110.53125 466.628906 114.257812 C 465.792969 117.992188 466.21875 129.605469 467.78125 146.101562 L 467.914062 147.539062 L 305.503906 196.738281 L 303.933594 197.574219 L 303.132812 197.167969 C 297.832031 194.472656 292.210938 192.269531 286.441406 190.628906 L 285.78125 190.4375 L 285.421875 189.855469 C 277.066406 176.265625 271.351562 167.589844 269.34375 165.417969 C 267.207031 163.109375 260.984375 161.3125 253.109375 160.726562 L 252.292969 160.667969 L 251.8125 160.007812 C 251.308594 159.3125 250.875 158.734375 250.5625 158.398438 C 249.230469 156.964844 243.710938 155.429688 236.113281 155.429688 Z M 236.113281 155.429688 " fill-opacity="1" fill-rule="nonzero"/></g><path fill="#000000" d="M 521.851562 297.414062 C 524.671875 301.609375 528.101562 306.609375 531.964844 312.058594 C 532.851562 313.316406 534.648438 310.519531 534.71875 309.765625 C 534.984375 306.796875 532.433594 304.140625 531.796875 301.367188 C 530.964844 297.710938 534.101562 295.019531 537.710938 296.699219 C 542.902344 299.109375 545.890625 304.664062 550.773438 307.503906 C 555.921875 310.5 561.238281 309.664062 566.007812 306.261719 C 572.6875 301.484375 575.335938 293.902344 573.335938 285.929688 C 569.878906 272.148438 560.128906 262.507812 547.566406 256.375 C 520.796875 243.324219 488.046875 243.316406 469.648438 269.546875 C 463.671875 278.066406 459.246094 287.539062 455.96875 297.433594 C 457.050781 297.070312 458.171875 296.691406 459.234375 296.339844 C 474.609375 291.191406 487.890625 286.71875 492.550781 285.785156 C 494.921875 285.308594 497.878906 284.710938 501.070312 284.710938 C 509.304688 284.714844 516.105469 288.863281 521.851562 297.414062 Z M 521.851562 297.414062 " fill-opacity="1" fill-rule="nonzero"/><path fill="#000000" d="M 656.863281 372.148438 C 643.226562 363.5625 605.1875 348.597656 607.152344 378.105469 C 607.398438 381.863281 598.378906 377.699219 596.890625 377.203125 C 594.699219 376.476562 592.503906 375.769531 590.238281 375.320312 C 589.550781 375.179688 585.183594 375.375 584.964844 375.171875 C 598.617188 387.746094 612.097656 396.472656 623.273438 396.472656 C 623.714844 396.472656 624.148438 396.457031 624.578125 396.429688 C 643.261719 395.292969 658.007812 390.421875 668.519531 382.265625 C 664.988281 378.359375 661.136719 374.839844 656.863281 372.148438 Z M 656.863281 372.148438 " fill-opacity="1" fill-rule="nonzero"/><path fill="#000000" d="M 658.855469 393.925781 L 630.121094 397.664062 L 645.183594 369.71875 Z M 658.855469 393.925781 " fill-opacity="1" fill-rule="nonzero"/><path fill="#000000" d="M 454.660156 149.714844 C 465.671875 157.496094 479 162.257812 492.253906 164.097656 C 515.652344 167.339844 535.152344 161.621094 551.515625 144.289062 C 560.394531 134.878906 569.34375 124.847656 574.148438 112.660156 C 571.871094 111.898438 569.570312 111.199219 567.214844 110.613281 C 560.390625 100.621094 551.75 88.261719 548.839844 85.421875 C 546.195312 82.824219 539.65625 81.222656 531.195312 81.015625 C 530.613281 80.285156 530.097656 79.675781 529.746094 79.328125 C 526.246094 75.914062 509.128906 74.59375 493.171875 81.121094 C 477.210938 87.644531 472.722656 93.84375 471.535156 99.15625 C 471.363281 99.941406 471.277344 101.160156 471.246094 102.597656 C 467.894531 106.121094 465.804688 109.855469 464.910156 113.875 C 463.726562 119.203125 465.070312 136.167969 466.03125 146.269531 Z M 454.660156 149.714844 " fill-opacity="1" fill-rule="nonzero"/><path fill="#000000" d="M 278.089844 513.714844 C 263.507812 497.316406 247.613281 478.4375 228.816406 466.753906 C 223.824219 463.652344 218.574219 460.878906 213.738281 457.53125 C 208.429688 453.855469 204.359375 452.742188 201.453125 459.367188 C 200.21875 462.1875 197.867188 469.933594 193.71875 469.933594 C 189.789062 469.933594 189.050781 461.277344 187.527344 459.125 C 185.355469 456.054688 183.441406 458.613281 181.984375 462.375 C 182.328125 465.96875 182.636719 468.875 182.902344 470.890625 C 187.128906 502.855469 208.082031 523.261719 240.402344 525.128906 C 242.09375 525.226562 262.277344 524.886719 269.496094 522.023438 C 273.339844 520.492188 276.949219 518.582031 280.3125 516.304688 C 279.5625 515.449219 278.84375 514.566406 278.089844 513.714844 Z M 278.089844 513.714844 " fill-opacity="1" fill-rule="nonzero"/><g clip-path="url(#09789036e2)"><path fill="#000000" d="M 258.789062 526.039062 C 263.371094 525.355469 280.3125 522.34375 280.3125 522.34375 L 262.308594 510.011719 Z M 258.789062 526.039062 " fill-opacity="1" fill-rule="nonzero"/></g><path fill="#000000" d="M 169.621094 283.65625 C 170.148438 284.960938 170.847656 286.089844 171.820312 286.90625 C 176.199219 290.589844 178.078125 283.269531 179.792969 280.820312 C 180.421875 279.925781 181.738281 279.578125 182.566406 280.464844 C 188.851562 287.210938 185.136719 301.242188 195.953125 304.0625 C 211.113281 308.027344 221.070312 296.175781 225.625 283.21875 C 232.699219 263.085938 236.214844 242.050781 245.980469 222.835938 C 254.707031 205.667969 266.625 191.132812 280.09375 177.992188 C 276.03125 171.597656 272.332031 166.054688 270.636719 164.222656 C 268.117188 161.5 261.546875 159.585938 253.238281 158.972656 C 252.683594 158.207031 252.199219 157.574219 251.859375 157.207031 C 248.535156 153.621094 231.503906 151.472656 215.246094 157.207031 C 198.976562 162.945312 194.191406 168.921875 192.757812 174.167969 C 192.546875 174.945312 192.394531 176.15625 192.296875 177.59375 C 188.78125 180.949219 186.503906 184.574219 185.414062 188.542969 C 183.960938 193.886719 184.507812 211.320312 184.972656 221.390625 C 175.519531 233.859375 169.574219 248.785156 168.46875 264.9375 C 168.46875 264.9375 168.902344 272.0625 169.621094 283.65625 Z M 169.621094 283.65625 " fill-opacity="1" fill-rule="nonzero"/><path fill="#000000" d="M 498.707031 121.515625 C 498.707031 121.515625 496.097656 98.046875 497.292969 92.660156 C 498.496094 87.269531 503.050781 80.972656 519.257812 74.351562 C 535.457031 67.726562 552.839844 69.0625 556.386719 72.535156 C 559.933594 76.003906 576.199219 100.476562 576.199219 100.476562 Z M 498.707031 121.515625 " fill-opacity="1" fill-rule="nonzero"/><path fill="#ffd33b" d="M 494.257812 148.15625 C 494.257812 148.15625 490.625 115.488281 492.292969 107.988281 C 493.957031 100.484375 500.296875 91.71875 522.855469 82.5 C 545.417969 73.28125 569.609375 75.140625 574.539062 79.972656 C 579.484375 84.804688 602.128906 118.867188 602.128906 118.867188 Z M 494.257812 148.15625 " fill-opacity="1" fill-rule="nonzero"/><path fill="#000000" d="M 492.730469 150.394531 L 492.503906 148.351562 C 492.355469 147.003906 488.859375 115.304688 490.566406 107.605469 C 492.867188 97.242188 502.914062 88.746094 522.1875 80.871094 C 536.382812 75.070312 549.457031 74.203125 555.984375 74.203125 C 565.492188 74.203125 572.890625 75.890625 575.773438 78.714844 C 580.789062 83.617188 602.667969 116.496094 603.59375 117.890625 L 604.945312 119.925781 Z M 555.984375 77.726562 C 549.71875 77.726562 537.160156 78.558594 523.523438 84.132812 C 499.730469 93.851562 495.289062 102.621094 494.011719 108.367188 C 492.789062 113.886719 494.710938 135.683594 495.785156 145.914062 L 599.304688 117.808594 C 591.167969 105.625 576.902344 84.75 573.308594 81.234375 C 571.523438 79.488281 565.480469 77.726562 555.984375 77.726562 Z M 555.984375 77.726562 " fill-opacity="1" fill-rule="nonzero"/><path fill="#000000" d="M 214.273438 197.703125 C 214.273438 197.703125 212.816406 174.136719 214.273438 168.8125 C 215.730469 163.488281 220.59375 157.421875 237.109375 151.59375 C 253.613281 145.773438 270.902344 147.957031 274.277344 151.59375 C 277.652344 155.238281 292.703125 180.472656 292.703125 180.472656 Z M 214.273438 197.703125 " fill-opacity="1" fill-rule="nonzero"/><path fill="#ffd33b" d="M 208.527344 224.09375 C 208.527344 224.09375 206.496094 191.285156 208.527344 183.875 C 210.554688 176.464844 217.316406 168.019531 240.296875 159.914062 C 263.285156 151.808594 287.355469 154.847656 292.042969 159.914062 C 296.742188 164.980469 317.699219 200.113281 317.699219 200.113281 Z M 208.527344 224.09375 " fill-opacity="1" fill-rule="nonzero"/><path fill="#000000" d="M 206.894531 226.253906 L 206.765625 224.199219 C 206.683594 222.851562 204.746094 191.015625 206.824219 183.410156 C 209.628906 173.171875 220.078125 165.179688 239.71875 158.25 C 251.679688 154.03125 262.675781 153.148438 269.792969 153.148438 C 280.96875 153.148438 290.207031 155.335938 293.339844 158.71875 C 298.113281 163.859375 318.359375 197.769531 319.21875 199.210938 L 320.46875 201.304688 Z M 269.792969 156.671875 C 262.949219 156.671875 252.382812 157.523438 240.886719 161.574219 C 216.648438 170.125 211.78125 178.660156 210.226562 184.339844 C 208.734375 189.792969 209.589844 211.65625 210.164062 221.929688 L 314.929688 198.917969 C 307.398438 186.347656 294.171875 164.796875 290.75 161.113281 C 288.710938 158.902344 280.855469 156.671875 269.792969 156.671875 Z M 269.792969 156.671875 " fill-opacity="1" fill-rule="nonzero"/><path fill="#ffd33b" d="M 189.410156 263.019531 C 189.410156 263.019531 202.378906 442.128906 206.023438 469.691406 C 209.664062 497.257812 226.839844 520.144531 262.75 522.222656 C 298.65625 524.304688 322.078125 504.019531 329.882812 468.132812 C 337.6875 432.25 359.550781 339.671875 366.832031 332.90625 C 374.121094 326.148438 423.042969 311.0625 452.183594 301.703125 C 481.332031 292.339844 510.46875 281.941406 518.277344 280.378906 C 526.085938 278.820312 538.707031 276.394531 549.835938 292.949219 C 560.953125 309.503906 618.722656 394.75 652.550781 392.695312 C 686.375 390.636719 714.484375 376.074219 714.484375 338.109375 C 714.484375 300.144531 659.152344 170.40625 659.152344 170.40625 L 495.246094 141.25 L 329.019531 191.566406 Z M 189.410156 263.019531 " fill-opacity="1" fill-rule="nonzero"/><g clip-path="url(#61cbdc0bff)"><path fill="#000000" d="M 267.71875 523.339844 C 267.714844 523.339844 267.714844 523.339844 267.714844 523.339844 C 266.054688 523.339844 264.363281 523.683594 262.644531 523.582031 C 229.835938 521.683594 208.5625 502.175781 204.277344 469.726562 C 200.667969 442.425781 187.785156 264.839844 187.652344 263.046875 L 328.21875 189.933594 L 495.144531 139.414062 L 660.402344 168.824219 L 660.777344 169.707031 C 663.042969 175.019531 716.25 300.21875 716.25 338.109375 C 716.25 371.949219 693.664062 391.957031 652.664062 394.449219 C 652.226562 394.476562 651.785156 394.496094 651.339844 394.496094 C 619.367188 394.496094 568.683594 324.167969 548.375 293.929688 C 542.539062 285.246094 535.636719 281.023438 527.277344 281.023438 C 524.035156 281.023438 521.03125 281.625 518.625 282.105469 C 513.894531 283.050781 500.414062 287.5625 484.804688 292.792969 C 474.890625 296.109375 463.8125 299.816406 452.730469 303.378906 L 442.820312 306.546875 C 415.515625 315.261719 374.253906 328.425781 368.035156 334.203125 C 361.644531 340.132812 341.15625 424.207031 331.605469 468.113281 C 323.804688 503.980469 301.117188 523.339844 267.71875 523.339844 Z M 191.25 264.054688 C 192.378906 279.5625 204.324219 443.425781 207.773438 469.464844 C 211.816406 500.082031 231.894531 518.667969 262.851562 520.46875 C 297.152344 522.460938 320.378906 503.558594 328.164062 467.761719 C 328.4375 466.492188 356.203125 340.375 365.636719 331.625 C 371.925781 325.789062 403.828125 315.296875 441.75 303.195312 L 451.644531 300.027344 C 462.71875 296.46875 473.789062 292.769531 483.683594 289.453125 C 500.054688 283.976562 512.984375 279.644531 517.933594 278.65625 C 520.359375 278.171875 523.683594 277.503906 527.273438 277.503906 C 536.902344 277.503906 544.757812 282.234375 551.296875 291.96875 C 571.289062 321.738281 621.058594 390.976562 651.335938 390.976562 C 651.710938 390.976562 652.078125 390.960938 652.449219 390.941406 C 679.945312 389.269531 712.722656 378.746094 712.722656 338.113281 C 712.722656 302.558594 662.746094 183.425781 657.902344 171.980469 L 495.355469 143.058594 L 329.53125 193.253906 Z M 191.25 264.054688 " fill-opacity="1" fill-rule="nonzero"/></g><path fill="#ffd33b" d="M 660.398438 184.207031 C 660.398438 229.898438 620.535156 266.945312 571.351562 266.945312 C 522.179688 266.945312 482.316406 229.902344 482.316406 184.207031 C 482.316406 138.515625 522.179688 101.472656 571.351562 101.472656 C 620.539062 101.472656 660.398438 138.515625 660.398438 184.207031 Z M 660.398438 184.207031 " fill-opacity="1" fill-rule="nonzero"/><path fill="#000000" d="M 571.355469 268.707031 C 521.289062 268.707031 480.558594 230.800781 480.558594 184.207031 C 480.558594 137.617188 521.292969 99.710938 571.355469 99.710938 C 621.429688 99.710938 662.164062 137.617188 662.164062 184.207031 C 662.164062 230.800781 621.425781 268.707031 571.355469 268.707031 Z M 571.355469 103.234375 C 523.234375 103.234375 484.085938 139.558594 484.085938 184.207031 C 484.085938 228.859375 523.234375 265.183594 571.355469 265.183594 C 619.484375 265.183594 658.636719 228.859375 658.636719 184.207031 C 658.636719 139.558594 619.484375 103.234375 571.355469 103.234375 Z M 571.355469 103.234375 " fill-opacity="1" fill-rule="nonzero"/><path fill="#ffd33b" d="M 375.632812 266.519531 C 375.632812 314.300781 333.949219 353.035156 282.515625 353.035156 C 231.097656 353.035156 189.40625 314.300781 189.40625 266.519531 C 189.40625 218.734375 231.097656 180 282.515625 180 C 333.949219 180 375.632812 218.734375 375.632812 266.519531 Z M 375.632812 266.519531 " fill-opacity="1" fill-rule="nonzero"/><path fill="#000000" d="M 282.519531 354.796875 C 230.207031 354.796875 187.648438 315.195312 187.648438 266.519531 C 187.648438 217.84375 230.210938 178.238281 282.519531 178.238281 C 334.835938 178.238281 377.394531 217.84375 377.394531 266.519531 C 377.394531 315.195312 334.832031 354.796875 282.519531 354.796875 Z M 282.519531 181.761719 C 232.148438 181.761719 191.175781 219.785156 191.175781 266.519531 C 191.175781 313.253906 232.152344 351.273438 282.519531 351.273438 C 332.890625 351.273438 373.871094 313.253906 373.871094 266.519531 C 373.871094 219.785156 332.890625 181.761719 282.519531 181.761719 Z M 282.519531 181.761719 " fill-opacity="1" fill-rule="nonzero"/><path fill="#ffffff" d="M 286.652344 331.125 L 286.648438 331.125 C 282.792969 331.125 279.386719 328.765625 278.164062 325.113281 L 267.363281 294.785156 L 230.140625 305.507812 C 225.5 306.828125 220.40625 304.019531 219.074219 299.402344 L 209.824219 267.226562 C 209.160156 264.933594 209.433594 262.523438 210.59375 260.433594 C 211.75 258.347656 213.648438 256.835938 215.945312 256.175781 L 250.125 246.355469 L 239.714844 217.082031 C 238.148438 212.375 240.6875 207.304688 245.363281 205.75 L 277.152344 195.167969 C 281.757812 193.640625 286.941406 196.257812 288.460938 200.824219 L 299.59375 232.140625 L 340.125 220.496094 C 344.753906 219.15625 349.855469 222 351.183594 226.613281 L 360.441406 258.789062 C 361.097656 261.082031 360.824219 263.496094 359.671875 265.585938 C 358.515625 267.671875 356.613281 269.1875 354.316406 269.84375 L 316.835938 280.617188 L 326.910156 308.953125 C 327.675781 311.253906 327.503906 313.675781 326.433594 315.804688 C 325.363281 317.941406 323.527344 319.53125 321.257812 320.28125 L 289.472656 330.761719 C 288.558594 331.070312 287.605469 331.125 286.652344 331.125 Z M 269.574219 290.539062 L 281.5 324.082031 C 282.25 326.328125 284.316406 327.828125 286.648438 327.828125 C 287.226562 327.828125 287.804688 327.722656 288.359375 327.535156 L 320.148438 316.945312 C 321.523438 316.492188 322.636719 315.527344 323.28125 314.234375 C 323.933594 312.9375 324.035156 311.472656 323.582031 310.097656 L 312.261719 278.265625 L 353.34375 266.460938 C 354.734375 266.0625 355.886719 265.140625 356.585938 263.878906 C 357.289062 262.613281 357.453125 261.148438 357.054688 259.761719 L 347.796875 227.582031 C 346.996094 224.792969 343.933594 223.074219 341.097656 223.878906 L 297.382812 236.4375 L 285.128906 201.96875 C 284.191406 199.160156 281.058594 197.570312 278.265625 198.511719 L 246.480469 209.089844 C 243.648438 210.03125 242.109375 213.101562 243.050781 215.9375 L 254.707031 248.703125 L 216.921875 259.5625 C 215.53125 259.960938 214.382812 260.878906 213.679688 262.140625 C 212.980469 263.40625 212.816406 264.867188 213.214844 266.257812 L 222.46875 298.4375 C 223.269531 301.226562 226.347656 302.953125 229.171875 302.144531 Z M 269.574219 290.539062 " fill-opacity="1" fill-rule="nonzero"/><path fill="#ffffff" d="M 573.808594 245.234375 C 569.949219 245.234375 566.539062 242.777344 565.324219 239.117188 L 554.523438 208.746094 L 517.300781 219.445312 C 512.652344 220.78125 507.5625 217.9375 506.234375 213.328125 L 496.976562 181.148438 C 495.621094 176.410156 498.371094 171.449219 503.101562 170.089844 L 537.28125 160.269531 L 526.875 131 C 525.3125 126.285156 527.851562 121.214844 532.523438 119.660156 L 564.304688 109.082031 C 568.929688 107.546875 574.101562 110.175781 575.617188 114.742188 L 586.75 146.054688 L 627.285156 134.40625 C 631.921875 133.078125 637.015625 135.917969 638.34375 140.527344 L 647.601562 172.703125 C 648.964844 177.4375 646.214844 182.398438 641.480469 183.761719 L 603.996094 194.53125 L 614.074219 222.863281 C 615.644531 227.574219 613.101562 232.644531 608.429688 234.199219 L 576.644531 244.777344 C 575.722656 245.078125 574.769531 245.234375 573.808594 245.234375 Z M 556.734375 204.445312 L 568.65625 237.972656 C 569.597656 240.78125 572.722656 242.359375 575.523438 241.429688 L 607.304688 230.851562 C 610.140625 229.914062 611.679688 226.839844 610.734375 224.007812 L 599.414062 192.179688 L 640.503906 180.375 C 643.371094 179.546875 645.03125 176.542969 644.210938 173.671875 L 634.953125 141.5 C 634.148438 138.703125 631.078125 136.980469 628.253906 137.792969 L 584.539062 150.351562 L 572.28125 115.886719 C 571.351562 113.078125 568.230469 111.484375 565.421875 112.425781 L 533.640625 123.003906 C 530.8125 123.945312 529.269531 127.015625 530.210938 129.855469 L 541.863281 162.621094 L 504.078125 173.476562 C 501.210938 174.300781 499.542969 177.304688 500.367188 180.175781 L 509.625 212.351562 C 510.429688 215.144531 513.507812 216.871094 516.332031 216.058594 Z M 556.734375 204.445312 " fill-opacity="1" fill-rule="nonzero"/><path fill="#000000" d="M 547.570312 188.222656 C 547.570312 188.804688 547.542969 189.386719 547.484375 189.96875 C 547.429688 190.550781 547.34375 191.125 547.230469 191.699219 C 547.113281 192.269531 546.972656 192.835938 546.804688 193.394531 C 546.632812 193.953125 546.4375 194.5 546.214844 195.039062 C 545.992188 195.578125 545.742188 196.105469 545.46875 196.621094 C 545.191406 197.132812 544.890625 197.632812 544.566406 198.117188 C 544.242188 198.605469 543.894531 199.070312 543.527344 199.523438 C 543.15625 199.972656 542.765625 200.40625 542.351562 200.816406 C 541.9375 201.230469 541.507812 201.621094 541.054688 201.992188 C 540.605469 202.363281 540.136719 202.707031 539.648438 203.03125 C 539.164062 203.355469 538.664062 203.65625 538.148438 203.929688 C 537.636719 204.207031 537.109375 204.457031 536.570312 204.679688 C 536.027344 204.902344 535.480469 205.097656 534.921875 205.269531 C 534.363281 205.4375 533.796875 205.578125 533.226562 205.691406 C 532.652344 205.804688 532.074219 205.890625 531.496094 205.949219 C 530.914062 206.007812 530.332031 206.035156 529.746094 206.035156 C 529.164062 206.035156 528.582031 206.007812 528 205.949219 C 527.417969 205.890625 526.84375 205.804688 526.269531 205.691406 C 525.699219 205.578125 525.132812 205.4375 524.574219 205.269531 C 524.015625 205.097656 523.464844 204.902344 522.925781 204.679688 C 522.386719 204.457031 521.859375 204.207031 521.34375 203.929688 C 520.832031 203.65625 520.332031 203.355469 519.84375 203.03125 C 519.359375 202.707031 518.890625 202.363281 518.441406 201.992188 C 517.988281 201.621094 517.558594 201.230469 517.144531 200.816406 C 516.730469 200.40625 516.339844 199.972656 515.96875 199.523438 C 515.597656 199.070312 515.253906 198.605469 514.929688 198.117188 C 514.601562 197.632812 514.304688 197.132812 514.027344 196.621094 C 513.753906 196.105469 513.503906 195.578125 513.28125 195.039062 C 513.058594 194.5 512.859375 193.953125 512.691406 193.394531 C 512.523438 192.835938 512.378906 192.269531 512.265625 191.699219 C 512.152344 191.125 512.066406 190.550781 512.011719 189.96875 C 511.953125 189.386719 511.925781 188.804688 511.925781 188.222656 C 511.925781 187.640625 511.953125 187.058594 512.011719 186.476562 C 512.066406 185.894531 512.152344 185.320312 512.265625 184.746094 C 512.378906 184.175781 512.523438 183.609375 512.691406 183.050781 C 512.859375 182.492188 513.058594 181.945312 513.28125 181.40625 C 513.503906 180.867188 513.753906 180.339844 514.027344 179.824219 C 514.304688 179.3125 514.601562 178.8125 514.929688 178.328125 C 515.253906 177.839844 515.597656 177.375 515.96875 176.921875 C 516.339844 176.472656 516.730469 176.039062 517.144531 175.628906 C 517.558594 175.214844 517.988281 174.824219 518.441406 174.453125 C 518.890625 174.082031 519.359375 173.738281 519.84375 173.414062 C 520.332031 173.089844 520.832031 172.789062 521.34375 172.511719 C 521.859375 172.238281 522.386719 171.988281 522.925781 171.765625 C 523.464844 171.542969 524.015625 171.347656 524.574219 171.175781 C 525.132812 171.007812 525.699219 170.867188 526.269531 170.753906 C 526.84375 170.640625 527.417969 170.554688 528 170.496094 C 528.582031 170.4375 529.164062 170.410156 529.746094 170.410156 C 530.332031 170.410156 530.914062 170.4375 531.496094 170.496094 C 532.074219 170.554688 532.652344 170.640625 533.226562 170.753906 C 533.796875 170.867188 534.363281 171.007812 534.921875 171.175781 C 535.480469 171.347656 536.027344 171.542969 536.570312 171.765625 C 537.109375 171.988281 537.636719 172.238281 538.148438 172.511719 C 538.664062 172.789062 539.164062 173.089844 539.648438 173.414062 C 540.136719 173.738281 540.605469 174.082031 541.054688 174.453125 C 541.507812 174.824219 541.9375 175.214844 542.351562 175.628906 C 542.765625 176.039062 543.15625 176.472656 543.527344 176.921875 C 543.894531 177.375 544.242188 177.839844 544.566406 178.328125 C 544.890625 178.8125 545.191406 179.3125 545.46875 179.824219 C 545.742188 180.339844 545.992188 180.867188 546.214844 181.40625 C 546.4375 181.945312 546.632812 182.492188 546.804688 183.050781 C 546.972656 183.609375 547.113281 184.175781 547.230469 184.746094 C 547.34375 185.320312 547.429688 185.894531 547.484375 186.476562 C 547.542969 187.058594 547.570312 187.640625 547.570312 188.222656 Z M 547.570312 188.222656 " fill-opacity="1" fill-rule="nonzero"/><path fill="#000000" d="M 529.746094 207.800781 C 518.945312 207.800781 510.164062 199.015625 510.164062 188.222656 C 510.164062 177.429688 518.945312 168.644531 529.746094 168.644531 C 540.542969 168.644531 549.332031 177.429688 549.332031 188.222656 C 549.332031 199.015625 540.542969 207.800781 529.746094 207.800781 Z M 529.746094 172.167969 C 520.890625 172.167969 513.6875 179.371094 513.6875 188.222656 C 513.6875 197.074219 520.890625 204.273438 529.746094 204.273438 C 538.605469 204.273438 545.804688 197.074219 545.804688 188.222656 C 545.804688 179.371094 538.605469 172.167969 529.746094 172.167969 Z M 529.746094 172.167969 " fill-opacity="1" fill-rule="nonzero"/><path fill="#000000" d="M 576.089844 139.132812 C 576.089844 139.710938 576.0625 140.285156 576.003906 140.859375 C 575.949219 141.433594 575.863281 142.003906 575.75 142.570312 C 575.636719 143.136719 575.496094 143.695312 575.332031 144.246094 C 575.164062 144.796875 574.96875 145.339844 574.746094 145.875 C 574.527344 146.40625 574.28125 146.925781 574.007812 147.4375 C 573.734375 147.945312 573.441406 148.4375 573.117188 148.917969 C 572.796875 149.398438 572.453125 149.859375 572.089844 150.304688 C 571.722656 150.753906 571.335938 151.179688 570.925781 151.585938 C 570.519531 151.996094 570.09375 152.382812 569.644531 152.746094 C 569.199219 153.113281 568.738281 153.457031 568.257812 153.777344 C 567.777344 154.097656 567.28125 154.394531 566.773438 154.664062 C 566.265625 154.9375 565.742188 155.183594 565.210938 155.40625 C 564.675781 155.625 564.132812 155.820312 563.582031 155.988281 C 563.027344 156.15625 562.46875 156.292969 561.902344 156.40625 C 561.335938 156.519531 560.765625 156.605469 560.191406 156.660156 C 559.617188 156.71875 559.042969 156.746094 558.464844 156.746094 C 557.886719 156.746094 557.3125 156.71875 556.738281 156.660156 C 556.164062 156.605469 555.59375 156.519531 555.027344 156.40625 C 554.460938 156.292969 553.902344 156.15625 553.347656 155.988281 C 552.796875 155.820312 552.253906 155.625 551.722656 155.40625 C 551.1875 155.183594 550.667969 154.9375 550.15625 154.664062 C 549.648438 154.394531 549.152344 154.097656 548.675781 153.777344 C 548.195312 153.457031 547.730469 153.113281 547.285156 152.746094 C 546.839844 152.382812 546.410156 151.996094 546.003906 151.585938 C 545.59375 151.179688 545.207031 150.753906 544.84375 150.304688 C 544.476562 149.859375 544.132812 149.398438 543.8125 148.917969 C 543.492188 148.4375 543.195312 147.945312 542.921875 147.4375 C 542.652344 146.925781 542.402344 146.40625 542.183594 145.875 C 541.960938 145.339844 541.769531 144.796875 541.601562 144.246094 C 541.433594 143.695312 541.292969 143.136719 541.179688 142.570312 C 541.066406 142.003906 540.984375 141.433594 540.925781 140.859375 C 540.871094 140.285156 540.839844 139.710938 540.839844 139.132812 C 540.839844 138.554688 540.871094 137.980469 540.925781 137.40625 C 540.984375 136.832031 541.066406 136.261719 541.179688 135.695312 C 541.292969 135.132812 541.433594 134.574219 541.601562 134.019531 C 541.769531 133.46875 541.960938 132.925781 542.183594 132.394531 C 542.402344 131.859375 542.652344 131.339844 542.921875 130.832031 C 543.195312 130.320312 543.492188 129.828125 543.8125 129.347656 C 544.132812 128.867188 544.476562 128.40625 544.84375 127.960938 C 545.207031 127.515625 545.59375 127.085938 546.003906 126.679688 C 546.410156 126.273438 546.839844 125.882812 547.285156 125.519531 C 547.730469 125.152344 548.195312 124.808594 548.675781 124.488281 C 549.152344 124.167969 549.648438 123.871094 550.15625 123.601562 C 550.667969 123.328125 551.1875 123.082031 551.722656 122.863281 C 552.253906 122.640625 552.796875 122.445312 553.347656 122.277344 C 553.902344 122.113281 554.460938 121.972656 555.027344 121.859375 C 555.59375 121.746094 556.164062 121.664062 556.738281 121.605469 C 557.3125 121.550781 557.886719 121.519531 558.464844 121.519531 C 559.042969 121.519531 559.617188 121.550781 560.191406 121.605469 C 560.765625 121.664062 561.335938 121.746094 561.902344 121.859375 C 562.46875 121.972656 563.027344 122.113281 563.582031 122.277344 C 564.132812 122.445312 564.675781 122.640625 565.210938 122.863281 C 565.742188 123.082031 566.265625 123.328125 566.773438 123.601562 C 567.28125 123.871094 567.777344 124.167969 568.257812 124.488281 C 568.738281 124.808594 569.199219 125.152344 569.644531 125.519531 C 570.09375 125.882812 570.519531 126.273438 570.925781 126.679688 C 571.335938 127.085938 571.722656 127.515625 572.089844 127.960938 C 572.453125 128.40625 572.796875 128.867188 573.117188 129.347656 C 573.441406 129.828125 573.734375 130.320312 574.007812 130.832031 C 574.28125 131.339844 574.527344 131.859375 574.746094 132.394531 C 574.96875 132.925781 575.164062 133.46875 575.332031 134.019531 C 575.496094 134.574219 575.636719 135.132812 575.75 135.695312 C 575.863281 136.261719 575.949219 136.832031 576.003906 137.40625 C 576.0625 137.980469 576.089844 138.554688 576.089844 139.132812 Z M 576.089844 139.132812 " fill-opacity="1" fill-rule="nonzero"/><path fill="#000000" d="M 558.464844 158.507812 C 547.773438 158.507812 539.078125 149.816406 539.078125 139.132812 C 539.078125 128.445312 547.773438 119.753906 558.464844 119.753906 C 569.152344 119.753906 577.851562 128.449219 577.851562 139.132812 C 577.851562 149.816406 569.152344 158.507812 558.464844 158.507812 Z M 558.464844 123.277344 C 549.71875 123.277344 542.601562 130.390625 542.601562 139.132812 C 542.601562 147.871094 549.71875 154.984375 558.464844 154.984375 C 567.210938 154.984375 574.328125 147.871094 574.328125 139.132812 C 574.328125 130.390625 567.210938 123.277344 558.464844 123.277344 Z M 558.464844 123.277344 " fill-opacity="1" fill-rule="nonzero"/><path fill="#000000" d="M 633.722656 164.308594 C 633.722656 174.148438 625.746094 182.121094 615.890625 182.121094 C 606.054688 182.121094 598.074219 174.148438 598.074219 164.308594 C 598.074219 154.472656 606.054688 146.492188 615.890625 146.492188 C 625.746094 146.492188 633.722656 154.46875 633.722656 164.308594 Z M 633.722656 164.308594 " fill-opacity="1" fill-rule="nonzero"/><path fill="#000000" d="M 615.890625 183.882812 C 605.097656 183.882812 596.3125 175.101562 596.3125 164.308594 C 596.3125 153.515625 605.097656 144.730469 615.890625 144.730469 C 626.695312 144.730469 635.484375 153.515625 635.484375 164.308594 C 635.484375 175.101562 626.695312 183.882812 615.890625 183.882812 Z M 615.890625 148.253906 C 607.035156 148.253906 599.835938 155.457031 599.835938 164.308594 C 599.835938 173.160156 607.039062 180.359375 615.890625 180.359375 C 624.75 180.359375 631.957031 173.160156 631.957031 164.308594 C 631.957031 155.457031 624.75 148.253906 615.890625 148.253906 Z M 615.890625 148.253906 " fill-opacity="1" fill-rule="nonzero"/><path fill="#ff2273" d="M 612.78125 179.875 C 612.601562 179.875 612.417969 179.847656 612.242188 179.789062 C 611.730469 179.625 611.324219 179.238281 611.132812 178.738281 L 608.316406 171.316406 L 602.082031 166.40625 C 601.65625 166.074219 601.417969 165.566406 601.410156 165.027344 C 601.40625 164.492188 601.652344 163.984375 602.070312 163.648438 L 608.261719 158.679688 L 611.015625 151.234375 C 611.199219 150.734375 611.605469 150.339844 612.117188 150.171875 C 612.621094 150 613.183594 150.078125 613.632812 150.375 L 620.269531 154.722656 L 628.207031 155.035156 C 628.742188 155.054688 629.242188 155.320312 629.558594 155.75 C 629.875 156.183594 629.980469 156.738281 629.839844 157.257812 L 627.753906 164.914062 L 629.910156 172.550781 C 630.054688 173.070312 629.957031 173.625 629.644531 174.058594 C 629.328125 174.492188 628.832031 174.761719 628.296875 174.789062 L 620.359375 175.171875 L 613.757812 179.582031 C 613.464844 179.773438 613.121094 179.875 612.78125 179.875 Z M 606.003906 165.007812 L 610.882812 168.855469 C 611.132812 169.050781 611.328125 169.3125 611.441406 169.613281 L 613.644531 175.421875 L 618.808594 171.972656 C 619.074219 171.792969 619.386719 171.691406 619.703125 171.675781 L 625.914062 171.375 L 624.226562 165.402344 C 624.140625 165.09375 624.140625 164.769531 624.222656 164.460938 L 625.851562 158.46875 L 619.644531 158.226562 C 619.324219 158.214844 619.015625 158.113281 618.746094 157.9375 L 613.550781 154.535156 L 611.398438 160.359375 C 611.285156 160.65625 611.101562 160.921875 610.851562 161.121094 Z M 606.003906 165.007812 " fill-opacity="1" fill-rule="nonzero"/><path fill="#000000" d="M 602.410156 212.136719 C 602.410156 212.714844 602.382812 213.289062 602.328125 213.863281 C 602.269531 214.4375 602.1875 215.007812 602.074219 215.574219 C 601.960938 216.140625 601.820312 216.699219 601.652344 217.25 C 601.484375 217.804688 601.292969 218.347656 601.070312 218.878906 C 600.847656 219.410156 600.601562 219.933594 600.332031 220.441406 C 600.058594 220.949219 599.761719 221.445312 599.441406 221.925781 C 599.121094 222.402344 598.777344 222.867188 598.410156 223.3125 C 598.046875 223.757812 597.65625 224.183594 597.25 224.59375 C 596.839844 225 596.414062 225.386719 595.96875 225.753906 C 595.523438 226.121094 595.058594 226.464844 594.578125 226.785156 C 594.097656 227.105469 593.605469 227.398438 593.09375 227.671875 C 592.585938 227.945312 592.066406 228.191406 591.53125 228.410156 C 591 228.632812 590.457031 228.824219 589.902344 228.992188 C 589.351562 229.160156 588.792969 229.300781 588.226562 229.414062 C 587.660156 229.527344 587.089844 229.609375 586.515625 229.667969 C 585.941406 229.722656 585.363281 229.75 584.789062 229.75 C 584.210938 229.75 583.632812 229.722656 583.058594 229.667969 C 582.484375 229.609375 581.914062 229.527344 581.347656 229.414062 C 580.78125 229.300781 580.222656 229.160156 579.671875 228.992188 C 579.117188 228.824219 578.574219 228.632812 578.042969 228.410156 C 577.507812 228.191406 576.988281 227.945312 576.480469 227.671875 C 575.96875 227.398438 575.476562 227.105469 574.996094 226.785156 C 574.515625 226.464844 574.050781 226.121094 573.605469 225.753906 C 573.160156 225.386719 572.734375 225 572.324219 224.59375 C 571.917969 224.183594 571.527344 223.757812 571.164062 223.3125 C 570.796875 222.867188 570.453125 222.402344 570.132812 221.925781 C 569.8125 221.445312 569.515625 220.949219 569.242188 220.441406 C 568.972656 219.933594 568.726562 219.410156 568.503906 218.878906 C 568.28125 218.347656 568.089844 217.804688 567.921875 217.25 C 567.753906 216.699219 567.613281 216.140625 567.5 215.574219 C 567.386719 215.007812 567.304688 214.4375 567.246094 213.863281 C 567.191406 213.289062 567.164062 212.714844 567.164062 212.136719 C 567.164062 211.5625 567.191406 210.984375 567.246094 210.410156 C 567.304688 209.839844 567.386719 209.269531 567.5 208.703125 C 567.613281 208.136719 567.753906 207.578125 567.921875 207.027344 C 568.089844 206.472656 568.28125 205.929688 568.503906 205.398438 C 568.726562 204.863281 568.972656 204.34375 569.242188 203.835938 C 569.515625 203.328125 569.8125 202.832031 570.132812 202.351562 C 570.453125 201.875 570.796875 201.410156 571.164062 200.964844 C 571.527344 200.519531 571.917969 200.09375 572.324219 199.683594 C 572.734375 199.277344 573.160156 198.890625 573.605469 198.523438 C 574.050781 198.15625 574.515625 197.8125 574.996094 197.492188 C 575.476562 197.171875 575.96875 196.875 576.480469 196.605469 C 576.988281 196.332031 577.507812 196.085938 578.042969 195.867188 C 578.574219 195.644531 579.117188 195.449219 579.671875 195.285156 C 580.222656 195.117188 580.78125 194.976562 581.347656 194.863281 C 581.914062 194.75 582.484375 194.667969 583.058594 194.609375 C 583.632812 194.554688 584.210938 194.523438 584.789062 194.523438 C 585.363281 194.523438 585.941406 194.554688 586.515625 194.609375 C 587.089844 194.667969 587.660156 194.75 588.226562 194.863281 C 588.792969 194.976562 589.351562 195.117188 589.902344 195.285156 C 590.457031 195.449219 591 195.644531 591.53125 195.867188 C 592.066406 196.085938 592.585938 196.332031 593.09375 196.605469 C 593.605469 196.875 594.097656 197.171875 594.578125 197.492188 C 595.058594 197.8125 595.523438 198.15625 595.96875 198.523438 C 596.414062 198.890625 596.839844 199.277344 597.25 199.683594 C 597.65625 200.09375 598.046875 200.519531 598.410156 200.964844 C 598.777344 201.410156 599.121094 201.875 599.441406 202.351562 C 599.761719 202.832031 600.058594 203.328125 600.332031 203.835938 C 600.601562 204.34375 600.847656 204.863281 601.070312 205.398438 C 601.292969 205.929688 601.484375 206.472656 601.652344 207.027344 C 601.820312 207.578125 601.960938 208.136719 602.074219 208.703125 C 602.1875 209.269531 602.269531 209.839844 602.328125 210.410156 C 602.382812 210.984375 602.410156 211.5625 602.410156 212.136719 Z M 602.410156 212.136719 " fill-opacity="1" fill-rule="nonzero"/><path fill="#000000" d="M 584.78125 231.511719 C 574.09375 231.511719 565.398438 222.820312 565.398438 212.136719 C 565.398438 201.453125 574.09375 192.761719 584.78125 192.761719 C 595.472656 192.761719 604.171875 201.453125 604.171875 212.136719 C 604.171875 222.820312 595.472656 231.511719 584.78125 231.511719 Z M 584.78125 196.285156 C 576.039062 196.285156 568.921875 203.398438 568.921875 212.136719 C 568.921875 220.878906 576.039062 227.988281 584.78125 227.988281 C 593.53125 227.988281 600.648438 220.878906 600.648438 212.136719 C 600.648438 203.398438 593.53125 196.285156 584.78125 196.285156 Z M 584.78125 196.285156 " fill-opacity="1" fill-rule="nonzero"/><path fill="#ff2273" d="M 535.140625 203.039062 C 534.78125 203.039062 534.421875 202.929688 534.109375 202.703125 L 520.023438 192.484375 C 519.410156 192.039062 519.15625 191.25 519.382812 190.527344 L 524.253906 175.039062 C 524.542969 174.109375 525.53125 173.59375 526.460938 173.886719 C 527.390625 174.175781 527.902344 175.164062 527.613281 176.09375 L 523.125 190.375 L 536.179688 199.851562 C 536.96875 200.421875 537.140625 201.523438 536.570312 202.3125 C 536.226562 202.785156 535.6875 203.039062 535.140625 203.039062 Z M 535.140625 203.039062 " fill-opacity="1" fill-rule="nonzero"/><path fill="#ff2273" d="M 535.140625 203.039062 C 534.996094 203.039062 534.84375 203.019531 534.699219 202.980469 C 533.757812 202.734375 533.191406 201.773438 533.441406 200.832031 L 537.507812 185.226562 L 524.96875 177.039062 C 524.152344 176.507812 523.929688 175.414062 524.457031 174.601562 C 524.992188 173.78125 526.089844 173.5625 526.898438 174.089844 L 540.496094 182.96875 C 541.128906 183.382812 541.433594 184.15625 541.242188 184.886719 L 536.851562 201.71875 C 536.640625 202.511719 535.929688 203.039062 535.140625 203.039062 Z M 535.140625 203.039062 " fill-opacity="1" fill-rule="nonzero"/><path fill="#000000" d="M 269.054688 277.917969 C 267.550781 281.492188 263.316406 285.429688 259.644531 286.671875 L 247.765625 290.6875 C 244.089844 291.929688 240.058594 289.945312 238.808594 286.28125 L 232.773438 268.648438 C 231.519531 264.980469 233.5 260.964844 237.171875 259.722656 L 249.042969 255.710938 C 252.71875 254.46875 258.480469 255.019531 261.851562 256.933594 L 268.660156 260.800781 C 272.027344 262.714844 273.558594 267.203125 272.058594 270.777344 Z M 269.054688 277.917969 " fill-opacity="1" fill-rule="nonzero"/><path fill="#000000" d="M 299.117188 276.226562 C 302.691406 277.726562 306.632812 281.960938 307.875 285.628906 L 311.894531 297.5 C 313.140625 301.171875 311.152344 305.199219 307.480469 306.453125 L 289.84375 312.480469 C 286.171875 313.738281 282.152344 311.757812 280.914062 308.085938 L 276.898438 296.222656 C 275.65625 292.550781 276.203125 286.789062 278.121094 283.417969 L 281.988281 276.617188 C 283.902344 273.25 288.394531 271.71875 291.96875 273.222656 Z M 299.117188 276.226562 " fill-opacity="1" fill-rule="nonzero"/><path fill="#000000" d="M 433.734375 268.140625 C 434.316406 269.988281 433.296875 272.003906 431.453125 272.625 L 410.199219 279.785156 C 408.363281 280.40625 406.382812 279.398438 405.800781 277.550781 L 402.996094 268.664062 C 402.414062 266.816406 403.4375 264.796875 405.277344 264.179688 L 426.523438 257.023438 C 428.363281 256.402344 430.34375 257.410156 430.929688 259.257812 Z M 433.734375 268.140625 " fill-opacity="1" fill-rule="nonzero"/><path fill="#000000" d="M 455.597656 264.832031 C 453.996094 265.925781 452.207031 265.308594 451.625 263.460938 L 448.824219 254.570312 C 448.242188 252.722656 449.347656 251.121094 451.277344 251.011719 L 474.597656 249.671875 C 476.53125 249.558594 476.804688 250.363281 475.203125 251.457031 Z M 455.597656 264.832031 " fill-opacity="1" fill-rule="nonzero"/><path fill="#000000" d="M 297.425781 246.179688 C 298.925781 242.609375 303.160156 238.667969 306.835938 237.425781 L 318.714844 233.410156 C 322.386719 232.167969 326.417969 234.152344 327.667969 237.820312 L 333.703125 255.449219 C 334.960938 259.117188 332.980469 263.132812 329.308594 264.375 L 317.4375 268.386719 C 313.765625 269.628906 308 269.078125 304.628906 267.164062 L 297.816406 263.300781 C 294.449219 261.386719 292.914062 256.898438 294.417969 253.328125 Z M 297.425781 246.179688 " fill-opacity="1" fill-rule="nonzero"/><path fill="#000000" d="M 267.363281 247.875 C 263.789062 246.371094 259.847656 242.140625 258.601562 238.46875 L 254.582031 226.597656 C 253.339844 222.929688 255.324219 218.898438 258.996094 217.644531 L 276.640625 211.617188 C 280.308594 210.363281 284.328125 212.339844 285.570312 216.011719 L 289.585938 227.875 C 290.828125 231.546875 290.277344 237.304688 288.363281 240.675781 L 284.492188 247.480469 C 282.582031 250.847656 278.085938 252.378906 274.511719 250.875 Z M 267.363281 247.875 " fill-opacity="1" fill-rule="nonzero"/><path fill="#00bfc3" d="M 411.339844 287.371094 C 410.597656 287.371094 409.902344 286.894531 409.664062 286.148438 C 409.367188 285.21875 409.875 284.230469 410.804688 283.933594 L 434.890625 276.210938 C 435.824219 275.921875 436.8125 276.425781 437.109375 277.351562 C 437.40625 278.277344 436.894531 279.269531 435.96875 279.566406 L 411.882812 287.285156 C 411.703125 287.34375 411.519531 287.371094 411.339844 287.371094 Z M 411.339844 287.371094 " fill-opacity="1" fill-rule="nonzero"/><path fill="#00bfc3" d="M 457.167969 273.28125 C 456.414062 273.28125 455.714844 272.792969 455.480469 272.035156 C 455.199219 271.105469 455.722656 270.121094 456.652344 269.835938 L 480.152344 262.648438 C 481.09375 262.359375 482.070312 262.886719 482.355469 263.816406 C 482.640625 264.746094 482.117188 265.734375 481.1875 266.015625 L 457.683594 273.203125 C 457.511719 273.257812 457.335938 273.28125 457.167969 273.28125 Z M 457.167969 273.28125 " fill-opacity="1" fill-rule="nonzero"/><path fill="#00bfc3" d="M 562.589844 151.519531 C 562.371094 151.519531 562.144531 151.480469 561.925781 151.390625 C 554.589844 148.40625 547.253906 145.066406 545.207031 139.933594 C 544.414062 137.960938 544.492188 135.917969 545.417969 133.863281 C 546.414062 131.664062 548.007812 130.84375 549.171875 130.542969 C 553.066406 129.539062 557.578125 132.804688 558.082031 133.175781 C 558.859375 133.753906 559.023438 134.855469 558.445312 135.636719 C 557.863281 136.414062 556.765625 136.578125 555.980469 136 C 555.046875 135.3125 551.972656 133.441406 550.046875 133.953125 C 549.65625 134.054688 549.085938 134.308594 548.625 135.3125 C 548.09375 136.496094 548.046875 137.546875 548.476562 138.628906 C 550.140625 142.796875 558.347656 146.132812 563.25 148.128906 C 564.152344 148.492188 564.585938 149.523438 564.21875 150.421875 C 563.941406 151.105469 563.285156 151.519531 562.589844 151.519531 Z M 562.589844 151.519531 " fill-opacity="1" fill-rule="nonzero"/><path fill="#00bfc3" d="M 562.589844 151.519531 C 562.316406 151.519531 562.035156 151.457031 561.777344 151.320312 C 560.910156 150.867188 560.578125 149.804688 561.027344 148.941406 C 563.484375 144.253906 567.597656 136.40625 566.175781 132.152344 C 565.808594 131.046875 565.085938 130.273438 563.917969 129.71875 C 562.910156 129.242188 562.316406 129.421875 561.949219 129.597656 C 560.292969 130.398438 559.078125 133.574219 558.75 134.984375 C 558.527344 135.929688 557.59375 136.535156 556.632812 136.300781 C 555.6875 136.082031 555.09375 135.136719 555.3125 134.1875 C 555.457031 133.578125 556.808594 128.167969 560.417969 126.425781 C 561.5 125.902344 563.246094 125.5 565.433594 126.539062 C 567.472656 127.507812 568.847656 129.019531 569.519531 131.035156 C 571.269531 136.273438 567.832031 143.558594 564.15625 150.574219 C 563.835938 151.175781 563.222656 151.519531 562.589844 151.519531 Z M 562.589844 151.519531 " fill-opacity="1" fill-rule="nonzero"/><path fill="#00bfc3" d="M 582.78125 223.140625 C 582.417969 223.140625 582.050781 223.027344 581.75 222.808594 L 573.203125 216.628906 C 572.632812 216.214844 572.363281 215.5 572.515625 214.816406 L 574.824219 204.527344 C 574.953125 203.953125 575.367188 203.476562 575.921875 203.265625 L 586.777344 199.164062 C 587.332031 198.957031 587.945312 199.035156 588.429688 199.382812 L 596.980469 205.5625 C 597.554688 205.976562 597.820312 206.691406 597.671875 207.375 L 595.359375 217.664062 C 595.230469 218.238281 594.8125 218.714844 594.261719 218.925781 L 583.40625 223.027344 C 583.203125 223.105469 582.988281 223.140625 582.78125 223.140625 Z M 576.207031 214.453125 L 583.050781 219.398438 L 592.128906 215.964844 L 593.976562 207.734375 L 587.132812 202.792969 L 578.054688 206.226562 Z M 576.207031 214.453125 " fill-opacity="1" fill-rule="nonzero"/><path fill="#ff2273" d="M 383.355469 212.816406 C 381.085938 212.816406 378.988281 211.34375 378.296875 209.0625 C 377.449219 206.269531 379.03125 203.316406 381.828125 202.472656 L 458.984375 179.171875 C 461.757812 178.332031 464.734375 179.902344 465.574219 182.703125 C 466.421875 185.496094 464.835938 188.445312 462.042969 189.289062 L 384.886719 212.589844 C 384.375 212.742188 383.863281 212.816406 383.355469 212.816406 Z M 383.355469 212.816406 " fill-opacity="1" fill-rule="nonzero"/><path fill="#00bfc3" d="M 398.859375 226.816406 C 396.59375 226.816406 394.492188 225.347656 393.800781 223.066406 C 392.953125 220.273438 394.53125 217.320312 397.324219 216.472656 L 450.410156 200.367188 C 453.179688 199.515625 456.15625 201.09375 457.003906 203.886719 C 457.851562 206.679688 456.277344 209.632812 453.480469 210.476562 L 400.398438 226.585938 C 399.886719 226.738281 399.367188 226.816406 398.859375 226.816406 Z M 398.859375 226.816406 " fill-opacity="1" fill-rule="nonzero"/><path fill="#ffffff" d="M 253.226562 505.273438 C 246.285156 505.183594 237.816406 499.816406 233.8125 496.691406 C 227.210938 491.566406 222.359375 483.199219 220.085938 475.253906 C 218.277344 468.941406 218.84375 450.3125 230.722656 454.332031 C 237.132812 456.5 238.351562 467.976562 241.53125 473.089844 C 245.953125 480.183594 252.578125 485.679688 259.164062 490.640625 C 262.765625 493.351562 263.417969 499.117188 260.367188 502.441406 C 258.46875 504.515625 255.96875 505.300781 253.226562 505.273438 Z M 253.226562 505.273438 " fill-opacity="1" fill-rule="nonzero"/><path fill="#000000" d="M 253.367188 505.765625 L 253.207031 505.765625 C 244.5 505.765625 234.621094 498.921875 232.726562 497.449219 C 226.332031 492.480469 220.96875 484.441406 218.390625 475.421875 C 217.199219 471.277344 216.695312 460.890625 220.917969 455.289062 C 223.34375 452.074219 227.003906 451.144531 231.289062 452.585938 C 236.386719 454.308594 238.53125 460.464844 240.417969 465.859375 C 241.273438 468.296875 242.078125 470.609375 243.03125 472.140625 C 247.28125 478.964844 253.804688 484.390625 260.226562 489.226562 C 262.378906 490.847656 263.765625 493.417969 264.027344 496.265625 C 264.28125 499.03125 263.421875 501.085938 261.667969 502.996094 C 259.601562 505.253906 256.808594 505.765625 253.367188 505.765625 Z M 227.613281 455.53125 C 226.039062 455.53125 224.769531 456.199219 223.738281 457.570312 C 220.738281 461.546875 220.574219 470.554688 221.78125 474.769531 C 224.167969 483.097656 229.070312 490.804688 234.898438 495.332031 C 239.695312 499.074219 248.023438 503.566406 253.898438 503.566406 L 254.65625 503.566406 C 254.65625 503.566406 258.324219 502.804688 259.714844 501.28125 C 260.796875 500.101562 261.003906 498.382812 260.839844 496.601562 C 260.667969 494.746094 259.628906 493.082031 258.269531 492.058594 C 251.578125 487.015625 244.675781 481.339844 240.117188 474.023438 C 238.960938 472.164062 238.050781 469.6875 237.132812 467.058594 C 235.511719 462.429688 233.652344 457.175781 230.179688 456.003906 C 229.257812 455.691406 228.378906 455.53125 227.613281 455.53125 Z M 227.613281 455.53125 " fill-opacity="1" fill-rule="nonzero"/><path fill="#ffffff" d="M 693.875 312.945312 C 698.183594 318.40625 699.34375 328.375 699.433594 333.457031 C 699.605469 341.820312 696.148438 350.851562 691.390625 357.605469 C 687.613281 362.976562 672.726562 374.222656 668.367188 362.4375 C 666.011719 356.085938 674.191406 347.933594 676.167969 342.246094 C 678.90625 334.351562 679.015625 325.742188 678.722656 317.492188 C 678.5625 312.984375 682.640625 308.859375 687.164062 309.148438 C 689.972656 309.328125 692.164062 310.785156 693.875 312.945312 Z M 693.875 312.945312 " fill-opacity="1" fill-rule="nonzero"/><path fill="#000000" d="M 675.082031 369.382812 C 672.332031 369.382812 668.652344 368.28125 666.714844 363.046875 C 664.84375 357.988281 668.253906 352.488281 671.269531 347.628906 C 672.628906 345.4375 673.910156 343.363281 674.503906 341.664062 C 677.136719 334.058594 677.238281 325.578125 676.957031 317.550781 C 676.867188 314.980469 677.902344 312.382812 679.792969 310.417969 C 681.804688 308.339844 684.570312 307.203125 687.277344 307.390625 C 690.375 307.582031 693.066406 309.082031 695.257812 311.847656 C 700.671875 318.710938 701.15625 331.027344 701.195312 333.425781 C 701.363281 341.523438 698.238281 350.941406 692.832031 358.617188 C 690.273438 362.253906 682.183594 369.382812 675.082031 369.382812 Z M 687.007812 312.453125 C 685.105469 312.453125 683.535156 312.394531 682.332031 313.636719 C 681.097656 314.917969 680.425781 316.191406 680.480469 317.816406 C 680.777344 326.1875 680.65625 334.867188 677.832031 343.019531 C 677.109375 345.089844 675.726562 347.21875 674.261719 349.582031 C 671.675781 353.753906 668.742188 358.433594 670.019531 361.871094 C 671.035156 364.625 672.644531 365.882812 675.078125 365.882812 C 680.09375 365.882812 687.347656 360.289062 689.941406 356.605469 C 694.933594 349.519531 697.820312 340.878906 697.667969 333.5 C 697.558594 327.414062 696.136719 319.4375 692.484375 314.804688 C 690.921875 312.832031 689.140625 312.449219 687.046875 312.449219 C 687.035156 312.453125 687.023438 312.453125 687.007812 312.453125 Z M 687.007812 312.453125 " fill-opacity="1" fill-rule="nonzero"/></svg>