<svg xmlns="http://www.w3.org/2000/svg" xmlns:xlink="http://www.w3.org/1999/xlink" width="1122" zoomAndPan="magnify" viewBox="0 0 841.92 595.499987" height="793" preserveAspectRatio="xMidYMid meet" version="1.0"><defs><clipPath id="023d9b2b38"><path d="M 269.199219 72.707031 L 555.960938 72.707031 L 555.960938 487.964844 L 269.199219 487.964844 Z M 269.199219 72.707031 " clip-rule="nonzero"/></clipPath><clipPath id="cfd4e0eabb"><path d="M 257.609375 73 L 567.875 73 L 567.875 116 L 257.609375 116 Z M 257.609375 73 " clip-rule="nonzero"/></clipPath><clipPath id="92ae651381"><path d="M 257.609375 479 L 567.875 479 L 567.875 522.4375 L 257.609375 522.4375 Z M 257.609375 479 " clip-rule="nonzero"/></clipPath></defs><path fill="#ffffff" d="M 418.75 303.296875 C 418.75 303.703125 418.707031 304.105469 418.628906 304.5 C 418.550781 304.898438 418.433594 305.285156 418.277344 305.660156 C 418.125 306.035156 417.933594 306.390625 417.707031 306.726562 C 417.484375 307.0625 417.226562 307.375 416.941406 307.660156 C 416.65625 307.949219 416.34375 308.203125 416.007812 308.429688 C 415.667969 308.65625 415.3125 308.84375 414.941406 309 C 414.566406 309.15625 414.179688 309.273438 413.78125 309.351562 C 413.386719 309.429688 412.984375 309.46875 412.578125 309.46875 C 412.171875 309.46875 411.773438 309.429688 411.375 309.351562 C 410.976562 309.273438 410.59375 309.15625 410.21875 309 C 409.84375 308.84375 409.488281 308.65625 409.152344 308.429688 C 408.8125 308.203125 408.503906 307.949219 408.214844 307.660156 C 407.929688 307.375 407.675781 307.0625 407.449219 306.726562 C 407.222656 306.390625 407.035156 306.035156 406.878906 305.660156 C 406.722656 305.285156 406.605469 304.898438 406.527344 304.5 C 406.449219 304.105469 406.410156 303.703125 406.410156 303.296875 C 406.410156 302.890625 406.449219 302.492188 406.527344 302.09375 C 406.605469 301.695312 406.722656 301.308594 406.878906 300.933594 C 407.035156 300.5625 407.222656 300.207031 407.449219 299.867188 C 407.675781 299.53125 407.929688 299.21875 408.214844 298.933594 C 408.503906 298.644531 408.8125 298.390625 409.152344 298.164062 C 409.488281 297.941406 409.84375 297.75 410.21875 297.59375 C 410.59375 297.441406 410.976562 297.324219 411.375 297.242188 C 411.773438 297.164062 412.171875 297.125 412.578125 297.125 C 412.984375 297.125 413.386719 297.164062 413.78125 297.242188 C 414.179688 297.324219 414.566406 297.441406 414.941406 297.59375 C 415.3125 297.75 415.667969 297.941406 416.007812 298.164062 C 416.34375 298.390625 416.65625 298.644531 416.941406 298.933594 C 417.226562 299.21875 417.484375 299.53125 417.707031 299.867188 C 417.933594 300.207031 418.125 300.5625 418.277344 300.933594 C 418.433594 301.308594 418.550781 301.695312 418.628906 302.09375 C 418.707031 302.492188 418.75 302.890625 418.75 303.296875 Z M 418.75 303.296875 " fill-opacity="1" fill-rule="nonzero"/><path fill="#ffffff" d="M 418.75 327.691406 C 418.75 328.097656 418.707031 328.496094 418.628906 328.894531 C 418.550781 329.292969 418.433594 329.679688 418.277344 330.054688 C 418.125 330.429688 417.933594 330.785156 417.707031 331.121094 C 417.484375 331.457031 417.226562 331.769531 416.941406 332.054688 C 416.65625 332.34375 416.34375 332.597656 416.007812 332.824219 C 415.667969 333.046875 415.3125 333.238281 414.941406 333.394531 C 414.566406 333.550781 414.179688 333.667969 413.78125 333.746094 C 413.386719 333.824219 412.984375 333.863281 412.578125 333.863281 C 412.171875 333.863281 411.773438 333.824219 411.375 333.746094 C 410.976562 333.667969 410.59375 333.550781 410.21875 333.394531 C 409.84375 333.238281 409.488281 333.046875 409.152344 332.824219 C 408.8125 332.597656 408.503906 332.34375 408.214844 332.054688 C 407.929688 331.769531 407.675781 331.457031 407.449219 331.121094 C 407.222656 330.785156 407.035156 330.429688 406.878906 330.054688 C 406.722656 329.679688 406.605469 329.292969 406.527344 328.894531 C 406.449219 328.496094 406.410156 328.097656 406.410156 327.691406 C 406.410156 327.285156 406.449219 326.882812 406.527344 326.488281 C 406.605469 326.089844 406.722656 325.703125 406.878906 325.328125 C 407.035156 324.953125 407.222656 324.597656 407.449219 324.261719 C 407.675781 323.925781 407.929688 323.613281 408.214844 323.328125 C 408.503906 323.039062 408.8125 322.785156 409.152344 322.558594 C 409.488281 322.332031 409.84375 322.144531 410.21875 321.988281 C 410.59375 321.832031 410.976562 321.714844 411.375 321.636719 C 411.773438 321.558594 412.171875 321.519531 412.578125 321.519531 C 412.984375 321.519531 413.386719 321.558594 413.78125 321.636719 C 414.179688 321.714844 414.566406 321.832031 414.941406 321.988281 C 415.3125 322.144531 415.667969 322.332031 416.007812 322.558594 C 416.34375 322.785156 416.65625 323.039062 416.941406 323.328125 C 417.226562 323.613281 417.484375 323.925781 417.707031 324.261719 C 417.933594 324.597656 418.125 324.953125 418.277344 325.328125 C 418.433594 325.703125 418.550781 326.089844 418.628906 326.488281 C 418.707031 326.882812 418.75 327.285156 418.75 327.691406 Z M 418.75 327.691406 " fill-opacity="1" fill-rule="nonzero"/><g clip-path="url(#023d9b2b38)"><path fill="#ffffff" d="M 455.863281 265.816406 L 482.515625 241.472656 L 495.300781 229.871094 C 518.398438 209.03125 529.851562 180.785156 530.292969 143.40625 L 530.292969 112 L 549.640625 112 C 550.054688 112.007812 550.460938 111.976562 550.867188 111.90625 C 551.269531 111.832031 551.664062 111.722656 552.046875 111.570312 C 552.429688 111.421875 552.796875 111.234375 553.140625 111.011719 C 553.484375 110.785156 553.804688 110.53125 554.101562 110.242188 C 554.394531 109.957031 554.65625 109.640625 554.890625 109.300781 C 555.121094 108.960938 555.316406 108.601562 555.476562 108.222656 C 555.636719 107.84375 555.757812 107.453125 555.835938 107.046875 C 555.917969 106.644531 555.960938 106.238281 555.960938 105.824219 L 555.960938 79.113281 C 555.960938 78.707031 555.917969 78.304688 555.839844 77.90625 C 555.761719 77.507812 555.644531 77.125 555.488281 76.75 C 555.335938 76.375 555.144531 76.019531 554.917969 75.683594 C 554.695312 75.34375 554.4375 75.035156 554.152344 74.746094 C 553.867188 74.460938 553.554688 74.203125 553.21875 73.980469 C 552.878906 73.753906 552.523438 73.5625 552.152344 73.410156 C 551.777344 73.253906 551.390625 73.136719 550.992188 73.058594 C 550.597656 72.976562 550.195312 72.9375 549.789062 72.9375 L 275.464844 72.9375 C 275.0625 72.9375 274.660156 72.976562 274.261719 73.058594 C 273.867188 73.136719 273.480469 73.253906 273.105469 73.410156 C 272.730469 73.5625 272.375 73.753906 272.039062 73.980469 C 271.703125 74.203125 271.390625 74.460938 271.105469 74.746094 C 270.816406 75.035156 270.5625 75.34375 270.335938 75.683594 C 270.113281 76.019531 269.921875 76.375 269.765625 76.75 C 269.613281 77.125 269.496094 77.507812 269.414062 77.90625 C 269.335938 78.304688 269.296875 78.707031 269.296875 79.113281 L 269.296875 105.824219 C 269.296875 106.230469 269.335938 106.632812 269.414062 107.03125 C 269.496094 107.429688 269.613281 107.8125 269.765625 108.1875 C 269.921875 108.5625 270.113281 108.917969 270.335938 109.253906 C 270.5625 109.59375 270.816406 109.902344 271.105469 110.191406 C 271.390625 110.476562 271.703125 110.734375 272.039062 110.957031 C 272.375 111.183594 272.730469 111.375 273.105469 111.527344 C 273.480469 111.683594 273.867188 111.800781 274.261719 111.878906 C 274.660156 111.960938 275.0625 112 275.464844 112 L 294.8125 112 L 294.8125 143.304688 C 295.257812 180.585938 306.757812 208.832031 329.855469 229.621094 L 344.664062 243.152344 L 369.34375 265.667969 C 370.625 266.636719 371.792969 267.726562 372.84375 268.941406 C 373.894531 270.15625 374.804688 271.46875 375.574219 272.875 C 376.34375 274.285156 376.957031 275.761719 377.414062 277.300781 C 377.867188 278.839844 378.15625 280.414062 378.277344 282.015625 C 378.117188 283.667969 377.789062 285.285156 377.289062 286.867188 C 376.789062 288.449219 376.125 289.964844 375.304688 291.40625 C 374.484375 292.847656 373.523438 294.1875 372.417969 295.425781 C 371.3125 296.667969 370.089844 297.773438 368.75 298.753906 L 329.757812 334.40625 C 306.660156 355.195312 295.210938 383.441406 294.714844 420.824219 L 294.714844 448.082031 L 275.464844 448.082031 C 275.054688 448.078125 274.648438 448.121094 274.246094 448.203125 C 273.839844 448.285156 273.449219 448.402344 273.070312 448.5625 C 272.691406 448.722656 272.332031 448.917969 271.992188 449.152344 C 271.652344 449.382812 271.339844 449.644531 271.050781 449.941406 C 270.761719 450.234375 270.507812 450.554688 270.285156 450.898438 C 270.0625 451.246094 269.875 451.609375 269.722656 451.992188 C 269.574219 452.375 269.460938 452.769531 269.390625 453.175781 C 269.316406 453.582031 269.289062 453.988281 269.296875 454.402344 L 269.296875 481.117188 C 269.296875 481.519531 269.335938 481.921875 269.414062 482.320312 C 269.496094 482.71875 269.613281 483.101562 269.765625 483.476562 C 269.921875 483.851562 270.113281 484.207031 270.335938 484.542969 C 270.5625 484.882812 270.816406 485.195312 271.105469 485.480469 C 271.390625 485.765625 271.703125 486.023438 272.039062 486.246094 C 272.375 486.472656 272.730469 486.664062 273.105469 486.816406 C 273.480469 486.972656 273.867188 487.089844 274.261719 487.167969 C 274.660156 487.25 275.0625 487.289062 275.464844 487.289062 L 549.640625 487.289062 C 550.058594 487.296875 550.472656 487.265625 550.882812 487.191406 C 551.296875 487.117188 551.695312 487.003906 552.082031 486.847656 C 552.472656 486.691406 552.839844 486.5 553.1875 486.269531 C 553.535156 486.039062 553.859375 485.777344 554.152344 485.480469 C 554.449219 485.1875 554.710938 484.863281 554.941406 484.515625 C 555.171875 484.167969 555.363281 483.796875 555.519531 483.410156 C 555.675781 483.023438 555.789062 482.621094 555.863281 482.210938 C 555.9375 481.800781 555.96875 481.386719 555.960938 480.96875 L 555.960938 454.402344 C 555.960938 453.996094 555.917969 453.59375 555.839844 453.195312 C 555.761719 452.800781 555.644531 452.414062 555.488281 452.039062 C 555.335938 451.664062 555.144531 451.308594 554.917969 450.972656 C 554.695312 450.632812 554.4375 450.324219 554.152344 450.035156 C 553.867188 449.75 553.554688 449.492188 553.21875 449.269531 C 552.878906 449.042969 552.523438 448.851562 552.152344 448.699219 C 551.777344 448.542969 551.390625 448.425781 550.992188 448.347656 C 550.597656 448.269531 550.195312 448.226562 549.789062 448.226562 L 530.292969 448.226562 L 530.292969 420.722656 C 529.851562 383.441406 518.398438 355.195312 495.300781 334.40625 L 456.257812 298.707031 C 454.933594 297.734375 453.722656 296.636719 452.625 295.40625 C 451.53125 294.179688 450.578125 292.851562 449.765625 291.421875 C 448.953125 289.992188 448.300781 288.492188 447.804688 286.921875 C 447.3125 285.355469 446.988281 283.75 446.832031 282.113281 C 446.96875 280.511719 447.269531 278.945312 447.738281 277.410156 C 448.203125 275.875 448.828125 274.402344 449.605469 273 C 450.382812 271.59375 451.300781 270.289062 452.355469 269.078125 C 453.410156 267.867188 454.578125 266.78125 455.863281 265.816406 Z M 434.492188 282.164062 C 434.628906 284.664062 435.027344 287.125 435.691406 289.539062 C 436.351562 291.957031 437.265625 294.273438 438.429688 296.496094 C 439.589844 298.714844 440.976562 300.785156 442.585938 302.707031 C 444.191406 304.628906 445.988281 306.355469 447.96875 307.890625 L 486.859375 343.542969 C 507.589844 362.207031 517.410156 386.800781 517.804688 420.824219 L 517.804688 448.082031 L 307.152344 448.082031 L 307.152344 420.871094 C 307.597656 386.800781 317.417969 362.207031 338.148438 343.542969 L 377.140625 307.9375 C 379.136719 306.390625 380.941406 304.648438 382.5625 302.714844 C 384.179688 300.777344 385.578125 298.691406 386.746094 296.453125 C 387.917969 294.21875 388.839844 291.882812 389.507812 289.449219 C 390.175781 287.011719 390.578125 284.535156 390.714844 282.015625 C 390.589844 279.570312 390.203125 277.167969 389.5625 274.804688 C 388.917969 272.445312 388.027344 270.179688 386.894531 268.011719 C 385.761719 265.84375 384.410156 263.820312 382.839844 261.941406 C 381.273438 260.066406 379.519531 258.378906 377.585938 256.878906 L 352.90625 234.363281 L 338.101562 220.832031 C 317.417969 202.167969 307.597656 177.574219 307.152344 143.550781 L 307.152344 112 L 517.953125 112 L 517.953125 143.304688 C 517.558594 177.378906 507.738281 201.96875 487.007812 220.636719 C 482.714844 224.488281 478.46875 228.386719 474.175781 232.339844 L 447.375 256.878906 C 445.46875 258.410156 443.742188 260.125 442.199219 262.023438 C 440.65625 263.921875 439.332031 265.957031 438.222656 268.136719 C 437.109375 270.316406 436.242188 272.589844 435.613281 274.953125 C 434.984375 277.316406 434.613281 279.71875 434.492188 282.164062 Z M 434.492188 282.164062 " fill-opacity="1" fill-rule="nonzero"/></g><path fill="#ffffff" d="M 493.820312 192.6875 C 494.152344 192.109375 494.382812 191.5 494.515625 190.847656 C 494.648438 190.195312 494.675781 189.542969 494.59375 188.882812 C 494.515625 188.222656 494.332031 187.59375 494.046875 186.996094 C 493.761719 186.394531 493.390625 185.855469 492.929688 185.378906 C 492.480469 184.886719 491.960938 184.484375 491.375 184.167969 C 490.789062 183.847656 490.171875 183.632812 489.515625 183.523438 C 488.855469 183.410156 488.199219 183.40625 487.542969 183.515625 C 486.886719 183.621094 486.261719 183.832031 485.675781 184.144531 C 461.34375 196.539062 452.210938 201.179688 414.453125 189.082031 C 411.464844 188.105469 408.433594 187.277344 405.363281 186.589844 C 402.292969 185.90625 399.199219 185.371094 396.078125 184.980469 C 392.957031 184.589844 389.824219 184.351562 386.679688 184.261719 C 383.535156 184.171875 380.394531 184.234375 377.253906 184.445312 C 374.117188 184.65625 370.996094 185.015625 367.894531 185.527344 C 364.789062 186.035156 361.714844 186.691406 358.675781 187.496094 C 355.632812 188.296875 352.636719 189.246094 349.6875 190.335938 C 346.738281 191.425781 343.84375 192.652344 341.011719 194.019531 C 340.59375 194.21875 340.203125 194.460938 339.839844 194.746094 C 339.476562 195.03125 339.148438 195.355469 338.855469 195.714844 C 338.566406 196.074219 338.316406 196.460938 338.113281 196.878906 C 337.910156 197.292969 337.753906 197.726562 337.648438 198.175781 C 337.539062 198.625 337.484375 199.082031 337.480469 199.546875 C 337.476562 200.007812 337.523438 200.46875 337.625 200.917969 C 337.722656 201.371094 337.871094 201.808594 338.066406 202.226562 C 338.265625 202.644531 338.503906 203.035156 338.789062 203.402344 C 341.160156 206.214844 394.859375 257.71875 395.351562 257.71875 C 397.34375 260.007812 398.929688 262.546875 400.109375 265.339844 C 401.292969 268.132812 402.007812 271.042969 402.261719 274.0625 C 402.34375 274.6875 402.480469 275.296875 402.675781 275.894531 C 402.871094 276.492188 403.125 277.0625 403.429688 277.613281 C 403.734375 278.160156 404.089844 278.675781 404.492188 279.15625 C 404.894531 279.636719 405.339844 280.078125 405.828125 280.472656 C 406.3125 280.871094 406.835938 281.214844 407.386719 281.511719 C 407.941406 281.808594 408.515625 282.050781 409.117188 282.238281 C 409.714844 282.425781 410.328125 282.554688 410.949219 282.625 C 411.574219 282.695312 412.199219 282.707031 412.824219 282.65625 C 413.417969 282.714844 414.011719 282.714844 414.605469 282.652344 C 415.199219 282.59375 415.78125 282.476562 416.351562 282.300781 C 416.921875 282.125 417.46875 281.894531 417.992188 281.613281 C 418.519531 281.328125 419.007812 280.996094 419.46875 280.617188 C 419.925781 280.234375 420.34375 279.8125 420.71875 279.347656 C 421.09375 278.886719 421.421875 278.390625 421.699219 277.859375 C 421.976562 277.332031 422.199219 276.78125 422.367188 276.210938 C 422.535156 275.636719 422.644531 275.054688 422.695312 274.460938 C 422.933594 272.503906 423.347656 270.589844 423.9375 268.710938 C 424.53125 266.832031 425.292969 265.027344 426.21875 263.289062 C 427.148438 261.554688 428.230469 259.921875 429.460938 258.386719 C 430.695312 256.851562 432.058594 255.445312 433.554688 254.164062 C 434.394531 253.421875 437.847656 250.113281 442.539062 245.621094 C 454.085938 234.558594 473.335938 215.992188 478.617188 211.351562 C 484.691406 205.949219 489.757812 199.726562 493.820312 192.6875 Z M 493.820312 192.6875 " fill-opacity="1" fill-rule="nonzero"/><path fill="#ffffff" d="M 327.585938 428.328125 C 327.578125 428.742188 327.609375 429.15625 327.683594 429.566406 C 327.753906 429.976562 327.867188 430.371094 328.023438 430.757812 C 328.175781 431.144531 328.367188 431.511719 328.59375 431.859375 C 328.820312 432.207031 329.082031 432.53125 329.375 432.824219 C 329.667969 433.121094 329.988281 433.382812 330.332031 433.613281 C 330.679688 433.84375 331.042969 434.039062 331.429688 434.195312 C 331.8125 434.351562 332.210938 434.46875 332.621094 434.542969 C 333.027344 434.621094 333.441406 434.65625 333.855469 434.648438 L 491.351562 434.648438 C 491.757812 434.648438 492.15625 434.609375 492.554688 434.53125 C 492.953125 434.449219 493.339844 434.335938 493.710938 434.179688 C 494.085938 434.023438 494.441406 433.832031 494.777344 433.609375 C 495.117188 433.382812 495.429688 433.128906 495.714844 432.839844 C 496 432.554688 496.257812 432.242188 496.480469 431.90625 C 496.707031 431.570312 496.898438 431.210938 497.050781 430.839844 C 497.207031 430.464844 497.324219 430.078125 497.402344 429.679688 C 497.480469 429.28125 497.519531 428.882812 497.519531 428.476562 C 497.488281 427.105469 497.421875 425.738281 497.324219 424.371094 C 497.222656 423.003906 497.09375 421.640625 496.925781 420.28125 C 496.761719 418.921875 496.5625 417.566406 496.332031 416.214844 C 496.101562 414.863281 495.839844 413.519531 495.542969 412.179688 C 495.25 410.84375 494.921875 409.511719 494.5625 408.191406 C 494.203125 406.867188 493.8125 405.554688 493.386719 404.253906 C 492.964844 402.949219 492.511719 401.65625 492.023438 400.375 C 491.539062 399.09375 491.023438 397.828125 490.476562 396.570312 C 489.929688 395.3125 489.351562 394.070312 488.746094 392.84375 C 488.136719 391.613281 487.5 390.402344 486.835938 389.203125 C 486.171875 388.007812 485.476562 386.824219 484.753906 385.660156 C 484.03125 384.496094 483.28125 383.351562 482.503906 382.222656 C 481.726562 381.097656 480.921875 379.988281 480.089844 378.898438 C 479.257812 377.808594 478.398438 376.742188 477.515625 375.695312 C 476.632812 374.648438 475.726562 373.621094 474.792969 372.617188 C 473.859375 371.617188 472.902344 370.636719 471.925781 369.679688 C 470.945312 368.71875 469.941406 367.789062 468.917969 366.878906 C 467.890625 365.96875 466.84375 365.085938 465.777344 364.230469 C 464.707031 363.371094 463.621094 362.539062 462.511719 361.734375 C 461.40625 360.929688 460.277344 360.148438 459.132812 359.398438 C 457.988281 358.648438 456.824219 357.925781 455.644531 357.230469 C 454.460938 356.535156 453.265625 355.871094 452.054688 355.234375 C 450.839844 354.597656 449.613281 353.988281 448.371094 353.410156 C 447.128906 352.835938 445.875 352.289062 444.605469 351.769531 C 443.335938 351.253906 442.058594 350.769531 440.765625 350.3125 C 439.472656 349.859375 438.171875 349.433594 436.859375 349.042969 C 435.546875 348.652344 434.226562 348.292969 432.894531 347.964844 C 431.566406 347.636719 430.226562 347.339844 428.882812 347.078125 C 427.539062 346.8125 426.191406 346.582031 424.835938 346.386719 C 423.480469 346.1875 422.121094 346.023438 420.757812 345.890625 C 419.394531 345.757812 418.027344 345.65625 416.660156 345.589844 C 415.292969 345.527344 413.921875 345.492188 412.554688 345.492188 C 411.183594 345.492188 409.816406 345.527344 408.449219 345.589844 C 407.078125 345.65625 405.714844 345.757812 404.351562 345.890625 C 402.988281 346.023438 401.628906 346.1875 400.273438 346.386719 C 398.917969 346.582031 397.566406 346.8125 396.222656 347.078125 C 394.878906 347.339844 393.542969 347.636719 392.214844 347.964844 C 390.882812 348.292969 389.5625 348.652344 388.25 349.042969 C 386.9375 349.433594 385.636719 349.859375 384.34375 350.3125 C 383.050781 350.769531 381.769531 351.253906 380.503906 351.769531 C 379.234375 352.289062 377.980469 352.835938 376.738281 353.410156 C 375.496094 353.988281 374.265625 354.597656 373.054688 355.234375 C 371.84375 355.871094 370.644531 356.535156 369.464844 357.230469 C 368.285156 357.925781 367.121094 358.648438 365.976562 359.398438 C 364.828125 360.148438 363.703125 360.929688 362.59375 361.734375 C 361.488281 362.539062 360.398438 363.371094 359.332031 364.230469 C 358.265625 365.085938 357.21875 365.96875 356.191406 366.878906 C 355.167969 367.789062 354.164062 368.71875 353.183594 369.679688 C 352.203125 370.636719 351.246094 371.617188 350.316406 372.617188 C 349.382812 373.621094 348.472656 374.648438 347.589844 375.695312 C 346.707031 376.742188 345.851562 377.808594 345.019531 378.898438 C 344.1875 379.988281 343.382812 381.097656 342.605469 382.222656 C 341.828125 383.351562 341.078125 384.496094 340.355469 385.660156 C 339.632812 386.824219 338.9375 388.007812 338.273438 389.203125 C 337.605469 390.402344 336.96875 391.613281 336.363281 392.84375 C 335.757812 394.070312 335.179688 395.3125 334.632812 396.570312 C 334.085938 397.828125 333.570312 399.09375 333.082031 400.375 C 332.597656 401.65625 332.144531 402.949219 331.71875 404.253906 C 331.296875 405.554688 330.90625 406.867188 330.546875 408.191406 C 330.1875 409.511719 329.859375 410.84375 329.5625 412.179688 C 329.269531 413.519531 329.003906 414.863281 328.773438 416.214844 C 328.542969 417.566406 328.347656 418.921875 328.179688 420.28125 C 328.015625 421.640625 327.882812 423.003906 327.785156 424.371094 C 327.6875 425.738281 327.621094 427.105469 327.585938 428.476562 Z M 327.585938 428.328125 " fill-opacity="1" fill-rule="nonzero"/><path fill="#4c91d4" d="M 419.414062 322.976562 C 419.414062 323.414062 419.371094 323.851562 419.289062 324.28125 C 419.203125 324.710938 419.074219 325.128906 418.90625 325.535156 C 418.738281 325.941406 418.535156 326.324219 418.289062 326.691406 C 418.046875 327.054688 417.769531 327.394531 417.460938 327.703125 C 417.152344 328.015625 416.8125 328.292969 416.449219 328.535156 C 416.085938 328.777344 415.699219 328.984375 415.296875 329.152344 C 414.890625 329.320312 414.472656 329.449219 414.042969 329.535156 C 413.613281 329.617188 413.179688 329.660156 412.742188 329.660156 C 412.300781 329.660156 411.867188 329.617188 411.4375 329.535156 C 411.007812 329.449219 410.589844 329.320312 410.1875 329.152344 C 409.78125 328.984375 409.394531 328.777344 409.03125 328.535156 C 408.667969 328.292969 408.332031 328.015625 408.019531 327.703125 C 407.710938 327.394531 407.433594 327.054688 407.191406 326.691406 C 406.945312 326.324219 406.742188 325.941406 406.574219 325.535156 C 406.40625 325.128906 406.277344 324.710938 406.195312 324.28125 C 406.109375 323.851562 406.066406 323.414062 406.066406 322.976562 C 406.066406 322.539062 406.109375 322.101562 406.195312 321.671875 C 406.277344 321.242188 406.40625 320.824219 406.574219 320.417969 C 406.742188 320.011719 406.945312 319.628906 407.191406 319.261719 C 407.433594 318.898438 407.710938 318.558594 408.019531 318.25 C 408.332031 317.9375 408.667969 317.660156 409.03125 317.417969 C 409.394531 317.175781 409.78125 316.96875 410.1875 316.800781 C 410.589844 316.632812 411.007812 316.503906 411.4375 316.417969 C 411.867188 316.335938 412.300781 316.292969 412.742188 316.292969 C 413.179688 316.292969 413.613281 316.335938 414.042969 316.417969 C 414.472656 316.503906 414.890625 316.632812 415.296875 316.800781 C 415.699219 316.96875 416.085938 317.175781 416.449219 317.417969 C 416.8125 317.660156 417.152344 317.9375 417.460938 318.25 C 417.769531 318.558594 418.046875 318.898438 418.289062 319.261719 C 418.535156 319.628906 418.738281 320.011719 418.90625 320.417969 C 419.074219 320.824219 419.203125 321.242188 419.289062 321.671875 C 419.371094 322.101562 419.414062 322.539062 419.414062 322.976562 Z M 419.414062 322.976562 " fill-opacity="1" fill-rule="nonzero"/><path fill="#4c91d4" d="M 419.414062 349.394531 C 419.414062 349.835938 419.371094 350.269531 419.289062 350.699219 C 419.203125 351.132812 419.074219 351.550781 418.90625 351.953125 C 418.738281 352.359375 418.535156 352.746094 418.289062 353.109375 C 418.046875 353.476562 417.769531 353.8125 417.460938 354.125 C 417.152344 354.433594 416.8125 354.710938 416.449219 354.953125 C 416.085938 355.199219 415.699219 355.40625 415.296875 355.574219 C 414.890625 355.742188 414.472656 355.867188 414.042969 355.953125 C 413.613281 356.039062 413.179688 356.082031 412.742188 356.082031 C 412.300781 356.082031 411.867188 356.039062 411.4375 355.953125 C 411.007812 355.867188 410.589844 355.742188 410.1875 355.574219 C 409.78125 355.40625 409.394531 355.199219 409.03125 354.953125 C 408.667969 354.710938 408.332031 354.433594 408.019531 354.125 C 407.710938 353.8125 407.433594 353.476562 407.191406 353.109375 C 406.945312 352.746094 406.742188 352.359375 406.574219 351.953125 C 406.40625 351.550781 406.277344 351.132812 406.195312 350.699219 C 406.109375 350.269531 406.066406 349.835938 406.066406 349.394531 C 406.066406 348.957031 406.109375 348.523438 406.195312 348.09375 C 406.277344 347.660156 406.40625 347.242188 406.574219 346.839844 C 406.742188 346.433594 406.945312 346.046875 407.191406 345.683594 C 407.433594 345.316406 407.710938 344.980469 408.019531 344.667969 C 408.332031 344.359375 408.667969 344.082031 409.03125 343.835938 C 409.394531 343.59375 409.78125 343.386719 410.1875 343.21875 C 410.589844 343.050781 411.007812 342.925781 411.4375 342.839844 C 411.867188 342.753906 412.300781 342.710938 412.742188 342.710938 C 413.179688 342.710938 413.613281 342.753906 414.042969 342.839844 C 414.472656 342.925781 414.890625 343.050781 415.296875 343.21875 C 415.699219 343.386719 416.085938 343.59375 416.449219 343.835938 C 416.8125 344.082031 417.152344 344.359375 417.460938 344.667969 C 417.769531 344.980469 418.046875 345.316406 418.289062 345.683594 C 418.535156 346.046875 418.738281 346.433594 418.90625 346.839844 C 419.074219 347.242188 419.203125 347.660156 419.289062 348.09375 C 419.371094 348.523438 419.414062 348.957031 419.414062 349.394531 Z M 419.414062 349.394531 " fill-opacity="1" fill-rule="nonzero"/><path fill="#fdd04c" d="M 292 490.535156 C 291.558594 490.535156 291.125 490.492188 290.695312 490.40625 C 290.265625 490.320312 289.847656 490.195312 289.445312 490.027344 C 289.039062 489.859375 288.65625 489.652344 288.289062 489.40625 C 287.925781 489.164062 287.589844 488.886719 287.277344 488.578125 C 286.96875 488.265625 286.691406 487.929688 286.449219 487.5625 C 286.203125 487.199219 286 486.8125 285.832031 486.40625 C 285.664062 486.003906 285.535156 485.585938 285.453125 485.152344 C 285.367188 484.722656 285.324219 484.289062 285.324219 483.847656 L 285.324219 450.261719 C 285.804688 409.777344 298.246094 379.1875 323.238281 356.667969 L 365.425781 318.054688 C 366.867188 316.988281 368.179688 315.785156 369.363281 314.441406 C 370.550781 313.097656 371.582031 311.644531 372.460938 310.082031 C 373.339844 308.519531 374.046875 306.882812 374.578125 305.171875 C 375.113281 303.460938 375.460938 301.710938 375.625 299.925781 C 375.472656 298.203125 375.136719 296.515625 374.625 294.863281 C 374.113281 293.210938 373.433594 291.632812 372.589844 290.125 C 371.742188 288.617188 370.746094 287.214844 369.601562 285.921875 C 368.457031 284.625 367.191406 283.464844 365.800781 282.4375 L 339.097656 258.050781 L 323.078125 243.394531 C 298.085938 220.878906 285.695312 190.289062 285.164062 149.910156 L 285.164062 115.414062 C 285.164062 114.976562 285.207031 114.539062 285.292969 114.109375 C 285.375 113.679688 285.503906 113.261719 285.671875 112.855469 C 285.839844 112.449219 286.042969 112.066406 286.289062 111.699219 C 286.53125 111.335938 286.808594 110.996094 287.117188 110.6875 C 287.429688 110.375 287.765625 110.097656 288.128906 109.855469 C 288.496094 109.613281 288.878906 109.40625 289.285156 109.238281 C 289.6875 109.070312 290.105469 108.941406 290.535156 108.855469 C 290.964844 108.773438 291.398438 108.730469 291.839844 108.730469 C 292.277344 108.730469 292.710938 108.773438 293.140625 108.855469 C 293.570312 108.941406 293.988281 109.070312 294.394531 109.238281 C 294.796875 109.40625 295.183594 109.613281 295.546875 109.855469 C 295.910156 110.097656 296.25 110.375 296.558594 110.6875 C 296.867188 110.996094 297.144531 111.335938 297.386719 111.699219 C 297.632812 112.066406 297.835938 112.449219 298.003906 112.855469 C 298.171875 113.261719 298.300781 113.679688 298.386719 114.109375 C 298.472656 114.539062 298.511719 114.976562 298.511719 115.414062 L 298.511719 149.695312 C 298.996094 186.542969 309.621094 213.179688 331.996094 233.394531 L 348.015625 248.046875 L 374.71875 272.4375 C 376.820312 274.066406 378.726562 275.90625 380.429688 277.949219 C 382.132812 279.996094 383.597656 282.199219 384.824219 284.5625 C 386.050781 286.929688 387.011719 289.394531 387.703125 291.96875 C 388.390625 294.542969 388.800781 297.15625 388.921875 299.820312 C 388.777344 302.550781 388.339844 305.234375 387.617188 307.871094 C 386.894531 310.507812 385.898438 313.035156 384.632812 315.457031 C 383.363281 317.878906 381.855469 320.140625 380.101562 322.238281 C 378.351562 324.335938 376.394531 326.222656 374.238281 327.898438 L 332.050781 366.457031 C 309.621094 386.671875 298.996094 413.308594 298.511719 450.210938 L 298.511719 483.742188 C 298.519531 484.179688 298.484375 484.613281 298.40625 485.042969 C 298.328125 485.472656 298.210938 485.890625 298.050781 486.296875 C 297.890625 486.703125 297.695312 487.089844 297.460938 487.457031 C 297.222656 487.824219 296.957031 488.167969 296.652344 488.484375 C 296.351562 488.796875 296.019531 489.082031 295.664062 489.332031 C 295.304688 489.582031 294.929688 489.792969 294.527344 489.96875 C 294.128906 490.144531 293.71875 490.28125 293.292969 490.375 C 292.867188 490.472656 292.433594 490.523438 292 490.535156 Z M 292 490.535156 " fill-opacity="1" fill-rule="nonzero"/><path fill="#fdd04c" d="M 533.429688 490.535156 C 532.992188 490.535156 532.558594 490.492188 532.125 490.40625 C 531.695312 490.320312 531.28125 490.195312 530.875 490.027344 C 530.46875 489.859375 530.085938 489.652344 529.71875 489.40625 C 529.355469 489.164062 529.019531 488.886719 528.710938 488.578125 C 528.398438 488.265625 528.121094 487.929688 527.878906 487.5625 C 527.636719 487.199219 527.429688 486.8125 527.261719 486.40625 C 527.09375 486.003906 526.96875 485.585938 526.882812 485.152344 C 526.796875 484.722656 526.753906 484.289062 526.753906 483.847656 L 526.753906 450.261719 C 526.328125 413.414062 515.699219 386.78125 493.269531 366.5625 L 451.03125 327.949219 C 448.886719 326.289062 446.945312 324.417969 445.207031 322.335938 C 443.464844 320.253906 441.96875 318.011719 440.710938 315.609375 C 439.453125 313.203125 438.464844 310.695312 437.746094 308.078125 C 437.027344 305.460938 436.597656 302.796875 436.449219 300.085938 C 436.578125 297.441406 436.984375 294.835938 437.664062 292.277344 C 438.34375 289.71875 439.285156 287.257812 440.484375 284.894531 C 441.6875 282.535156 443.121094 280.328125 444.789062 278.273438 C 446.460938 276.21875 448.324219 274.363281 450.390625 272.703125 L 479.386719 245.960938 C 484.03125 241.683594 488.625 237.460938 493.269531 233.289062 C 515.699219 213.070312 526.328125 186.4375 526.753906 149.535156 L 526.753906 115.414062 C 526.753906 114.976562 526.796875 114.539062 526.882812 114.109375 C 526.96875 113.679688 527.09375 113.261719 527.261719 112.855469 C 527.429688 112.449219 527.636719 112.066406 527.878906 111.699219 C 528.121094 111.335938 528.398438 110.996094 528.710938 110.6875 C 529.019531 110.375 529.355469 110.097656 529.71875 109.855469 C 530.085938 109.613281 530.46875 109.40625 530.875 109.238281 C 531.28125 109.070312 531.695312 108.941406 532.125 108.855469 C 532.558594 108.773438 532.992188 108.730469 533.429688 108.730469 C 533.867188 108.730469 534.300781 108.773438 534.730469 108.855469 C 535.160156 108.941406 535.578125 109.070312 535.984375 109.238281 C 536.386719 109.40625 536.773438 109.613281 537.136719 109.855469 C 537.503906 110.097656 537.839844 110.375 538.148438 110.6875 C 538.460938 110.996094 538.734375 111.335938 538.980469 111.699219 C 539.222656 112.066406 539.429688 112.449219 539.597656 112.855469 C 539.765625 113.261719 539.890625 113.679688 539.976562 114.109375 C 540.0625 114.539062 540.105469 114.976562 540.105469 115.414062 L 540.105469 149.695312 C 539.625 190.179688 527.234375 220.773438 502.1875 243.34375 L 488.410156 255.910156 L 459.574219 282.277344 C 458.183594 283.320312 456.917969 284.496094 455.777344 285.808594 C 454.636719 287.117188 453.644531 288.535156 452.800781 290.054688 C 451.960938 291.574219 451.285156 293.167969 450.78125 294.832031 C 450.273438 296.496094 449.949219 298.191406 449.800781 299.925781 C 449.96875 301.699219 450.320312 303.4375 450.855469 305.136719 C 451.390625 306.835938 452.097656 308.457031 452.976562 310.007812 C 453.855469 311.554688 454.886719 312.996094 456.070312 314.324219 C 457.253906 315.652344 458.566406 316.84375 460 317.894531 L 502.242188 356.5625 C 527.234375 379.078125 539.625 409.671875 540.105469 450.050781 L 540.105469 483.742188 C 540.113281 484.1875 540.074219 484.625 539.996094 485.0625 C 539.914062 485.496094 539.792969 485.921875 539.628906 486.332031 C 539.464844 486.746094 539.257812 487.136719 539.015625 487.507812 C 538.773438 487.878906 538.5 488.222656 538.1875 488.539062 C 537.878906 488.855469 537.539062 489.136719 537.171875 489.386719 C 536.804688 489.632812 536.417969 489.84375 536.007812 490.015625 C 535.601562 490.1875 535.179688 490.316406 534.746094 490.402344 C 534.3125 490.492188 533.871094 490.535156 533.429688 490.535156 Z M 533.429688 490.535156 " fill-opacity="1" fill-rule="nonzero"/><g clip-path="url(#cfd4e0eabb)"><path fill="#3c6a98" d="M 561.039062 115.789062 L 264.390625 115.789062 C 263.953125 115.789062 263.515625 115.746094 263.085938 115.660156 C 262.65625 115.574219 262.238281 115.449219 261.835938 115.28125 C 261.429688 115.113281 261.046875 114.90625 260.679688 114.660156 C 260.316406 114.417969 259.980469 114.140625 259.667969 113.832031 C 259.359375 113.519531 259.082031 113.183594 258.839844 112.816406 C 258.597656 112.453125 258.390625 112.066406 258.222656 111.660156 C 258.054688 111.257812 257.929688 110.839844 257.84375 110.40625 C 257.757812 109.976562 257.714844 109.542969 257.714844 109.101562 L 257.714844 80.167969 C 257.714844 79.730469 257.757812 79.296875 257.84375 78.867188 C 257.929688 78.433594 258.054688 78.015625 258.222656 77.613281 C 258.390625 77.207031 258.597656 76.820312 258.839844 76.457031 C 259.082031 76.089844 259.359375 75.753906 259.667969 75.441406 C 259.980469 75.132812 260.316406 74.855469 260.679688 74.609375 C 261.046875 74.367188 261.429688 74.160156 261.835938 73.992188 C 262.238281 73.824219 262.65625 73.699219 263.085938 73.613281 C 263.515625 73.527344 263.953125 73.484375 264.390625 73.484375 L 561.039062 73.484375 C 561.484375 73.472656 561.925781 73.507812 562.363281 73.585938 C 562.800781 73.664062 563.226562 73.785156 563.640625 73.945312 C 564.054688 74.109375 564.449219 74.3125 564.824219 74.554688 C 565.199219 74.796875 565.542969 75.074219 565.863281 75.386719 C 566.179688 75.695312 566.464844 76.035156 566.714844 76.40625 C 566.964844 76.773438 567.179688 77.164062 567.351562 77.574219 C 567.523438 77.984375 567.652344 78.410156 567.742188 78.84375 C 567.828125 79.28125 567.875 79.722656 567.875 80.167969 L 567.875 109.101562 C 567.875 109.550781 567.828125 109.992188 567.742188 110.425781 C 567.652344 110.863281 567.523438 111.289062 567.351562 111.699219 C 567.179688 112.109375 566.964844 112.5 566.714844 112.867188 C 566.464844 113.238281 566.179688 113.578125 565.863281 113.886719 C 565.542969 114.199219 565.199219 114.476562 564.824219 114.71875 C 564.449219 114.960938 564.054688 115.164062 563.640625 115.328125 C 563.226562 115.488281 562.800781 115.609375 562.363281 115.6875 C 561.925781 115.765625 561.484375 115.800781 561.039062 115.789062 Z M 561.039062 115.789062 " fill-opacity="1" fill-rule="nonzero"/></g><g clip-path="url(#92ae651381)"><path fill="#3c6a98" d="M 561.039062 522.089844 L 264.390625 522.089844 C 263.953125 522.089844 263.515625 522.046875 263.085938 521.960938 C 262.65625 521.875 262.238281 521.746094 261.835938 521.578125 C 261.429688 521.410156 261.046875 521.207031 260.679688 520.960938 C 260.316406 520.71875 259.980469 520.441406 259.667969 520.128906 C 259.359375 519.820312 259.082031 519.484375 258.839844 519.117188 C 258.597656 518.753906 258.390625 518.367188 258.222656 517.960938 C 258.054688 517.554688 257.929688 517.136719 257.84375 516.707031 C 257.757812 516.277344 257.714844 515.84375 257.714844 515.402344 L 257.714844 486.628906 C 257.714844 486.191406 257.757812 485.757812 257.84375 485.324219 C 257.929688 484.894531 258.054688 484.476562 258.222656 484.070312 C 258.390625 483.667969 258.597656 483.28125 258.839844 482.917969 C 259.082031 482.550781 259.359375 482.214844 259.667969 481.902344 C 259.980469 481.59375 260.316406 481.316406 260.679688 481.070312 C 261.046875 480.828125 261.429688 480.621094 261.835938 480.453125 C 262.238281 480.285156 262.65625 480.160156 263.085938 480.074219 C 263.515625 479.988281 263.953125 479.945312 264.390625 479.945312 L 561.039062 479.945312 C 561.484375 479.933594 561.925781 479.96875 562.363281 480.046875 C 562.800781 480.125 563.226562 480.242188 563.640625 480.40625 C 564.054688 480.570312 564.449219 480.773438 564.824219 481.015625 C 565.199219 481.257812 565.542969 481.535156 565.863281 481.84375 C 566.179688 482.15625 566.464844 482.496094 566.714844 482.867188 C 566.964844 483.234375 567.179688 483.625 567.351562 484.035156 C 567.523438 484.445312 567.652344 484.871094 567.742188 485.304688 C 567.828125 485.742188 567.875 486.183594 567.875 486.628906 L 567.875 515.5625 C 567.863281 516.003906 567.808594 516.4375 567.714844 516.863281 C 567.617188 517.292969 567.480469 517.707031 567.304688 518.109375 C 567.128906 518.511719 566.914062 518.890625 566.660156 519.25 C 566.40625 519.609375 566.125 519.941406 565.804688 520.246094 C 565.488281 520.546875 565.144531 520.816406 564.773438 521.050781 C 564.402344 521.285156 564.015625 521.484375 563.605469 521.640625 C 563.195312 521.800781 562.777344 521.917969 562.34375 521.992188 C 561.910156 522.066406 561.476562 522.097656 561.039062 522.089844 Z M 561.039062 522.089844 " fill-opacity="1" fill-rule="nonzero"/></g><path fill="#4c91d4" d="M 413.007812 300.621094 C 412.351562 300.65625 411.699219 300.628906 411.050781 300.542969 C 410.402344 300.457031 409.765625 300.3125 409.140625 300.109375 C 408.519531 299.90625 407.921875 299.644531 407.34375 299.332031 C 406.769531 299.019531 406.226562 298.65625 405.71875 298.242188 C 405.210938 297.828125 404.742188 297.371094 404.320312 296.871094 C 403.894531 296.371094 403.519531 295.835938 403.191406 295.265625 C 402.867188 294.699219 402.59375 294.101562 402.375 293.484375 C 402.160156 292.863281 402 292.230469 401.898438 291.582031 C 401.625 288.308594 400.847656 285.160156 399.570312 282.136719 C 398.292969 279.109375 396.578125 276.359375 394.421875 273.878906 C 393.890625 273.398438 335.679688 217.832031 333.226562 215.050781 C 332.894531 214.660156 332.609375 214.234375 332.375 213.777344 C 332.140625 213.324219 331.960938 212.84375 331.835938 212.347656 C 331.714844 211.847656 331.648438 211.34375 331.636719 210.832031 C 331.628906 210.316406 331.679688 209.808594 331.789062 209.308594 C 331.898438 208.804688 332.0625 208.324219 332.28125 207.859375 C 332.5 207.394531 332.769531 206.964844 333.089844 206.5625 C 333.40625 206.160156 333.769531 205.800781 334.167969 205.480469 C 334.570312 205.164062 335.003906 204.894531 335.46875 204.675781 C 338.535156 203.195312 341.664062 201.863281 344.855469 200.683594 C 348.046875 199.503906 351.289062 198.480469 354.578125 197.609375 C 357.871094 196.738281 361.195312 196.027344 364.550781 195.476562 C 367.910156 194.925781 371.285156 194.535156 374.683594 194.304688 C 378.078125 194.078125 381.476562 194.011719 384.878906 194.109375 C 388.28125 194.207031 391.667969 194.464844 395.046875 194.886719 C 398.421875 195.308594 401.773438 195.886719 405.09375 196.628906 C 408.414062 197.371094 411.695312 198.269531 414.929688 199.328125 C 455.78125 212.484375 465.660156 207.457031 491.988281 193.980469 C 492.625 193.640625 493.296875 193.414062 494.011719 193.296875 C 494.722656 193.183594 495.433594 193.183594 496.140625 193.304688 C 496.851562 193.425781 497.523438 193.660156 498.15625 194.003906 C 498.789062 194.347656 499.351562 194.785156 499.839844 195.316406 C 500.316406 195.839844 500.703125 196.429688 500.992188 197.078125 C 501.285156 197.726562 501.464844 198.40625 501.535156 199.113281 C 501.609375 199.820312 501.566406 200.523438 501.414062 201.21875 C 501.261719 201.914062 501.003906 202.566406 500.640625 203.175781 C 496.261719 210.863281 490.777344 217.65625 484.191406 223.554688 C 478.476562 228.902344 457.492188 248.691406 445.15625 260.671875 C 439.816406 265.539062 436.34375 269.121094 435.4375 269.921875 C 433.828125 271.300781 432.359375 272.8125 431.027344 274.460938 C 429.699219 276.109375 428.53125 277.867188 427.527344 279.734375 C 426.523438 281.601562 425.699219 283.542969 425.050781 285.5625 C 424.40625 287.578125 423.953125 289.640625 423.6875 291.742188 C 423.632812 292.386719 423.511719 293.019531 423.328125 293.640625 C 423.148438 294.257812 422.90625 294.855469 422.605469 295.425781 C 422.308594 296 421.953125 296.535156 421.546875 297.039062 C 421.144531 297.539062 420.691406 298 420.195312 298.410156 C 419.699219 298.824219 419.167969 299.183594 418.597656 299.492188 C 418.03125 299.796875 417.4375 300.046875 416.820312 300.234375 C 416.207031 300.425781 415.574219 300.554688 414.933594 300.617188 C 414.292969 300.683594 413.648438 300.683594 413.007812 300.621094 Z M 413.007812 300.621094 " fill-opacity="1" fill-rule="nonzero"/><path fill="#4c91d4" d="M 497.96875 465.238281 L 327.5625 465.238281 C 327.125 465.238281 326.691406 465.195312 326.261719 465.109375 C 325.832031 465.023438 325.414062 464.898438 325.011719 464.730469 C 324.605469 464.5625 324.21875 464.355469 323.855469 464.109375 C 323.492188 463.867188 323.152344 463.589844 322.84375 463.28125 C 322.535156 462.96875 322.257812 462.632812 322.015625 462.265625 C 321.769531 461.902344 321.566406 461.515625 321.398438 461.109375 C 321.230469 460.707031 321.101562 460.289062 321.015625 459.855469 C 320.933594 459.425781 320.890625 458.992188 320.890625 458.550781 C 320.925781 457.070312 320.996094 455.585938 321.101562 454.105469 C 321.210938 452.625 321.355469 451.148438 321.53125 449.675781 C 321.710938 448.203125 321.925781 446.734375 322.175781 445.273438 C 322.421875 443.808594 322.707031 442.351562 323.027344 440.902344 C 323.347656 439.453125 323.703125 438.015625 324.089844 436.582031 C 324.480469 435.152344 324.902344 433.730469 325.363281 432.316406 C 325.820312 430.90625 326.3125 429.507812 326.835938 428.117188 C 327.363281 426.730469 327.921875 425.355469 328.511719 423.996094 C 329.105469 422.636719 329.726562 421.289062 330.382812 419.960938 C 331.042969 418.628906 331.730469 417.316406 332.449219 416.019531 C 333.171875 414.722656 333.921875 413.441406 334.703125 412.179688 C 335.484375 410.921875 336.296875 409.679688 337.136719 408.457031 C 337.980469 407.238281 338.851562 406.035156 339.75 404.859375 C 340.648438 403.679688 341.578125 402.519531 342.53125 401.386719 C 343.488281 400.253906 344.472656 399.140625 345.480469 398.054688 C 346.488281 396.96875 347.523438 395.90625 348.585938 394.871094 C 349.644531 393.832031 350.730469 392.824219 351.839844 391.839844 C 352.949219 390.855469 354.082031 389.898438 355.234375 388.96875 C 356.390625 388.039062 357.566406 387.136719 358.765625 386.265625 C 359.964844 385.394531 361.183594 384.550781 362.425781 383.738281 C 363.664062 382.925781 364.921875 382.140625 366.199219 381.390625 C 367.476562 380.636719 368.773438 379.914062 370.082031 379.226562 C 371.394531 378.535156 372.722656 377.878906 374.066406 377.253906 C 375.410156 376.628906 376.769531 376.035156 378.140625 375.476562 C 379.515625 374.914062 380.898438 374.390625 382.296875 373.898438 C 383.695312 373.40625 385.105469 372.945312 386.523438 372.523438 C 387.945312 372.097656 389.375 371.707031 390.8125 371.351562 C 392.25 370.996094 393.699219 370.675781 395.152344 370.390625 C 396.605469 370.105469 398.066406 369.855469 399.53125 369.640625 C 401 369.429688 402.46875 369.25 403.945312 369.105469 C 405.421875 368.960938 406.898438 368.855469 408.378906 368.785156 C 409.859375 368.710938 411.339844 368.675781 412.820312 368.675781 C 414.300781 368.675781 415.785156 368.710938 417.261719 368.785156 C 418.742188 368.855469 420.222656 368.960938 421.695312 369.105469 C 423.171875 369.25 424.640625 369.429688 426.109375 369.640625 C 427.574219 369.855469 429.035156 370.105469 430.488281 370.390625 C 431.941406 370.675781 433.390625 370.996094 434.828125 371.351562 C 436.265625 371.707031 437.695312 372.097656 439.117188 372.523438 C 440.535156 372.945312 441.945312 373.40625 443.34375 373.898438 C 444.742188 374.390625 446.125 374.914062 447.5 375.476562 C 448.871094 376.035156 450.230469 376.628906 451.574219 377.253906 C 452.917969 377.878906 454.246094 378.535156 455.558594 379.226562 C 456.871094 379.914062 458.164062 380.636719 459.441406 381.390625 C 460.71875 382.140625 461.976562 382.925781 463.21875 383.738281 C 464.457031 384.550781 465.675781 385.394531 466.875 386.265625 C 468.074219 387.136719 469.25 388.039062 470.40625 388.96875 C 471.5625 389.898438 472.695312 390.855469 473.800781 391.839844 C 474.910156 392.824219 475.996094 393.832031 477.058594 394.871094 C 478.117188 395.90625 479.152344 396.96875 480.160156 398.054688 C 481.171875 399.140625 482.152344 400.253906 483.109375 401.386719 C 484.0625 402.519531 484.992188 403.679688 485.890625 404.859375 C 486.789062 406.035156 487.660156 407.238281 488.503906 408.457031 C 489.34375 409.679688 490.15625 410.921875 490.9375 412.183594 C 491.71875 413.441406 492.472656 414.722656 493.191406 416.019531 C 493.910156 417.316406 494.601562 418.628906 495.257812 419.960938 C 495.914062 421.289062 496.539062 422.636719 497.128906 423.996094 C 497.722656 425.355469 498.28125 426.730469 498.804688 428.117188 C 499.332031 429.507812 499.820312 430.90625 500.28125 432.316406 C 500.738281 433.730469 501.160156 435.152344 501.550781 436.582031 C 501.941406 438.015625 502.292969 439.453125 502.613281 440.902344 C 502.933594 442.351562 503.21875 443.808594 503.46875 445.273438 C 503.714844 446.734375 503.929688 448.203125 504.109375 449.675781 C 504.289062 451.148438 504.429688 452.625 504.539062 454.105469 C 504.644531 455.585938 504.714844 457.070312 504.753906 458.550781 C 504.753906 458.996094 504.707031 459.433594 504.621094 459.871094 C 504.535156 460.304688 504.40625 460.726562 504.234375 461.136719 C 504.0625 461.542969 503.851562 461.933594 503.605469 462.300781 C 503.355469 462.667969 503.074219 463.007812 502.757812 463.316406 C 502.445312 463.628906 502.101562 463.90625 501.730469 464.148438 C 501.359375 464.390625 500.96875 464.59375 500.558594 464.761719 C 500.144531 464.925781 499.722656 465.046875 499.289062 465.128906 C 498.851562 465.207031 498.414062 465.246094 497.96875 465.238281 Z M 497.96875 465.238281 " fill-opacity="1" fill-rule="nonzero"/></svg>