<svg xmlns="http://www.w3.org/2000/svg" xmlns:xlink="http://www.w3.org/1999/xlink" width="1920" zoomAndPan="magnify" viewBox="0 0 1440 809.999993" height="1080" preserveAspectRatio="xMidYMid meet" version="1.0"><defs><clipPath id="d34897c343"><path d="M 136.269531 256 L 1276.269531 256 L 1276.269531 549 L 136.269531 549 Z M 136.269531 256 " clip-rule="nonzero"/></clipPath><clipPath id="22960d03e2"><path d="M 529 62 L 866 62 L 866 788.632812 L 529 788.632812 Z M 529 62 " clip-rule="nonzero"/></clipPath></defs><path fill="#c30b0b" d="M 158.367188 366.050781 C 171.050781 244.097656 414.800781 157.449219 713.226562 157.449219 C 999.757812 157.449219 1235.910156 236.492188 1265.46875 351.574219 C 1272.207031 337.449219 1275.753906 322.859375 1275.753906 307.933594 C 1275.753906 181.375 1021.289062 78.625 707.851562 78.625 C 394.414062 78.625 139.953125 181.375 139.953125 307.933594 C 139.953125 328.007812 146.363281 347.480469 158.367188 366.050781 Z M 158.367188 366.050781 " fill-opacity="1" fill-rule="evenodd"/><path fill="#910000" d="M 1012.320312 136.371094 C 1021.203125 136.371094 1028.414062 143.582031 1028.414062 152.464844 C 1028.414062 161.347656 1021.203125 168.558594 1012.320312 168.558594 C 1003.4375 168.558594 996.226562 161.347656 996.226562 152.464844 C 996.226562 143.582031 1003.4375 136.371094 1012.320312 136.371094 Z M 935.070312 120.277344 C 943.953125 120.277344 951.164062 127.488281 951.164062 136.371094 C 951.164062 145.253906 943.953125 152.464844 935.070312 152.464844 C 926.1875 152.464844 918.976562 145.253906 918.976562 136.371094 C 918.976562 127.488281 926.1875 120.277344 935.070312 120.277344 Z M 857.820312 107.402344 C 866.703125 107.402344 873.914062 114.613281 873.914062 123.496094 C 873.914062 132.378906 866.703125 139.589844 857.820312 139.589844 C 848.9375 139.589844 841.726562 132.378906 841.726562 123.496094 C 841.726562 114.613281 848.9375 107.402344 857.820312 107.402344 Z M 857.820312 107.402344 " fill-opacity="1" fill-rule="evenodd"/><g clip-path="url(#d34897c343)"><path fill="#ff0000" d="M 154.269531 256.53125 C 166.917969 378.484375 411.207031 469.53125 709.632812 469.53125 C 996.160156 469.53125 1236.363281 380.382812 1265.921875 265.300781 C 1272.695312 279.425781 1276.242188 294.015625 1276.242188 308.941406 C 1276.242188 435.496094 1017.695312 548.359375 704.257812 548.359375 C 390.816406 548.359375 136.355469 445.609375 136.355469 319.046875 C 136.355469 298.976562 142.230469 275.101562 154.269531 256.53125 Z M 154.269531 256.53125 " fill-opacity="1" fill-rule="evenodd"/></g><g clip-path="url(#22960d03e2)"><path fill="#ff7800" d="M 684.046875 569.316406 C 684.019531 569.058594 684.019531 568.804688 684.019531 568.519531 L 684.019531 483.152344 C 684.019531 474.730469 691.214844 467.902344 700.105469 467.902344 C 708.996094 467.902344 716.214844 474.730469 716.214844 483.152344 L 716.214844 568.210938 C 736.691406 574.429688 751.621094 593.46875 751.621094 615.976562 C 751.621094 622.195312 750.464844 628.179688 748.382812 633.679688 L 766.34375 633.679688 C 768.757812 608.398438 790.082031 588.613281 815.980469 588.613281 C 843.523438 588.613281 865.875 610.964844 865.875 638.507812 C 865.875 664.949219 845.246094 686.632812 819.21875 688.277344 L 819.21875 688.480469 C 845.246094 690.152344 865.875 711.835938 865.875 738.273438 C 865.875 765.820312 843.523438 788.171875 815.980469 788.171875 C 788.464844 788.171875 766.109375 765.820312 766.109375 738.273438 C 766.109375 737.734375 766.109375 737.195312 766.136719 736.683594 L 629.269531 736.683594 C 629.296875 737.195312 629.296875 737.734375 629.296875 738.273438 C 629.296875 765.820312 606.941406 788.171875 579.425781 788.171875 C 551.882812 788.171875 529.53125 765.820312 529.53125 738.273438 C 529.53125 710.757812 551.882812 688.378906 579.425781 688.378906 C 579.964844 688.378906 580.476562 688.40625 581.019531 688.40625 L 581.019531 688.355469 C 580.476562 688.378906 579.964844 688.378906 579.425781 688.378906 C 551.882812 688.378906 529.53125 666.027344 529.53125 638.507812 C 529.53125 610.964844 551.882812 588.613281 579.425781 588.613281 C 605.324219 588.613281 626.648438 608.398438 629.0625 633.679688 L 655.066406 633.679688 C 652.984375 628.179688 651.828125 622.195312 651.828125 615.976562 C 651.828125 594.652344 665.214844 576.460938 684.046875 569.316406 Z M 730.527344 633.679688 L 672.949219 633.679688 C 669.761719 628.515625 667.9375 622.449219 667.9375 615.976562 C 667.9375 597.324219 683.070312 582.164062 701.722656 582.164062 C 720.375 582.164062 735.511719 597.324219 735.511719 615.976562 C 735.511719 622.449219 733.6875 628.515625 730.527344 633.679688 Z M 780.574219 154.058594 L 780.574219 80.058594 C 780.574219 75.359375 778.804688 70.851562 775.617188 67.53125 C 772.40625 64.210938 768.089844 62.339844 763.59375 62.339844 L 630.195312 62.339844 C 625.699219 62.339844 621.382812 64.210938 618.195312 67.53125 C 615.007812 70.851562 613.210938 75.359375 613.210938 80.058594 L 613.210938 154.058594 C 613.210938 158.757812 615.007812 163.265625 618.195312 166.589844 C 621.382812 169.914062 625.699219 171.777344 630.195312 171.777344 L 763.59375 171.777344 C 768.089844 171.777344 772.40625 169.914062 775.617188 166.589844 C 778.804688 163.265625 780.574219 158.757812 780.574219 154.058594 Z M 767.832031 110.625 L 767.832031 98.304688 C 767.832031 93.605469 766.035156 89.097656 762.847656 85.773438 C 759.660156 82.453125 755.320312 80.585938 750.824219 80.585938 C 723.539062 80.585938 669.453125 81.65625 642.167969 81.65625 C 637.671875 81.65625 633.355469 83.519531 630.167969 86.84375 C 626.984375 90.167969 625.980469 93.605469 625.980469 98.304688 L 625.980469 136.71875 C 625.980469 141.417969 627.78125 145.925781 630.964844 149.25 C 634.152344 152.570312 638.46875 154.4375 642.964844 154.4375 L 750.824219 154.4375 C 755.320312 154.4375 759.660156 152.570312 762.847656 149.25 C 766.035156 145.925781 767.832031 141.417969 767.832031 136.71875 L 767.832031 123.5 L 709.765625 123.5 C 706.21875 123.5 703.34375 120.613281 703.34375 117.058594 C 703.34375 113.507812 706.21875 110.625 709.765625 110.625 Z M 767.832031 110.625 " fill-opacity="1" fill-rule="evenodd"/></g></svg>