<svg xmlns="http://www.w3.org/2000/svg" xmlns:xlink="http://www.w3.org/1999/xlink" width="1122" zoomAndPan="magnify" viewBox="0 0 841.92 595.499987" height="793" preserveAspectRatio="xMidYMid meet" version="1.0"><defs><clipPath id="678c6703d4"><path d="M 253 469 L 666 469 L 666 585.457031 L 253 585.457031 Z M 253 469 " clip-rule="nonzero"/></clipPath><clipPath id="4a8bb25c8c"><path d="M 269 274 L 681.660156 274 L 681.660156 390 L 269 390 Z M 269 274 " clip-rule="nonzero"/></clipPath><clipPath id="7ac406d287"><path d="M 269 198 L 681.660156 198 L 681.660156 344 L 269 344 Z M 269 198 " clip-rule="nonzero"/></clipPath><clipPath id="0cec7d1c9c"><path d="M 269 85 L 681.660156 85 L 681.660156 202 L 269 202 Z M 269 85 " clip-rule="nonzero"/></clipPath><clipPath id="85a3957513"><path d="M 269 10.109375 L 681.660156 10.109375 L 681.660156 156 L 269 156 Z M 269 10.109375 " clip-rule="nonzero"/></clipPath></defs><g clip-path="url(#678c6703d4)"><path fill="#f89e19" d="M 665.320312 512.980469 L 665.320312 469.789062 L 253.808594 469.789062 L 253.808594 512.980469 C 253.808594 552.992188 345.9375 585.421875 459.570312 585.421875 C 573.195312 585.421875 665.320312 552.992188 665.320312 512.980469 " fill-opacity="1" fill-rule="nonzero"/></g><path fill="#f5c116" d="M 459.570312 539.042969 C 345.9375 539.042969 253.808594 506.613281 253.808594 466.605469 C 253.808594 426.589844 345.9375 394.160156 459.570312 394.160156 C 573.195312 394.160156 665.320312 426.589844 665.320312 466.605469 C 665.320312 506.613281 573.195312 539.042969 459.570312 539.042969 " fill-opacity="1" fill-rule="nonzero"/><path fill="#f89e19" d="M 471.953125 494.882812 C 480.199219 494.335938 486.917969 492.988281 492.085938 490.835938 C 497.273438 488.691406 499.855469 486.152344 499.855469 483.257812 C 499.855469 480.65625 497.691406 478.410156 493.332031 476.539062 C 488.976562 474.664062 481.871094 473.203125 471.953125 472.199219 L 471.953125 494.882812 M 448.011719 433.035156 C 441.523438 433.800781 436.339844 435.117188 432.496094 436.96875 C 428.628906 438.855469 426.707031 440.894531 426.707031 443.144531 C 426.707031 445.210938 428.476562 447.105469 431.992188 448.875 C 435.519531 450.628906 440.839844 452.0625 448.011719 453.140625 L 448.011719 433.035156 M 448.011719 494.054688 L 448.011719 469.703125 C 426.4375 467.535156 410.625 464.253906 400.546875 459.855469 C 390.472656 455.460938 385.4375 450.121094 385.4375 443.847656 C 385.4375 437.488281 391.128906 432.144531 402.527344 427.828125 C 413.902344 423.5 429.074219 421.019531 448.011719 420.367188 L 448.011719 414.601562 L 471.953125 414.601562 L 471.953125 420.367188 C 489.445312 421.09375 503.347656 423.203125 513.710938 426.667969 C 524.082031 430.140625 530.675781 434.765625 533.519531 440.59375 L 491.757812 442.507812 C 489.230469 437.933594 482.613281 434.835938 471.953125 433.210938 L 471.953125 455.9375 C 498.375 458.433594 516.382812 461.71875 525.9375 465.726562 C 535.523438 469.738281 540.296875 474.886719 540.296875 481.160156 C 540.296875 488.183594 534.285156 494.085938 522.25 498.890625 C 510.167969 503.703125 493.414062 506.632812 471.953125 507.734375 L 471.953125 518.597656 L 448.011719 518.597656 L 448.011719 508.015625 C 428.960938 507.203125 413.492188 504.703125 401.609375 500.515625 C 389.730469 496.324219 382.140625 490.425781 378.828125 482.796875 L 421.917969 481.160156 C 423.695312 484.253906 426.988281 486.933594 431.839844 489.195312 C 436.664062 491.417969 442.066406 493.0625 448.011719 494.054688 " fill-opacity="1" fill-rule="nonzero"/><path fill="#e98b1b" d="M 642.078125 541.996094 L 642.027344 541.902344 L 642.027344 502.808594 C 644.476562 501.152344 646.765625 499.480469 648.847656 497.773438 L 648.847656 536.476562 C 646.792969 538.355469 644.5625 540.199219 642.078125 541.996094 " fill-opacity="1" fill-rule="nonzero"/><path fill="#e98b1b" d="M 631.832031 548.492188 C 630.996094 548.277344 630.417969 547.9375 630.417969 547.546875 L 630.417969 509.707031 C 632.816406 508.457031 635.070312 507.152344 637.238281 505.855469 L 637.238281 545.265625 C 635.519531 546.367188 633.710938 547.441406 631.832031 548.492188 " fill-opacity="1" fill-rule="nonzero"/><path fill="#e98b1b" d="M 653.632812 531.636719 L 653.632812 493.40625 C 656.378906 490.679688 658.652344 487.855469 660.453125 484.972656 L 660.453125 520.671875 C 658.976562 524.417969 656.710938 528.09375 653.632812 531.636719 " fill-opacity="1" fill-rule="nonzero"/><path fill="#e98b1b" d="M 620.554688 554.21875 C 619.539062 554.015625 618.796875 553.640625 618.796875 553.195312 L 618.796875 515.210938 C 621.167969 514.191406 623.429688 513.144531 625.632812 512.09375 L 625.632812 551.789062 C 623.988281 552.613281 622.296875 553.433594 620.554688 554.21875 " fill-opacity="1" fill-rule="nonzero"/><path fill="#e98b1b" d="M 607.839844 559.519531 C 607.472656 559.320312 607.199219 559.09375 607.199219 558.84375 L 607.199219 519.765625 C 609.539062 518.929688 611.804688 518.050781 614.023438 517.179688 L 614.023438 557.0625 C 612.015625 557.890625 609.957031 558.714844 607.839844 559.519531 " fill-opacity="1" fill-rule="nonzero"/><path fill="#e98b1b" d="M 595.597656 563.761719 L 595.597656 523.65625 C 597.914062 522.949219 600.191406 522.191406 602.421875 521.441406 L 602.421875 561.492188 C 600.191406 562.277344 597.929688 563.035156 595.597656 563.761719 " fill-opacity="1" fill-rule="nonzero"/><path fill="#e98b1b" d="M 583.984375 567.171875 L 583.984375 527.027344 C 586.292969 526.398438 588.582031 525.773438 590.808594 525.132812 L 590.808594 565.230469 C 588.578125 565.902344 586.300781 566.550781 583.984375 567.171875 " fill-opacity="1" fill-rule="nonzero"/><path fill="#e98b1b" d="M 572.375 570.160156 L 572.375 529.90625 C 574.695312 529.375 576.953125 528.8125 579.207031 528.242188 L 579.207031 568.453125 C 576.953125 569.035156 574.695312 569.605469 572.375 570.160156 " fill-opacity="1" fill-rule="nonzero"/><path fill="#e98b1b" d="M 560.773438 572.679688 L 560.773438 532.398438 C 563.070312 531.9375 565.347656 531.46875 567.585938 530.980469 L 567.585938 571.226562 C 565.347656 571.730469 563.070312 572.210938 560.773438 572.679688 " fill-opacity="1" fill-rule="nonzero"/><path fill="#e98b1b" d="M 549.175781 574.871094 L 549.175781 534.554688 C 551.472656 534.15625 553.734375 533.761719 555.988281 533.320312 L 555.988281 573.640625 C 553.738281 574.0625 551.449219 574.472656 549.175781 574.871094 " fill-opacity="1" fill-rule="nonzero"/><path fill="#e98b1b" d="M 537.558594 576.734375 L 537.558594 536.367188 C 539.851562 536.042969 542.125 535.699219 544.371094 535.324219 L 544.371094 575.664062 C 542.125 576.03125 539.851562 576.398438 537.558594 576.734375 " fill-opacity="1" fill-rule="nonzero"/><path fill="#e98b1b" d="M 381.585938 576.734375 C 379.28125 576.398438 377.007812 576.03125 374.765625 575.664062 L 374.765625 535.324219 C 377.007812 535.699219 379.28125 536.042969 381.585938 536.367188 L 381.585938 576.734375 " fill-opacity="1" fill-rule="nonzero"/><path fill="#e98b1b" d="M 369.964844 574.871094 C 367.675781 574.472656 365.390625 574.0625 363.152344 573.640625 L 363.152344 533.320312 C 365.40625 533.761719 367.667969 534.15625 369.964844 534.554688 L 369.964844 574.871094 " fill-opacity="1" fill-rule="nonzero"/><path fill="#e98b1b" d="M 358.355469 572.679688 C 356.058594 572.210938 353.785156 571.730469 351.539062 571.226562 L 351.539062 530.980469 C 353.785156 531.46875 356.058594 531.9375 358.355469 532.398438 L 358.355469 572.679688 " fill-opacity="1" fill-rule="nonzero"/><path fill="#e98b1b" d="M 346.757812 570.160156 C 344.445312 569.605469 342.167969 569.035156 339.929688 568.453125 L 339.929688 528.242188 C 342.167969 528.8125 344.445312 529.375 346.757812 529.90625 L 346.757812 570.160156 " fill-opacity="1" fill-rule="nonzero"/><path fill="#e98b1b" d="M 335.148438 567.171875 C 332.832031 566.550781 330.554688 565.902344 328.324219 565.230469 L 328.324219 525.132812 C 330.546875 525.773438 332.835938 526.398438 335.148438 527.027344 L 335.148438 567.171875 " fill-opacity="1" fill-rule="nonzero"/><path fill="#e98b1b" d="M 439.609375 581.859375 C 437.320312 581.777344 435.066406 581.675781 432.796875 581.578125 L 432.796875 541.136719 C 435.066406 541.246094 437.320312 541.347656 439.609375 541.425781 L 439.609375 581.859375 " fill-opacity="1" fill-rule="nonzero"/><path fill="#e98b1b" d="M 428.007812 581.339844 C 425.71875 581.222656 423.449219 581.066406 421.183594 580.914062 L 421.183594 540.496094 C 423.449219 540.640625 425.71875 540.804688 428.007812 540.929688 L 428.007812 581.339844 " fill-opacity="1" fill-rule="nonzero"/><path fill="#e98b1b" d="M 451.222656 582.152344 C 448.941406 582.101562 446.660156 582.046875 444.40625 581.996094 L 444.40625 541.554688 C 446.660156 541.613281 448.941406 541.65625 451.222656 541.699219 L 451.222656 582.152344 " fill-opacity="1" fill-rule="nonzero"/><path fill="#e98b1b" d="M 459.570312 582.21875 C 458.375 582.21875 457.1875 582.1875 456.011719 582.175781 L 456.011719 541.734375 C 457.1875 541.75 458.375 541.765625 459.570312 541.765625 C 460.65625 541.765625 461.742188 541.757812 462.824219 541.75 L 462.824219 582.175781 C 461.742188 582.1875 460.65625 582.21875 459.570312 582.21875 " fill-opacity="1" fill-rule="nonzero"/><path fill="#e98b1b" d="M 467.628906 582.152344 L 467.628906 541.699219 C 469.894531 541.671875 472.171875 541.628906 474.445312 541.570312 L 474.445312 582 C 472.171875 582.058594 469.894531 582.101562 467.628906 582.152344 " fill-opacity="1" fill-rule="nonzero"/><path fill="#e98b1b" d="M 479.226562 581.863281 L 479.226562 541.445312 C 481.515625 541.351562 483.777344 541.253906 486.046875 541.152344 L 486.046875 581.589844 C 483.777344 581.683594 481.515625 581.800781 479.226562 581.863281 " fill-opacity="1" fill-rule="nonzero"/><path fill="#e98b1b" d="M 490.835938 581.359375 L 490.835938 540.941406 C 493.125 540.820312 495.378906 540.660156 497.660156 540.511719 L 497.660156 580.9375 C 495.378906 581.085938 493.125 581.238281 490.835938 581.359375 " fill-opacity="1" fill-rule="nonzero"/><path fill="#e98b1b" d="M 502.433594 580.589844 L 502.433594 540.179688 C 504.726562 540.011719 507 539.832031 509.261719 539.632812 L 509.261719 580.042969 C 507.015625 580.238281 504.726562 580.425781 502.433594 580.589844 " fill-opacity="1" fill-rule="nonzero"/><path fill="#e98b1b" d="M 514.042969 579.582031 L 514.042969 539.183594 C 516.332031 538.96875 518.621094 538.753906 520.867188 538.5 L 520.867188 578.875 C 518.621094 579.136719 516.332031 579.359375 514.042969 579.582031 " fill-opacity="1" fill-rule="nonzero"/><path fill="#e98b1b" d="M 525.648438 578.304688 L 525.648438 537.9375 C 527.941406 537.65625 530.222656 537.378906 532.476562 537.066406 L 532.476562 577.449219 C 530.222656 577.746094 527.941406 578.027344 525.648438 578.304688 " fill-opacity="1" fill-rule="nonzero"/><path fill="#e98b1b" d="M 416.402344 580.574219 C 414.117188 580.394531 411.84375 580.222656 409.566406 580.019531 L 409.566406 539.617188 C 411.84375 539.804688 414.117188 539.992188 416.402344 540.15625 L 416.402344 580.574219 " fill-opacity="1" fill-rule="nonzero"/><path fill="#e98b1b" d="M 404.800781 579.550781 C 402.503906 579.328125 400.222656 579.089844 397.96875 578.855469 L 397.96875 538.457031 C 400.222656 538.710938 402.503906 538.933594 404.800781 539.15625 L 404.800781 579.550781 " fill-opacity="1" fill-rule="nonzero"/><path fill="#e98b1b" d="M 393.1875 578.269531 C 390.898438 577.996094 388.621094 577.703125 386.359375 577.390625 L 386.359375 537.03125 C 388.613281 537.332031 390.898438 537.621094 393.1875 537.894531 L 393.1875 578.269531 " fill-opacity="1" fill-rule="nonzero"/><path fill="#e98b1b" d="M 323.535156 563.761719 C 321.207031 563.035156 318.933594 562.277344 316.707031 561.492188 L 316.707031 521.441406 C 318.933594 522.191406 321.222656 522.949219 323.535156 523.65625 L 323.535156 563.761719 " fill-opacity="1" fill-rule="nonzero"/><path fill="#e98b1b" d="M 311.285156 559.519531 C 309.183594 558.714844 307.109375 557.890625 305.109375 557.0625 L 305.109375 517.179688 C 307.324219 518.050781 309.59375 518.929688 311.933594 519.765625 L 311.933594 558.84375 C 311.933594 559.09375 311.660156 559.320312 311.285156 559.519531 " fill-opacity="1" fill-rule="nonzero"/><path fill="#e98b1b" d="M 298.578125 554.21875 C 296.828125 553.433594 295.148438 552.613281 293.5 551.789062 L 293.5 512.09375 C 295.710938 513.144531 297.964844 514.191406 300.328125 515.210938 L 300.328125 553.195312 C 300.328125 553.640625 299.585938 554.015625 298.578125 554.21875 " fill-opacity="1" fill-rule="nonzero"/><path fill="#e98b1b" d="M 287.292969 548.492188 C 285.4375 547.441406 283.613281 546.367188 281.898438 545.265625 L 281.898438 505.855469 C 284.058594 507.152344 286.3125 508.457031 288.71875 509.707031 L 288.71875 547.546875 C 288.71875 547.9375 288.136719 548.277344 287.292969 548.492188 " fill-opacity="1" fill-rule="nonzero"/><path fill="#e98b1b" d="M 277.0625 541.996094 C 274.570312 540.199219 272.34375 538.355469 270.285156 536.476562 L 270.285156 497.773438 C 272.375 499.480469 274.671875 501.152344 277.105469 502.808594 L 277.105469 541.902344 L 277.0625 541.996094 " fill-opacity="1" fill-rule="nonzero"/><path fill="#e98b1b" d="M 265.496094 531.636719 C 262.421875 528.09375 260.152344 524.433594 258.671875 520.671875 L 258.671875 484.972656 C 260.476562 487.855469 262.761719 490.679688 265.496094 493.40625 L 265.496094 531.636719 " fill-opacity="1" fill-rule="nonzero"/><path fill="#f89e19" d="M 673.378906 452.679688 L 673.378906 409.480469 L 261.867188 409.480469 L 261.867188 452.679688 C 261.867188 492.6875 353.984375 525.132812 467.628906 525.132812 C 581.253906 525.132812 673.378906 492.6875 673.378906 452.679688 " fill-opacity="1" fill-rule="nonzero"/><path fill="#f5c116" d="M 467.628906 478.734375 C 353.984375 478.734375 261.867188 446.3125 261.867188 406.296875 C 261.867188 366.296875 353.984375 333.859375 467.628906 333.859375 C 581.253906 333.859375 673.378906 366.296875 673.378906 406.296875 C 673.378906 446.3125 581.253906 478.734375 467.628906 478.734375 " fill-opacity="1" fill-rule="nonzero"/><path fill="#f89e19" d="M 480.011719 434.578125 C 488.25 434.039062 494.960938 432.683594 500.144531 430.535156 C 505.316406 428.390625 507.90625 425.863281 507.90625 422.960938 C 507.90625 420.367188 505.734375 418.117188 501.375 416.238281 C 497.027344 414.359375 489.925781 412.902344 480.011719 411.902344 L 480.011719 434.578125 M 456.070312 372.730469 C 449.574219 373.5 444.390625 374.820312 440.546875 376.675781 C 436.691406 378.542969 434.769531 380.597656 434.769531 382.851562 C 434.769531 384.902344 436.527344 386.820312 440.046875 388.570312 C 443.578125 390.320312 448.898438 391.753906 456.070312 392.84375 L 456.070312 372.730469 M 456.070312 433.769531 L 456.070312 409.417969 C 434.496094 407.234375 418.675781 403.957031 408.589844 399.546875 C 398.53125 395.160156 393.488281 389.824219 393.488281 383.542969 C 393.488281 377.183594 399.191406 371.835938 410.574219 367.523438 C 421.953125 363.207031 437.132812 360.714844 456.070312 360.058594 L 456.070312 354.304688 L 480.011719 354.304688 L 480.011719 360.058594 C 497.503906 360.785156 511.40625 362.898438 521.777344 366.363281 C 532.128906 369.828125 538.734375 374.472656 541.578125 380.285156 L 499.8125 382.21875 C 497.285156 377.628906 490.667969 374.53125 480.011719 372.910156 L 480.011719 395.636719 C 506.425781 398.152344 524.433594 401.421875 533.996094 405.425781 C 543.574219 409.4375 548.355469 414.582031 548.355469 420.855469 C 548.355469 427.871094 542.320312 433.785156 530.292969 438.582031 C 518.21875 443.394531 501.46875 446.339844 480.011719 447.429688 L 480.011719 458.296875 L 456.070312 458.296875 L 456.070312 447.710938 C 437.015625 446.910156 421.550781 444.417969 409.65625 440.21875 C 397.78125 436.019531 390.199219 430.121094 386.886719 422.496094 L 429.976562 420.855469 C 431.746094 423.960938 435.03125 426.632812 439.882812 428.894531 C 444.722656 431.128906 450.113281 432.753906 456.070312 433.769531 " fill-opacity="1" fill-rule="nonzero"/><path fill="#e98b1b" d="M 650.128906 481.703125 L 650.078125 481.601562 L 650.078125 442.507812 C 652.519531 440.859375 654.816406 439.179688 656.910156 437.464844 L 656.910156 476.183594 C 654.84375 478.050781 652.613281 479.894531 650.128906 481.703125 " fill-opacity="1" fill-rule="nonzero"/><path fill="#e98b1b" d="M 639.886719 488.199219 C 639.054688 487.96875 638.460938 487.644531 638.460938 487.25 L 638.460938 449.410156 C 640.875 448.148438 643.121094 446.867188 645.296875 445.546875 L 645.296875 484.964844 C 643.574219 486.058594 641.761719 487.140625 639.886719 488.199219 " fill-opacity="1" fill-rule="nonzero"/><path fill="#e98b1b" d="M 661.691406 471.335938 L 661.691406 433.121094 C 664.429688 430.378906 666.703125 427.554688 668.503906 424.679688 L 668.503906 460.375 C 667.035156 464.113281 664.753906 467.792969 661.691406 471.335938 " fill-opacity="1" fill-rule="nonzero"/><path fill="#e98b1b" d="M 628.613281 493.925781 C 627.589844 493.710938 626.855469 493.34375 626.855469 492.894531 L 626.855469 454.898438 C 629.230469 453.882812 631.484375 452.851562 633.6875 451.785156 L 633.6875 491.484375 C 632.039062 492.3125 630.355469 493.125 628.613281 493.925781 " fill-opacity="1" fill-rule="nonzero"/><path fill="#e98b1b" d="M 615.894531 499.214844 C 615.527344 499.019531 615.261719 498.796875 615.261719 498.535156 L 615.261719 459.464844 C 617.589844 458.621094 619.863281 457.742188 622.082031 456.863281 L 622.082031 496.773438 C 620.066406 497.601562 618.011719 498.40625 615.894531 499.214844 " fill-opacity="1" fill-rule="nonzero"/><path fill="#e98b1b" d="M 603.648438 503.472656 L 603.648438 463.355469 C 605.964844 462.640625 608.257812 461.90625 610.472656 461.144531 L 610.472656 501.195312 C 608.257812 501.972656 605.980469 502.734375 603.648438 503.472656 " fill-opacity="1" fill-rule="nonzero"/><path fill="#e98b1b" d="M 592.039062 506.886719 L 592.039062 466.71875 C 594.34375 466.105469 596.632812 465.472656 598.859375 464.824219 L 598.859375 504.933594 C 596.628906 505.597656 594.359375 506.246094 592.039062 506.886719 " fill-opacity="1" fill-rule="nonzero"/><path fill="#e98b1b" d="M 580.425781 509.851562 L 580.425781 469.609375 C 582.75 469.066406 585.003906 468.511719 587.265625 467.949219 L 587.265625 508.160156 C 585.003906 508.730469 582.75 509.304688 580.425781 509.851562 " fill-opacity="1" fill-rule="nonzero"/><path fill="#e98b1b" d="M 568.824219 512.375 L 568.824219 472.109375 C 571.113281 471.640625 573.40625 471.179688 575.644531 470.679688 L 575.644531 510.933594 C 573.40625 511.429688 571.113281 511.90625 568.824219 512.375 " fill-opacity="1" fill-rule="nonzero"/><path fill="#e98b1b" d="M 557.230469 514.570312 L 557.230469 474.261719 C 559.515625 473.871094 561.78125 473.453125 564.042969 473.035156 L 564.042969 513.339844 C 561.796875 513.773438 559.515625 514.167969 557.230469 514.570312 " fill-opacity="1" fill-rule="nonzero"/><path fill="#e98b1b" d="M 545.609375 516.4375 L 545.609375 476.070312 C 547.898438 475.753906 550.183594 475.390625 552.429688 475.023438 L 552.429688 515.378906 C 550.183594 515.730469 547.898438 516.097656 545.609375 516.4375 " fill-opacity="1" fill-rule="nonzero"/><path fill="#e98b1b" d="M 389.628906 516.4375 C 387.339844 516.097656 385.0625 515.730469 382.816406 515.378906 L 382.816406 475.023438 C 385.0625 475.390625 387.339844 475.753906 389.628906 476.070312 L 389.628906 516.4375 " fill-opacity="1" fill-rule="nonzero"/><path fill="#e98b1b" d="M 378.023438 514.570312 C 375.726562 514.167969 373.441406 513.773438 371.203125 513.339844 L 371.203125 473.035156 C 373.464844 473.453125 375.726562 473.871094 378.023438 474.261719 L 378.023438 514.570312 " fill-opacity="1" fill-rule="nonzero"/><path fill="#e98b1b" d="M 366.414062 512.375 C 364.117188 511.90625 361.835938 511.429688 359.59375 510.933594 L 359.59375 470.679688 C 361.835938 471.179688 364.117188 471.640625 366.414062 472.109375 L 366.414062 512.375 " fill-opacity="1" fill-rule="nonzero"/><path fill="#e98b1b" d="M 354.8125 509.851562 C 352.496094 509.304688 350.226562 508.730469 347.980469 508.160156 L 347.980469 467.949219 C 350.226562 468.511719 352.496094 469.066406 354.8125 469.609375 L 354.8125 509.851562 " fill-opacity="1" fill-rule="nonzero"/><path fill="#e98b1b" d="M 343.199219 506.886719 C 340.886719 506.246094 338.605469 505.597656 336.378906 504.933594 L 336.378906 464.824219 C 338.597656 465.472656 340.894531 466.105469 343.199219 466.71875 L 343.199219 506.886719 " fill-opacity="1" fill-rule="nonzero"/><path fill="#e98b1b" d="M 447.667969 521.566406 C 445.375 521.472656 443.117188 521.378906 440.839844 521.269531 L 440.839844 480.84375 C 443.117188 480.953125 445.375 481.046875 447.667969 481.132812 L 447.667969 521.566406 " fill-opacity="1" fill-rule="nonzero"/><path fill="#e98b1b" d="M 436.066406 521.046875 C 433.777344 520.925781 431.507812 520.773438 429.242188 520.609375 L 429.242188 480.191406 C 431.507812 480.347656 433.777344 480.5 436.066406 480.628906 L 436.066406 521.046875 " fill-opacity="1" fill-rule="nonzero"/><path fill="#e98b1b" d="M 459.273438 521.847656 C 456.984375 521.804688 454.714844 521.753906 452.460938 521.6875 L 452.460938 481.261719 C 454.714844 481.320312 456.984375 481.371094 459.273438 481.398438 L 459.273438 521.847656 " fill-opacity="1" fill-rule="nonzero"/><path fill="#e98b1b" d="M 467.628906 521.910156 C 466.425781 521.910156 465.25 521.882812 464.0625 521.875 L 464.0625 481.4375 C 465.25 481.449219 466.425781 481.480469 467.628906 481.480469 C 468.714844 481.480469 469.792969 481.457031 470.890625 481.449219 L 470.890625 521.875 C 469.792969 521.882812 468.714844 521.910156 467.628906 521.910156 " fill-opacity="1" fill-rule="nonzero"/><path fill="#e98b1b" d="M 475.675781 521.847656 L 475.675781 481.398438 C 477.945312 481.371094 480.226562 481.328125 482.496094 481.261719 L 482.496094 521.703125 C 480.226562 521.761719 477.945312 521.804688 475.675781 521.847656 " fill-opacity="1" fill-rule="nonzero"/><path fill="#e98b1b" d="M 487.277344 521.574219 L 487.277344 481.140625 C 489.566406 481.0625 491.835938 480.953125 494.097656 480.851562 L 494.097656 521.277344 C 491.835938 521.394531 489.566406 521.5 487.277344 521.574219 " fill-opacity="1" fill-rule="nonzero"/><path fill="#e98b1b" d="M 498.890625 521.0625 L 498.890625 480.644531 C 501.1875 480.519531 503.4375 480.363281 505.710938 480.210938 L 505.710938 520.636719 C 503.4375 520.78125 501.1875 520.9375 498.890625 521.0625 " fill-opacity="1" fill-rule="nonzero"/><path fill="#e98b1b" d="M 510.492188 520.289062 L 510.492188 479.894531 C 512.789062 479.707031 515.050781 479.527344 517.3125 479.332031 L 517.3125 519.75 C 515.066406 519.945312 512.789062 520.132812 510.492188 520.289062 " fill-opacity="1" fill-rule="nonzero"/><path fill="#e98b1b" d="M 522.09375 519.273438 L 522.09375 478.886719 C 524.390625 478.664062 526.679688 478.453125 528.925781 478.195312 L 528.925781 518.578125 C 526.679688 518.835938 524.390625 519.050781 522.09375 519.273438 " fill-opacity="1" fill-rule="nonzero"/><path fill="#e98b1b" d="M 533.699219 518.007812 L 533.699219 477.632812 C 536.003906 477.359375 538.28125 477.078125 540.527344 476.773438 L 540.527344 517.144531 C 538.28125 517.445312 536.003906 517.734375 533.699219 518.007812 " fill-opacity="1" fill-rule="nonzero"/><path fill="#e98b1b" d="M 424.445312 520.277344 C 422.167969 520.101562 419.886719 519.917969 417.625 519.722656 L 417.625 479.316406 C 419.886719 479.503906 422.167969 479.699219 424.445312 479.867188 L 424.445312 520.277344 " fill-opacity="1" fill-rule="nonzero"/><path fill="#e98b1b" d="M 412.851562 519.246094 C 410.554688 519.03125 408.285156 518.808594 406.023438 518.554688 L 406.023438 478.164062 C 408.285156 478.410156 410.554688 478.632812 412.851562 478.863281 L 412.851562 519.246094 " fill-opacity="1" fill-rule="nonzero"/><path fill="#e98b1b" d="M 401.238281 517.972656 C 398.945312 517.691406 396.671875 517.402344 394.417969 517.085938 L 394.417969 476.738281 C 396.671875 477.050781 398.945312 477.324219 401.238281 477.597656 L 401.238281 517.972656 " fill-opacity="1" fill-rule="nonzero"/><path fill="#e98b1b" d="M 331.59375 503.472656 C 329.265625 502.734375 326.992188 501.972656 324.765625 501.195312 L 324.765625 461.144531 C 326.992188 461.90625 329.273438 462.640625 331.59375 463.355469 L 331.59375 503.472656 " fill-opacity="1" fill-rule="nonzero"/><path fill="#e98b1b" d="M 319.351562 499.214844 C 317.234375 498.40625 315.167969 497.601562 313.164062 496.773438 L 313.164062 456.863281 C 315.375 457.742188 317.652344 458.621094 319.984375 459.464844 L 319.984375 498.535156 C 319.984375 498.796875 319.710938 499.019531 319.351562 499.214844 " fill-opacity="1" fill-rule="nonzero"/><path fill="#e98b1b" d="M 306.628906 493.925781 C 304.878906 493.125 303.199219 492.3125 301.550781 491.484375 L 301.550781 451.785156 C 303.753906 452.851562 306.023438 453.882812 308.382812 454.898438 L 308.382812 492.894531 C 308.382812 493.34375 307.648438 493.710938 306.628906 493.925781 " fill-opacity="1" fill-rule="nonzero"/><path fill="#e98b1b" d="M 295.351562 488.199219 C 293.480469 487.140625 291.664062 486.058594 289.949219 484.964844 L 289.949219 445.546875 C 292.117188 446.867188 294.371094 448.148438 296.761719 449.410156 L 296.761719 487.25 C 296.761719 487.644531 296.1875 487.96875 295.351562 488.199219 " fill-opacity="1" fill-rule="nonzero"/><path fill="#e98b1b" d="M 285.113281 481.703125 C 282.628906 479.894531 280.386719 478.050781 278.335938 476.183594 L 278.335938 437.464844 C 280.425781 439.179688 282.722656 440.859375 285.167969 442.507812 L 285.167969 481.601562 L 285.113281 481.703125 " fill-opacity="1" fill-rule="nonzero"/><path fill="#e98b1b" d="M 273.554688 471.335938 C 270.480469 467.792969 268.203125 464.132812 266.734375 460.375 L 266.734375 426.90625 C 267.65625 427.503906 268.609375 428.101562 269.578125 428.691406 C 270.773438 430.183594 272.101562 431.667969 273.554688 433.121094 L 273.554688 471.335938 " fill-opacity="1" fill-rule="nonzero"/><path fill="#f89e19" d="M 653.417969 392.378906 L 653.417969 349.183594 L 241.914062 349.183594 L 241.914062 392.378906 C 241.914062 432.402344 334.039062 464.824219 447.667969 464.824219 C 561.292969 464.824219 653.417969 432.402344 653.417969 392.378906 " fill-opacity="1" fill-rule="nonzero"/><path fill="#f5c116" d="M 447.667969 418.441406 C 334.039062 418.441406 241.914062 386.007812 241.914062 346 C 241.914062 305.992188 334.039062 273.554688 447.667969 273.554688 C 561.292969 273.554688 653.417969 305.992188 653.417969 346 C 653.417969 386.007812 561.292969 418.441406 447.667969 418.441406 " fill-opacity="1" fill-rule="nonzero"/><path fill="#f89e19" d="M 460.050781 374.285156 C 468.296875 373.730469 475.015625 372.398438 480.199219 370.238281 C 485.363281 368.089844 487.941406 365.554688 487.941406 362.652344 C 487.941406 360.058594 485.78125 357.820312 481.429688 355.945312 C 477.074219 354.066406 469.972656 352.605469 460.050781 351.601562 L 460.050781 374.285156 M 436.109375 312.429688 C 429.613281 313.207031 424.4375 314.519531 420.59375 316.378906 C 416.738281 318.242188 414.808594 320.296875 414.808594 322.542969 C 414.808594 324.613281 416.574219 326.511719 420.09375 328.265625 C 423.617188 330.035156 428.945312 331.460938 436.109375 332.542969 L 436.109375 312.429688 M 436.109375 373.464844 L 436.109375 349.109375 C 414.535156 346.933594 398.722656 343.664062 388.644531 339.257812 C 378.578125 334.855469 373.535156 329.523438 373.535156 323.242188 C 373.535156 316.890625 379.230469 311.542969 390.628906 307.214844 C 402.007812 302.90625 417.179688 300.414062 436.109375 299.761719 L 436.109375 294.003906 L 460.050781 294.003906 L 460.050781 299.761719 C 477.550781 300.496094 491.453125 302.589844 501.816406 306.0625 C 512.175781 309.527344 518.773438 314.167969 521.625 319.988281 L 479.859375 321.910156 C 477.328125 317.320312 470.714844 314.222656 460.050781 312.609375 L 460.050781 335.335938 C 486.472656 337.84375 504.480469 341.113281 514.042969 345.121094 C 523.621094 349.140625 528.402344 354.273438 528.402344 360.554688 C 528.402344 367.578125 522.382812 373.480469 510.347656 378.285156 C 498.273438 383.089844 481.515625 386.035156 460.050781 387.128906 L 460.050781 397.992188 L 436.109375 397.992188 L 436.109375 387.425781 C 417.070312 386.605469 401.597656 384.113281 389.707031 379.917969 C 377.820312 375.734375 370.238281 369.820312 366.933594 362.183594 L 410.023438 360.554688 C 411.792969 363.660156 415.082031 366.320312 419.929688 368.582031 C 424.769531 370.820312 430.167969 372.449219 436.109375 373.464844 " fill-opacity="1" fill-rule="nonzero"/><path fill="#e98b1b" d="M 630.175781 421.394531 L 630.125 421.308594 L 630.125 382.21875 C 632.566406 380.554688 634.863281 378.875 636.949219 377.160156 L 636.949219 415.886719 C 634.898438 417.75 632.660156 419.601562 630.175781 421.394531 " fill-opacity="1" fill-rule="nonzero"/><path fill="#e98b1b" d="M 619.9375 427.902344 C 619.101562 427.671875 618.511719 427.339844 618.511719 426.957031 L 618.511719 389.101562 C 620.921875 387.851562 623.167969 386.558594 625.34375 385.25 L 625.34375 424.660156 C 623.621094 425.761719 621.800781 426.839844 619.9375 427.902344 " fill-opacity="1" fill-rule="nonzero"/><path fill="#e98b1b" d="M 641.738281 411.03125 L 641.738281 372.816406 C 644.484375 370.066406 646.757812 367.253906 648.550781 364.382812 L 648.550781 400.074219 C 647.074219 403.828125 644.808594 407.492188 641.738281 411.03125 " fill-opacity="1" fill-rule="nonzero"/><path fill="#e98b1b" d="M 608.652344 433.621094 C 607.636719 433.410156 606.902344 433.035156 606.902344 432.597656 L 606.902344 394.597656 C 609.265625 393.582031 611.53125 392.546875 613.730469 391.480469 L 613.730469 431.191406 C 612.085938 432.011719 610.402344 432.828125 608.652344 433.621094 " fill-opacity="1" fill-rule="nonzero"/><path fill="#e98b1b" d="M 595.941406 438.90625 C 595.570312 438.710938 595.292969 438.488281 595.292969 438.246094 L 595.292969 399.167969 C 597.640625 398.316406 599.910156 397.460938 602.121094 396.574219 L 602.121094 436.464844 C 600.121094 437.300781 598.046875 438.121094 595.941406 438.90625 " fill-opacity="1" fill-rule="nonzero"/><path fill="#e98b1b" d="M 583.695312 443.171875 L 583.695312 403.0625 C 586.011719 402.351562 588.289062 401.601562 590.519531 400.835938 L 590.519531 440.894531 C 588.289062 441.679688 586.019531 442.4375 583.695312 443.171875 " fill-opacity="1" fill-rule="nonzero"/><path fill="#e98b1b" d="M 572.085938 446.578125 L 572.085938 406.425781 C 574.390625 405.808594 576.6875 405.179688 578.914062 404.527344 L 578.914062 444.625 C 576.675781 445.296875 574.398438 445.9375 572.085938 446.578125 " fill-opacity="1" fill-rule="nonzero"/><path fill="#e98b1b" d="M 560.480469 449.554688 L 560.480469 409.308594 C 562.792969 408.777344 565.050781 408.214844 567.296875 407.652344 L 567.296875 447.855469 C 565.050781 448.4375 562.792969 449.007812 560.480469 449.554688 " fill-opacity="1" fill-rule="nonzero"/><path fill="#e98b1b" d="M 548.871094 452.066406 L 548.871094 411.800781 C 551.160156 411.339844 553.453125 410.871094 555.691406 410.382812 L 555.691406 450.628906 C 553.453125 451.132812 551.160156 451.621094 548.871094 452.066406 " fill-opacity="1" fill-rule="nonzero"/><path fill="#e98b1b" d="M 537.265625 454.277344 L 537.265625 413.96875 C 539.570312 413.566406 541.828125 413.148438 544.089844 412.730469 L 544.089844 453.039062 C 541.851562 453.464844 539.554688 453.882812 537.265625 454.277344 " fill-opacity="1" fill-rule="nonzero"/><path fill="#e98b1b" d="M 525.648438 456.128906 L 525.648438 415.769531 C 527.945312 415.445312 530.222656 415.085938 532.476562 414.734375 L 532.476562 455.070312 C 530.222656 455.4375 527.945312 455.792969 525.648438 456.128906 " fill-opacity="1" fill-rule="nonzero"/><path fill="#e98b1b" d="M 369.683594 456.128906 C 367.394531 455.792969 365.105469 455.4375 362.863281 455.070312 L 362.863281 414.734375 C 365.105469 415.085938 367.394531 415.445312 369.683594 415.769531 L 369.683594 456.128906 " fill-opacity="1" fill-rule="nonzero"/><path fill="#e98b1b" d="M 358.070312 454.277344 C 355.777344 453.882812 353.488281 453.464844 351.242188 453.039062 L 351.242188 412.730469 C 353.496094 413.148438 355.773438 413.566406 358.070312 413.96875 L 358.070312 454.277344 " fill-opacity="1" fill-rule="nonzero"/><path fill="#e98b1b" d="M 346.460938 452.066406 C 344.15625 451.621094 341.890625 451.132812 339.640625 450.628906 L 339.640625 410.382812 C 341.890625 410.871094 344.15625 411.339844 346.460938 411.800781 L 346.460938 452.066406 " fill-opacity="1" fill-rule="nonzero"/><path fill="#e98b1b" d="M 334.855469 449.554688 C 332.535156 449.007812 330.265625 448.4375 328.035156 447.855469 L 328.035156 407.652344 C 330.265625 408.214844 332.535156 408.777344 334.855469 409.308594 L 334.855469 449.554688 " fill-opacity="1" fill-rule="nonzero"/><path fill="#e98b1b" d="M 323.253906 446.578125 C 320.933594 445.9375 318.660156 445.296875 316.425781 444.625 L 316.425781 404.527344 C 318.652344 405.179688 320.941406 405.808594 323.253906 406.425781 L 323.253906 446.578125 " fill-opacity="1" fill-rule="nonzero"/><path fill="#e98b1b" d="M 427.714844 461.265625 C 425.425781 461.1875 423.164062 461.078125 420.886719 460.972656 L 420.886719 420.546875 C 423.164062 420.648438 425.425781 420.746094 427.714844 420.835938 L 427.714844 461.265625 " fill-opacity="1" fill-rule="nonzero"/><path fill="#e98b1b" d="M 416.113281 460.746094 C 413.816406 460.625 411.554688 460.472656 409.289062 460.324219 L 409.289062 419.890625 C 411.554688 420.042969 413.816406 420.191406 416.113281 420.328125 L 416.113281 460.746094 " fill-opacity="1" fill-rule="nonzero"/><path fill="#e98b1b" d="M 439.320312 461.539062 C 437.039062 461.519531 434.769531 461.445312 432.507812 461.394531 L 432.507812 420.957031 C 434.769531 421.019531 437.039062 421.066406 439.320312 421.101562 L 439.320312 461.539062 " fill-opacity="1" fill-rule="nonzero"/><path fill="#e98b1b" d="M 447.667969 461.613281 C 446.480469 461.613281 445.289062 461.582031 444.109375 461.582031 L 444.109375 421.128906 C 445.289062 421.144531 446.480469 421.179688 447.667969 421.179688 C 448.761719 421.179688 449.839844 421.160156 450.929688 421.144531 L 450.929688 461.582031 C 449.839844 461.582031 448.761719 461.613281 447.667969 461.613281 " fill-opacity="1" fill-rule="nonzero"/><path fill="#e98b1b" d="M 455.722656 461.539062 L 455.722656 421.101562 C 458 421.078125 460.269531 421.035156 462.542969 420.972656 L 462.542969 461.394531 C 460.269531 461.460938 458 461.519531 455.722656 461.539062 " fill-opacity="1" fill-rule="nonzero"/><path fill="#e98b1b" d="M 467.324219 461.265625 L 467.324219 420.835938 C 469.605469 420.753906 471.882812 420.660156 474.152344 420.558594 L 474.152344 460.984375 C 471.882812 461.085938 469.605469 461.203125 467.324219 461.265625 " fill-opacity="1" fill-rule="nonzero"/><path fill="#e98b1b" d="M 478.933594 460.761719 L 478.933594 420.335938 C 481.222656 420.222656 483.484375 420.0625 485.75 419.917969 L 485.75 460.335938 C 483.484375 460.480469 481.222656 460.648438 478.933594 460.761719 " fill-opacity="1" fill-rule="nonzero"/><path fill="#e98b1b" d="M 490.53125 460 L 490.53125 419.585938 C 492.828125 419.414062 495.105469 419.226562 497.359375 419.035156 L 497.359375 459.445312 C 495.121094 459.644531 492.828125 459.824219 490.53125 460 " fill-opacity="1" fill-rule="nonzero"/><path fill="#e98b1b" d="M 502.140625 458.988281 L 502.140625 418.585938 C 504.429688 418.363281 506.71875 418.148438 508.964844 417.902344 L 508.964844 458.277344 C 506.71875 458.535156 504.429688 458.765625 502.140625 458.988281 " fill-opacity="1" fill-rule="nonzero"/><path fill="#e98b1b" d="M 513.746094 457.714844 L 513.746094 417.339844 C 516.042969 417.050781 518.320312 416.777344 520.574219 416.476562 L 520.574219 456.84375 C 518.320312 457.152344 516.042969 457.433594 513.746094 457.714844 " fill-opacity="1" fill-rule="nonzero"/><path fill="#e98b1b" d="M 404.5 459.976562 C 402.214844 459.796875 399.941406 459.632812 397.671875 459.414062 L 397.671875 419.011719 C 399.941406 419.207031 402.214844 419.394531 404.5 419.566406 L 404.5 459.976562 " fill-opacity="1" fill-rule="nonzero"/><path fill="#e98b1b" d="M 392.890625 458.953125 C 390.609375 458.738281 388.324219 458.507812 386.070312 458.25 L 386.070312 417.867188 C 388.324219 418.117188 390.609375 418.335938 392.890625 418.558594 L 392.890625 458.953125 " fill-opacity="1" fill-rule="nonzero"/><path fill="#e98b1b" d="M 381.285156 457.671875 C 378.992188 457.390625 376.71875 457.097656 374.464844 456.800781 L 374.464844 416.433594 C 376.703125 416.742188 378.992188 417.03125 381.285156 417.304688 L 381.285156 457.671875 " fill-opacity="1" fill-rule="nonzero"/><path fill="#e98b1b" d="M 311.640625 443.171875 C 309.304688 442.4375 307.039062 441.679688 304.8125 440.894531 L 304.8125 400.835938 C 307.039062 401.601562 309.320312 402.351562 311.640625 403.0625 L 311.640625 443.171875 " fill-opacity="1" fill-rule="nonzero"/><path fill="#e98b1b" d="M 299.398438 438.90625 C 297.273438 438.121094 295.207031 437.300781 293.210938 436.464844 L 293.210938 396.574219 C 295.429688 397.460938 297.691406 398.316406 300.03125 399.167969 L 300.03125 438.246094 C 300.03125 438.488281 299.757812 438.710938 299.398438 438.90625 " fill-opacity="1" fill-rule="nonzero"/><path fill="#e98b1b" d="M 286.675781 433.621094 C 284.917969 432.828125 283.253906 432.011719 281.605469 431.191406 L 281.605469 391.480469 C 283.800781 392.546875 286.0625 393.582031 288.429688 394.597656 L 288.429688 432.597656 C 288.429688 433.035156 287.691406 433.410156 286.675781 433.621094 " fill-opacity="1" fill-rule="nonzero"/><path fill="#e98b1b" d="M 275.398438 427.902344 C 273.527344 426.839844 271.710938 425.761719 269.996094 424.660156 L 269.996094 385.25 C 272.164062 386.558594 274.402344 387.851562 276.816406 389.101562 L 276.816406 426.957031 C 276.816406 427.339844 276.234375 427.671875 275.398438 427.902344 " fill-opacity="1" fill-rule="nonzero"/><path fill="#e98b1b" d="M 265.160156 421.394531 C 262.675781 419.601562 260.433594 417.75 258.382812 415.886719 L 258.382812 377.160156 C 260.472656 378.875 262.769531 380.554688 265.210938 382.21875 L 265.210938 421.308594 L 265.160156 421.394531 " fill-opacity="1" fill-rule="nonzero"/><path fill="#e98b1b" d="M 253.59375 411.03125 C 250.542969 407.492188 248.257812 403.828125 246.78125 400.074219 L 246.78125 364.382812 C 248.574219 367.253906 250.867188 370.066406 253.59375 372.816406 L 253.59375 411.03125 " fill-opacity="1" fill-rule="nonzero"/><g clip-path="url(#4a8bb25c8c)"><path fill="#f89e19" d="M 681.429688 317.183594 L 681.429688 274 L 269.925781 274 L 269.925781 317.183594 C 269.925781 357.207031 362.042969 389.636719 475.675781 389.636719 C 589.304688 389.636719 681.429688 357.207031 681.429688 317.183594 " fill-opacity="1" fill-rule="nonzero"/></g><g clip-path="url(#7ac406d287)"><path fill="#f5c116" d="M 475.675781 343.253906 C 362.042969 343.253906 269.925781 310.808594 269.925781 270.816406 C 269.925781 230.796875 362.042969 198.371094 475.675781 198.371094 C 589.304688 198.371094 681.429688 230.796875 681.429688 270.816406 C 681.429688 310.808594 589.304688 343.253906 475.675781 343.253906 " fill-opacity="1" fill-rule="nonzero"/></g><path fill="#f89e19" d="M 488.0625 299.097656 C 496.300781 298.542969 503.027344 297.203125 508.210938 295.050781 C 513.371094 292.894531 515.957031 290.359375 515.957031 287.464844 C 515.957031 284.871094 513.796875 282.628906 509.433594 280.75 C 505.085938 278.878906 497.984375 277.414062 488.0625 276.414062 L 488.0625 299.097656 M 464.113281 237.25 C 457.632812 238.011719 452.449219 239.332031 448.601562 241.183594 C 444.75 243.0625 442.820312 245.117188 442.820312 247.355469 C 442.820312 249.414062 444.578125 251.316406 448.097656 253.082031 C 451.628906 254.839844 456.957031 256.273438 464.113281 257.347656 L 464.113281 237.25 M 464.113281 298.277344 L 464.113281 273.914062 C 442.539062 271.738281 426.734375 268.46875 416.640625 264.066406 C 406.585938 259.671875 401.546875 254.335938 401.546875 248.0625 C 401.546875 241.695312 407.25 236.355469 418.632812 232.035156 C 430.019531 227.710938 445.183594 225.226562 464.113281 224.570312 L 464.113281 218.808594 L 488.0625 218.808594 L 488.0625 224.570312 C 505.558594 225.304688 519.464844 227.417969 529.828125 230.882812 C 540.1875 234.339844 546.792969 238.976562 549.636719 244.804688 L 507.878906 246.714844 C 505.34375 242.132812 498.726562 239.050781 488.0625 237.421875 L 488.0625 260.148438 C 514.480469 262.648438 532.484375 265.933594 542.054688 269.9375 C 551.621094 273.949219 556.410156 279.101562 556.410156 285.367188 C 556.410156 292.390625 550.378906 298.285156 538.351562 303.089844 C 526.285156 307.914062 509.519531 310.847656 488.0625 311.949219 L 488.0625 322.8125 L 464.113281 322.8125 L 464.113281 312.238281 C 445.074219 311.414062 429.609375 308.914062 417.710938 304.730469 C 405.839844 300.546875 398.25 294.636719 394.945312 286.996094 L 438.023438 285.367188 C 439.796875 288.464844 443.085938 291.144531 447.941406 293.390625 C 452.773438 295.625 458.171875 297.273438 464.113281 298.277344 " fill-opacity="1" fill-rule="nonzero"/><path fill="#e98b1b" d="M 658.183594 346.207031 L 658.121094 346.113281 L 658.121094 307.019531 C 660.570312 305.363281 662.875 303.691406 664.953125 301.980469 L 664.953125 340.691406 C 662.894531 342.570312 660.664062 344.414062 658.183594 346.207031 " fill-opacity="1" fill-rule="nonzero"/><path fill="#e98b1b" d="M 647.9375 352.710938 C 647.109375 352.480469 646.519531 352.148438 646.519531 351.761719 L 646.519531 313.914062 C 648.925781 312.667969 651.179688 311.363281 653.355469 310.066406 L 653.355469 349.46875 C 651.632812 350.566406 649.816406 351.652344 647.9375 352.710938 " fill-opacity="1" fill-rule="nonzero"/><path fill="#e98b1b" d="M 669.742188 335.839844 L 669.742188 297.621094 C 672.484375 294.875 674.761719 292.058594 676.554688 289.1875 L 676.554688 324.886719 C 675.085938 328.636719 672.808594 332.296875 669.742188 335.839844 " fill-opacity="1" fill-rule="nonzero"/><path fill="#e98b1b" d="M 636.671875 358.4375 C 635.648438 358.230469 634.914062 357.855469 634.914062 357.410156 L 634.914062 319.425781 C 637.273438 318.386719 639.535156 317.351562 641.746094 316.300781 L 641.746094 356.003906 C 640.089844 356.824219 638.40625 357.640625 636.671875 358.4375 " fill-opacity="1" fill-rule="nonzero"/><path fill="#e98b1b" d="M 623.945312 363.71875 C 623.570312 363.53125 623.3125 363.308594 623.3125 363.046875 L 623.3125 323.976562 C 625.644531 323.136719 627.914062 322.269531 630.132812 321.378906 L 630.132812 361.277344 C 628.117188 362.105469 626.0625 362.925781 623.945312 363.71875 " fill-opacity="1" fill-rule="nonzero"/><path fill="#e98b1b" d="M 611.710938 367.976562 L 611.710938 327.867188 C 614.023438 327.160156 616.304688 326.40625 618.53125 325.648438 L 618.53125 365.707031 C 616.304688 366.484375 614.023438 367.242188 611.710938 367.976562 " fill-opacity="1" fill-rule="nonzero"/><path fill="#e98b1b" d="M 600.089844 371.382812 L 600.089844 331.238281 C 602.402344 330.613281 604.683594 329.984375 606.910156 329.335938 L 606.910156 369.445312 C 604.675781 370.117188 602.417969 370.75 600.089844 371.382812 " fill-opacity="1" fill-rule="nonzero"/><path fill="#e98b1b" d="M 588.476562 374.367188 L 588.476562 334.121094 C 590.792969 333.585938 593.054688 333.023438 595.308594 332.457031 L 595.308594 372.664062 C 593.054688 373.242188 590.792969 373.824219 588.476562 374.367188 " fill-opacity="1" fill-rule="nonzero"/><path fill="#e98b1b" d="M 576.875 376.886719 L 576.875 336.621094 C 579.179688 336.144531 581.457031 335.683594 583.695312 335.199219 L 583.695312 375.445312 C 581.457031 375.949219 579.179688 376.425781 576.875 376.886719 " fill-opacity="1" fill-rule="nonzero"/><path fill="#e98b1b" d="M 565.273438 379.082031 L 565.273438 338.78125 C 567.574219 338.371094 569.832031 337.960938 572.09375 337.535156 L 572.09375 377.859375 C 569.855469 378.277344 567.558594 378.6875 565.273438 379.082031 " fill-opacity="1" fill-rule="nonzero"/><path fill="#e98b1b" d="M 553.660156 380.949219 L 553.660156 340.574219 C 555.957031 340.25 558.226562 339.910156 560.488281 339.542969 L 560.488281 379.882812 C 558.226562 380.242188 555.957031 380.597656 553.660156 380.949219 " fill-opacity="1" fill-rule="nonzero"/><path fill="#e98b1b" d="M 397.6875 380.949219 C 395.390625 380.597656 393.121094 380.242188 390.851562 379.882812 L 390.851562 339.542969 C 393.121094 339.910156 395.390625 340.25 397.6875 340.574219 L 397.6875 380.949219 " fill-opacity="1" fill-rule="nonzero"/><path fill="#e98b1b" d="M 386.070312 379.082031 C 383.78125 378.6875 381.5 378.277344 379.253906 377.859375 L 379.253906 337.535156 C 381.519531 337.960938 383.773438 338.371094 386.070312 338.78125 L 386.070312 379.082031 " fill-opacity="1" fill-rule="nonzero"/><path fill="#e98b1b" d="M 374.472656 376.886719 C 372.160156 376.425781 369.898438 375.949219 367.644531 375.445312 L 367.644531 335.199219 C 369.898438 335.683594 372.160156 336.144531 374.472656 336.621094 L 374.472656 376.886719 " fill-opacity="1" fill-rule="nonzero"/><path fill="#e98b1b" d="M 362.863281 374.367188 C 360.554688 373.824219 358.277344 373.242188 356.039062 372.664062 L 356.039062 332.457031 C 358.277344 333.023438 360.554688 333.585938 362.863281 334.121094 L 362.863281 374.367188 " fill-opacity="1" fill-rule="nonzero"/><path fill="#e98b1b" d="M 351.257812 371.382812 C 348.9375 370.75 346.664062 370.117188 344.4375 369.445312 L 344.4375 329.335938 C 346.65625 329.984375 348.945312 330.613281 351.257812 331.238281 L 351.257812 371.382812 " fill-opacity="1" fill-rule="nonzero"/><path fill="#e98b1b" d="M 455.722656 386.078125 C 453.425781 385.992188 451.171875 385.890625 448.898438 385.789062 L 448.898438 345.363281 C 451.171875 345.457031 453.425781 345.558594 455.722656 345.644531 L 455.722656 386.078125 " fill-opacity="1" fill-rule="nonzero"/><path fill="#e98b1b" d="M 444.109375 385.550781 C 441.828125 385.4375 439.550781 385.285156 437.296875 385.128906 L 437.296875 344.714844 C 439.550781 344.851562 441.828125 345.019531 444.109375 345.148438 L 444.109375 385.550781 " fill-opacity="1" fill-rule="nonzero"/><path fill="#e98b1b" d="M 467.332031 386.359375 C 465.042969 386.324219 462.773438 386.265625 460.511719 386.199219 L 460.511719 345.773438 C 462.773438 345.824219 465.042969 345.867188 467.332031 345.910156 L 467.332031 386.359375 " fill-opacity="1" fill-rule="nonzero"/><path fill="#e98b1b" d="M 475.675781 386.429688 C 474.480469 386.429688 473.308594 386.402344 472.113281 386.386719 L 472.113281 345.949219 C 473.308594 345.960938 474.480469 345.984375 475.675781 345.984375 C 476.773438 345.984375 477.851562 345.96875 478.933594 345.960938 L 478.933594 386.386719 C 477.851562 386.402344 476.773438 386.429688 475.675781 386.429688 " fill-opacity="1" fill-rule="nonzero"/><path fill="#e98b1b" d="M 483.734375 386.359375 L 483.734375 345.910156 C 486.011719 345.882812 488.269531 345.839844 490.554688 345.789062 L 490.554688 386.214844 C 488.269531 386.273438 486.011719 386.324219 483.734375 386.359375 " fill-opacity="1" fill-rule="nonzero"/><path fill="#e98b1b" d="M 495.328125 386.078125 L 495.328125 345.652344 C 497.625 345.574219 499.886719 345.472656 502.148438 345.363281 L 502.148438 385.796875 C 499.886719 385.890625 497.625 386.007812 495.328125 386.078125 " fill-opacity="1" fill-rule="nonzero"/><path fill="#e98b1b" d="M 506.941406 385.566406 L 506.941406 345.148438 C 509.234375 345.035156 511.492188 344.875 513.761719 344.722656 L 513.761719 385.140625 C 511.492188 385.300781 509.234375 385.457031 506.941406 385.566406 " fill-opacity="1" fill-rule="nonzero"/><path fill="#e98b1b" d="M 518.550781 384.804688 L 518.550781 344.398438 C 520.832031 344.226562 523.101562 344.039062 525.371094 343.84375 L 525.371094 384.253906 C 523.117188 384.449219 520.832031 384.628906 518.550781 384.804688 " fill-opacity="1" fill-rule="nonzero"/><path fill="#e98b1b" d="M 530.152344 383.800781 L 530.152344 343.398438 C 532.433594 343.183594 534.738281 342.957031 536.976562 342.714844 L 536.976562 383.089844 C 534.738281 383.339844 532.433594 383.570312 530.152344 383.800781 " fill-opacity="1" fill-rule="nonzero"/><path fill="#e98b1b" d="M 541.765625 382.527344 L 541.765625 342.152344 C 544.054688 341.863281 546.332031 341.589844 548.578125 341.289062 L 548.578125 381.65625 C 546.332031 381.957031 544.054688 382.238281 541.765625 382.527344 " fill-opacity="1" fill-rule="nonzero"/><path fill="#e98b1b" d="M 432.507812 384.789062 C 430.226562 384.601562 427.945312 384.433594 425.683594 384.234375 L 425.683594 343.824219 C 427.945312 344.015625 430.226562 344.199219 432.507812 344.371094 L 432.507812 384.789062 " fill-opacity="1" fill-rule="nonzero"/><path fill="#e98b1b" d="M 420.910156 383.765625 C 418.613281 383.542969 416.328125 383.320312 414.082031 383.066406 L 414.082031 342.675781 C 416.328125 342.929688 418.613281 343.144531 420.910156 343.371094 L 420.910156 383.765625 " fill-opacity="1" fill-rule="nonzero"/><path fill="#e98b1b" d="M 409.289062 382.484375 C 406.996094 382.21875 404.730469 381.914062 402.46875 381.605469 L 402.46875 341.25 C 404.730469 341.554688 406.996094 341.835938 409.289062 342.117188 L 409.289062 382.484375 " fill-opacity="1" fill-rule="nonzero"/><path fill="#e98b1b" d="M 339.640625 367.976562 C 337.324219 367.242188 335.042969 366.484375 332.824219 365.707031 L 332.824219 325.648438 C 335.042969 326.40625 337.324219 327.160156 339.640625 327.867188 L 339.640625 367.976562 " fill-opacity="1" fill-rule="nonzero"/><path fill="#e98b1b" d="M 327.402344 363.71875 C 325.285156 362.925781 323.230469 362.105469 321.222656 361.277344 L 321.222656 321.378906 C 323.433594 322.269531 325.710938 323.136719 328.035156 323.976562 L 328.035156 363.046875 C 328.035156 363.308594 327.769531 363.53125 327.402344 363.71875 " fill-opacity="1" fill-rule="nonzero"/><path fill="#e98b1b" d="M 314.683594 358.4375 C 312.933594 357.640625 311.257812 356.824219 309.609375 356.003906 L 309.609375 316.300781 C 311.804688 317.351562 314.078125 318.386719 316.425781 319.425781 L 316.425781 357.410156 C 316.425781 357.855469 315.699219 358.230469 314.683594 358.4375 " fill-opacity="1" fill-rule="nonzero"/><path fill="#e98b1b" d="M 303.402344 352.710938 C 301.527344 351.652344 299.714844 350.566406 298 349.46875 L 298 310.066406 C 300.167969 311.363281 302.429688 312.667969 304.828125 313.914062 L 304.828125 351.761719 C 304.828125 352.148438 304.242188 352.480469 303.402344 352.710938 " fill-opacity="1" fill-rule="nonzero"/><path fill="#e98b1b" d="M 293.160156 346.207031 C 290.679688 344.414062 288.445312 342.570312 286.378906 340.691406 L 286.378906 301.980469 C 288.46875 303.691406 290.777344 305.363281 293.226562 307.019531 L 293.226562 346.113281 L 293.160156 346.207031 " fill-opacity="1" fill-rule="nonzero"/><path fill="#e98b1b" d="M 281.613281 335.839844 C 278.539062 332.296875 276.261719 328.636719 274.777344 324.886719 L 274.777344 296.707031 C 276.988281 297.6875 279.265625 298.644531 281.613281 299.574219 L 281.613281 335.839844 " fill-opacity="1" fill-rule="nonzero"/><path fill="#f89e19" d="M 641.675781 251.65625 L 641.675781 208.457031 L 230.164062 208.457031 L 230.164062 251.65625 C 230.164062 291.671875 322.28125 324.09375 435.914062 324.09375 C 549.554688 324.09375 641.675781 291.671875 641.675781 251.65625 " fill-opacity="1" fill-rule="nonzero"/><path fill="#f5c116" d="M 435.914062 277.710938 C 322.28125 277.710938 230.164062 245.289062 230.164062 205.28125 C 230.164062 165.253906 322.28125 132.828125 435.914062 132.828125 C 549.554688 132.828125 641.675781 165.253906 641.675781 205.28125 C 641.675781 245.289062 549.554688 277.710938 435.914062 277.710938 " fill-opacity="1" fill-rule="nonzero"/><path fill="#f89e19" d="M 448.308594 233.5625 C 456.546875 233.007812 463.261719 231.660156 468.449219 229.511719 C 473.605469 227.359375 476.203125 224.824219 476.203125 221.929688 C 476.203125 219.335938 474.027344 217.09375 469.679688 215.207031 C 465.324219 213.335938 458.230469 211.878906 448.308594 210.878906 L 448.308594 233.5625 M 424.359375 171.707031 C 417.863281 172.476562 412.691406 173.789062 408.847656 175.640625 C 404.988281 177.519531 403.066406 179.566406 403.066406 181.820312 C 403.066406 183.878906 404.824219 185.773438 408.34375 187.546875 C 411.863281 189.296875 417.195312 190.730469 424.359375 191.8125 L 424.359375 171.707031 M 424.359375 232.734375 L 424.359375 208.378906 C 402.785156 206.210938 386.972656 202.933594 376.890625 198.53125 C 366.832031 194.144531 361.785156 188.785156 361.785156 182.527344 C 361.785156 176.152344 367.480469 170.820312 378.871094 166.5 C 390.253906 162.167969 405.425781 159.691406 424.359375 159.027344 L 424.359375 153.28125 L 448.308594 153.28125 L 448.308594 159.027344 C 465.789062 159.761719 479.703125 161.875 490.0625 165.339844 C 500.433594 168.808594 507.027344 173.433594 509.875 179.269531 L 468.109375 181.171875 C 465.574219 176.613281 458.957031 173.507812 448.308594 171.878906 L 448.308594 194.605469 C 474.71875 197.113281 492.734375 200.398438 502.292969 204.402344 C 511.867188 208.414062 516.65625 213.566406 516.65625 219.824219 C 516.65625 226.847656 510.621094 232.761719 498.589844 237.566406 C 486.515625 242.371094 469.757812 245.308594 448.308594 246.40625 L 448.308594 257.273438 L 424.359375 257.273438 L 424.359375 246.691406 C 405.320312 245.871094 389.839844 243.378906 377.957031 239.195312 C 366.074219 235.003906 358.492188 229.09375 355.179688 221.460938 L 398.269531 219.824219 C 400.042969 222.929688 403.332031 225.601562 408.179688 227.863281 C 413.015625 230.089844 418.410156 231.730469 424.359375 232.734375 " fill-opacity="1" fill-rule="nonzero"/><path fill="#e98b1b" d="M 618.421875 280.664062 L 618.371094 280.578125 L 618.371094 241.484375 C 620.8125 239.828125 623.109375 238.15625 625.191406 236.441406 L 625.191406 275.144531 C 623.140625 277.035156 620.90625 278.878906 618.421875 280.664062 " fill-opacity="1" fill-rule="nonzero"/><path fill="#e98b1b" d="M 608.183594 287.167969 C 607.347656 286.945312 606.765625 286.613281 606.765625 286.226562 L 606.765625 248.371094 C 609.164062 247.125 611.417969 245.828125 613.578125 244.519531 L 613.578125 283.941406 C 611.871094 285.035156 610.050781 286.109375 608.183594 287.167969 " fill-opacity="1" fill-rule="nonzero"/><path fill="#e98b1b" d="M 629.988281 270.3125 L 629.988281 232.085938 C 631.335938 230.738281 632.574219 229.367188 633.695312 227.984375 C 634.777344 227.179688 635.8125 226.363281 636.808594 225.542969 L 636.808594 259.347656 C 635.332031 263.09375 633.046875 266.769531 629.988281 270.3125 " fill-opacity="1" fill-rule="nonzero"/><path fill="#e98b1b" d="M 596.902344 292.894531 C 595.886719 292.679688 595.15625 292.320312 595.15625 291.871094 L 595.15625 253.882812 C 597.511719 252.859375 599.78125 251.820312 601.984375 250.761719 L 601.984375 290.460938 C 600.335938 291.289062 598.652344 292.101562 596.902344 292.894531 " fill-opacity="1" fill-rule="nonzero"/><path fill="#e98b1b" d="M 584.191406 298.191406 C 583.816406 297.988281 583.542969 297.765625 583.542969 297.519531 L 583.542969 258.433594 C 585.890625 257.597656 588.152344 256.71875 590.371094 255.847656 L 590.371094 295.742188 C 588.367188 296.578125 586.300781 297.390625 584.191406 298.191406 " fill-opacity="1" fill-rule="nonzero"/><path fill="#e98b1b" d="M 571.941406 302.441406 L 571.941406 262.332031 C 574.261719 261.617188 576.539062 260.890625 578.769531 260.121094 L 578.769531 300.171875 C 576.539062 300.949219 574.269531 301.703125 571.941406 302.441406 " fill-opacity="1" fill-rule="nonzero"/><path fill="#e98b1b" d="M 560.335938 305.847656 L 560.335938 265.695312 C 562.648438 265.070312 564.929688 264.449219 567.160156 263.800781 L 567.160156 303.910156 C 564.921875 304.570312 562.652344 305.214844 560.335938 305.847656 " fill-opacity="1" fill-rule="nonzero"/><path fill="#e98b1b" d="M 548.722656 308.828125 L 548.722656 268.585938 C 551.039062 268.050781 553.300781 267.488281 555.5625 266.925781 L 555.5625 307.128906 C 553.300781 307.707031 551.039062 308.273438 548.722656 308.828125 " fill-opacity="1" fill-rule="nonzero"/><path fill="#e98b1b" d="M 537.128906 311.359375 L 537.128906 271.078125 C 539.417969 270.617188 541.6875 270.148438 543.945312 269.65625 L 543.945312 309.902344 C 541.6875 310.398438 539.417969 310.882812 537.128906 311.359375 " fill-opacity="1" fill-rule="nonzero"/><path fill="#e98b1b" d="M 525.519531 313.546875 L 525.519531 273.238281 C 527.816406 272.835938 530.070312 272.4375 532.332031 272.003906 L 532.332031 312.316406 C 530.085938 312.742188 527.796875 313.152344 525.519531 313.546875 " fill-opacity="1" fill-rule="nonzero"/><path fill="#e98b1b" d="M 513.90625 315.414062 L 513.90625 275.046875 C 516.195312 274.722656 518.476562 274.367188 520.71875 274 L 520.71875 314.332031 C 518.476562 314.707031 516.195312 315.066406 513.90625 315.414062 " fill-opacity="1" fill-rule="nonzero"/><path fill="#e98b1b" d="M 357.933594 315.414062 C 355.621094 315.066406 353.351562 314.707031 351.105469 314.332031 L 351.105469 274 C 353.351562 274.367188 355.621094 274.722656 357.933594 275.046875 L 357.933594 315.414062 " fill-opacity="1" fill-rule="nonzero"/><path fill="#e98b1b" d="M 346.316406 313.546875 C 344.027344 313.152344 341.738281 312.742188 339.5 312.316406 L 339.5 272.003906 C 341.746094 272.4375 344.019531 272.835938 346.316406 273.238281 L 346.316406 313.546875 " fill-opacity="1" fill-rule="nonzero"/><path fill="#e98b1b" d="M 334.710938 311.359375 C 332.414062 310.882812 330.128906 310.398438 327.890625 309.902344 L 327.890625 269.65625 C 330.128906 270.148438 332.414062 270.617188 334.710938 271.078125 L 334.710938 311.359375 " fill-opacity="1" fill-rule="nonzero"/><path fill="#e98b1b" d="M 323.101562 308.828125 C 320.785156 308.273438 318.523438 307.707031 316.277344 307.128906 L 316.277344 266.925781 C 318.523438 267.488281 320.785156 268.050781 323.101562 268.585938 L 323.101562 308.828125 " fill-opacity="1" fill-rule="nonzero"/><path fill="#e98b1b" d="M 311.496094 305.847656 C 309.183594 305.214844 306.914062 304.570312 304.675781 303.910156 L 304.675781 263.800781 C 306.894531 264.449219 309.191406 265.070312 311.496094 265.695312 L 311.496094 305.847656 " fill-opacity="1" fill-rule="nonzero"/><path fill="#e98b1b" d="M 415.953125 320.542969 C 413.679688 320.457031 411.410156 320.355469 409.136719 320.253906 L 409.136719 279.820312 C 411.410156 279.914062 413.679688 280.015625 415.953125 280.101562 L 415.953125 320.542969 " fill-opacity="1" fill-rule="nonzero"/><path fill="#e98b1b" d="M 404.355469 320.007812 C 402.066406 319.902344 399.796875 319.75 397.527344 319.589844 L 397.527344 279.171875 C 399.796875 279.316406 402.066406 279.484375 404.355469 279.605469 L 404.355469 320.007812 " fill-opacity="1" fill-rule="nonzero"/><path fill="#e98b1b" d="M 427.570312 320.824219 C 425.285156 320.773438 423.011719 320.722656 420.757812 320.671875 L 420.757812 280.230469 C 423.011719 280.289062 425.285156 280.324219 427.570312 280.367188 L 427.570312 320.824219 " fill-opacity="1" fill-rule="nonzero"/><path fill="#e98b1b" d="M 435.914062 320.894531 C 434.71875 320.894531 433.546875 320.867188 432.359375 320.851562 L 432.359375 280.410156 C 433.546875 280.410156 434.71875 280.441406 435.914062 280.441406 C 437.011719 280.441406 438.089844 280.433594 439.175781 280.410156 L 439.175781 320.851562 C 438.089844 320.867188 437.011719 320.894531 435.914062 320.894531 " fill-opacity="1" fill-rule="nonzero"/><path fill="#e98b1b" d="M 443.972656 320.824219 L 443.972656 280.367188 C 446.25 280.339844 448.515625 280.304688 450.792969 280.246094 L 450.792969 320.679688 C 448.515625 320.730469 446.25 320.773438 443.972656 320.824219 " fill-opacity="1" fill-rule="nonzero"/><path fill="#e98b1b" d="M 455.574219 320.542969 L 455.574219 280.125 C 457.863281 280.03125 460.136719 279.921875 462.390625 279.828125 L 462.390625 320.261719 C 460.136719 320.363281 457.863281 320.476562 455.574219 320.542969 " fill-opacity="1" fill-rule="nonzero"/><path fill="#e98b1b" d="M 467.179688 320.042969 L 467.179688 279.613281 C 469.46875 279.496094 471.730469 279.339844 474.007812 279.1875 L 474.007812 319.613281 C 471.730469 319.765625 469.46875 319.914062 467.179688 320.042969 " fill-opacity="1" fill-rule="nonzero"/><path fill="#e98b1b" d="M 478.78125 319.257812 L 478.78125 278.855469 C 481.078125 278.691406 483.347656 278.503906 485.605469 278.308594 L 485.605469 318.71875 C 483.359375 318.90625 481.078125 319.09375 478.78125 319.257812 " fill-opacity="1" fill-rule="nonzero"/><path fill="#e98b1b" d="M 490.382812 318.257812 L 490.382812 277.863281 C 492.679688 277.636719 494.960938 277.429688 497.230469 277.171875 L 497.230469 317.550781 C 494.960938 317.8125 492.679688 318.035156 490.382812 318.257812 " fill-opacity="1" fill-rule="nonzero"/><path fill="#e98b1b" d="M 502.003906 316.984375 L 502.003906 276.609375 C 504.292969 276.335938 506.566406 276.054688 508.820312 275.746094 L 508.820312 316.113281 C 506.566406 316.414062 504.292969 316.703125 502.003906 316.984375 " fill-opacity="1" fill-rule="nonzero"/><path fill="#e98b1b" d="M 392.738281 319.253906 C 390.464844 319.074219 388.1875 318.898438 385.921875 318.699219 L 385.921875 278.285156 C 388.1875 278.480469 390.464844 278.667969 392.738281 278.835938 L 392.738281 319.253906 " fill-opacity="1" fill-rule="nonzero"/><path fill="#e98b1b" d="M 381.140625 318.230469 C 378.851562 318.007812 376.574219 317.777344 374.320312 317.523438 L 374.320312 277.132812 C 376.574219 277.386719 378.851562 277.609375 381.140625 277.832031 L 381.140625 318.230469 " fill-opacity="1" fill-rule="nonzero"/><path fill="#e98b1b" d="M 369.53125 316.949219 C 367.242188 316.671875 364.972656 316.378906 362.707031 316.070312 L 362.707031 275.707031 C 364.96875 276.011719 367.242188 276.300781 369.53125 276.578125 L 369.53125 316.949219 " fill-opacity="1" fill-rule="nonzero"/><path fill="#e98b1b" d="M 299.886719 302.441406 C 297.554688 301.703125 295.292969 300.949219 293.0625 300.171875 L 293.0625 260.121094 C 295.292969 260.890625 297.570312 261.617188 299.886719 262.332031 L 299.886719 302.441406 " fill-opacity="1" fill-rule="nonzero"/><path fill="#e98b1b" d="M 287.644531 298.191406 C 285.527344 297.390625 283.460938 296.578125 281.460938 295.742188 L 281.460938 255.847656 C 283.671875 256.71875 285.945312 257.597656 288.28125 258.433594 L 288.28125 297.519531 C 288.28125 297.765625 288.011719 297.988281 287.644531 298.191406 " fill-opacity="1" fill-rule="nonzero"/><path fill="#e98b1b" d="M 274.921875 292.894531 C 273.179688 292.101562 271.488281 291.289062 269.847656 290.460938 L 269.847656 250.761719 C 272.058594 251.820312 274.3125 252.859375 276.679688 253.882812 L 276.679688 291.871094 C 276.679688 292.320312 275.945312 292.679688 274.921875 292.894531 " fill-opacity="1" fill-rule="nonzero"/><path fill="#e98b1b" d="M 263.652344 287.167969 C 261.773438 286.109375 259.945312 285.035156 258.246094 283.941406 L 258.246094 244.519531 C 260.414062 245.828125 262.660156 247.125 265.066406 248.371094 L 265.066406 286.226562 C 265.066406 286.613281 264.472656 286.945312 263.652344 287.167969 " fill-opacity="1" fill-rule="nonzero"/><path fill="#e98b1b" d="M 253.40625 280.664062 C 250.921875 278.878906 248.683594 277.035156 246.632812 275.144531 L 246.632812 236.441406 C 248.71875 238.15625 251.015625 239.828125 253.464844 241.484375 L 253.464844 280.578125 L 253.40625 280.664062 " fill-opacity="1" fill-rule="nonzero"/><path fill="#e98b1b" d="M 241.851562 270.3125 C 238.773438 266.769531 236.507812 263.101562 235.03125 259.347656 L 235.03125 223.65625 C 236.824219 226.53125 239.105469 229.347656 241.851562 232.085938 L 241.851562 270.3125 " fill-opacity="1" fill-rule="nonzero"/><path fill="#f89e19" d="M 653.128906 197.214844 L 653.128906 154.015625 L 241.625 154.015625 L 241.625 197.214844 C 241.625 237.21875 333.746094 269.65625 447.378906 269.65625 C 561.011719 269.65625 653.128906 237.21875 653.128906 197.214844 " fill-opacity="1" fill-rule="nonzero"/><path fill="#f5c116" d="M 447.378906 223.269531 C 333.746094 223.269531 241.625 190.84375 241.625 150.839844 C 241.625 110.824219 333.746094 78.386719 447.378906 78.386719 C 561.011719 78.386719 653.128906 110.824219 653.128906 150.839844 C 653.128906 190.84375 561.011719 223.269531 447.378906 223.269531 " fill-opacity="1" fill-rule="nonzero"/><path fill="#f89e19" d="M 459.777344 179.109375 C 468.015625 178.5625 474.726562 177.230469 479.902344 175.078125 C 485.066406 172.929688 487.667969 170.394531 487.667969 167.492188 C 487.667969 164.882812 485.5 162.652344 481.144531 160.777344 C 476.777344 158.898438 469.695312 157.445312 459.777344 156.433594 L 459.777344 179.109375 M 435.820312 117.261719 C 429.332031 118.046875 424.148438 119.351562 420.3125 121.203125 C 416.460938 123.082031 414.523438 125.128906 414.523438 127.382812 C 414.523438 129.4375 416.285156 131.339844 419.808594 133.101562 C 423.328125 134.859375 428.65625 136.292969 435.820312 137.375 L 435.820312 117.261719 M 435.820312 178.3125 L 435.820312 153.949219 C 414.25 151.765625 398.4375 148.488281 388.355469 144.089844 C 378.296875 139.695312 373.246094 134.355469 373.246094 128.074219 C 373.246094 121.714844 378.949219 116.378906 390.34375 112.0625 C 401.71875 107.742188 416.882812 105.25 435.820312 104.59375 L 435.820312 98.835938 L 459.777344 98.835938 L 459.777344 104.59375 C 477.261719 105.320312 491.164062 107.429688 501.535156 110.894531 C 511.890625 114.367188 518.492188 119 521.335938 124.820312 L 479.582031 126.75 C 477.046875 122.160156 470.433594 119.070312 459.777344 117.445312 L 459.777344 140.164062 C 486.183594 142.683594 504.191406 145.953125 513.746094 149.960938 C 523.324219 153.980469 528.113281 159.113281 528.113281 165.390625 C 528.113281 172.414062 522.085938 178.320312 510.0625 183.125 C 497.984375 187.929688 481.222656 190.875 459.777344 191.960938 L 459.777344 202.832031 L 435.820312 202.832031 L 435.820312 192.25 C 416.769531 191.4375 401.316406 188.9375 389.421875 184.75 C 377.539062 180.558594 369.957031 174.652344 366.652344 167.023438 L 409.734375 165.390625 C 411.496094 168.484375 414.789062 171.160156 419.640625 173.421875 C 424.472656 175.660156 429.875 177.289062 435.820312 178.3125 " fill-opacity="1" fill-rule="nonzero"/><path fill="#e98b1b" d="M 629.886719 226.226562 L 629.828125 226.140625 L 629.828125 187.035156 C 632.277344 185.394531 634.582031 183.707031 636.671875 182 L 636.671875 220.726562 C 634.601562 222.589844 632.371094 224.425781 629.886719 226.226562 " fill-opacity="1" fill-rule="nonzero"/><path fill="#e98b1b" d="M 619.640625 232.726562 C 618.820312 232.507812 618.234375 232.171875 618.234375 231.789062 L 618.234375 193.941406 C 620.625 192.683594 622.886719 191.386719 625.054688 190.074219 L 625.054688 229.5 C 623.339844 230.601562 621.527344 231.675781 619.640625 232.726562 " fill-opacity="1" fill-rule="nonzero"/><path fill="#e98b1b" d="M 641.445312 215.871094 L 641.445312 177.648438 C 644.195312 174.90625 646.460938 172.082031 648.269531 169.214844 L 648.269531 204.90625 C 646.792969 208.652344 644.511719 212.320312 641.445312 215.871094 " fill-opacity="1" fill-rule="nonzero"/><path fill="#e98b1b" d="M 608.371094 238.46875 C 607.347656 238.238281 606.613281 237.875 606.613281 237.4375 L 606.613281 199.4375 C 608.976562 198.417969 611.246094 197.378906 613.449219 196.3125 L 613.449219 236.019531 C 611.796875 236.851562 610.113281 237.660156 608.371094 238.46875 " fill-opacity="1" fill-rule="nonzero"/><path fill="#e98b1b" d="M 595.65625 243.746094 C 595.289062 243.550781 595.019531 243.320312 595.019531 243.078125 L 595.019531 204 C 597.347656 203.15625 599.617188 202.285156 601.832031 201.40625 L 601.832031 241.296875 C 599.824219 242.132812 597.765625 242.949219 595.65625 243.746094 " fill-opacity="1" fill-rule="nonzero"/><path fill="#e98b1b" d="M 583.421875 247.988281 L 583.421875 207.886719 C 585.726562 207.175781 588.007812 206.441406 590.234375 205.671875 L 590.234375 245.726562 C 588.007812 246.503906 585.746094 247.269531 583.421875 247.988281 " fill-opacity="1" fill-rule="nonzero"/><path fill="#e98b1b" d="M 571.792969 251.410156 L 571.792969 211.253906 C 574.101562 210.632812 576.394531 210.011719 578.617188 209.359375 L 578.617188 249.464844 C 576.386719 250.128906 574.109375 250.777344 571.792969 251.410156 " fill-opacity="1" fill-rule="nonzero"/><path fill="#e98b1b" d="M 560.183594 254.386719 L 560.183594 214.140625 C 562.503906 213.609375 564.769531 213.046875 567.019531 212.484375 L 567.019531 252.6875 C 564.769531 253.261719 562.503906 253.832031 560.183594 254.386719 " fill-opacity="1" fill-rule="nonzero"/><path fill="#e98b1b" d="M 548.578125 256.90625 L 548.578125 216.632812 C 550.882812 216.171875 553.164062 215.710938 555.402344 215.207031 L 555.402344 255.460938 C 553.164062 255.972656 550.882812 256.4375 548.578125 256.90625 " fill-opacity="1" fill-rule="nonzero"/><path fill="#e98b1b" d="M 536.976562 259.105469 L 536.976562 218.792969 C 539.289062 218.398438 541.535156 217.988281 543.804688 217.5625 L 543.804688 257.871094 C 541.5625 258.296875 539.28125 258.707031 536.976562 259.105469 " fill-opacity="1" fill-rule="nonzero"/><path fill="#e98b1b" d="M 525.371094 260.96875 L 525.371094 220.609375 C 527.667969 220.277344 529.933594 219.933594 532.195312 219.566406 L 532.195312 259.910156 C 529.933594 260.265625 527.667969 260.632812 525.371094 260.96875 " fill-opacity="1" fill-rule="nonzero"/><path fill="#e98b1b" d="M 369.386719 260.96875 C 367.097656 260.632812 364.824219 260.265625 362.570312 259.910156 L 362.570312 219.566406 C 364.824219 219.933594 367.097656 220.277344 369.386719 220.609375 L 369.386719 260.96875 " fill-opacity="1" fill-rule="nonzero"/><path fill="#e98b1b" d="M 357.78125 259.105469 C 355.492188 258.707031 353.203125 258.296875 350.953125 257.871094 L 350.953125 217.5625 C 353.214844 217.988281 355.484375 218.398438 357.78125 218.792969 L 357.78125 259.105469 " fill-opacity="1" fill-rule="nonzero"/><path fill="#e98b1b" d="M 346.179688 256.90625 C 343.875 256.4375 341.601562 255.972656 339.363281 255.460938 L 339.363281 215.207031 C 341.601562 215.710938 343.875 216.171875 346.179688 216.632812 L 346.179688 256.90625 " fill-opacity="1" fill-rule="nonzero"/><path fill="#e98b1b" d="M 334.582031 254.386719 C 332.246094 253.832031 329.984375 253.261719 327.746094 252.6875 L 327.746094 212.484375 C 329.984375 213.046875 332.246094 213.609375 334.582031 214.140625 L 334.582031 254.386719 " fill-opacity="1" fill-rule="nonzero"/><path fill="#e98b1b" d="M 322.964844 251.410156 C 320.640625 250.777344 318.371094 250.128906 316.148438 249.464844 L 316.148438 209.359375 C 318.363281 210.011719 320.652344 210.632812 322.964844 211.253906 L 322.964844 251.410156 " fill-opacity="1" fill-rule="nonzero"/><path fill="#e98b1b" d="M 427.425781 266.089844 C 425.144531 266.011719 422.875 265.90625 420.605469 265.8125 L 420.605469 225.378906 C 422.875 225.472656 425.144531 225.585938 427.425781 225.660156 L 427.425781 266.089844 " fill-opacity="1" fill-rule="nonzero"/><path fill="#e98b1b" d="M 415.824219 265.582031 C 413.535156 265.449219 411.261719 265.3125 409 265.148438 L 409 224.730469 C 411.261719 224.867188 413.535156 225.039062 415.824219 225.164062 L 415.824219 265.582031 " fill-opacity="1" fill-rule="nonzero"/><path fill="#e98b1b" d="M 439.039062 266.378906 C 436.75 266.328125 434.476562 266.273438 432.222656 266.230469 L 432.222656 225.796875 C 434.476562 225.847656 436.75 225.902344 439.039062 225.925781 L 439.039062 266.378906 " fill-opacity="1" fill-rule="nonzero"/><path fill="#e98b1b" d="M 447.378906 266.453125 C 446.191406 266.453125 445.015625 266.414062 443.8125 266.414062 L 443.8125 225.96875 C 445.015625 225.984375 446.191406 226.011719 447.378906 226.011719 C 448.472656 226.011719 449.558594 225.992188 450.648438 225.984375 L 450.648438 266.414062 C 449.558594 266.414062 448.472656 266.453125 447.378906 266.453125 " fill-opacity="1" fill-rule="nonzero"/><path fill="#e98b1b" d="M 455.429688 266.378906 L 455.429688 225.925781 C 457.71875 225.917969 459.988281 225.859375 462.253906 225.796875 L 462.253906 266.234375 C 459.988281 266.285156 457.71875 266.328125 455.429688 266.378906 " fill-opacity="1" fill-rule="nonzero"/><path fill="#e98b1b" d="M 467.035156 266.105469 L 467.035156 225.671875 C 469.320312 225.585938 471.59375 225.492188 473.855469 225.394531 L 473.855469 265.816406 C 471.59375 265.925781 469.320312 266.035156 467.035156 266.105469 " fill-opacity="1" fill-rule="nonzero"/><path fill="#e98b1b" d="M 478.644531 265.59375 L 478.644531 225.175781 C 480.941406 225.046875 483.210938 224.894531 485.46875 224.75 L 485.46875 265.167969 C 483.210938 265.3125 480.941406 265.480469 478.644531 265.59375 " fill-opacity="1" fill-rule="nonzero"/><path fill="#e98b1b" d="M 490.257812 264.824219 L 490.257812 224.425781 C 492.542969 224.246094 494.816406 224.058594 497.070312 223.871094 L 497.070312 264.277344 C 494.824219 264.484375 492.542969 264.660156 490.257812 264.824219 " fill-opacity="1" fill-rule="nonzero"/><path fill="#e98b1b" d="M 501.851562 263.816406 L 501.851562 223.425781 C 504.140625 223.195312 506.429688 222.988281 508.691406 222.726562 L 508.691406 263.101562 C 506.429688 263.367188 504.140625 263.59375 501.851562 263.816406 " fill-opacity="1" fill-rule="nonzero"/><path fill="#e98b1b" d="M 513.472656 262.546875 L 513.472656 222.171875 C 515.757812 221.890625 518.039062 221.605469 520.285156 221.300781 L 520.285156 261.683594 C 518.039062 261.984375 515.757812 262.265625 513.472656 262.546875 " fill-opacity="1" fill-rule="nonzero"/><path fill="#e98b1b" d="M 404.210938 264.800781 C 401.933594 264.636719 399.644531 264.457031 397.390625 264.253906 L 397.390625 223.84375 C 399.644531 224.046875 401.933594 224.226562 404.210938 224.398438 L 404.210938 264.800781 " fill-opacity="1" fill-rule="nonzero"/><path fill="#e98b1b" d="M 392.597656 263.785156 C 390.3125 263.5625 388.03125 263.332031 385.792969 263.089844 L 385.792969 222.699219 C 388.03125 222.949219 390.3125 223.167969 392.597656 223.390625 L 392.597656 263.785156 " fill-opacity="1" fill-rule="nonzero"/><path fill="#e98b1b" d="M 380.996094 262.511719 C 378.707031 262.230469 376.4375 261.929688 374.167969 261.632812 L 374.167969 221.273438 C 376.421875 221.574219 378.707031 221.855469 380.996094 222.136719 L 380.996094 262.511719 " fill-opacity="1" fill-rule="nonzero"/><path fill="#e98b1b" d="M 311.34375 247.988281 C 309.019531 247.269531 306.742188 246.503906 304.523438 245.726562 L 304.523438 205.671875 C 306.742188 206.441406 309.023438 207.175781 311.34375 207.886719 L 311.34375 247.988281 " fill-opacity="1" fill-rule="nonzero"/><path fill="#e98b1b" d="M 299.101562 243.746094 C 296.984375 242.949219 294.917969 242.132812 292.925781 241.296875 L 292.925781 201.40625 C 295.136719 202.285156 297.410156 203.15625 299.734375 204 L 299.734375 243.078125 C 299.734375 243.320312 299.476562 243.550781 299.101562 243.746094 " fill-opacity="1" fill-rule="nonzero"/><path fill="#e98b1b" d="M 286.378906 238.46875 C 284.636719 237.660156 282.957031 236.851562 281.308594 236.019531 L 281.308594 196.3125 C 283.511719 197.378906 285.78125 198.417969 288.136719 199.4375 L 288.136719 237.4375 C 288.136719 237.875 287.410156 238.238281 286.378906 238.46875 " fill-opacity="1" fill-rule="nonzero"/><path fill="#e98b1b" d="M 275.109375 232.726562 C 273.230469 231.675781 271.421875 230.601562 269.710938 229.5 L 269.710938 190.074219 C 271.875 191.386719 274.125 192.683594 276.527344 193.941406 L 276.527344 231.789062 C 276.527344 232.171875 275.945312 232.507812 275.109375 232.726562 " fill-opacity="1" fill-rule="nonzero"/><path fill="#e98b1b" d="M 264.871094 226.226562 C 262.394531 224.425781 260.152344 222.589844 258.085938 220.726562 L 258.085938 182 C 260.175781 183.707031 262.480469 185.394531 264.929688 187.035156 L 264.929688 226.140625 L 264.871094 226.226562 " fill-opacity="1" fill-rule="nonzero"/><path fill="#e98b1b" d="M 253.320312 215.871094 C 250.246094 212.320312 247.964844 208.660156 246.496094 204.90625 L 246.496094 169.214844 C 248.289062 172.082031 250.570312 174.90625 253.320312 177.648438 L 253.320312 215.871094 " fill-opacity="1" fill-rule="nonzero"/><g clip-path="url(#0cec7d1c9c)"><path fill="#f89e19" d="M 681.429688 128.953125 L 681.429688 85.753906 L 269.925781 85.753906 L 269.925781 128.953125 C 269.925781 168.96875 362.042969 201.40625 475.675781 201.40625 C 589.304688 201.40625 681.429688 168.96875 681.429688 128.953125 " fill-opacity="1" fill-rule="nonzero"/></g><g clip-path="url(#85a3957513)"><path fill="#f5c116" d="M 475.675781 155.023438 C 362.042969 155.023438 269.925781 122.585938 269.925781 82.578125 C 269.925781 42.566406 362.042969 10.140625 475.675781 10.140625 C 589.304688 10.140625 681.429688 42.566406 681.429688 82.578125 C 681.429688 122.585938 589.304688 155.023438 475.675781 155.023438 " fill-opacity="1" fill-rule="nonzero"/></g><path fill="#f89e19" d="M 488.0625 110.859375 C 496.300781 110.320312 503.027344 108.972656 508.210938 106.824219 C 513.371094 104.671875 515.957031 102.136719 515.957031 99.234375 C 515.957031 96.640625 513.796875 94.394531 509.433594 92.527344 C 505.085938 90.640625 497.984375 89.183594 488.0625 88.183594 Z M 464.113281 49.019531 C 457.632812 49.78125 452.449219 51.101562 448.601562 52.960938 C 444.75 54.824219 442.820312 56.871094 442.820312 59.125 C 442.820312 61.191406 444.578125 63.085938 448.097656 64.84375 C 451.628906 66.617188 456.957031 68.035156 464.113281 69.117188 Z M 464.113281 110.054688 L 464.113281 85.691406 C 442.539062 83.507812 426.734375 80.238281 416.640625 75.824219 C 406.585938 71.4375 401.546875 66.097656 401.546875 59.816406 C 401.546875 53.464844 407.25 48.117188 418.632812 43.796875 C 430.019531 39.480469 445.183594 36.988281 464.113281 36.332031 L 464.113281 30.578125 L 488.0625 30.578125 L 488.0625 36.332031 C 505.558594 37.070312 519.464844 39.171875 529.828125 42.644531 C 540.1875 46.101562 546.792969 50.746094 549.636719 56.5625 L 507.878906 58.492188 C 505.34375 53.902344 498.726562 50.8125 488.0625 49.191406 L 488.0625 71.902344 C 514.480469 74.425781 532.484375 77.6875 542.054688 81.699219 C 551.621094 85.71875 556.410156 90.855469 556.410156 97.136719 C 556.410156 104.160156 550.378906 110.058594 538.351562 114.855469 C 526.285156 119.675781 509.519531 122.617188 488.0625 123.710938 L 488.0625 134.574219 L 464.113281 134.574219 L 464.113281 124 C 445.074219 123.183594 429.609375 120.691406 417.710938 116.492188 C 405.839844 112.308594 398.25 106.402344 394.945312 98.773438 L 438.023438 97.136719 C 439.796875 100.242188 443.085938 102.90625 447.941406 105.167969 C 452.773438 107.402344 458.171875 109.03125 464.113281 110.054688 " fill-opacity="1" fill-rule="nonzero"/><path fill="#e98b1b" d="M 658.183594 157.984375 L 658.121094 157.882812 L 658.121094 118.796875 C 660.570312 117.132812 662.875 115.460938 664.953125 113.742188 L 664.953125 152.457031 C 662.894531 154.332031 660.664062 156.167969 658.183594 157.984375 " fill-opacity="1" fill-rule="nonzero"/><path fill="#e98b1b" d="M 647.9375 164.472656 C 647.109375 164.25 646.519531 163.917969 646.519531 163.523438 L 646.519531 125.691406 C 648.925781 124.4375 651.179688 123.132812 653.355469 121.832031 L 653.355469 161.238281 C 651.632812 162.34375 649.816406 163.414062 647.9375 164.472656 " fill-opacity="1" fill-rule="nonzero"/><path fill="#e98b1b" d="M 669.742188 147.609375 L 669.742188 109.398438 C 672.484375 106.652344 674.761719 103.835938 676.554688 100.960938 L 676.554688 136.65625 C 675.085938 140.394531 672.808594 144.066406 669.742188 147.609375 " fill-opacity="1" fill-rule="nonzero"/><path fill="#e98b1b" d="M 636.671875 170.214844 C 635.648438 170 634.914062 169.617188 634.914062 169.171875 L 634.914062 131.1875 C 637.273438 130.15625 639.535156 129.128906 641.746094 128.0625 L 641.746094 167.757812 C 640.089844 168.59375 638.40625 169.402344 636.671875 170.214844 " fill-opacity="1" fill-rule="nonzero"/><path fill="#e98b1b" d="M 623.945312 175.488281 C 623.570312 175.300781 623.3125 175.078125 623.3125 174.824219 L 623.3125 135.746094 C 625.644531 134.898438 627.914062 134.027344 630.132812 133.148438 L 630.132812 173.039062 C 628.117188 173.875 626.0625 174.695312 623.945312 175.488281 " fill-opacity="1" fill-rule="nonzero"/><path fill="#e98b1b" d="M 611.710938 179.753906 L 611.710938 139.628906 C 614.023438 138.921875 616.304688 138.183594 618.53125 137.417969 L 618.53125 177.46875 C 616.304688 178.246094 614.023438 179.011719 611.710938 179.753906 " fill-opacity="1" fill-rule="nonzero"/><path fill="#e98b1b" d="M 600.089844 183.160156 L 600.089844 142.992188 C 602.402344 142.386719 604.683594 141.746094 606.910156 141.097656 L 606.910156 181.207031 C 604.675781 181.878906 602.417969 182.53125 600.089844 183.160156 " fill-opacity="1" fill-rule="nonzero"/><path fill="#e98b1b" d="M 588.476562 186.132812 L 588.476562 145.898438 C 590.792969 145.34375 593.054688 144.789062 595.308594 144.226562 L 595.308594 184.425781 C 593.054688 185.019531 590.792969 185.585938 588.476562 186.132812 " fill-opacity="1" fill-rule="nonzero"/><path fill="#e98b1b" d="M 576.875 188.648438 L 576.875 148.375 C 579.179688 147.921875 581.457031 147.453125 583.695312 146.957031 L 583.695312 187.207031 C 581.457031 187.710938 579.179688 188.195312 576.875 188.648438 " fill-opacity="1" fill-rule="nonzero"/><path fill="#e98b1b" d="M 565.273438 190.851562 L 565.273438 150.535156 C 567.574219 150.140625 569.832031 149.730469 572.09375 149.3125 L 572.09375 189.613281 C 569.855469 190.046875 567.558594 190.457031 565.273438 190.851562 " fill-opacity="1" fill-rule="nonzero"/><path fill="#e98b1b" d="M 553.660156 192.710938 L 553.660156 152.351562 C 555.957031 152.019531 558.226562 151.667969 560.488281 151.320312 L 560.488281 191.652344 C 558.226562 192 555.957031 192.371094 553.660156 192.710938 " fill-opacity="1" fill-rule="nonzero"/><path fill="#e98b1b" d="M 397.6875 192.710938 C 395.390625 192.371094 393.121094 192 390.851562 191.652344 L 390.851562 151.320312 C 393.121094 151.667969 395.390625 152.019531 397.6875 152.351562 L 397.6875 192.710938 " fill-opacity="1" fill-rule="nonzero"/><path fill="#e98b1b" d="M 386.070312 190.851562 C 383.78125 190.457031 381.5 190.046875 379.253906 189.613281 L 379.253906 149.3125 C 381.519531 149.730469 383.773438 150.140625 386.070312 150.535156 L 386.070312 190.851562 " fill-opacity="1" fill-rule="nonzero"/><path fill="#e98b1b" d="M 374.472656 188.648438 C 372.160156 188.195312 369.898438 187.710938 367.644531 187.207031 L 367.644531 146.957031 C 369.898438 147.453125 372.160156 147.921875 374.472656 148.375 L 374.472656 188.648438 " fill-opacity="1" fill-rule="nonzero"/><path fill="#e98b1b" d="M 362.863281 186.132812 C 360.554688 185.585938 358.277344 185.019531 356.039062 184.425781 L 356.039062 144.226562 C 358.277344 144.789062 360.554688 145.34375 362.863281 145.898438 L 362.863281 186.132812 " fill-opacity="1" fill-rule="nonzero"/><path fill="#e98b1b" d="M 351.257812 183.160156 C 348.9375 182.53125 346.664062 181.878906 344.4375 181.207031 L 344.4375 141.097656 C 346.65625 141.746094 348.945312 142.386719 351.257812 142.992188 L 351.257812 183.160156 " fill-opacity="1" fill-rule="nonzero"/><path fill="#e98b1b" d="M 455.722656 197.832031 C 453.425781 197.753906 451.171875 197.644531 448.898438 197.550781 L 448.898438 157.121094 C 451.171875 157.234375 453.425781 157.335938 455.722656 157.40625 L 455.722656 197.832031 " fill-opacity="1" fill-rule="nonzero"/><path fill="#e98b1b" d="M 444.109375 197.328125 C 441.828125 197.199219 439.550781 197.054688 437.296875 196.902344 L 437.296875 156.472656 C 439.550781 156.621094 441.828125 156.78125 444.109375 156.917969 L 444.109375 197.328125 " fill-opacity="1" fill-rule="nonzero"/><path fill="#e98b1b" d="M 467.332031 198.121094 C 465.042969 198.085938 462.773438 198.035156 460.511719 197.96875 L 460.511719 157.542969 C 462.773438 157.59375 465.042969 157.636719 467.332031 157.6875 L 467.332031 198.121094 " fill-opacity="1" fill-rule="nonzero"/><path fill="#e98b1b" d="M 475.675781 198.191406 C 474.480469 198.191406 473.308594 198.164062 472.113281 198.164062 L 472.113281 157.71875 C 473.308594 157.722656 474.480469 157.753906 475.675781 157.753906 C 476.773438 157.753906 477.851562 157.730469 478.933594 157.722656 L 478.933594 198.164062 C 477.851562 198.164062 476.773438 198.191406 475.675781 198.191406 " fill-opacity="1" fill-rule="nonzero"/><path fill="#e98b1b" d="M 483.734375 198.121094 L 483.734375 157.6875 C 486.011719 157.652344 488.269531 157.601562 490.554688 157.550781 L 490.554688 197.976562 C 488.269531 198.035156 486.011719 198.085938 483.734375 198.121094 " fill-opacity="1" fill-rule="nonzero"/><path fill="#e98b1b" d="M 495.328125 197.847656 L 495.328125 157.421875 C 497.625 157.34375 499.886719 157.234375 502.148438 157.125 L 502.148438 197.566406 C 499.886719 197.667969 497.625 197.78125 495.328125 197.847656 " fill-opacity="1" fill-rule="nonzero"/><path fill="#e98b1b" d="M 506.941406 197.335938 L 506.941406 156.925781 C 509.234375 156.796875 511.492188 156.636719 513.761719 156.492188 L 513.761719 196.917969 C 511.492188 197.0625 509.234375 197.226562 506.941406 197.335938 " fill-opacity="1" fill-rule="nonzero"/><path fill="#e98b1b" d="M 518.550781 196.578125 L 518.550781 156.167969 C 520.832031 155.988281 523.101562 155.808594 525.371094 155.613281 L 525.371094 196.023438 C 523.117188 196.226562 520.832031 196.414062 518.550781 196.578125 " fill-opacity="1" fill-rule="nonzero"/><path fill="#e98b1b" d="M 530.152344 195.554688 L 530.152344 155.160156 C 532.433594 154.9375 534.738281 154.726562 536.976562 154.484375 L 536.976562 194.863281 C 534.738281 195.125 532.433594 195.332031 530.152344 195.554688 " fill-opacity="1" fill-rule="nonzero"/><path fill="#e98b1b" d="M 541.765625 194.289062 L 541.765625 153.921875 C 544.054688 153.640625 546.332031 153.359375 548.578125 153.058594 L 548.578125 193.425781 C 546.332031 193.726562 544.054688 194.007812 541.765625 194.289062 " fill-opacity="1" fill-rule="nonzero"/><path fill="#e98b1b" d="M 432.507812 196.550781 C 430.226562 196.378906 427.945312 196.199219 425.683594 195.996094 L 425.683594 155.59375 C 427.945312 155.785156 430.226562 155.972656 432.507812 156.140625 L 432.507812 196.550781 " fill-opacity="1" fill-rule="nonzero"/><path fill="#e98b1b" d="M 420.910156 195.519531 C 418.613281 195.320312 416.328125 195.066406 414.082031 194.828125 L 414.082031 154.441406 C 416.328125 154.699219 418.613281 154.914062 420.910156 155.136719 L 420.910156 195.519531 " fill-opacity="1" fill-rule="nonzero"/><path fill="#e98b1b" d="M 409.289062 194.261719 C 406.996094 193.972656 404.730469 193.683594 402.46875 193.382812 L 402.46875 153.019531 C 404.730469 153.332031 406.996094 153.605469 409.289062 153.878906 L 409.289062 194.261719 " fill-opacity="1" fill-rule="nonzero"/><path fill="#e98b1b" d="M 339.640625 179.753906 C 337.324219 179.011719 335.042969 178.246094 332.824219 177.46875 L 332.824219 137.417969 C 335.042969 138.183594 337.324219 138.921875 339.640625 139.628906 L 339.640625 179.753906 " fill-opacity="1" fill-rule="nonzero"/><path fill="#e98b1b" d="M 327.402344 175.488281 C 325.285156 174.695312 323.230469 173.875 321.222656 173.039062 L 321.222656 133.148438 C 323.433594 134.027344 325.710938 134.898438 328.035156 135.746094 L 328.035156 174.824219 C 328.035156 175.078125 327.769531 175.300781 327.402344 175.488281 " fill-opacity="1" fill-rule="nonzero"/><path fill="#e98b1b" d="M 314.683594 170.214844 C 312.933594 169.402344 311.257812 168.59375 309.609375 167.757812 L 309.609375 128.0625 C 311.804688 129.128906 314.078125 130.15625 316.425781 131.1875 L 316.425781 169.171875 C 316.425781 169.617188 315.699219 170 314.683594 170.214844 " fill-opacity="1" fill-rule="nonzero"/><path fill="#e98b1b" d="M 303.402344 164.472656 C 301.527344 163.414062 299.714844 162.34375 298 161.238281 L 298 121.832031 C 300.167969 123.132812 302.429688 124.4375 304.828125 125.691406 L 304.828125 163.523438 C 304.828125 163.917969 304.242188 164.25 303.402344 164.472656 " fill-opacity="1" fill-rule="nonzero"/><path fill="#e98b1b" d="M 293.160156 157.984375 C 290.679688 156.167969 288.445312 154.332031 286.378906 152.457031 L 286.378906 113.742188 C 288.46875 115.460938 290.777344 117.132812 293.226562 118.796875 L 293.226562 157.882812 L 293.160156 157.984375 " fill-opacity="1" fill-rule="nonzero"/><path fill="#e98b1b" d="M 281.613281 147.609375 C 278.539062 144.066406 276.261719 140.402344 274.777344 136.65625 L 274.777344 100.960938 C 276.59375 103.835938 278.863281 106.652344 281.613281 109.398438 L 281.613281 147.609375 " fill-opacity="1" fill-rule="nonzero"/></svg>