<svg xmlns="http://www.w3.org/2000/svg" xmlns:xlink="http://www.w3.org/1999/xlink" width="1122" zoomAndPan="magnify" viewBox="0 0 841.92 595.499987" height="793" preserveAspectRatio="xMidYMid meet" version="1.0"><defs><clipPath id="95803a41d3"><path d="M 205 248 L 525 248 L 525 565 L 205 565 Z M 205 248 " clip-rule="nonzero"/></clipPath><clipPath id="7ac5b861c2"><path d="M 436.03125 248.269531 L 524.417969 475.132812 L 294.0625 564.878906 L 205.675781 338.015625 Z M 436.03125 248.269531 " clip-rule="nonzero"/></clipPath><clipPath id="b857704494"><path d="M 274 29 L 611 29 L 611 363 L 274 363 Z M 274 29 " clip-rule="nonzero"/></clipPath><clipPath id="06895dfaa2"><path d="M 349.199219 29.59375 L 610.222656 105.863281 L 535.214844 362.574219 L 274.191406 286.304688 Z M 349.199219 29.59375 " clip-rule="nonzero"/></clipPath></defs><g clip-path="url(#95803a41d3)"><g clip-path="url(#7ac5b861c2)"><path fill="#83c5be" d="M 436.027344 248.269531 L 524.414062 475.132812 L 294.0625 564.878906 L 205.679688 338.011719 L 436.027344 248.269531 " fill-opacity="1" fill-rule="nonzero"/></g></g><g clip-path="url(#b857704494)"><g clip-path="url(#06895dfaa2)"><path fill="#a3776c" d="M 349.199219 29.59375 L 610.222656 105.863281 L 535.214844 362.574219 L 274.191406 286.304688 L 349.199219 29.59375 " fill-opacity="1" fill-rule="nonzero"/></g></g></svg>