<svg xmlns="http://www.w3.org/2000/svg" xmlns:xlink="http://www.w3.org/1999/xlink" width="4490" zoomAndPan="magnify" viewBox="0 0 3367.5 1134.000005" height="1511" preserveAspectRatio="xMidYMid meet" version="1.0"><defs><g/><clipPath id="5962a9ae49"><path d="M 45.019531 358 L 194 358 L 194 507.515625 L 45.019531 507.515625 Z M 45.019531 358 " clip-rule="nonzero"/></clipPath><clipPath id="e4f708e0df"><path d="M 79 338.140625 L 224.140625 338.140625 L 224.140625 457 L 79 457 Z M 79 338.140625 " clip-rule="nonzero"/></clipPath><clipPath id="e404a782a5"><path d="M 45.019531 633 L 194 633 L 194 782.667969 L 45.019531 782.667969 Z M 45.019531 633 " clip-rule="nonzero"/></clipPath><clipPath id="d647b3036b"><path d="M 79 614 L 224.140625 614 L 224.140625 733 L 79 733 Z M 79 614 " clip-rule="nonzero"/></clipPath><clipPath id="252685d7d6"><path d="M 1511 425 L 1784 425 L 1784 556 L 1511 556 Z M 1511 425 " clip-rule="nonzero"/></clipPath><clipPath id="ecd8694668"><path d="M 1490.347656 489.015625 L 1766.246094 394.8125 L 1809.109375 520.347656 L 1533.210938 614.550781 Z M 1490.347656 489.015625 " clip-rule="nonzero"/></clipPath><clipPath id="78e0421c7c"><path d="M 1490.347656 489.015625 L 1766.246094 394.8125 L 1809.109375 520.347656 L 1533.210938 614.550781 Z M 1490.347656 489.015625 " clip-rule="nonzero"/></clipPath><clipPath id="a64060eae6"><path d="M 1981 604 L 2354.847656 604 L 2354.847656 979 L 1981 979 Z M 1981 604 " clip-rule="nonzero"/></clipPath><clipPath id="9c893eccda"><path d="M 1541 633 L 1805 633 L 1805 783 L 1541 783 Z M 1541 633 " clip-rule="nonzero"/></clipPath><clipPath id="91e1ebacdb"><path d="M 1566.375 581.785156 L 1825.828125 714.746094 L 1765.328125 832.796875 L 1505.878906 699.839844 Z M 1566.375 581.785156 " clip-rule="nonzero"/></clipPath><clipPath id="640ed81ea3"><path d="M 1566.375 581.785156 L 1825.828125 714.746094 L 1765.328125 832.796875 L 1505.878906 699.839844 Z M 1566.375 581.785156 " clip-rule="nonzero"/></clipPath><clipPath id="ec4453de64"><path d="M 1923.023438 149 L 2321 149 L 2321 423 L 1923.023438 423 Z M 1923.023438 149 " clip-rule="nonzero"/></clipPath><clipPath id="6ef93e7902"><path d="M 2094 135.289062 L 2307 135.289062 L 2307 377 L 2094 377 Z M 2094 135.289062 " clip-rule="nonzero"/></clipPath></defs><g clip-path="url(#5962a9ae49)"><path fill="#83c5be" d="M 174.953125 414.414062 L 174.953125 488.613281 L 63.582031 488.613281 L 63.582031 377.316406 L 159.582031 377.316406 L 178.144531 358.765625 L 45.019531 358.765625 L 45.019531 507.164062 L 193.511719 507.164062 L 193.511719 395.855469 Z M 174.953125 414.414062 " fill-opacity="1" fill-rule="nonzero"/></g><g clip-path="url(#e4f708e0df)"><path fill="#83c5be" d="M 119.265625 430.710938 L 93.011719 404.472656 L 79.890625 417.585938 L 119.265625 456.949219 L 224.261719 352.007812 L 211.136719 338.890625 Z M 119.265625 430.710938 " fill-opacity="1" fill-rule="nonzero"/></g><g clip-path="url(#e404a782a5)"><path fill="#83c5be" d="M 174.953125 689.566406 L 174.953125 763.765625 L 63.582031 763.765625 L 63.582031 652.46875 L 159.582031 652.46875 L 178.144531 633.917969 L 45.019531 633.917969 L 45.019531 782.316406 L 193.511719 782.316406 L 193.511719 671.007812 Z M 174.953125 689.566406 " fill-opacity="1" fill-rule="nonzero"/></g><g clip-path="url(#d647b3036b)"><path fill="#83c5be" d="M 119.265625 705.863281 L 93.011719 679.625 L 79.890625 692.738281 L 119.265625 732.101562 L 224.261719 627.160156 L 211.136719 614.042969 Z M 119.265625 705.863281 " fill-opacity="1" fill-rule="nonzero"/></g><g clip-path="url(#252685d7d6)"><g clip-path="url(#ecd8694668)"><g clip-path="url(#78e0421c7c)"><path fill="#f1473a" d="M 1781.4375 445.53125 C 1779.503906 442.316406 1775.90625 439.59375 1775.265625 436.691406 C 1772.992188 426.167969 1765.8125 425.203125 1757.265625 425.292969 C 1721.226562 425.625 1685.460938 428.636719 1650.140625 436.125 C 1637.507812 438.792969 1635.625 443.070312 1642.363281 454.035156 C 1643.203125 455.386719 1644.242188 456.621094 1645.15625 457.949219 C 1648.171875 462.433594 1652.640625 463.4375 1656.917969 461.035156 C 1661.101562 458.667969 1665.472656 458.355469 1669.835938 457.78125 C 1681.003906 456.28125 1692.191406 455.152344 1703.386719 453.886719 C 1703.890625 454.332031 1704.136719 454.894531 1704.125 455.570312 C 1693.21875 460.371094 1682.460938 465.523438 1671.398438 469.867188 C 1643.011719 480.984375 1617.050781 497.542969 1587.425781 506.152344 C 1573.34375 510.261719 1560.042969 517.359375 1546.871094 524.0625 C 1536.511719 529.347656 1525.191406 532.296875 1515.195312 538.265625 C 1510.105469 541.296875 1509.570312 543.039062 1514.328125 546.390625 C 1523.796875 553.113281 1533.542969 559.6875 1545.875 552.273438 C 1548.046875 550.96875 1550.648438 550.375 1553 549.277344 C 1574.953125 539.226562 1597.324219 530.160156 1619.613281 520.9375 C 1643.699219 510.964844 1667.75 500.894531 1691.792969 490.804688 C 1699.820312 487.445312 1707.746094 483.875 1716.511719 480.078125 C 1715.371094 484.957031 1712.515625 487.253906 1710.457031 490 C 1703.488281 499.292969 1697.9375 509.421875 1692.027344 519.375 C 1682.996094 534.566406 1693.394531 547.160156 1702.628906 553.90625 C 1704.359375 555.171875 1706.175781 555.601562 1707.023438 552.785156 C 1709.589844 544.265625 1715.503906 537.726562 1720.601562 530.765625 C 1735.191406 510.773438 1751.1875 491.886719 1767.183594 473 C 1771.335938 468.085938 1775.523438 463.210938 1779.730469 458.382812 C 1783.167969 454.464844 1784.71875 450.949219 1781.4375 445.53125 Z M 1707.257812 453.050781 C 1707.378906 452.929688 1707.515625 452.855469 1707.617188 452.683594 C 1707.5625 452.839844 1707.464844 452.953125 1707.371094 453.066406 C 1707.34375 453.074219 1707.3125 453.058594 1707.257812 453.050781 Z M 1707.257812 453.050781 " fill-opacity="1" fill-rule="nonzero"/></g></g></g><g clip-path="url(#a64060eae6)"><path fill="#8899a6" d="M 2335.640625 674.070312 L 2305.601562 704.117188 C 2305.601562 704.117188 2285.566406 714.132812 2265.539062 694.09375 C 2245.503906 674.070312 2255.515625 654.03125 2255.515625 654.03125 L 2285.566406 623.980469 C 2295.589844 613.96875 2283.550781 604.789062 2274.511719 604.789062 C 2230.132812 604.789062 2194.167969 640.753906 2194.167969 685.121094 C 2194.167969 691.355469 2194.957031 697.402344 2196.292969 703.230469 L 2128.382812 771.140625 L 2188.472656 831.230469 L 2256.382812 763.332031 C 2262.21875 764.667969 2268.257812 765.457031 2274.5 765.457031 C 2318.867188 765.457031 2354.835938 729.492188 2354.835938 685.121094 C 2354.84375 676.03125 2345.652344 664.054688 2335.640625 674.070312 Z M 2127.199219 773.101562 L 1993.667969 906.625 C 1977.289062 923.011719 1977.289062 949.578125 1993.667969 965.96875 C 2010.066406 982.34375 2036.621094 982.34375 2053.011719 965.96875 L 2186.519531 832.445312 Z M 2023.597656 953.578125 C 2014.625 953.578125 2007.363281 946.304688 2007.363281 937.339844 C 2007.363281 928.378906 2014.636719 921.09375 2023.597656 921.09375 C 2032.570312 921.09375 2039.832031 928.371094 2039.832031 937.339844 C 2039.832031 946.304688 2032.570312 953.578125 2023.597656 953.578125 Z M 2023.597656 953.578125 " fill-opacity="1" fill-rule="nonzero"/></g><path fill="#f4900c" d="M 2298.207031 969.363281 C 2310.980469 982.136719 2331.3125 982.738281 2343.355469 970.6875 C 2355.40625 958.636719 2354.800781 938.316406 2342.027344 925.542969 L 2087.15625 670.671875 C 2074.375 657.886719 2054.0625 657.296875 2042.011719 669.347656 C 2029.960938 681.398438 2030.5625 701.71875 2043.335938 714.492188 Z M 2298.207031 969.363281 " fill-opacity="1" fill-rule="nonzero"/><path fill="#66757f" d="M 2195.382812 614.570312 C 2195.382812 614.570312 2129.652344 581.707031 2074.878906 636.480469 L 1998.191406 713.167969 C 1998.191406 713.167969 1987.238281 702.210938 1976.28125 713.167969 L 1965.328125 724.121094 C 1965.328125 724.121094 1954.371094 735.078125 1965.328125 746.03125 L 2009.148438 789.851562 C 2009.148438 789.851562 2020.101562 800.808594 2031.058594 789.851562 L 2042.011719 778.898438 C 2042.011719 778.898438 2052.96875 767.941406 2042.011719 756.988281 L 2041.15625 756.132812 C 2049.59375 747.992188 2062.222656 739.699219 2074.878906 746.03125 L 2118.699219 702.210938 C 2118.699219 702.210938 2107.742188 669.347656 2129.652344 647.4375 C 2151.5625 625.527344 2162.519531 625.527344 2184.429688 625.527344 C 2206.339844 625.527344 2195.382812 614.570312 2195.382812 614.570312 Z M 2195.382812 614.570312 " fill-opacity="1" fill-rule="nonzero"/><g clip-path="url(#9c893eccda)"><g clip-path="url(#91e1ebacdb)"><g clip-path="url(#640ed81ea3)"><path fill="#f1473a" d="M 1799.910156 760.914062 C 1800.878906 757.289062 1800.335938 752.808594 1801.976562 750.328125 C 1807.96875 741.382812 1803.671875 735.546875 1797.667969 729.464844 C 1772.386719 703.78125 1745.371094 680.148438 1715.445312 659.949219 C 1704.746094 652.722656 1700.363281 654.339844 1697.160156 666.800781 C 1696.769531 668.347656 1696.605469 669.953125 1696.285156 671.53125 C 1695.152344 676.816406 1697.539062 680.730469 1702.238281 682.136719 C 1706.847656 683.496094 1710.109375 686.425781 1713.554688 689.164062 C 1722.394531 696.15625 1730.980469 703.417969 1739.667969 710.585938 C 1739.695312 711.261719 1739.464844 711.828125 1738.96875 712.289062 C 1727.9375 707.78125 1716.757812 703.625 1705.949219 698.6875 C 1678.230469 685.996094 1648.28125 678.832031 1621.507812 663.507812 C 1608.765625 656.238281 1594.417969 651.601562 1580.449219 646.789062 C 1569.445312 643.007812 1559.457031 636.917969 1548.222656 633.878906 C 1542.507812 632.324219 1540.878906 633.148438 1541.773438 638.898438 C 1543.523438 650.378906 1545.566406 661.957031 1559.464844 665.675781 C 1561.914062 666.328125 1564.148438 667.789062 1566.570312 668.714844 C 1589.054688 677.519531 1611.117188 687.308594 1633.238281 696.929688 C 1657.144531 707.320312 1681.097656 717.621094 1705.0625 727.902344 C 1713.054688 731.339844 1721.128906 734.558594 1729.953125 738.222656 C 1725.648438 740.796875 1722.015625 740.335938 1718.609375 740.765625 C 1707.082031 742.210938 1695.941406 745.253906 1684.675781 747.921875 C 1667.476562 751.984375 1665.644531 768.210938 1667.210938 779.539062 C 1667.5 781.664062 1668.457031 783.269531 1671.070312 781.917969 C 1678.980469 777.847656 1687.792969 777.558594 1696.339844 776.386719 C 1720.859375 772.988281 1745.554688 771.367188 1770.253906 769.75 C 1776.671875 769.316406 1783.085938 768.945312 1789.480469 768.613281 C 1794.6875 768.363281 1798.292969 767.039062 1799.910156 760.914062 Z M 1742.957031 712.789062 C 1743.128906 712.789062 1743.277344 712.835938 1743.472656 712.792969 C 1743.324219 712.859375 1743.175781 712.871094 1743.027344 712.878906 C 1743.003906 712.867188 1742.992188 712.835938 1742.957031 712.789062 Z M 1742.957031 712.789062 " fill-opacity="1" fill-rule="nonzero"/></g></g></g><g clip-path="url(#ec4453de64)"><path fill="#fdd28a" d="M 2256.648438 149.886719 C 2251.5625 149.730469 2245.035156 152.96875 2239.953125 152.8125 L 1938.871094 235.28125 C 1937.199219 236.953125 1927.882812 238.121094 1923.898438 239.914062 C 1931.835938 265.246094 1941.917969 288.953125 1950.167969 311.199219 C 1962.652344 344.804688 1978.492188 388.375 1990.246094 418.652344 C 1991.394531 421.59375 1995.710938 423.007812 1999.785156 421.785156 C 2019.355469 415.882812 2053.234375 404.75 2059.328125 403.199219 C 2072.210938 399.90625 2085.144531 396.753906 2098.117188 393.738281 C 2104.976562 392.136719 2111.851562 390.550781 2118.726562 389.035156 C 2122.15625 388.289062 2125.726562 386.964844 2129.277344 386.929688 C 2133.472656 386.875 2136.503906 388.949219 2140.4375 389.59375 C 2147.890625 390.832031 2154.277344 388.757812 2161.453125 386.738281 C 2171.757812 383.84375 2178.164062 376.859375 2187.566406 372.886719 C 2198.535156 368.253906 2213.734375 364.875 2225.589844 361.945312 C 2263.226562 352.679688 2278.199219 346.285156 2315.875 337.15625 C 2319.480469 336.285156 2321.671875 333.464844 2320.765625 330.902344 C 2301.113281 275.035156 2277.851562 211.746094 2256.648438 149.886719 Z M 2256.648438 149.886719 " fill-opacity="1" fill-rule="nonzero"/></g><path stroke-linecap="round" transform="matrix(1.740964, 0, 0, 1.742064, 1735.646772, -91.181028)" fill-opacity="1" fill="#ffffff" fill-rule="nonzero" stroke-linejoin="round" d="M 119.979852 180.840952 C 117.060761 181.890354 114.170839 182.968906 111.31906 184.090062 C 123.529431 218.410882 137.33958 255.779003 150.819901 291.059533 C 153.489938 290.128974 222.029113 269.430196 245.090154 267.999601 Z M 119.979852 180.840952 " stroke="#365fa0" stroke-width="1" stroke-opacity="1" stroke-miterlimit="10"/><path stroke-linecap="round" transform="matrix(1.740964, 0, 0, 1.742064, 1735.646772, -91.181028)" fill-opacity="1" fill="#ffffff" fill-rule="nonzero" stroke-linejoin="round" d="M 208.328906 168.239161 C 207.260892 165.689653 206.08069 163.420434 202.629836 162.249947 C 195.8807 159.960547 189.059766 160.810383 182.140107 161.940508 C 158.939954 165.709834 139.659595 171.030839 113.170136 181.48898 C 125.620586 216.489221 139.540677 254.33047 153.279027 290.31957 C 164.210472 286.469521 164.380996 284.399868 175.408921 280.740415 C 187.691091 276.659408 197.909031 273.230914 210.689309 270.369725 C 216.729426 269.019853 224.990834 267.178915 231.170063 266.849295 C 235.769706 266.600399 240.788927 266.259568 244.540441 268.149836 C 233.828881 241.679349 221.849614 200.360274 208.328906 168.239161 Z M 208.328906 168.239161 " stroke="#365fa0" stroke-width="1" stroke-opacity="1" stroke-miterlimit="10"/><path stroke-linecap="round" transform="matrix(1.740964, 0, 0, 1.742064, 1735.646772, -91.181028)" fill-opacity="1" fill="#ffffff" fill-rule="nonzero" stroke-linejoin="round" d="M 206.899651 164.129004 C 203.960367 157.050027 192.091043 153.208947 181.78111 154.800988 C 159.550248 158.229483 146.310006 164.700794 117.579063 177.910251 C 130.550057 214.341086 143.209173 251.009607 157.450118 288.489844 C 175.669194 278.320961 185.330689 274.029177 193.210664 271.829469 C 200.190903 269.880901 218.1699 265.019569 230.351102 264.990419 C 234.470587 264.979208 240.95945 265.69899 245.099129 267.990632 C 234.039791 240.430381 220.810768 197.608958 206.899651 164.129004 Z M 206.899651 164.129004 " stroke="#365fa0" stroke-width="1" stroke-opacity="1" stroke-miterlimit="10"/><path stroke-linecap="round" transform="matrix(1.740964, 0, 0, 1.742064, 1735.646772, -91.181028)" fill="none" stroke-linejoin="round" d="M 116.511048 180.190682 C 121.720985 196.01019 128.849311 215.43085 134.059249 231.250358 C 135.560303 235.791038 137.819738 242.710812 139.309573 247.24925 C 143.960823 261.369086 149.431033 273.499991 155.029135 287.359719 " stroke="#365fa0" stroke-width="1" stroke-opacity="1" stroke-miterlimit="10"/><path stroke-linecap="round" transform="matrix(1.740964, 0, 0, 1.742064, 1735.646772, -91.181028)" fill-opacity="1" fill="#ffffff" fill-rule="nonzero" stroke-linejoin="round" d="M 287.900495 134.050638 C 291.010302 133.530421 294.12011 133.050567 297.220943 132.611074 C 309.669149 166.869109 322.779254 204.4211 334.798908 240.08058 C 331.980785 240.580616 264.590399 258.330754 244.540441 268.129655 Z M 287.900495 134.050638 " stroke="#365fa0" stroke-width="1" stroke-opacity="1" stroke-miterlimit="10"/><path stroke-linecap="round" transform="matrix(1.740964, 0, 0, 1.742064, 1735.646772, -91.181028)" fill-opacity="1" fill="#ffffff" fill-rule="nonzero" stroke-linejoin="round" d="M 208.369293 168.49927 C 207.189092 165.990123 207.070175 163.429403 209.150111 160.819353 C 213.240428 155.709125 220.510108 152.61025 226.981021 150.249096 C 248.689095 142.320282 265.140112 135.310817 293.96978 131.350894 C 306.660309 166.290593 319.9903 204.279835 332.270226 240.650128 C 320.679124 242.67045 309.04988 244.139164 297.499165 246.359053 C 284.649332 248.83008 288.380652 248.229141 275.910009 251.960347 C 270.020222 253.720561 260.659387 257.880049 255.319313 260.550642 C 251.350157 262.539573 246.409467 264.790853 244.549416 268.140867 C 236.029979 241.109801 223.370862 200.58899 208.369293 168.49927 Z M 208.369293 168.49927 " stroke="#365fa0" stroke-width="1" stroke-opacity="1" stroke-miterlimit="10"/><path fill="#ffffff" d="M 2095.78125 195.230469 C 2091.480469 182.6875 2106.488281 166.226562 2123.183594 159.953125 C 2159.171875 146.4375 2180.429688 140.898438 2237.007812 136.125 C 2259.992188 199.480469 2283.703125 262.945312 2306.039062 328.867188 C 2283.964844 329.125 2261.75 330.242188 2240.039062 334.5625 C 2217.527344 339.039062 2198.96875 348.167969 2179.226562 359.351562 C 2173.203125 362.765625 2164.742188 369.175781 2161.382812 375.9375 C 2145.78125 326.964844 2116.675781 256.1875 2095.78125 195.230469 Z M 2095.78125 195.230469 " fill-opacity="1" fill-rule="nonzero"/><g clip-path="url(#6ef93e7902)"><path stroke-linecap="round" transform="matrix(1.740964, 0, 0, 1.742064, 1735.646772, -91.181028)" fill="none" stroke-linejoin="round" d="M 206.859264 164.409293 C 204.388919 157.209231 213.009324 147.76013 222.59902 144.158978 C 243.270491 136.40058 255.480861 133.220982 287.979025 130.480878 C 301.181124 166.848928 314.800556 203.279764 327.630195 241.121013 C 314.950886 241.269006 302.190801 241.910307 289.720158 244.390303 C 276.789551 246.959992 266.129597 252.200274 254.789793 258.620012 C 251.329963 260.579792 246.470047 264.259426 244.540441 268.140867 C 235.578989 240.029007 218.860968 199.400565 206.859264 164.409293 Z M 206.859264 164.409293 " stroke="#365fa0" stroke-width="1" stroke-opacity="1" stroke-miterlimit="10"/></g><path stroke-linecap="round" transform="matrix(1.740964, 0, 0, 1.742064, 1735.646772, -91.181028)" fill="none" stroke-linejoin="round" d="M 290.350646 131.859899 C 296.428907 147.450691 303.290228 166.949832 309.370733 182.540624 C 311.120841 187.020763 313.790878 193.830663 315.540986 198.310801 C 320.970809 212.21986 324.410445 224.879951 328.879952 239.040148 " stroke="#365fa0" stroke-width="1" stroke-opacity="1" stroke-miterlimit="10"/><path stroke-linecap="round" transform="matrix(1.740964, 0, 0, 1.742064, 1735.646772, -91.181028)" fill="none" stroke-linejoin="round" d="M 212.430442 165.920611 C 221.01046 155.639613 233.180443 148.849894 245.980915 145.250984 C 258.779142 141.649831 272.239269 141.069073 285.499705 141.699162 " stroke="#365fa0" stroke-width="1" stroke-opacity="1" stroke-miterlimit="10"/><path stroke-linecap="round" transform="matrix(1.740964, 0, 0, 1.742064, 1735.646772, -91.181028)" fill="none" stroke-linejoin="round" d="M 215.760135 174.549026 C 224.340153 164.27027 236.510137 157.480551 249.310608 153.879398 C 262.111079 150.280488 275.568963 149.69973 288.829398 150.329819 " stroke="#365fa0" stroke-width="1" stroke-opacity="1" stroke-miterlimit="10"/><path stroke-linecap="round" transform="matrix(1.740964, 0, 0, 1.742064, 1735.646772, -91.181028)" fill="none" stroke-linejoin="round" d="M 219.101047 183.170714 C 227.681065 172.889715 239.851048 166.099996 252.649276 162.501086 C 265.449747 158.899934 278.909874 158.319175 292.17031 158.940295 " stroke="#365fa0" stroke-width="1" stroke-opacity="1" stroke-miterlimit="10"/><path stroke-linecap="round" transform="matrix(1.740964, 0, 0, 1.742064, 1735.646772, -91.181028)" fill="none" stroke-linejoin="round" d="M 222.43074 191.799129 C 231.010758 181.520373 243.180741 174.730653 255.978969 171.129501 C 268.77944 167.530591 282.239567 166.949832 295.500003 167.570953 " stroke="#365fa0" stroke-width="1" stroke-opacity="1" stroke-miterlimit="10"/><path stroke-linecap="round" transform="matrix(1.740964, 0, 0, 1.742064, 1735.646772, -91.181028)" fill="none" stroke-linejoin="round" d="M 225.769408 200.420816 C 234.349426 190.139818 246.519409 183.350099 259.319881 179.748946 C 272.120352 176.150036 285.580479 175.569278 298.840915 176.199367 " stroke="#365fa0" stroke-width="1" stroke-opacity="1" stroke-miterlimit="10"/><path stroke-linecap="round" transform="matrix(1.740964, 0, 0, 1.742064, 1735.646772, -91.181028)" fill="none" stroke-linejoin="round" d="M 229.11032 209.040262 C 237.690338 198.759264 249.860321 191.969544 262.660792 188.370634 C 275.45902 184.769482 288.919147 184.190966 302.179583 184.821055 " stroke="#365fa0" stroke-width="1" stroke-opacity="1" stroke-miterlimit="10"/><path stroke-linecap="round" transform="matrix(1.740964, 0, 0, 1.742064, 1735.646772, -91.181028)" fill="none" stroke-linejoin="round" d="M 232.440013 217.670919 C 241.020031 207.380951 253.198989 200.600201 265.99946 196.999049 C 278.799932 193.400139 292.260059 192.81938 305.520495 193.440501 " stroke="#365fa0" stroke-width="1" stroke-opacity="1" stroke-miterlimit="10"/><path stroke-linecap="round" transform="matrix(1.740964, 0, 0, 1.742064, 1735.646772, -91.181028)" fill="none" stroke-linejoin="round" d="M 235.780925 226.290365 C 244.360943 216.009366 256.530926 209.219647 269.329154 205.620737 C 282.129625 202.019585 295.589752 201.441068 308.850188 202.059946 " stroke="#365fa0" stroke-width="1" stroke-opacity="1" stroke-miterlimit="10"/><path stroke-linecap="round" transform="matrix(1.740964, 0, 0, 1.742064, 1735.646772, -91.181028)" fill="none" stroke-linejoin="round" d="M 239.119593 234.921022 C 247.699611 224.640023 259.869594 217.850304 272.670065 214.249152 C 285.470537 210.650242 298.930664 210.069483 312.188856 210.690603 " stroke="#365fa0" stroke-width="1" stroke-opacity="1" stroke-miterlimit="10"/><path stroke-linecap="round" transform="matrix(1.740964, 0, 0, 1.742064, 1735.646772, -91.181028)" fill="none" stroke-linejoin="round" d="M 242.449286 243.540467 C 251.029304 233.259469 263.199287 226.469749 275.999758 222.870839 C 288.80023 219.269687 302.260357 218.688928 315.520793 219.319018 " stroke="#365fa0" stroke-width="1" stroke-opacity="1" stroke-miterlimit="10"/><path stroke-linecap="round" transform="matrix(1.740964, 0, 0, 1.742064, 1735.646772, -91.181028)" fill="none" stroke-linejoin="round" d="M 245.790198 252.159913 C 254.370216 241.878914 266.540199 235.089195 279.34067 231.490285 C 292.138898 227.889133 305.599025 227.310616 318.859461 227.940706 " stroke="#365fa0" stroke-width="1" stroke-opacity="1" stroke-miterlimit="10"/><path stroke-linecap="round" transform="matrix(1.740964, 0, 0, 1.742064, 1735.646772, -91.181028)" fill="none" stroke-linejoin="round" d="M 203.109994 165.25016 C 190.509214 160.720691 176.259295 163.981012 163.400486 167.348964 C 150.539435 170.719158 138.950577 175.919078 127.830658 183.170714 " stroke="#365fa0" stroke-width="1" stroke-opacity="1" stroke-miterlimit="10"/><path stroke-linecap="round" transform="matrix(1.740964, 0, 0, 1.742064, 1735.646772, -91.181028)" fill="none" stroke-linejoin="round" d="M 206.199608 175.320381 C 193.601072 170.790912 179.348909 174.048991 166.490101 177.419185 C 153.629049 180.789379 142.040191 185.989299 130.920272 193.240935 " stroke="#365fa0" stroke-width="1" stroke-opacity="1" stroke-miterlimit="10"/><path stroke-linecap="round" transform="matrix(1.740964, 0, 0, 1.742064, 1735.646772, -91.181028)" fill="none" stroke-linejoin="round" d="M 209.280247 185.390602 C 196.679468 180.858891 182.429548 184.119212 169.57074 187.489406 C 156.709688 190.8596 145.12083 196.059521 134.000912 203.308914 " stroke="#365fa0" stroke-width="1" stroke-opacity="1" stroke-miterlimit="10"/><path stroke-linecap="round" transform="matrix(1.740964, 0, 0, 1.742064, 1735.646772, -91.181028)" fill="none" stroke-linejoin="round" d="M 214.001052 195.469793 C 201.400273 190.940323 187.150353 194.200644 174.289301 197.570838 C 161.430493 200.941033 149.839391 206.140953 138.719473 213.390346 " stroke="#365fa0" stroke-width="1" stroke-opacity="1" stroke-miterlimit="10"/><path stroke-linecap="round" transform="matrix(1.740964, 0, 0, 1.742064, 1735.646772, -91.181028)" fill="none" stroke-linejoin="round" d="M 217.079448 205.540014 C 204.480912 201.010544 190.230992 204.270865 177.36994 207.64106 C 164.508888 211.009011 152.92003 216.208932 141.800112 223.460567 " stroke="#365fa0" stroke-width="1" stroke-opacity="1" stroke-miterlimit="10"/><path stroke-linecap="round" transform="matrix(1.740964, 0, 0, 1.742064, 1735.646772, -91.181028)" fill="none" stroke-linejoin="round" d="M 220.160087 215.610235 C 207.559307 211.080765 193.309388 214.341086 180.450579 217.709038 C 167.589528 221.079233 156.00067 226.279153 144.880751 233.530788 " stroke="#365fa0" stroke-width="1" stroke-opacity="1" stroke-miterlimit="10"/><path stroke-linecap="round" transform="matrix(1.740964, 0, 0, 1.742064, 1735.646772, -91.181028)" fill="none" stroke-linejoin="round" d="M 224.880892 225.680456 C 212.280112 221.150986 198.030192 224.409065 185.169141 227.779259 C 172.310332 231.149454 160.719231 236.349374 149.599312 243.60101 " stroke="#365fa0" stroke-width="1" stroke-opacity="1" stroke-miterlimit="10"/><path stroke-linecap="round" transform="matrix(1.740964, 0, 0, 1.742064, 1735.646772, -91.181028)" fill="none" stroke-linejoin="round" d="M 228.289115 237.14091 C 215.69058 232.609198 201.44066 235.869519 188.579608 239.239714 C 175.7208 242.609908 164.129698 247.809828 153.00978 255.059221 " stroke="#365fa0" stroke-width="1" stroke-opacity="1" stroke-miterlimit="10"/><path stroke-linecap="round" transform="matrix(1.740964, 0, 0, 1.742064, 1735.646772, -91.181028)" fill="none" stroke-linejoin="round" d="M 233.339748 248.599122 C 220.738969 244.069653 206.489049 247.329974 193.630241 250.700168 C 180.769189 254.070362 169.180331 259.270282 158.060413 266.519676 " stroke="#365fa0" stroke-width="1" stroke-opacity="1" stroke-miterlimit="10"/><g fill="#000000" fill-opacity="1"><g transform="translate(337.822962, 466.586155)"><g><path d="M 23.730469 0 L 37.042969 0 L 60.003906 -59.75 L 45.496094 -59.75 L 30.472656 -19.546875 L 23.300781 -38.496094 L 15.363281 -59.75 L 0.769531 -59.75 Z M 23.730469 0 "/></g></g></g><g fill="#000000" fill-opacity="1"><g transform="translate(398.587599, 466.586155)"><g><path d="M 6.488281 0 L 19.460938 0 L 19.460938 -44.8125 L 6.488281 -44.8125 Z M 4.609375 -59.320312 C 4.609375 -54.542969 8.023438 -51.214844 12.972656 -51.214844 C 17.925781 -51.214844 21.339844 -54.542969 21.339844 -59.320312 C 21.339844 -64.101562 17.925781 -67.429688 12.972656 -67.429688 C 8.023438 -67.429688 4.609375 -64.101562 4.609375 -59.320312 Z M 4.609375 -59.320312 "/></g></g></g><g fill="#000000" fill-opacity="1"><g transform="translate(424.532058, 466.586155)"><g><path d="M 23.730469 1.195312 C 35.847656 1.195312 43.191406 -4.097656 43.191406 -12.632812 C 43.191406 -19.972656 37.726562 -24.667969 26.628906 -26.886719 C 18.949219 -28.421875 16.558594 -29.703125 16.558594 -32.433594 C 16.558594 -35.082031 18.949219 -36.617188 22.789062 -36.617188 C 27.144531 -36.617188 29.789062 -34.652344 30.046875 -31.238281 L 42.421875 -31.238281 C 41.824219 -40.714844 34.824219 -46.007812 22.875 -46.007812 C 10.839844 -46.007812 4.011719 -41.140625 4.011719 -32.433594 C 4.011719 -25.007812 9.132812 -20.570312 20.570312 -18.523438 C 27.484375 -17.328125 30.386719 -15.535156 30.386719 -12.71875 C 30.386719 -10.070312 27.996094 -8.449219 23.898438 -8.449219 C 19.121094 -8.449219 16.21875 -10.753906 16.132812 -14.425781 L 3.414062 -14.425781 C 3.414062 -5.035156 11.4375 1.195312 23.730469 1.195312 Z M 23.730469 1.195312 "/></g></g></g><g fill="#000000" fill-opacity="1"><g transform="translate(471.215007, 466.586155)"><g><path d="M 24.324219 1.195312 C 30.214844 1.195312 35.507812 -0.855469 39.09375 -5.035156 L 40.457031 0 L 50.101562 0 L 50.101562 -44.8125 L 37.128906 -44.8125 L 37.128906 -21.425781 C 37.128906 -14.339844 33.289062 -9.988281 27.398438 -9.988281 C 21.9375 -9.988281 18.605469 -13.828125 18.605469 -20.398438 L 18.605469 -44.8125 L 5.632812 -44.8125 L 5.632812 -19.121094 C 5.632812 -6.65625 12.71875 1.195312 24.324219 1.195312 Z M 24.324219 1.195312 "/></g></g></g><g fill="#000000" fill-opacity="1"><g transform="translate(527.797812, 466.586155)"><g><path d="M 21.425781 0.855469 C 28.082031 0.855469 33.542969 -1.28125 37.386719 -5.207031 L 38.835938 0 L 48.480469 0 L 48.480469 -26.972656 C 48.480469 -38.835938 40.457031 -46.007812 27.058594 -46.007812 C 15.621094 -46.007812 8.109375 -40.542969 6.488281 -30.8125 L 18.949219 -30.8125 C 19.71875 -33.972656 22.960938 -36.105469 27.144531 -36.105469 C 32.265625 -36.105469 35.765625 -33.203125 35.765625 -28.765625 L 35.765625 -26.714844 L 19.546875 -26.714844 C 10.242188 -26.714844 4.269531 -21.339844 4.269531 -13.058594 C 4.269531 -4.4375 10.839844 0.855469 21.425781 0.855469 Z M 17.070312 -13.570312 C 17.070312 -16.644531 19.632812 -18.605469 23.558594 -18.605469 L 35.847656 -18.605469 C 35.59375 -12.546875 30.898438 -8.449219 24.410156 -8.449219 C 19.972656 -8.449219 17.070312 -10.5 17.070312 -13.570312 Z M 17.070312 -13.570312 "/></g></g></g><g fill="#000000" fill-opacity="1"><g transform="translate(581.905645, 466.586155)"><g><path d="M 6.488281 0 L 19.460938 0 L 19.460938 -63.164062 L 6.488281 -63.164062 Z M 6.488281 0 "/></g></g></g><g fill="#000000" fill-opacity="1"><g transform="translate(607.850104, 466.586155)"><g/></g></g><g fill="#000000" fill-opacity="1"><g transform="translate(627.90586, 466.586155)"><g><path d="M 7.167969 0 L 20.742188 0 L 20.742188 -20.570312 L 42.421875 -20.570312 L 42.421875 -32.519531 L 20.742188 -32.519531 L 20.742188 -47.457031 L 44.640625 -47.457031 L 44.640625 -59.75 L 7.167969 -59.75 Z M 7.167969 0 "/></g></g></g><g fill="#000000" fill-opacity="1"><g transform="translate(676.295681, 466.586155)"><g><path d="M 28.507812 1.195312 C 43.359375 1.195312 53.601562 -8.449219 53.601562 -22.449219 C 53.601562 -36.359375 43.359375 -46.007812 28.507812 -46.007812 C 13.570312 -46.007812 3.328125 -36.359375 3.328125 -22.449219 C 3.328125 -8.449219 13.570312 1.195312 28.507812 1.195312 Z M 16.132812 -22.449219 C 16.132812 -29.789062 21.253906 -34.910156 28.507812 -34.910156 C 35.765625 -34.910156 40.800781 -29.789062 40.800781 -22.449219 C 40.800781 -15.109375 35.765625 -9.988281 28.507812 -9.988281 C 21.253906 -9.988281 16.132812 -15.109375 16.132812 -22.449219 Z M 16.132812 -22.449219 "/></g></g></g><g fill="#000000" fill-opacity="1"><g transform="translate(733.219876, 466.586155)"><g><path d="M 6.488281 0 L 19.460938 0 L 19.460938 -19.800781 C 19.460938 -29.449219 23.984375 -33.03125 31.410156 -33.03125 L 36.359375 -33.03125 L 36.359375 -44.8125 L 31.496094 -44.8125 C 24.921875 -44.8125 20.742188 -43.019531 17.839844 -38.835938 L 16.132812 -44.8125 L 6.488281 -44.8125 Z M 6.488281 0 "/></g></g></g><g fill="#000000" fill-opacity="1"><g transform="translate(772.47792, 466.586155)"><g><path d="M 6.488281 0 L 19.460938 0 L 19.460938 -24.242188 C 19.460938 -30.726562 23.046875 -34.910156 28.59375 -34.910156 C 33.972656 -34.910156 37.300781 -30.898438 37.300781 -24.582031 L 37.300781 0 L 50.101562 0 L 50.101562 -24.242188 C 50.101562 -30.726562 53.6875 -34.910156 59.234375 -34.910156 C 64.613281 -34.910156 67.941406 -30.898438 67.941406 -24.582031 L 67.941406 0 L 80.917969 0 L 80.917969 -26.117188 C 80.917969 -38.410156 73.574219 -46.007812 62.136719 -46.007812 C 55.308594 -46.007812 49.675781 -43.359375 46.007812 -38.664062 C 42.847656 -43.445312 37.640625 -46.007812 31.238281 -46.007812 C 25.519531 -46.007812 20.65625 -44.042969 17.414062 -40.203125 L 16.132812 -44.8125 L 6.488281 -44.8125 Z M 6.488281 0 "/></g></g></g><g fill="#000000" fill-opacity="1"><g transform="translate(859.016337, 466.586155)"><g/></g></g><g fill="#000000" fill-opacity="1"><g transform="translate(879.072094, 466.586155)"><g><path d="M 34.570312 1.195312 C 50.273438 1.195312 62.480469 -8.363281 65.46875 -22.875 L 51.46875 -22.875 C 48.992188 -16.046875 42.675781 -11.695312 34.824219 -11.695312 C 24.667969 -11.695312 17.496094 -19.121094 17.496094 -29.875 C 17.496094 -40.628906 24.753906 -48.054688 34.910156 -48.054688 C 42.507812 -48.054688 48.738281 -43.957031 51.042969 -37.386719 L 65.039062 -37.386719 C 61.625 -51.726562 49.675781 -60.945312 34.484375 -60.945312 C 16.386719 -60.945312 3.671875 -48.140625 3.671875 -29.875 C 3.671875 -11.609375 16.386719 1.195312 34.570312 1.195312 Z M 34.570312 1.195312 "/></g></g></g><g fill="#000000" fill-opacity="1"><g transform="translate(947.94436, 466.586155)"><g><path d="M 28.507812 1.195312 C 43.359375 1.195312 53.601562 -8.449219 53.601562 -22.449219 C 53.601562 -36.359375 43.359375 -46.007812 28.507812 -46.007812 C 13.570312 -46.007812 3.328125 -36.359375 3.328125 -22.449219 C 3.328125 -8.449219 13.570312 1.195312 28.507812 1.195312 Z M 16.132812 -22.449219 C 16.132812 -29.789062 21.253906 -34.910156 28.507812 -34.910156 C 35.765625 -34.910156 40.800781 -29.789062 40.800781 -22.449219 C 40.800781 -15.109375 35.765625 -9.988281 28.507812 -9.988281 C 21.253906 -9.988281 16.132812 -15.109375 16.132812 -22.449219 Z M 16.132812 -22.449219 "/></g></g></g><g fill="#000000" fill-opacity="1"><g transform="translate(1004.868555, 466.586155)"><g><path d="M 6.488281 0 L 19.460938 0 L 19.460938 -23.472656 C 19.460938 -30.558594 23.386719 -34.910156 29.363281 -34.910156 C 34.910156 -34.910156 38.238281 -30.984375 38.238281 -24.410156 L 38.238281 0 L 51.214844 0 L 51.214844 -25.777344 C 51.214844 -38.152344 44.128906 -46.007812 32.433594 -46.007812 C 26.460938 -46.007812 21.082031 -43.957031 17.496094 -39.773438 L 16.132812 -44.8125 L 6.488281 -44.8125 Z M 6.488281 0 "/></g></g></g><g fill="#000000" fill-opacity="1"><g transform="translate(1061.707394, 466.586155)"><g><path d="M 23.730469 1.195312 C 35.847656 1.195312 43.191406 -4.097656 43.191406 -12.632812 C 43.191406 -19.972656 37.726562 -24.667969 26.628906 -26.886719 C 18.949219 -28.421875 16.558594 -29.703125 16.558594 -32.433594 C 16.558594 -35.082031 18.949219 -36.617188 22.789062 -36.617188 C 27.144531 -36.617188 29.789062 -34.652344 30.046875 -31.238281 L 42.421875 -31.238281 C 41.824219 -40.714844 34.824219 -46.007812 22.875 -46.007812 C 10.839844 -46.007812 4.011719 -41.140625 4.011719 -32.433594 C 4.011719 -25.007812 9.132812 -20.570312 20.570312 -18.523438 C 27.484375 -17.328125 30.386719 -15.535156 30.386719 -12.71875 C 30.386719 -10.070312 27.996094 -8.449219 23.898438 -8.449219 C 19.121094 -8.449219 16.21875 -10.753906 16.132812 -14.425781 L 3.414062 -14.425781 C 3.414062 -5.035156 11.4375 1.195312 23.730469 1.195312 Z M 23.730469 1.195312 "/></g></g></g><g fill="#000000" fill-opacity="1"><g transform="translate(1108.390321, 466.586155)"><g><path d="M 6.488281 0 L 19.460938 0 L 19.460938 -44.8125 L 6.488281 -44.8125 Z M 4.609375 -59.320312 C 4.609375 -54.542969 8.023438 -51.214844 12.972656 -51.214844 C 17.925781 -51.214844 21.339844 -54.542969 21.339844 -59.320312 C 21.339844 -64.101562 17.925781 -67.429688 12.972656 -67.429688 C 8.023438 -67.429688 4.609375 -64.101562 4.609375 -59.320312 Z M 4.609375 -59.320312 "/></g></g></g><g fill="#000000" fill-opacity="1"><g transform="translate(1134.334826, 466.586155)"><g><path d="M 23.730469 1.195312 C 35.847656 1.195312 43.191406 -4.097656 43.191406 -12.632812 C 43.191406 -19.972656 37.726562 -24.667969 26.628906 -26.886719 C 18.949219 -28.421875 16.558594 -29.703125 16.558594 -32.433594 C 16.558594 -35.082031 18.949219 -36.617188 22.789062 -36.617188 C 27.144531 -36.617188 29.789062 -34.652344 30.046875 -31.238281 L 42.421875 -31.238281 C 41.824219 -40.714844 34.824219 -46.007812 22.875 -46.007812 C 10.839844 -46.007812 4.011719 -41.140625 4.011719 -32.433594 C 4.011719 -25.007812 9.132812 -20.570312 20.570312 -18.523438 C 27.484375 -17.328125 30.386719 -15.535156 30.386719 -12.71875 C 30.386719 -10.070312 27.996094 -8.449219 23.898438 -8.449219 C 19.121094 -8.449219 16.21875 -10.753906 16.132812 -14.425781 L 3.414062 -14.425781 C 3.414062 -5.035156 11.4375 1.195312 23.730469 1.195312 Z M 23.730469 1.195312 "/></g></g></g><g fill="#000000" fill-opacity="1"><g transform="translate(1181.017753, 466.586155)"><g><path d="M 28.082031 0 L 36.277344 0 L 36.277344 -11.265625 L 30.898438 -11.265625 C 25.777344 -11.265625 23.386719 -13.742188 23.386719 -18.949219 L 23.386719 -34.226562 L 35.679688 -34.226562 L 35.679688 -44.8125 L 23.386719 -44.8125 L 23.386719 -56.417969 L 13.316406 -56.417969 L 12.546875 -50.617188 C 11.863281 -46.007812 10.585938 -44.8125 5.71875 -44.8125 L 1.707031 -44.8125 L 1.707031 -34.226562 L 10.414062 -34.226562 L 10.414062 -16.984375 C 10.414062 -6.058594 16.730469 0 28.082031 0 Z M 28.082031 0 "/></g></g></g><g fill="#000000" fill-opacity="1"><g transform="translate(1220.873197, 466.586155)"><g><path d="M 27.65625 1.195312 C 38.664062 1.195312 47.371094 -4.4375 51.296875 -13.914062 L 38.152344 -13.914062 C 36.019531 -10.925781 32.179688 -9.21875 27.910156 -9.21875 C 22.023438 -9.21875 17.414062 -12.546875 16.21875 -18.691406 L 52.152344 -18.691406 C 52.921875 -35.082031 43.191406 -46.007812 27.824219 -46.007812 C 13.316406 -46.007812 3.328125 -36.359375 3.328125 -22.449219 C 3.328125 -8.449219 13.230469 1.195312 27.65625 1.195312 Z M 16.304688 -26.886719 C 17.753906 -32.347656 22.191406 -35.679688 27.910156 -35.679688 C 33.886719 -35.679688 38.152344 -32.347656 39.605469 -26.886719 Z M 16.304688 -26.886719 "/></g></g></g><g fill="#000000" fill-opacity="1"><g transform="translate(1276.261166, 466.586155)"><g><path d="M 6.488281 0 L 19.460938 0 L 19.460938 -23.472656 C 19.460938 -30.558594 23.386719 -34.910156 29.363281 -34.910156 C 34.910156 -34.910156 38.238281 -30.984375 38.238281 -24.410156 L 38.238281 0 L 51.214844 0 L 51.214844 -25.777344 C 51.214844 -38.152344 44.128906 -46.007812 32.433594 -46.007812 C 26.460938 -46.007812 21.082031 -43.957031 17.496094 -39.773438 L 16.132812 -44.8125 L 6.488281 -44.8125 Z M 6.488281 0 "/></g></g></g><g fill="#000000" fill-opacity="1"><g transform="translate(1333.100005, 466.586155)"><g><path d="M 27.824219 1.195312 C 40.457031 1.195312 49.933594 -6.230469 52.324219 -18.011719 L 39.691406 -18.011719 C 37.898438 -13.144531 33.460938 -9.988281 27.996094 -9.988281 C 20.996094 -9.988281 16.132812 -15.109375 16.132812 -22.449219 C 16.132812 -29.789062 20.996094 -34.910156 27.996094 -34.910156 C 33.117188 -34.910156 37.300781 -32.179688 39.433594 -27.65625 L 51.894531 -27.65625 C 49.847656 -38.75 40.289062 -46.007812 27.824219 -46.007812 C 13.484375 -46.007812 3.328125 -36.191406 3.328125 -22.449219 C 3.328125 -8.621094 13.402344 1.195312 27.824219 1.195312 Z M 27.824219 1.195312 "/></g></g></g><g fill="#000000" fill-opacity="1"><g transform="translate(1388.57333, 466.586155)"><g><path d="M 6.65625 17.070312 L 12.71875 17.070312 C 23.132812 17.070312 27.484375 14.511719 31.15625 5.292969 L 51.128906 -44.8125 L 37.214844 -44.8125 L 31.238281 -28.507812 L 27.144531 -17.070312 L 15.109375 -44.8125 L 0.769531 -44.8125 L 20.910156 -1.449219 L 20.398438 0.0859375 C 18.863281 4.523438 17.070312 5.890625 11.777344 5.890625 L 6.65625 5.890625 Z M 6.65625 17.070312 "/></g></g></g><g fill="#000000" fill-opacity="1"><g transform="translate(319.94727, 726.828259)"><g><path d="M 7.167969 0 L 20.742188 0 L 20.742188 -59.75 L 7.167969 -59.75 Z M 7.167969 0 "/></g></g></g><g fill="#000000" fill-opacity="1"><g transform="translate(347.854621, 726.828259)"><g><path d="M 6.488281 0 L 19.460938 0 L 19.460938 -23.472656 C 19.460938 -30.558594 23.386719 -34.910156 29.363281 -34.910156 C 34.910156 -34.910156 38.238281 -30.984375 38.238281 -24.410156 L 38.238281 0 L 51.214844 0 L 51.214844 -25.777344 C 51.214844 -38.152344 44.128906 -46.007812 32.433594 -46.007812 C 26.460938 -46.007812 21.082031 -43.957031 17.496094 -39.773438 L 16.132812 -44.8125 L 6.488281 -44.8125 Z M 6.488281 0 "/></g></g></g><g fill="#000000" fill-opacity="1"><g transform="translate(404.69346, 726.828259)"><g><path d="M 10.925781 -48.394531 L 10.925781 -44.8125 L 1.964844 -44.8125 L 1.964844 -34.226562 L 10.925781 -34.226562 L 10.925781 0 L 23.898438 0 L 23.898438 -34.226562 L 37.042969 -34.226562 L 37.042969 -44.8125 L 23.644531 -44.8125 L 23.644531 -47.714844 C 23.644531 -52.40625 25.691406 -54.542969 30.386719 -54.542969 L 37.472656 -54.542969 L 37.472656 -64.785156 L 27.570312 -64.785156 C 16.816406 -64.785156 10.925781 -58.980469 10.925781 -48.394531 Z M 10.925781 -48.394531 "/></g></g></g><g fill="#000000" fill-opacity="1"><g transform="translate(443.012736, 726.828259)"><g><path d="M 28.507812 1.195312 C 43.359375 1.195312 53.601562 -8.449219 53.601562 -22.449219 C 53.601562 -36.359375 43.359375 -46.007812 28.507812 -46.007812 C 13.570312 -46.007812 3.328125 -36.359375 3.328125 -22.449219 C 3.328125 -8.449219 13.570312 1.195312 28.507812 1.195312 Z M 16.132812 -22.449219 C 16.132812 -29.789062 21.253906 -34.910156 28.507812 -34.910156 C 35.765625 -34.910156 40.800781 -29.789062 40.800781 -22.449219 C 40.800781 -15.109375 35.765625 -9.988281 28.507812 -9.988281 C 21.253906 -9.988281 16.132812 -15.109375 16.132812 -22.449219 Z M 16.132812 -22.449219 "/></g></g></g><g fill="#000000" fill-opacity="1"><g transform="translate(499.936908, 726.828259)"><g><path d="M 6.488281 0 L 19.460938 0 L 19.460938 -19.800781 C 19.460938 -29.449219 23.984375 -33.03125 31.410156 -33.03125 L 36.359375 -33.03125 L 36.359375 -44.8125 L 31.496094 -44.8125 C 24.921875 -44.8125 20.742188 -43.019531 17.839844 -38.835938 L 16.132812 -44.8125 L 6.488281 -44.8125 Z M 6.488281 0 "/></g></g></g><g fill="#000000" fill-opacity="1"><g transform="translate(539.194963, 726.828259)"><g><path d="M 6.488281 0 L 19.460938 0 L 19.460938 -24.242188 C 19.460938 -30.726562 23.046875 -34.910156 28.59375 -34.910156 C 33.972656 -34.910156 37.300781 -30.898438 37.300781 -24.582031 L 37.300781 0 L 50.101562 0 L 50.101562 -24.242188 C 50.101562 -30.726562 53.6875 -34.910156 59.234375 -34.910156 C 64.613281 -34.910156 67.941406 -30.898438 67.941406 -24.582031 L 67.941406 0 L 80.917969 0 L 80.917969 -26.117188 C 80.917969 -38.410156 73.574219 -46.007812 62.136719 -46.007812 C 55.308594 -46.007812 49.675781 -43.359375 46.007812 -38.664062 C 42.847656 -43.445312 37.640625 -46.007812 31.238281 -46.007812 C 25.519531 -46.007812 20.65625 -44.042969 17.414062 -40.203125 L 16.132812 -44.8125 L 6.488281 -44.8125 Z M 6.488281 0 "/></g></g></g><g fill="#000000" fill-opacity="1"><g transform="translate(625.733358, 726.828259)"><g><path d="M 21.425781 0.855469 C 28.082031 0.855469 33.542969 -1.28125 37.386719 -5.207031 L 38.835938 0 L 48.480469 0 L 48.480469 -26.972656 C 48.480469 -38.835938 40.457031 -46.007812 27.058594 -46.007812 C 15.621094 -46.007812 8.109375 -40.542969 6.488281 -30.8125 L 18.949219 -30.8125 C 19.71875 -33.972656 22.960938 -36.105469 27.144531 -36.105469 C 32.265625 -36.105469 35.765625 -33.203125 35.765625 -28.765625 L 35.765625 -26.714844 L 19.546875 -26.714844 C 10.242188 -26.714844 4.269531 -21.339844 4.269531 -13.058594 C 4.269531 -4.4375 10.839844 0.855469 21.425781 0.855469 Z M 17.070312 -13.570312 C 17.070312 -16.644531 19.632812 -18.605469 23.558594 -18.605469 L 35.847656 -18.605469 C 35.59375 -12.546875 30.898438 -8.449219 24.410156 -8.449219 C 19.972656 -8.449219 17.070312 -10.5 17.070312 -13.570312 Z M 17.070312 -13.570312 "/></g></g></g><g fill="#000000" fill-opacity="1"><g transform="translate(679.841214, 726.828259)"><g><path d="M 28.082031 0 L 36.277344 0 L 36.277344 -11.265625 L 30.898438 -11.265625 C 25.777344 -11.265625 23.386719 -13.742188 23.386719 -18.949219 L 23.386719 -34.226562 L 35.679688 -34.226562 L 35.679688 -44.8125 L 23.386719 -44.8125 L 23.386719 -56.417969 L 13.316406 -56.417969 L 12.546875 -50.617188 C 11.863281 -46.007812 10.585938 -44.8125 5.71875 -44.8125 L 1.707031 -44.8125 L 1.707031 -34.226562 L 10.414062 -34.226562 L 10.414062 -16.984375 C 10.414062 -6.058594 16.730469 0 28.082031 0 Z M 28.082031 0 "/></g></g></g><g fill="#000000" fill-opacity="1"><g transform="translate(719.696658, 726.828259)"><g><path d="M 6.488281 0 L 19.460938 0 L 19.460938 -44.8125 L 6.488281 -44.8125 Z M 4.609375 -59.320312 C 4.609375 -54.542969 8.023438 -51.214844 12.972656 -51.214844 C 17.925781 -51.214844 21.339844 -54.542969 21.339844 -59.320312 C 21.339844 -64.101562 17.925781 -67.429688 12.972656 -67.429688 C 8.023438 -67.429688 4.609375 -64.101562 4.609375 -59.320312 Z M 4.609375 -59.320312 "/></g></g></g><g fill="#000000" fill-opacity="1"><g transform="translate(745.641117, 726.828259)"><g><path d="M 28.507812 1.195312 C 43.359375 1.195312 53.601562 -8.449219 53.601562 -22.449219 C 53.601562 -36.359375 43.359375 -46.007812 28.507812 -46.007812 C 13.570312 -46.007812 3.328125 -36.359375 3.328125 -22.449219 C 3.328125 -8.449219 13.570312 1.195312 28.507812 1.195312 Z M 16.132812 -22.449219 C 16.132812 -29.789062 21.253906 -34.910156 28.507812 -34.910156 C 35.765625 -34.910156 40.800781 -29.789062 40.800781 -22.449219 C 40.800781 -15.109375 35.765625 -9.988281 28.507812 -9.988281 C 21.253906 -9.988281 16.132812 -15.109375 16.132812 -22.449219 Z M 16.132812 -22.449219 "/></g></g></g><g fill="#000000" fill-opacity="1"><g transform="translate(802.565312, 726.828259)"><g><path d="M 6.488281 0 L 19.460938 0 L 19.460938 -23.472656 C 19.460938 -30.558594 23.386719 -34.910156 29.363281 -34.910156 C 34.910156 -34.910156 38.238281 -30.984375 38.238281 -24.410156 L 38.238281 0 L 51.214844 0 L 51.214844 -25.777344 C 51.214844 -38.152344 44.128906 -46.007812 32.433594 -46.007812 C 26.460938 -46.007812 21.082031 -43.957031 17.496094 -39.773438 L 16.132812 -44.8125 L 6.488281 -44.8125 Z M 6.488281 0 "/></g></g></g><g fill="#000000" fill-opacity="1"><g transform="translate(859.404151, 726.828259)"><g/></g></g><g fill="#000000" fill-opacity="1"><g transform="translate(879.459908, 726.828259)"><g><path d="M 7.167969 0 L 20.742188 0 L 20.742188 -16.644531 L 30.558594 -16.644531 C 44.980469 -16.644531 54.285156 -25.09375 54.285156 -38.152344 C 54.285156 -51.296875 44.980469 -59.75 30.558594 -59.75 L 7.167969 -59.75 Z M 20.65625 -28.335938 L 20.65625 -47.882812 L 29.449219 -47.882812 C 36.53125 -47.882812 40.457031 -44.300781 40.457031 -38.066406 C 40.457031 -31.835938 36.53125 -28.335938 29.449219 -28.335938 Z M 20.65625 -28.335938 "/></g></g></g><g fill="#000000" fill-opacity="1"><g transform="translate(936.213391, 726.828259)"><g><path d="M 6.488281 0 L 19.460938 0 L 19.460938 -19.800781 C 19.460938 -29.449219 23.984375 -33.03125 31.410156 -33.03125 L 36.359375 -33.03125 L 36.359375 -44.8125 L 31.496094 -44.8125 C 24.921875 -44.8125 20.742188 -43.019531 17.839844 -38.835938 L 16.132812 -44.8125 L 6.488281 -44.8125 Z M 6.488281 0 "/></g></g></g><g fill="#000000" fill-opacity="1"><g transform="translate(975.471435, 726.828259)"><g><path d="M 28.507812 1.195312 C 43.359375 1.195312 53.601562 -8.449219 53.601562 -22.449219 C 53.601562 -36.359375 43.359375 -46.007812 28.507812 -46.007812 C 13.570312 -46.007812 3.328125 -36.359375 3.328125 -22.449219 C 3.328125 -8.449219 13.570312 1.195312 28.507812 1.195312 Z M 16.132812 -22.449219 C 16.132812 -29.789062 21.253906 -34.910156 28.507812 -34.910156 C 35.765625 -34.910156 40.800781 -29.789062 40.800781 -22.449219 C 40.800781 -15.109375 35.765625 -9.988281 28.507812 -9.988281 C 21.253906 -9.988281 16.132812 -15.109375 16.132812 -22.449219 Z M 16.132812 -22.449219 "/></g></g></g><g fill="#000000" fill-opacity="1"><g transform="translate(1032.39563, 726.828259)"><g><path d="M 27.824219 1.195312 C 40.457031 1.195312 49.933594 -6.230469 52.324219 -18.011719 L 39.691406 -18.011719 C 37.898438 -13.144531 33.460938 -9.988281 27.996094 -9.988281 C 20.996094 -9.988281 16.132812 -15.109375 16.132812 -22.449219 C 16.132812 -29.789062 20.996094 -34.910156 27.996094 -34.910156 C 33.117188 -34.910156 37.300781 -32.179688 39.433594 -27.65625 L 51.894531 -27.65625 C 49.847656 -38.75 40.289062 -46.007812 27.824219 -46.007812 C 13.484375 -46.007812 3.328125 -36.191406 3.328125 -22.449219 C 3.328125 -8.621094 13.402344 1.195312 27.824219 1.195312 Z M 27.824219 1.195312 "/></g></g></g><g fill="#000000" fill-opacity="1"><g transform="translate(1087.868955, 726.828259)"><g><path d="M 27.65625 1.195312 C 38.664062 1.195312 47.371094 -4.4375 51.296875 -13.914062 L 38.152344 -13.914062 C 36.019531 -10.925781 32.179688 -9.21875 27.910156 -9.21875 C 22.023438 -9.21875 17.414062 -12.546875 16.21875 -18.691406 L 52.152344 -18.691406 C 52.921875 -35.082031 43.191406 -46.007812 27.824219 -46.007812 C 13.316406 -46.007812 3.328125 -36.359375 3.328125 -22.449219 C 3.328125 -8.449219 13.230469 1.195312 27.65625 1.195312 Z M 16.304688 -26.886719 C 17.753906 -32.347656 22.191406 -35.679688 27.910156 -35.679688 C 33.886719 -35.679688 38.152344 -32.347656 39.605469 -26.886719 Z M 16.304688 -26.886719 "/></g></g></g><g fill="#000000" fill-opacity="1"><g transform="translate(1143.256924, 726.828259)"><g><path d="M 23.730469 1.195312 C 35.847656 1.195312 43.191406 -4.097656 43.191406 -12.632812 C 43.191406 -19.972656 37.726562 -24.667969 26.628906 -26.886719 C 18.949219 -28.421875 16.558594 -29.703125 16.558594 -32.433594 C 16.558594 -35.082031 18.949219 -36.617188 22.789062 -36.617188 C 27.144531 -36.617188 29.789062 -34.652344 30.046875 -31.238281 L 42.421875 -31.238281 C 41.824219 -40.714844 34.824219 -46.007812 22.875 -46.007812 C 10.839844 -46.007812 4.011719 -41.140625 4.011719 -32.433594 C 4.011719 -25.007812 9.132812 -20.570312 20.570312 -18.523438 C 27.484375 -17.328125 30.386719 -15.535156 30.386719 -12.71875 C 30.386719 -10.070312 27.996094 -8.449219 23.898438 -8.449219 C 19.121094 -8.449219 16.21875 -10.753906 16.132812 -14.425781 L 3.414062 -14.425781 C 3.414062 -5.035156 11.4375 1.195312 23.730469 1.195312 Z M 23.730469 1.195312 "/></g></g></g><g fill="#000000" fill-opacity="1"><g transform="translate(1189.939851, 726.828259)"><g><path d="M 23.730469 1.195312 C 35.847656 1.195312 43.191406 -4.097656 43.191406 -12.632812 C 43.191406 -19.972656 37.726562 -24.667969 26.628906 -26.886719 C 18.949219 -28.421875 16.558594 -29.703125 16.558594 -32.433594 C 16.558594 -35.082031 18.949219 -36.617188 22.789062 -36.617188 C 27.144531 -36.617188 29.789062 -34.652344 30.046875 -31.238281 L 42.421875 -31.238281 C 41.824219 -40.714844 34.824219 -46.007812 22.875 -46.007812 C 10.839844 -46.007812 4.011719 -41.140625 4.011719 -32.433594 C 4.011719 -25.007812 9.132812 -20.570312 20.570312 -18.523438 C 27.484375 -17.328125 30.386719 -15.535156 30.386719 -12.71875 C 30.386719 -10.070312 27.996094 -8.449219 23.898438 -8.449219 C 19.121094 -8.449219 16.21875 -10.753906 16.132812 -14.425781 L 3.414062 -14.425781 C 3.414062 -5.035156 11.4375 1.195312 23.730469 1.195312 Z M 23.730469 1.195312 "/></g></g></g><g fill="#000000" fill-opacity="1"><g transform="translate(1236.622778, 726.828259)"><g><path d="M 6.488281 0 L 19.460938 0 L 19.460938 -44.8125 L 6.488281 -44.8125 Z M 4.609375 -59.320312 C 4.609375 -54.542969 8.023438 -51.214844 12.972656 -51.214844 C 17.925781 -51.214844 21.339844 -54.542969 21.339844 -59.320312 C 21.339844 -64.101562 17.925781 -67.429688 12.972656 -67.429688 C 8.023438 -67.429688 4.609375 -64.101562 4.609375 -59.320312 Z M 4.609375 -59.320312 "/></g></g></g><g fill="#000000" fill-opacity="1"><g transform="translate(1262.567191, 726.828259)"><g><path d="M 6.488281 0 L 19.460938 0 L 19.460938 -23.472656 C 19.460938 -30.558594 23.386719 -34.910156 29.363281 -34.910156 C 34.910156 -34.910156 38.238281 -30.984375 38.238281 -24.410156 L 38.238281 0 L 51.214844 0 L 51.214844 -25.777344 C 51.214844 -38.152344 44.128906 -46.007812 32.433594 -46.007812 C 26.460938 -46.007812 21.082031 -43.957031 17.496094 -39.773438 L 16.132812 -44.8125 L 6.488281 -44.8125 Z M 6.488281 0 "/></g></g></g><g fill="#000000" fill-opacity="1"><g transform="translate(1319.40603, 726.828259)"><g><path d="M 28.335938 18.949219 C 42.675781 18.949219 51.808594 10.925781 51.808594 -2.476562 L 51.808594 -44.8125 L 42.164062 -44.8125 L 40.800781 -39.859375 C 36.875 -43.785156 31.410156 -46.007812 25.007812 -46.007812 C 12.375 -46.007812 3.328125 -36.703125 3.328125 -23.644531 C 3.328125 -10.5 12.375 -1.195312 25.007812 -1.195312 C 30.386719 -1.195312 35.167969 -2.816406 38.835938 -5.632812 L 38.835938 -2.476562 C 38.835938 4.78125 35.167969 8.449219 28.082031 8.449219 C 22.703125 8.449219 19.121094 6.230469 18.179688 2.304688 L 5.546875 2.304688 C 6.65625 12.632812 15.363281 18.949219 28.335938 18.949219 Z M 16.132812 -23.644531 C 16.132812 -30.472656 20.910156 -35.25 27.742188 -35.25 C 34.570312 -35.25 39.433594 -30.472656 39.433594 -23.644531 C 39.433594 -16.730469 34.570312 -11.949219 27.742188 -11.949219 C 20.910156 -11.949219 16.132812 -16.730469 16.132812 -23.644531 Z M 16.132812 -23.644531 "/></g></g></g><g fill="#000000" fill-opacity="1"><g transform="translate(2664.115988, 669.35945)"><g><path d="M 43.996094 1.480469 C 67.160156 1.480469 83.554688 -14.382812 83.554688 -37.015625 C 83.554688 -59.652344 67.160156 -75.515625 43.996094 -75.515625 C 20.835938 -75.515625 4.546875 -59.652344 4.546875 -37.015625 C 4.546875 -14.382812 20.835938 1.480469 43.996094 1.480469 Z M 21.679688 -37.015625 C 21.679688 -50.34375 30.882812 -59.546875 43.996094 -59.546875 C 57.21875 -59.546875 66.3125 -50.34375 66.3125 -37.015625 C 66.3125 -23.691406 57.21875 -14.488281 43.996094 -14.488281 C 30.882812 -14.488281 21.679688 -23.691406 21.679688 -37.015625 Z M 21.679688 -37.015625 "/></g></g></g><g fill="#000000" fill-opacity="1"><g transform="translate(2752.1954, 669.35945)"><g><path d="M 41.671875 1.480469 C 58.277344 1.480469 70.015625 -10.578125 70.015625 -27.816406 C 70.015625 -44.84375 58.277344 -57.007812 41.671875 -57.007812 C 34.796875 -57.007812 28.769531 -54.890625 24.113281 -51.191406 L 24.113281 -78.265625 L 8.039062 -78.265625 L 8.039062 0 L 19.988281 0 L 21.789062 -6.347656 C 26.757812 -1.375 33.632812 1.480469 41.671875 1.480469 Z M 23.480469 -27.816406 C 23.480469 -36.804688 29.824219 -43.257812 38.816406 -43.257812 C 47.910156 -43.257812 54.152344 -36.804688 54.152344 -27.816406 C 54.152344 -18.71875 47.910156 -12.375 38.816406 -12.375 C 29.824219 -12.375 23.480469 -18.71875 23.480469 -27.816406 Z M 23.480469 -27.816406 "/></g></g></g><g fill="#000000" fill-opacity="1"><g transform="translate(2826.317459, 669.35945)"><g><path d="M -4.863281 23.269531 L 2.960938 23.269531 C 17.769531 23.269531 24.21875 15.757812 24.21875 0.632812 L 24.21875 -55.527344 L 8.144531 -55.527344 L 8.144531 0.316406 C 8.144531 6.769531 5.710938 9.097656 0.632812 9.097656 L -4.863281 9.097656 Z M 5.710938 -73.507812 C 5.710938 -67.582031 9.941406 -63.457031 16.074219 -63.457031 C 22.105469 -63.457031 26.335938 -67.582031 26.335938 -73.507812 C 26.335938 -79.429688 22.105469 -83.554688 16.074219 -83.554688 C 9.941406 -83.554688 5.710938 -79.429688 5.710938 -73.507812 Z M 5.710938 -73.507812 "/></g></g></g><g fill="#000000" fill-opacity="1"><g transform="translate(2858.56741, 669.35945)"><g><path d="M 34.265625 1.480469 C 47.910156 1.480469 58.699219 -5.5 63.5625 -17.238281 L 47.277344 -17.238281 C 44.632812 -13.539062 39.875 -11.421875 34.585938 -11.421875 C 27.289062 -11.421875 21.574219 -15.546875 20.09375 -23.164062 L 64.621094 -23.164062 C 65.574219 -43.46875 53.515625 -57.007812 34.480469 -57.007812 C 16.5 -57.007812 4.125 -45.054688 4.125 -27.816406 C 4.125 -10.46875 16.394531 1.480469 34.265625 1.480469 Z M 20.199219 -33.316406 C 22 -40.085938 27.5 -44.210938 34.585938 -44.210938 C 41.988281 -44.210938 47.277344 -40.085938 49.074219 -33.316406 Z M 20.199219 -33.316406 "/></g></g></g><g fill="#000000" fill-opacity="1"><g transform="translate(2927.191088, 669.35945)"><g><path d="M 34.480469 1.480469 C 50.132812 1.480469 61.871094 -7.722656 64.832031 -22.316406 L 49.179688 -22.316406 C 46.960938 -16.289062 41.460938 -12.375 34.691406 -12.375 C 26.019531 -12.375 19.988281 -18.71875 19.988281 -27.816406 C 19.988281 -36.910156 26.019531 -43.257812 34.691406 -43.257812 C 41.035156 -43.257812 46.21875 -39.875 48.863281 -34.265625 L 64.304688 -34.265625 C 61.765625 -48.015625 49.921875 -57.007812 34.480469 -57.007812 C 16.710938 -57.007812 4.125 -44.84375 4.125 -27.816406 C 4.125 -10.683594 16.605469 1.480469 34.480469 1.480469 Z M 34.480469 1.480469 "/></g></g></g><g fill="#000000" fill-opacity="1"><g transform="translate(2995.920502, 669.35945)"><g><path d="M 34.796875 0 L 44.949219 0 L 44.949219 -13.960938 L 38.285156 -13.960938 C 31.941406 -13.960938 28.980469 -17.027344 28.980469 -23.480469 L 28.980469 -42.410156 L 44.210938 -42.410156 L 44.210938 -55.527344 L 28.980469 -55.527344 L 28.980469 -69.910156 L 16.5 -69.910156 L 15.546875 -62.71875 C 14.703125 -57.007812 13.113281 -55.527344 7.085938 -55.527344 L 2.117188 -55.527344 L 2.117188 -42.410156 L 12.902344 -42.410156 L 12.902344 -21.046875 C 12.902344 -7.507812 20.730469 0 34.796875 0 Z M 34.796875 0 "/></g></g></g><g fill="#000000" fill-opacity="1"><g transform="translate(2476.611751, 816.33904)"><g><path d="M 8.039062 0 L 24.113281 0 L 24.113281 -24.539062 C 24.113281 -36.488281 29.71875 -40.929688 38.921875 -40.929688 L 45.054688 -40.929688 L 45.054688 -55.527344 L 39.027344 -55.527344 C 30.882812 -55.527344 25.699219 -53.304688 22.105469 -48.121094 L 19.988281 -55.527344 L 8.039062 -55.527344 Z M 8.039062 0 "/></g></g></g><g fill="#000000" fill-opacity="1"><g transform="translate(2525.251064, 816.33904)"><g><path d="M 34.265625 1.480469 C 47.910156 1.480469 58.699219 -5.5 63.5625 -17.238281 L 47.277344 -17.238281 C 44.632812 -13.539062 39.875 -11.421875 34.585938 -11.421875 C 27.289062 -11.421875 21.574219 -15.546875 20.09375 -23.164062 L 64.621094 -23.164062 C 65.574219 -43.46875 53.515625 -57.007812 34.480469 -57.007812 C 16.5 -57.007812 4.125 -45.054688 4.125 -27.816406 C 4.125 -10.46875 16.394531 1.480469 34.265625 1.480469 Z M 20.199219 -33.316406 C 22 -40.085938 27.5 -44.210938 34.585938 -44.210938 C 41.988281 -44.210938 47.277344 -40.085938 49.074219 -33.316406 Z M 20.199219 -33.316406 "/></g></g></g><g fill="#000000" fill-opacity="1"><g transform="translate(2593.874741, 816.33904)"><g><path d="M 34.480469 1.480469 C 50.132812 1.480469 61.871094 -7.722656 64.832031 -22.316406 L 49.179688 -22.316406 C 46.960938 -16.289062 41.460938 -12.375 34.691406 -12.375 C 26.019531 -12.375 19.988281 -18.71875 19.988281 -27.816406 C 19.988281 -36.910156 26.019531 -43.257812 34.691406 -43.257812 C 41.035156 -43.257812 46.21875 -39.875 48.863281 -34.265625 L 64.304688 -34.265625 C 61.765625 -48.015625 49.921875 -57.007812 34.480469 -57.007812 C 16.710938 -57.007812 4.125 -44.84375 4.125 -27.816406 C 4.125 -10.683594 16.605469 1.480469 34.480469 1.480469 Z M 34.480469 1.480469 "/></g></g></g><g fill="#000000" fill-opacity="1"><g transform="translate(2662.604156, 816.33904)"><g><path d="M 35.324219 1.480469 C 53.726562 1.480469 66.417969 -10.46875 66.417969 -27.816406 C 66.417969 -45.054688 53.726562 -57.007812 35.324219 -57.007812 C 16.816406 -57.007812 4.125 -45.054688 4.125 -27.816406 C 4.125 -10.46875 16.816406 1.480469 35.324219 1.480469 Z M 19.988281 -27.816406 C 19.988281 -36.910156 26.335938 -43.257812 35.324219 -43.257812 C 44.316406 -43.257812 50.554688 -36.910156 50.554688 -27.816406 C 50.554688 -18.71875 44.316406 -12.375 35.324219 -12.375 C 26.335938 -12.375 19.988281 -18.71875 19.988281 -27.816406 Z M 19.988281 -27.816406 "/></g></g></g><g fill="#000000" fill-opacity="1"><g transform="translate(2733.131118, 816.33904)"><g><path d="M 35.113281 23.480469 C 52.882812 23.480469 64.199219 13.539062 64.199219 -3.066406 L 64.199219 -55.527344 L 52.246094 -55.527344 L 50.554688 -49.390625 C 45.691406 -54.257812 38.921875 -57.007812 30.988281 -57.007812 C 15.335938 -57.007812 4.125 -45.480469 4.125 -29.296875 C 4.125 -13.007812 15.335938 -1.480469 30.988281 -1.480469 C 37.652344 -1.480469 43.574219 -3.488281 48.121094 -6.980469 L 48.121094 -3.066406 C 48.121094 5.921875 43.574219 10.46875 34.796875 10.46875 C 28.132812 10.46875 23.691406 7.722656 22.527344 2.855469 L 6.875 2.855469 C 8.25 15.652344 19.039062 23.480469 35.113281 23.480469 Z M 19.988281 -29.296875 C 19.988281 -37.757812 25.914062 -43.679688 34.375 -43.679688 C 42.835938 -43.679688 48.863281 -37.757812 48.863281 -29.296875 C 48.863281 -20.730469 42.835938 -14.808594 34.375 -14.808594 C 25.914062 -14.808594 19.988281 -20.730469 19.988281 -29.296875 Z M 19.988281 -29.296875 "/></g></g></g><g fill="#000000" fill-opacity="1"><g transform="translate(2805.455628, 816.33904)"><g><path d="M 8.039062 0 L 24.113281 0 L 24.113281 -29.085938 C 24.113281 -37.863281 28.980469 -43.257812 36.382812 -43.257812 C 43.257812 -43.257812 47.382812 -38.390625 47.382812 -30.25 L 47.382812 0 L 63.457031 0 L 63.457031 -31.941406 C 63.457031 -47.277344 54.679688 -57.007812 40.191406 -57.007812 C 32.785156 -57.007812 26.125 -54.46875 21.679688 -49.285156 L 19.988281 -55.527344 L 8.039062 -55.527344 Z M 8.039062 0 "/></g></g></g><g fill="#000000" fill-opacity="1"><g transform="translate(2875.876854, 816.33904)"><g><path d="M 8.039062 0 L 24.113281 0 L 24.113281 -55.527344 L 8.039062 -55.527344 Z M 5.710938 -73.507812 C 5.710938 -67.582031 9.941406 -63.457031 16.074219 -63.457031 C 22.210938 -63.457031 26.441406 -67.582031 26.441406 -73.507812 C 26.441406 -79.429688 22.210938 -83.554688 16.074219 -83.554688 C 9.941406 -83.554688 5.710938 -79.429688 5.710938 -73.507812 Z M 5.710938 -73.507812 "/></g></g></g><g fill="#000000" fill-opacity="1"><g transform="translate(2908.021071, 816.33904)"><g><path d="M 34.796875 0 L 44.949219 0 L 44.949219 -13.960938 L 38.285156 -13.960938 C 31.941406 -13.960938 28.980469 -17.027344 28.980469 -23.480469 L 28.980469 -42.410156 L 44.210938 -42.410156 L 44.210938 -55.527344 L 28.980469 -55.527344 L 28.980469 -69.910156 L 16.5 -69.910156 L 15.546875 -62.71875 C 14.703125 -57.007812 13.113281 -55.527344 7.085938 -55.527344 L 2.117188 -55.527344 L 2.117188 -42.410156 L 12.902344 -42.410156 L 12.902344 -21.046875 C 12.902344 -7.507812 20.730469 0 34.796875 0 Z M 34.796875 0 "/></g></g></g><g fill="#000000" fill-opacity="1"><g transform="translate(2957.400531, 816.33904)"><g><path d="M 8.039062 0 L 24.113281 0 L 24.113281 -55.527344 L 8.039062 -55.527344 Z M 5.710938 -73.507812 C 5.710938 -67.582031 9.941406 -63.457031 16.074219 -63.457031 C 22.210938 -63.457031 26.441406 -67.582031 26.441406 -73.507812 C 26.441406 -79.429688 22.210938 -83.554688 16.074219 -83.554688 C 9.941406 -83.554688 5.710938 -79.429688 5.710938 -73.507812 Z M 5.710938 -73.507812 "/></g></g></g><g fill="#000000" fill-opacity="1"><g transform="translate(2989.544747, 816.33904)"><g><path d="M 35.324219 1.480469 C 53.726562 1.480469 66.417969 -10.46875 66.417969 -27.816406 C 66.417969 -45.054688 53.726562 -57.007812 35.324219 -57.007812 C 16.816406 -57.007812 4.125 -45.054688 4.125 -27.816406 C 4.125 -10.46875 16.816406 1.480469 35.324219 1.480469 Z M 19.988281 -27.816406 C 19.988281 -36.910156 26.335938 -43.257812 35.324219 -43.257812 C 44.316406 -43.257812 50.554688 -36.910156 50.554688 -27.816406 C 50.554688 -18.71875 44.316406 -12.375 35.324219 -12.375 C 26.335938 -12.375 19.988281 -18.71875 19.988281 -27.816406 Z M 19.988281 -27.816406 "/></g></g></g><g fill="#000000" fill-opacity="1"><g transform="translate(3060.07171, 816.33904)"><g><path d="M 8.039062 0 L 24.113281 0 L 24.113281 -29.085938 C 24.113281 -37.863281 28.980469 -43.257812 36.382812 -43.257812 C 43.257812 -43.257812 47.382812 -38.390625 47.382812 -30.25 L 47.382812 0 L 63.457031 0 L 63.457031 -31.941406 C 63.457031 -47.277344 54.679688 -57.007812 40.191406 -57.007812 C 32.785156 -57.007812 26.125 -54.46875 21.679688 -49.285156 L 19.988281 -55.527344 L 8.039062 -55.527344 Z M 8.039062 0 "/></g></g></g><g fill="#000000" fill-opacity="1"><g transform="translate(3130.492935, 816.33904)"><g/></g></g><g fill="#000000" fill-opacity="1"><g transform="translate(3155.341269, 816.33904)"><g><path d="M 31.410156 1.480469 C 39.660156 1.480469 46.851562 -0.632812 52.671875 -4.335938 L 56.902344 0 L 74.667969 0 L 62.082031 -13.21875 C 66.3125 -19.25 68.746094 -26.863281 68.957031 -35.640625 L 55.101562 -35.640625 C 54.996094 -31.09375 53.941406 -26.96875 52.140625 -23.480469 L 41.355469 -34.796875 C 52.035156 -39.660156 57.640625 -46.960938 57.640625 -55.949219 C 57.640625 -67.6875 48.015625 -75.515625 33.527344 -75.515625 C 19.25 -75.515625 9.730469 -68.007812 9.730469 -56.902344 C 9.730469 -51.085938 12.375 -45.902344 17.980469 -39.449219 C 8.777344 -34.585938 4.019531 -27.816406 4.019531 -19.144531 C 4.019531 -6.453125 14.59375 1.480469 31.410156 1.480469 Z M 19.777344 -20.199219 C 19.777344 -24.113281 22.105469 -27.179688 27.289062 -29.613281 L 42.515625 -14.066406 C 39.449219 -12.585938 35.855469 -11.738281 31.941406 -11.738281 C 24.21875 -11.738281 19.777344 -14.914062 19.777344 -20.199219 Z M 24.855469 -55.949219 C 24.855469 -59.96875 28.132812 -62.402344 33.421875 -62.402344 C 39.027344 -62.402344 42.515625 -59.757812 42.515625 -55.316406 C 42.515625 -50.976562 39.238281 -47.488281 31.941406 -44.738281 C 26.441406 -50.554688 24.855469 -53.199219 24.855469 -55.949219 Z M 24.855469 -55.949219 "/></g></g></g><g fill="#000000" fill-opacity="1"><g transform="translate(2431.159078, 963.318631)"><g><path d="M 26.546875 1.058594 C 34.796875 1.058594 41.566406 -1.585938 46.324219 -6.453125 L 48.121094 0 L 60.074219 0 L 60.074219 -33.421875 C 60.074219 -48.121094 50.132812 -57.007812 33.527344 -57.007812 C 19.355469 -57.007812 10.046875 -50.238281 8.039062 -38.179688 L 23.480469 -38.179688 C 24.429688 -42.09375 28.449219 -44.738281 33.632812 -44.738281 C 39.980469 -44.738281 44.316406 -41.140625 44.316406 -35.640625 L 44.316406 -33.105469 L 24.21875 -33.105469 C 12.691406 -33.105469 5.289062 -26.441406 5.289062 -16.183594 C 5.289062 -5.5 13.433594 1.058594 26.546875 1.058594 Z M 21.152344 -16.816406 C 21.152344 -20.625 24.324219 -23.054688 29.191406 -23.054688 L 44.421875 -23.054688 C 44.105469 -15.546875 38.285156 -10.46875 30.25 -10.46875 C 24.75 -10.46875 21.152344 -13.007812 21.152344 -16.816406 Z M 21.152344 -16.816406 "/></g></g></g><g fill="#000000" fill-opacity="1"><g transform="translate(2498.196724, 963.318631)"><g><path d="M 41.671875 1.480469 C 58.277344 1.480469 70.015625 -10.578125 70.015625 -27.816406 C 70.015625 -44.84375 58.277344 -57.007812 41.671875 -57.007812 C 33.632812 -57.007812 26.757812 -54.152344 21.789062 -49.179688 L 19.988281 -55.527344 L 8.039062 -55.527344 L 8.039062 21.152344 L 24.113281 21.152344 L 24.113281 -4.335938 C 28.769531 -0.632812 34.796875 1.480469 41.671875 1.480469 Z M 23.480469 -27.816406 C 23.480469 -36.804688 29.824219 -43.257812 38.816406 -43.257812 C 47.910156 -43.257812 54.152344 -36.804688 54.152344 -27.816406 C 54.152344 -18.71875 47.910156 -12.375 38.816406 -12.375 C 29.824219 -12.375 23.480469 -18.71875 23.480469 -27.816406 Z M 23.480469 -27.816406 "/></g></g></g><g fill="#000000" fill-opacity="1"><g transform="translate(2572.318782, 963.318631)"><g><path d="M 41.671875 1.480469 C 58.277344 1.480469 70.015625 -10.578125 70.015625 -27.816406 C 70.015625 -44.84375 58.277344 -57.007812 41.671875 -57.007812 C 33.632812 -57.007812 26.757812 -54.152344 21.789062 -49.179688 L 19.988281 -55.527344 L 8.039062 -55.527344 L 8.039062 21.152344 L 24.113281 21.152344 L 24.113281 -4.335938 C 28.769531 -0.632812 34.796875 1.480469 41.671875 1.480469 Z M 23.480469 -27.816406 C 23.480469 -36.804688 29.824219 -43.257812 38.816406 -43.257812 C 47.910156 -43.257812 54.152344 -36.804688 54.152344 -27.816406 C 54.152344 -18.71875 47.910156 -12.375 38.816406 -12.375 C 29.824219 -12.375 23.480469 -18.71875 23.480469 -27.816406 Z M 23.480469 -27.816406 "/></g></g></g><g fill="#000000" fill-opacity="1"><g transform="translate(2646.440841, 963.318631)"><g><path d="M 8.039062 0 L 24.113281 0 L 24.113281 -24.539062 C 24.113281 -36.488281 29.71875 -40.929688 38.921875 -40.929688 L 45.054688 -40.929688 L 45.054688 -55.527344 L 39.027344 -55.527344 C 30.882812 -55.527344 25.699219 -53.304688 22.105469 -48.121094 L 19.988281 -55.527344 L 8.039062 -55.527344 Z M 8.039062 0 "/></g></g></g><g fill="#000000" fill-opacity="1"><g transform="translate(2695.080154, 963.318631)"><g><path d="M 35.324219 1.480469 C 53.726562 1.480469 66.417969 -10.46875 66.417969 -27.816406 C 66.417969 -45.054688 53.726562 -57.007812 35.324219 -57.007812 C 16.816406 -57.007812 4.125 -45.054688 4.125 -27.816406 C 4.125 -10.46875 16.816406 1.480469 35.324219 1.480469 Z M 19.988281 -27.816406 C 19.988281 -36.910156 26.335938 -43.257812 35.324219 -43.257812 C 44.316406 -43.257812 50.554688 -36.910156 50.554688 -27.816406 C 50.554688 -18.71875 44.316406 -12.375 35.324219 -12.375 C 26.335938 -12.375 19.988281 -18.71875 19.988281 -27.816406 Z M 19.988281 -27.816406 "/></g></g></g><g fill="#000000" fill-opacity="1"><g transform="translate(2765.607116, 963.318631)"><g><path d="M 41.671875 1.480469 C 58.277344 1.480469 70.015625 -10.578125 70.015625 -27.816406 C 70.015625 -44.84375 58.277344 -57.007812 41.671875 -57.007812 C 33.632812 -57.007812 26.757812 -54.152344 21.789062 -49.179688 L 19.988281 -55.527344 L 8.039062 -55.527344 L 8.039062 21.152344 L 24.113281 21.152344 L 24.113281 -4.335938 C 28.769531 -0.632812 34.796875 1.480469 41.671875 1.480469 Z M 23.480469 -27.816406 C 23.480469 -36.804688 29.824219 -43.257812 38.816406 -43.257812 C 47.910156 -43.257812 54.152344 -36.804688 54.152344 -27.816406 C 54.152344 -18.71875 47.910156 -12.375 38.816406 -12.375 C 29.824219 -12.375 23.480469 -18.71875 23.480469 -27.816406 Z M 23.480469 -27.816406 "/></g></g></g><g fill="#000000" fill-opacity="1"><g transform="translate(2839.729174, 963.318631)"><g><path d="M 8.039062 0 L 24.113281 0 L 24.113281 -55.527344 L 8.039062 -55.527344 Z M 5.710938 -73.507812 C 5.710938 -67.582031 9.941406 -63.457031 16.074219 -63.457031 C 22.210938 -63.457031 26.441406 -67.582031 26.441406 -73.507812 C 26.441406 -79.429688 22.210938 -83.554688 16.074219 -83.554688 C 9.941406 -83.554688 5.710938 -79.429688 5.710938 -73.507812 Z M 5.710938 -73.507812 "/></g></g></g><g fill="#000000" fill-opacity="1"><g transform="translate(2871.873391, 963.318631)"><g><path d="M 26.546875 1.058594 C 34.796875 1.058594 41.566406 -1.585938 46.324219 -6.453125 L 48.121094 0 L 60.074219 0 L 60.074219 -33.421875 C 60.074219 -48.121094 50.132812 -57.007812 33.527344 -57.007812 C 19.355469 -57.007812 10.046875 -50.238281 8.039062 -38.179688 L 23.480469 -38.179688 C 24.429688 -42.09375 28.449219 -44.738281 33.632812 -44.738281 C 39.980469 -44.738281 44.316406 -41.140625 44.316406 -35.640625 L 44.316406 -33.105469 L 24.21875 -33.105469 C 12.691406 -33.105469 5.289062 -26.441406 5.289062 -16.183594 C 5.289062 -5.5 13.433594 1.058594 26.546875 1.058594 Z M 21.152344 -16.816406 C 21.152344 -20.625 24.324219 -23.054688 29.191406 -23.054688 L 44.421875 -23.054688 C 44.105469 -15.546875 38.285156 -10.46875 30.25 -10.46875 C 24.75 -10.46875 21.152344 -13.007812 21.152344 -16.816406 Z M 21.152344 -16.816406 "/></g></g></g><g fill="#000000" fill-opacity="1"><g transform="translate(2938.911036, 963.318631)"><g><path d="M 34.796875 0 L 44.949219 0 L 44.949219 -13.960938 L 38.285156 -13.960938 C 31.941406 -13.960938 28.980469 -17.027344 28.980469 -23.480469 L 28.980469 -42.410156 L 44.210938 -42.410156 L 44.210938 -55.527344 L 28.980469 -55.527344 L 28.980469 -69.910156 L 16.5 -69.910156 L 15.546875 -62.71875 C 14.703125 -57.007812 13.113281 -55.527344 7.085938 -55.527344 L 2.117188 -55.527344 L 2.117188 -42.410156 L 12.902344 -42.410156 L 12.902344 -21.046875 C 12.902344 -7.507812 20.730469 0 34.796875 0 Z M 34.796875 0 "/></g></g></g><g fill="#000000" fill-opacity="1"><g transform="translate(2988.290497, 963.318631)"><g><path d="M 34.265625 1.480469 C 47.910156 1.480469 58.699219 -5.5 63.5625 -17.238281 L 47.277344 -17.238281 C 44.632812 -13.539062 39.875 -11.421875 34.585938 -11.421875 C 27.289062 -11.421875 21.574219 -15.546875 20.09375 -23.164062 L 64.621094 -23.164062 C 65.574219 -43.46875 53.515625 -57.007812 34.480469 -57.007812 C 16.5 -57.007812 4.125 -45.054688 4.125 -27.816406 C 4.125 -10.46875 16.394531 1.480469 34.265625 1.480469 Z M 20.199219 -33.316406 C 22 -40.085938 27.5 -44.210938 34.585938 -44.210938 C 41.988281 -44.210938 47.277344 -40.085938 49.074219 -33.316406 Z M 20.199219 -33.316406 "/></g></g></g><g fill="#000000" fill-opacity="1"><g transform="translate(3056.914174, 963.318631)"><g/></g></g><g fill="#000000" fill-opacity="1"><g transform="translate(3081.762508, 963.318631)"><g><path d="M 30.144531 1.480469 C 37.441406 1.480469 43.996094 -1.058594 48.441406 -6.238281 L 50.132812 0 L 62.082031 0 L 62.082031 -55.527344 L 46.007812 -55.527344 L 46.007812 -26.546875 C 46.007812 -17.769531 41.246094 -12.375 33.949219 -12.375 C 27.179688 -12.375 23.054688 -17.132812 23.054688 -25.277344 L 23.054688 -55.527344 L 6.980469 -55.527344 L 6.980469 -23.691406 C 6.980469 -8.25 15.757812 1.480469 30.144531 1.480469 Z M 30.144531 1.480469 "/></g></g></g><g fill="#000000" fill-opacity="1"><g transform="translate(3151.866527, 963.318631)"><g><path d="M 29.402344 1.480469 C 44.421875 1.480469 53.515625 -5.078125 53.515625 -15.652344 C 53.515625 -24.75 46.746094 -30.566406 33 -33.316406 C 23.480469 -35.21875 20.519531 -36.804688 20.519531 -40.191406 C 20.519531 -43.46875 23.480469 -45.371094 28.238281 -45.371094 C 33.632812 -45.371094 36.910156 -42.941406 37.230469 -38.710938 L 52.566406 -38.710938 C 51.824219 -50.449219 43.152344 -57.007812 28.34375 -57.007812 C 13.433594 -57.007812 4.972656 -50.976562 4.972656 -40.191406 C 4.972656 -30.988281 11.316406 -25.488281 25.488281 -22.949219 C 34.054688 -21.46875 37.652344 -19.25 37.652344 -15.757812 C 37.652344 -12.480469 34.691406 -10.46875 29.613281 -10.46875 C 23.691406 -10.46875 20.09375 -13.328125 19.988281 -17.875 L 4.230469 -17.875 C 4.230469 -6.238281 14.171875 1.480469 29.402344 1.480469 Z M 29.402344 1.480469 "/></g></g></g><g fill="#000000" fill-opacity="1"><g transform="translate(3209.705008, 963.318631)"><g><path d="M 34.265625 1.480469 C 47.910156 1.480469 58.699219 -5.5 63.5625 -17.238281 L 47.277344 -17.238281 C 44.632812 -13.539062 39.875 -11.421875 34.585938 -11.421875 C 27.289062 -11.421875 21.574219 -15.546875 20.09375 -23.164062 L 64.621094 -23.164062 C 65.574219 -43.46875 53.515625 -57.007812 34.480469 -57.007812 C 16.5 -57.007812 4.125 -45.054688 4.125 -27.816406 C 4.125 -10.46875 16.394531 1.480469 34.265625 1.480469 Z M 20.199219 -33.316406 C 22 -40.085938 27.5 -44.210938 34.585938 -44.210938 C 41.988281 -44.210938 47.277344 -40.085938 49.074219 -33.316406 Z M 20.199219 -33.316406 "/></g></g></g><g fill="#000000" fill-opacity="1"><g transform="translate(2573.976161, 285.977865)"><g><path d="M 8.882812 0 L 25.699219 0 L 25.699219 -23.054688 L 36.804688 -23.054688 L 50.027344 0 L 69.488281 0 L 54.152344 -25.699219 C 63.035156 -29.613281 68.21875 -37.652344 68.21875 -48.546875 C 68.21875 -64.304688 57.429688 -74.035156 40.507812 -74.035156 L 8.882812 -74.035156 Z M 25.488281 -37.230469 L 25.488281 -59.652344 L 38.285156 -59.652344 C 46.535156 -59.652344 51.191406 -55.632812 51.191406 -48.441406 C 51.191406 -41.246094 46.535156 -37.230469 38.285156 -37.230469 Z M 25.488281 -37.230469 "/></g></g></g><g fill="#000000" fill-opacity="1"><g transform="translate(2648.415426, 285.977865)"><g><path d="M 34.265625 1.480469 C 47.910156 1.480469 58.699219 -5.5 63.5625 -17.238281 L 47.277344 -17.238281 C 44.632812 -13.539062 39.875 -11.421875 34.585938 -11.421875 C 27.289062 -11.421875 21.574219 -15.546875 20.09375 -23.164062 L 64.621094 -23.164062 C 65.574219 -43.46875 53.515625 -57.007812 34.480469 -57.007812 C 16.5 -57.007812 4.125 -45.054688 4.125 -27.816406 C 4.125 -10.46875 16.394531 1.480469 34.265625 1.480469 Z M 20.199219 -33.316406 C 22 -40.085938 27.5 -44.210938 34.585938 -44.210938 C 41.988281 -44.210938 47.277344 -40.085938 49.074219 -33.316406 Z M 20.199219 -33.316406 "/></g></g></g><g fill="#000000" fill-opacity="1"><g transform="translate(2717.039104, 285.977865)"><g><path d="M 26.546875 1.058594 C 34.796875 1.058594 41.566406 -1.585938 46.324219 -6.453125 L 48.121094 0 L 60.074219 0 L 60.074219 -33.421875 C 60.074219 -48.121094 50.132812 -57.007812 33.527344 -57.007812 C 19.355469 -57.007812 10.046875 -50.238281 8.039062 -38.179688 L 23.480469 -38.179688 C 24.429688 -42.09375 28.449219 -44.738281 33.632812 -44.738281 C 39.980469 -44.738281 44.316406 -41.140625 44.316406 -35.640625 L 44.316406 -33.105469 L 24.21875 -33.105469 C 12.691406 -33.105469 5.289062 -26.441406 5.289062 -16.183594 C 5.289062 -5.5 13.433594 1.058594 26.546875 1.058594 Z M 21.152344 -16.816406 C 21.152344 -20.625 24.324219 -23.054688 29.191406 -23.054688 L 44.421875 -23.054688 C 44.105469 -15.546875 38.285156 -10.46875 30.25 -10.46875 C 24.75 -10.46875 21.152344 -13.007812 21.152344 -16.816406 Z M 21.152344 -16.816406 "/></g></g></g><g fill="#000000" fill-opacity="1"><g transform="translate(2784.076749, 285.977865)"><g><path d="M 32.363281 1.480469 C 40.402344 1.480469 47.277344 -1.375 52.246094 -6.347656 L 54.152344 0 L 66.101562 0 L 66.101562 -78.265625 L 50.027344 -78.265625 L 50.027344 -51.191406 C 45.265625 -54.890625 39.238281 -57.007812 32.363281 -57.007812 C 15.863281 -57.007812 4.125 -44.84375 4.125 -27.816406 C 4.125 -10.578125 15.863281 1.480469 32.363281 1.480469 Z M 19.988281 -27.816406 C 19.988281 -36.804688 26.230469 -43.257812 35.324219 -43.257812 C 44.316406 -43.257812 50.554688 -36.804688 50.554688 -27.816406 C 50.554688 -18.71875 44.316406 -12.375 35.324219 -12.375 C 26.230469 -12.375 19.988281 -18.71875 19.988281 -27.816406 Z M 19.988281 -27.816406 "/></g></g></g><g fill="#000000" fill-opacity="1"><g transform="translate(2858.198808, 285.977865)"><g><path d="M 8.039062 0 L 24.113281 0 L 24.113281 -55.527344 L 8.039062 -55.527344 Z M 5.710938 -73.507812 C 5.710938 -67.582031 9.941406 -63.457031 16.074219 -63.457031 C 22.210938 -63.457031 26.441406 -67.582031 26.441406 -73.507812 C 26.441406 -79.429688 22.210938 -83.554688 16.074219 -83.554688 C 9.941406 -83.554688 5.710938 -79.429688 5.710938 -73.507812 Z M 5.710938 -73.507812 "/></g></g></g><g fill="#000000" fill-opacity="1"><g transform="translate(2890.343024, 285.977865)"><g><path d="M 8.039062 0 L 24.113281 0 L 24.113281 -29.085938 C 24.113281 -37.863281 28.980469 -43.257812 36.382812 -43.257812 C 43.257812 -43.257812 47.382812 -38.390625 47.382812 -30.25 L 47.382812 0 L 63.457031 0 L 63.457031 -31.941406 C 63.457031 -47.277344 54.679688 -57.007812 40.191406 -57.007812 C 32.785156 -57.007812 26.125 -54.46875 21.679688 -49.285156 L 19.988281 -55.527344 L 8.039062 -55.527344 Z M 8.039062 0 "/></g></g></g><g fill="#000000" fill-opacity="1"><g transform="translate(2960.76425, 285.977865)"><g><path d="M 35.113281 23.480469 C 52.882812 23.480469 64.199219 13.539062 64.199219 -3.066406 L 64.199219 -55.527344 L 52.246094 -55.527344 L 50.554688 -49.390625 C 45.691406 -54.257812 38.921875 -57.007812 30.988281 -57.007812 C 15.335938 -57.007812 4.125 -45.480469 4.125 -29.296875 C 4.125 -13.007812 15.335938 -1.480469 30.988281 -1.480469 C 37.652344 -1.480469 43.574219 -3.488281 48.121094 -6.980469 L 48.121094 -3.066406 C 48.121094 5.921875 43.574219 10.46875 34.796875 10.46875 C 28.132812 10.46875 23.691406 7.722656 22.527344 2.855469 L 6.875 2.855469 C 8.25 15.652344 19.039062 23.480469 35.113281 23.480469 Z M 19.988281 -29.296875 C 19.988281 -37.757812 25.914062 -43.679688 34.375 -43.679688 C 42.835938 -43.679688 48.863281 -37.757812 48.863281 -29.296875 C 48.863281 -20.730469 42.835938 -14.808594 34.375 -14.808594 C 25.914062 -14.808594 19.988281 -20.730469 19.988281 -29.296875 Z M 19.988281 -29.296875 "/></g></g></g><g fill="#000000" fill-opacity="1"><g transform="translate(3033.08876, 285.977865)"><g/></g></g><g fill="#000000" fill-opacity="1"><g transform="translate(3057.937094, 285.977865)"><g><path d="M 31.410156 1.480469 C 39.660156 1.480469 46.851562 -0.632812 52.671875 -4.335938 L 56.902344 0 L 74.667969 0 L 62.082031 -13.21875 C 66.3125 -19.25 68.746094 -26.863281 68.957031 -35.640625 L 55.101562 -35.640625 C 54.996094 -31.09375 53.941406 -26.96875 52.140625 -23.480469 L 41.355469 -34.796875 C 52.035156 -39.660156 57.640625 -46.960938 57.640625 -55.949219 C 57.640625 -67.6875 48.015625 -75.515625 33.527344 -75.515625 C 19.25 -75.515625 9.730469 -68.007812 9.730469 -56.902344 C 9.730469 -51.085938 12.375 -45.902344 17.980469 -39.449219 C 8.777344 -34.585938 4.019531 -27.816406 4.019531 -19.144531 C 4.019531 -6.453125 14.59375 1.480469 31.410156 1.480469 Z M 19.777344 -20.199219 C 19.777344 -24.113281 22.105469 -27.179688 27.289062 -29.613281 L 42.515625 -14.066406 C 39.449219 -12.585938 35.855469 -11.738281 31.941406 -11.738281 C 24.21875 -11.738281 19.777344 -14.914062 19.777344 -20.199219 Z M 24.855469 -55.949219 C 24.855469 -59.96875 28.132812 -62.402344 33.421875 -62.402344 C 39.027344 -62.402344 42.515625 -59.757812 42.515625 -55.316406 C 42.515625 -50.976562 39.238281 -47.488281 31.941406 -44.738281 C 26.441406 -50.554688 24.855469 -53.199219 24.855469 -55.949219 Z M 24.855469 -55.949219 "/></g></g></g><g fill="#000000" fill-opacity="1"><g transform="translate(2441.924185, 432.957456)"><g><path d="M 30.144531 1.480469 C 37.441406 1.480469 43.996094 -1.058594 48.441406 -6.238281 L 50.132812 0 L 62.082031 0 L 62.082031 -55.527344 L 46.007812 -55.527344 L 46.007812 -26.546875 C 46.007812 -17.769531 41.246094 -12.375 33.949219 -12.375 C 27.179688 -12.375 23.054688 -17.132812 23.054688 -25.277344 L 23.054688 -55.527344 L 6.980469 -55.527344 L 6.980469 -23.691406 C 6.980469 -8.25 15.757812 1.480469 30.144531 1.480469 Z M 30.144531 1.480469 "/></g></g></g><g fill="#000000" fill-opacity="1"><g transform="translate(2512.028204, 432.957456)"><g><path d="M 8.039062 0 L 24.113281 0 L 24.113281 -29.085938 C 24.113281 -37.863281 28.980469 -43.257812 36.382812 -43.257812 C 43.257812 -43.257812 47.382812 -38.390625 47.382812 -30.25 L 47.382812 0 L 63.457031 0 L 63.457031 -31.941406 C 63.457031 -47.277344 54.679688 -57.007812 40.191406 -57.007812 C 32.785156 -57.007812 26.125 -54.46875 21.679688 -49.285156 L 19.988281 -55.527344 L 8.039062 -55.527344 Z M 8.039062 0 "/></g></g></g><g fill="#000000" fill-opacity="1"><g transform="translate(2582.44943, 432.957456)"><g><path d="M 32.363281 1.480469 C 40.402344 1.480469 47.277344 -1.375 52.246094 -6.347656 L 54.152344 0 L 66.101562 0 L 66.101562 -78.265625 L 50.027344 -78.265625 L 50.027344 -51.191406 C 45.265625 -54.890625 39.238281 -57.007812 32.363281 -57.007812 C 15.863281 -57.007812 4.125 -44.84375 4.125 -27.816406 C 4.125 -10.578125 15.863281 1.480469 32.363281 1.480469 Z M 19.988281 -27.816406 C 19.988281 -36.804688 26.230469 -43.257812 35.324219 -43.257812 C 44.316406 -43.257812 50.554688 -36.804688 50.554688 -27.816406 C 50.554688 -18.71875 44.316406 -12.375 35.324219 -12.375 C 26.230469 -12.375 19.988281 -18.71875 19.988281 -27.816406 Z M 19.988281 -27.816406 "/></g></g></g><g fill="#000000" fill-opacity="1"><g transform="translate(2656.571489, 432.957456)"><g><path d="M 34.265625 1.480469 C 47.910156 1.480469 58.699219 -5.5 63.5625 -17.238281 L 47.277344 -17.238281 C 44.632812 -13.539062 39.875 -11.421875 34.585938 -11.421875 C 27.289062 -11.421875 21.574219 -15.546875 20.09375 -23.164062 L 64.621094 -23.164062 C 65.574219 -43.46875 53.515625 -57.007812 34.480469 -57.007812 C 16.5 -57.007812 4.125 -45.054688 4.125 -27.816406 C 4.125 -10.46875 16.394531 1.480469 34.265625 1.480469 Z M 20.199219 -33.316406 C 22 -40.085938 27.5 -44.210938 34.585938 -44.210938 C 41.988281 -44.210938 47.277344 -40.085938 49.074219 -33.316406 Z M 20.199219 -33.316406 "/></g></g></g><g fill="#000000" fill-opacity="1"><g transform="translate(2725.195167, 432.957456)"><g><path d="M 8.039062 0 L 24.113281 0 L 24.113281 -24.539062 C 24.113281 -36.488281 29.71875 -40.929688 38.921875 -40.929688 L 45.054688 -40.929688 L 45.054688 -55.527344 L 39.027344 -55.527344 C 30.882812 -55.527344 25.699219 -53.304688 22.105469 -48.121094 L 19.988281 -55.527344 L 8.039062 -55.527344 Z M 8.039062 0 "/></g></g></g><g fill="#000000" fill-opacity="1"><g transform="translate(2773.834479, 432.957456)"><g><path d="M 29.402344 1.480469 C 44.421875 1.480469 53.515625 -5.078125 53.515625 -15.652344 C 53.515625 -24.75 46.746094 -30.566406 33 -33.316406 C 23.480469 -35.21875 20.519531 -36.804688 20.519531 -40.191406 C 20.519531 -43.46875 23.480469 -45.371094 28.238281 -45.371094 C 33.632812 -45.371094 36.910156 -42.941406 37.230469 -38.710938 L 52.566406 -38.710938 C 51.824219 -50.449219 43.152344 -57.007812 28.34375 -57.007812 C 13.433594 -57.007812 4.972656 -50.976562 4.972656 -40.191406 C 4.972656 -30.988281 11.316406 -25.488281 25.488281 -22.949219 C 34.054688 -21.46875 37.652344 -19.25 37.652344 -15.757812 C 37.652344 -12.480469 34.691406 -10.46875 29.613281 -10.46875 C 23.691406 -10.46875 20.09375 -13.328125 19.988281 -17.875 L 4.230469 -17.875 C 4.230469 -6.238281 14.171875 1.480469 29.402344 1.480469 Z M 29.402344 1.480469 "/></g></g></g><g fill="#000000" fill-opacity="1"><g transform="translate(2831.67296, 432.957456)"><g><path d="M 34.796875 0 L 44.949219 0 L 44.949219 -13.960938 L 38.285156 -13.960938 C 31.941406 -13.960938 28.980469 -17.027344 28.980469 -23.480469 L 28.980469 -42.410156 L 44.210938 -42.410156 L 44.210938 -55.527344 L 28.980469 -55.527344 L 28.980469 -69.910156 L 16.5 -69.910156 L 15.546875 -62.71875 C 14.703125 -57.007812 13.113281 -55.527344 7.085938 -55.527344 L 2.117188 -55.527344 L 2.117188 -42.410156 L 12.902344 -42.410156 L 12.902344 -21.046875 C 12.902344 -7.507812 20.730469 0 34.796875 0 Z M 34.796875 0 "/></g></g></g><g fill="#000000" fill-opacity="1"><g transform="translate(2881.05242, 432.957456)"><g><path d="M 26.546875 1.058594 C 34.796875 1.058594 41.566406 -1.585938 46.324219 -6.453125 L 48.121094 0 L 60.074219 0 L 60.074219 -33.421875 C 60.074219 -48.121094 50.132812 -57.007812 33.527344 -57.007812 C 19.355469 -57.007812 10.046875 -50.238281 8.039062 -38.179688 L 23.480469 -38.179688 C 24.429688 -42.09375 28.449219 -44.738281 33.632812 -44.738281 C 39.980469 -44.738281 44.316406 -41.140625 44.316406 -35.640625 L 44.316406 -33.105469 L 24.21875 -33.105469 C 12.691406 -33.105469 5.289062 -26.441406 5.289062 -16.183594 C 5.289062 -5.5 13.433594 1.058594 26.546875 1.058594 Z M 21.152344 -16.816406 C 21.152344 -20.625 24.324219 -23.054688 29.191406 -23.054688 L 44.421875 -23.054688 C 44.105469 -15.546875 38.285156 -10.46875 30.25 -10.46875 C 24.75 -10.46875 21.152344 -13.007812 21.152344 -16.816406 Z M 21.152344 -16.816406 "/></g></g></g><g fill="#000000" fill-opacity="1"><g transform="translate(2948.090066, 432.957456)"><g><path d="M 8.039062 0 L 24.113281 0 L 24.113281 -29.085938 C 24.113281 -37.863281 28.980469 -43.257812 36.382812 -43.257812 C 43.257812 -43.257812 47.382812 -38.390625 47.382812 -30.25 L 47.382812 0 L 63.457031 0 L 63.457031 -31.941406 C 63.457031 -47.277344 54.679688 -57.007812 40.191406 -57.007812 C 32.785156 -57.007812 26.125 -54.46875 21.679688 -49.285156 L 19.988281 -55.527344 L 8.039062 -55.527344 Z M 8.039062 0 "/></g></g></g><g fill="#000000" fill-opacity="1"><g transform="translate(3018.511291, 432.957456)"><g><path d="M 32.363281 1.480469 C 40.402344 1.480469 47.277344 -1.375 52.246094 -6.347656 L 54.152344 0 L 66.101562 0 L 66.101562 -78.265625 L 50.027344 -78.265625 L 50.027344 -51.191406 C 45.265625 -54.890625 39.238281 -57.007812 32.363281 -57.007812 C 15.863281 -57.007812 4.125 -44.84375 4.125 -27.816406 C 4.125 -10.578125 15.863281 1.480469 32.363281 1.480469 Z M 19.988281 -27.816406 C 19.988281 -36.804688 26.230469 -43.257812 35.324219 -43.257812 C 44.316406 -43.257812 50.554688 -36.804688 50.554688 -27.816406 C 50.554688 -18.71875 44.316406 -12.375 35.324219 -12.375 C 26.230469 -12.375 19.988281 -18.71875 19.988281 -27.816406 Z M 19.988281 -27.816406 "/></g></g></g><g fill="#000000" fill-opacity="1"><g transform="translate(3092.63335, 432.957456)"><g><path d="M 8.039062 0 L 24.113281 0 L 24.113281 -55.527344 L 8.039062 -55.527344 Z M 5.710938 -73.507812 C 5.710938 -67.582031 9.941406 -63.457031 16.074219 -63.457031 C 22.210938 -63.457031 26.441406 -67.582031 26.441406 -73.507812 C 26.441406 -79.429688 22.210938 -83.554688 16.074219 -83.554688 C 9.941406 -83.554688 5.710938 -79.429688 5.710938 -73.507812 Z M 5.710938 -73.507812 "/></g></g></g><g fill="#000000" fill-opacity="1"><g transform="translate(3124.777566, 432.957456)"><g><path d="M 8.039062 0 L 24.113281 0 L 24.113281 -29.085938 C 24.113281 -37.863281 28.980469 -43.257812 36.382812 -43.257812 C 43.257812 -43.257812 47.382812 -38.390625 47.382812 -30.25 L 47.382812 0 L 63.457031 0 L 63.457031 -31.941406 C 63.457031 -47.277344 54.679688 -57.007812 40.191406 -57.007812 C 32.785156 -57.007812 26.125 -54.46875 21.679688 -49.285156 L 19.988281 -55.527344 L 8.039062 -55.527344 Z M 8.039062 0 "/></g></g></g><g fill="#000000" fill-opacity="1"><g transform="translate(3195.198792, 432.957456)"><g><path d="M 35.113281 23.480469 C 52.882812 23.480469 64.199219 13.539062 64.199219 -3.066406 L 64.199219 -55.527344 L 52.246094 -55.527344 L 50.554688 -49.390625 C 45.691406 -54.257812 38.921875 -57.007812 30.988281 -57.007812 C 15.335938 -57.007812 4.125 -45.480469 4.125 -29.296875 C 4.125 -13.007812 15.335938 -1.480469 30.988281 -1.480469 C 37.652344 -1.480469 43.574219 -3.488281 48.121094 -6.980469 L 48.121094 -3.066406 C 48.121094 5.921875 43.574219 10.46875 34.796875 10.46875 C 28.132812 10.46875 23.691406 7.722656 22.527344 2.855469 L 6.875 2.855469 C 8.25 15.652344 19.039062 23.480469 35.113281 23.480469 Z M 19.988281 -29.296875 C 19.988281 -37.757812 25.914062 -43.679688 34.375 -43.679688 C 42.835938 -43.679688 48.863281 -37.757812 48.863281 -29.296875 C 48.863281 -20.730469 42.835938 -14.808594 34.375 -14.808594 C 25.914062 -14.808594 19.988281 -20.730469 19.988281 -29.296875 Z M 19.988281 -29.296875 "/></g></g></g></svg>