<svg xmlns="http://www.w3.org/2000/svg" xmlns:xlink="http://www.w3.org/1999/xlink" width="4490" zoomAndPan="magnify" viewBox="0 0 3367.5 1134.000005" height="1511" preserveAspectRatio="xMidYMid meet" version="1.0"><defs><g/><clipPath id="6398d9d559"><path d="M 114.535156 254 L 264 254 L 264 403.667969 L 114.535156 403.667969 Z M 114.535156 254 " clip-rule="nonzero"/></clipPath><clipPath id="3c391b94c6"><path d="M 149 235 L 293.65625 235 L 293.65625 354 L 149 354 Z M 149 235 " clip-rule="nonzero"/></clipPath><clipPath id="9cb78bf20c"><path d="M 114.535156 514 L 264 514 L 264 663 L 114.535156 663 Z M 114.535156 514 " clip-rule="nonzero"/></clipPath><clipPath id="6874de8fe3"><path d="M 149 494 L 293.65625 494 L 293.65625 613 L 149 613 Z M 149 494 " clip-rule="nonzero"/></clipPath><clipPath id="b7accbf592"><path d="M 1854.167969 900 L 1907 900 L 1907 976 L 1854.167969 976 Z M 1854.167969 900 " clip-rule="nonzero"/></clipPath><clipPath id="cbc2c749d8"><path d="M 2456 115 L 2545.910156 115 L 2545.910156 187 L 2456 187 Z M 2456 115 " clip-rule="nonzero"/></clipPath><clipPath id="80e62f2b99"><path d="M 114.535156 774 L 264 774 L 264 922.972656 L 114.535156 922.972656 Z M 114.535156 774 " clip-rule="nonzero"/></clipPath><clipPath id="e62096d763"><path d="M 149 754 L 293.65625 754 L 293.65625 873 L 149 873 Z M 149 754 " clip-rule="nonzero"/></clipPath></defs><g clip-path="url(#6398d9d559)"><path fill="#83c5be" d="M 244.46875 310.570312 L 244.46875 384.765625 L 133.097656 384.765625 L 133.097656 273.46875 L 229.097656 273.46875 L 247.660156 254.921875 L 114.535156 254.921875 L 114.535156 403.316406 L 263.027344 403.316406 L 263.027344 292.011719 Z M 244.46875 310.570312 " fill-opacity="1" fill-rule="nonzero"/></g><g clip-path="url(#3c391b94c6)"><path fill="#83c5be" d="M 188.78125 326.863281 L 162.527344 300.625 L 149.402344 313.742188 L 188.78125 353.101562 L 293.777344 248.160156 L 280.652344 235.042969 Z M 188.78125 326.863281 " fill-opacity="1" fill-rule="nonzero"/></g><g clip-path="url(#9cb78bf20c)"><path fill="#83c5be" d="M 244.46875 570.222656 L 244.46875 644.417969 L 133.097656 644.417969 L 133.097656 533.121094 L 229.097656 533.121094 L 247.660156 514.574219 L 114.535156 514.574219 L 114.535156 662.96875 L 263.027344 662.96875 L 263.027344 551.664062 Z M 244.46875 570.222656 " fill-opacity="1" fill-rule="nonzero"/></g><g clip-path="url(#6874de8fe3)"><path fill="#83c5be" d="M 188.78125 586.515625 L 162.527344 560.277344 L 149.402344 573.394531 L 188.78125 612.753906 L 293.777344 507.8125 L 280.652344 494.695312 Z M 188.78125 586.515625 " fill-opacity="1" fill-rule="nonzero"/></g><path fill="#f1473a" d="M 1983.558594 579.59375 C 1982.550781 574.914062 1979.335938 570.132812 1979.757812 566.363281 C 1981.347656 552.707031 1973.097656 548.582031 1962.765625 545.167969 C 1919.234375 530.699219 1874.925781 519.582031 1829.316406 514.054688 C 1813.007812 512.070312 1808.980469 516.460938 1812.585938 532.488281 C 1813.039062 534.472656 1813.789062 536.390625 1814.339844 538.371094 C 1816.125 545.035156 1821.097656 548.09375 1827.238281 546.953125 C 1833.246094 545.816406 1838.640625 547.246094 1844.128906 548.351562 C 1858.195312 551.148438 1872.132812 554.398438 1886.132812 557.488281 C 1886.554688 558.234375 1886.621094 559.015625 1886.328125 559.828125 C 1871.222656 561.128906 1856.148438 562.917969 1841.042969 563.601562 C 1802.289062 565.324219 1764.214844 574.621094 1725.003906 572.800781 C 1706.355469 571.953125 1687.417969 575.042969 1668.804688 577.707031 C 1654.152344 579.820312 1639.304688 578.714844 1624.816406 581.804688 C 1617.441406 583.367188 1616.078125 585.25 1620.433594 591.265625 C 1629.074219 603.292969 1638.105469 615.257812 1656.003906 611.390625 C 1659.15625 610.707031 1662.535156 611.0625 1665.816406 610.707031 C 1696.382812 607.617188 1727.050781 605.894531 1757.683594 603.945312 C 1790.789062 601.832031 1823.890625 599.589844 1856.992188 597.3125 C 1868.039062 596.566406 1879.050781 595.523438 1891.167969 594.550781 C 1887.789062 599.976562 1883.402344 601.570312 1879.796875 604.042969 C 1867.582031 612.398438 1856.734375 622.34375 1845.527344 631.933594 C 1828.40625 646.566406 1835.746094 666.070312 1844.097656 678.035156 C 1845.65625 680.277344 1847.667969 681.546875 1849.847656 678.488281 C 1856.441406 669.257812 1866.25 663.792969 1875.25 657.488281 C 1901.042969 639.347656 1928.070312 623.125 1955.101562 606.902344 C 1962.117188 602.675781 1969.167969 598.515625 1976.214844 594.417969 C 1981.964844 591.101562 1985.28125 587.496094 1983.558594 579.59375 Z M 1891.136719 558.074219 C 1891.332031 557.976562 1891.527344 557.941406 1891.71875 557.78125 C 1891.589844 557.941406 1891.429688 558.039062 1891.265625 558.136719 C 1891.234375 558.136719 1891.199219 558.105469 1891.136719 558.074219 Z M 1891.136719 558.074219 " fill-opacity="1" fill-rule="nonzero"/><path fill="#ffa400" d="M 1900.621094 971.433594 L 1857.847656 905.699219 C 1860.148438 903.863281 1862.90625 902.480469 1865.664062 900.644531 C 1868.886719 898.804688 1872.105469 896.507812 1874.863281 894.667969 L 1929.136719 859.273438 L 1955.8125 899.722656 L 1913.5 920.871094 C 1913.5 920.871094 1911.660156 941.554688 1910.738281 954.886719 C 1910.28125 958.105469 1909.359375 961.320312 1907.980469 964.078125 C 1905.679688 966.839844 1903.378906 969.597656 1900.621094 971.433594 Z M 1900.621094 971.433594 " fill-opacity="1" fill-rule="nonzero"/><g clip-path="url(#b7accbf592)"><path fill="#15203d" d="M 1900.160156 975.570312 L 1854.167969 905.242188 C 1856.46875 903.863281 1858.765625 902.023438 1861.527344 900.183594 L 1906.140625 968.675781 C 1904.761719 971.433594 1902.921875 973.734375 1900.160156 975.570312 Z M 1900.160156 975.570312 " fill-opacity="1" fill-rule="nonzero"/></g><path fill="#80a5f8" d="M 2202.339844 624.375 C 2193.140625 639.082031 2183.941406 653.792969 2174.28125 668.042969 C 2159.105469 690.570312 2143.007812 713.09375 2125.988281 734.238281 C 2070.335938 804.570312 2006.40625 868.007812 1935.574219 922.707031 C 1932.355469 919.949219 1929.597656 916.734375 1926.835938 913.972656 C 1916.257812 903.402344 1906.140625 891.910156 1896.941406 879.957031 C 1894.640625 876.738281 1892.34375 873.980469 1890.042969 870.765625 C 1887.742188 867.546875 1884.984375 863.867188 1886.363281 859.730469 C 1887.28125 856.972656 1889.582031 854.675781 1891.882812 852.835938 C 1925.457031 827.554688 1955.8125 798.132812 1983.871094 766.875 C 2018.824219 727.804688 2052.398438 686.890625 2077.695312 641.382812 C 2102.992188 595.875 2108.511719 544.390625 2136.566406 499.800781 C 2137.027344 498.878906 2137.949219 497.960938 2138.40625 496.582031 C 2146.226562 485.089844 2154.964844 477.734375 2165.082031 474.515625 C 2176.121094 470.839844 2188.539062 471.757812 2203.71875 476.816406 C 2222.117188 482.792969 2235.914062 498.878906 2241.433594 517.726562 C 2242.8125 522.324219 2243.734375 526.921875 2243.734375 531.058594 C 2246.492188 566.453125 2219.816406 595.414062 2202.339844 624.375 Z M 2202.339844 624.375 " fill-opacity="1" fill-rule="nonzero"/><path fill="#ffa400" d="M 2256.609375 1061.53125 C 2246.03125 1053.71875 2229.476562 1041.765625 2229.015625 1041.304688 L 2230.855469 1018.324219 C 2215.675781 1018.78125 2200.5 1019.242188 2185.320312 1019.242188 L 2186.699219 1059.695312 C 2186.699219 1062.910156 2186.699219 1066.589844 2187.160156 1070.726562 C 2187.160156 1073.945312 2187.621094 1077.160156 2187.621094 1079.921875 L 2265.808594 1077.621094 C 2265.347656 1074.402344 2264.429688 1071.1875 2263.050781 1068.429688 C 2261.210938 1066.128906 2258.910156 1063.371094 2256.609375 1061.53125 Z M 2256.609375 1061.53125 " fill-opacity="1" fill-rule="nonzero"/><path fill="#15203d" d="M 2269.027344 1080.378906 L 2184.859375 1083.136719 C 2184.859375 1080.378906 2184.402344 1077.621094 2184.402344 1074.402344 L 2265.808594 1071.644531 C 2267.648438 1074.402344 2268.570312 1077.621094 2269.027344 1080.378906 Z M 2269.027344 1080.378906 " fill-opacity="1" fill-rule="nonzero"/><path fill="#80a5f8" d="M 2255.230469 926.84375 C 2253.390625 950.75 2261.210938 999.015625 2243.273438 1017.402344 C 2230.855469 1030.273438 2209.699219 1029.816406 2191.761719 1027.976562 C 2184.859375 1027.054688 2177.042969 1026.136719 2172.441406 1021.082031 C 2159.105469 1005.910156 2170.601562 936.039062 2171.523438 916.273438 C 2173.363281 878.578125 2177.042969 840.886719 2178.421875 803.191406 C 2180.261719 758.140625 2178.882812 713.09375 2174.742188 668.042969 C 2172.902344 647.816406 2171.0625 628.050781 2168.304688 607.824219 C 2164.625 578.40625 2159.566406 546.6875 2160.023438 516.347656 C 2160.484375 502.558594 2161.863281 488.765625 2165.542969 475.4375 C 2166.003906 473.597656 2166.464844 471.757812 2166.921875 469.921875 C 2176.121094 440.5 2195.898438 452.914062 2221.195312 452.453125 C 2244.652344 451.992188 2264.890625 469.460938 2275.007812 490.605469 C 2280.988281 503.9375 2283.746094 518.1875 2284.667969 532.898438 C 2285.125 541.632812 2285.585938 550.363281 2285.585938 559.097656 C 2285.585938 626.210938 2279.148438 693.328125 2266.730469 759.519531 C 2255.691406 814.683594 2259.371094 870.765625 2255.230469 926.84375 Z M 2255.230469 926.84375 " fill-opacity="1" fill-rule="nonzero"/><path fill="#15203d" d="M 2284.207031 526.460938 C 2279.609375 526.460938 2275.007812 526.460938 2270.410156 526 C 2262.589844 525.542969 2253.851562 525.542969 2244.191406 525.082031 C 2216.597656 524.164062 2183.019531 521.40625 2160.023438 509.453125 C 2154.046875 506.234375 2148.984375 502.558594 2144.386719 498.421875 C 2142.085938 496.121094 2140.246094 493.824219 2138.867188 491.066406 C 2146.6875 479.574219 2155.425781 472.21875 2165.542969 469 C 2166.003906 467.164062 2166.464844 465.324219 2166.921875 463.484375 C 2176.121094 434.066406 2195.898438 446.476562 2221.195312 446.015625 C 2244.652344 445.558594 2264.890625 463.023438 2275.007812 484.171875 C 2280.527344 497.5 2283.285156 511.75 2284.207031 526.460938 Z M 2284.207031 526.460938 " fill-opacity="1" fill-rule="nonzero"/><path fill="#f8c208" d="M 2261.671875 258.464844 L 2249.25 298.917969 L 2201.417969 298.917969 L 2233.152344 265.363281 L 2217.054688 264.441406 L 2237.753906 253.871094 L 2237.753906 253.410156 L 2246.492188 255.25 L 2247.414062 255.707031 Z M 2261.671875 258.464844 " fill-opacity="1" fill-rule="nonzero"/><path fill="#15203d" d="M 2260.289062 263.523438 L 2255.230469 280.53125 C 2249.710938 277.773438 2246.03125 272.714844 2245.574219 266.28125 C 2245.574219 264.441406 2245.574219 262.605469 2246.03125 260.765625 Z M 2260.289062 263.523438 " fill-opacity="1" fill-rule="nonzero"/><path fill="#f8c208" d="M 2052.398438 626.210938 C 2052.398438 626.210938 2052.859375 625.753906 2052.859375 625.753906 C 2053.320312 625.753906 2053.320312 625.753906 2053.320312 625.753906 C 2052.398438 628.972656 2050.558594 634.488281 2046.878906 641.84375 C 2045.5 644.140625 2047.339844 644.140625 2047.800781 644.140625 C 2048.261719 644.140625 2051.941406 639.082031 2053.78125 636.324219 C 2055.617188 632.1875 2057.457031 628.511719 2058.378906 624.832031 C 2058.378906 624.832031 2058.839844 624.375 2058.839844 624.375 C 2059.296875 624.375 2059.296875 624.375 2059.296875 624.375 C 2057.917969 630.351562 2055.160156 636.324219 2051.019531 642.300781 C 2050.558594 642.761719 2050.558594 643.222656 2051.480469 643.679688 C 2052.859375 644.140625 2058.378906 635.867188 2059.296875 634.488281 C 2060.679688 632.648438 2062.058594 630.351562 2062.976562 628.050781 C 2067.578125 617.480469 2068.039062 605.527344 2067.578125 594.035156 C 2067.578125 584.839844 2069.417969 575.1875 2066.65625 565.996094 C 2066.199219 563.695312 2064.816406 561.855469 2062.976562 560.9375 C 2061.136719 560.019531 2059.296875 560.476562 2057.457031 561.398438 C 2055.617188 562.316406 2054.699219 564.15625 2053.320312 565.535156 C 2048.71875 572.890625 2046.878906 581.625 2045.039062 590.359375 C 2043.199219 598.171875 2040.902344 604.609375 2040.441406 612.882812 C 2040.441406 615.640625 2040.441406 618.398438 2040.441406 621.617188 C 2040.441406 622.074219 2040.441406 622.074219 2040.441406 622.535156 C 2040.902344 622.996094 2041.820312 622.535156 2042.28125 621.617188 C 2043.660156 619.316406 2044.121094 616.558594 2045.039062 613.800781 C 2045.5 612.882812 2045.960938 611.960938 2046.878906 610.582031 C 2046.878906 611.503906 2046.878906 612.882812 2046.878906 613.800781 C 2046.878906 622.074219 2045.5 630.808594 2040.902344 640.003906 C 2040.441406 641.382812 2039.980469 642.300781 2040.441406 643.222656 C 2041.359375 644.140625 2041.820312 643.679688 2042.28125 643.222656 C 2047.339844 638.164062 2051.480469 629.890625 2052.398438 626.210938 Z M 2052.398438 626.210938 " fill-opacity="1" fill-rule="nonzero"/><path fill="#b4b7ef" d="M 2061.597656 584.839844 C 2053.320312 582.542969 2045.5 579.785156 2037.222656 577.488281 C 2035.382812 577.027344 2033.082031 576.105469 2032.164062 574.269531 C 2028.941406 568.753906 2036.761719 545.308594 2037.679688 538.875 C 2040.441406 524.164062 2042.742188 509.453125 2045.5 494.742188 C 2051.941406 459.347656 2064.359375 431.308594 2085.054688 402.347656 C 2115.871094 357.757812 2159.105469 316.847656 2211.078125 302.597656 C 2219.816406 300.296875 2229.476562 298.457031 2238.214844 300.757812 C 2246.492188 303.054688 2257.070312 311.789062 2257.992188 321.441406 C 2257.992188 322.820312 2257.992188 323.742188 2257.992188 325.121094 C 2256.609375 336.613281 2243.734375 348.5625 2235.914062 355.460938 C 2209.699219 378.445312 2177.503906 392.234375 2150.824219 413.378906 C 2125.527344 433.605469 2106.671875 462.566406 2096.09375 492.90625 C 2086.894531 521.40625 2084.59375 553.582031 2072.636719 580.703125 C 2071.71875 583.003906 2070.335938 584.839844 2068.496094 585.761719 C 2066.65625 586.21875 2064.816406 585.761719 2062.519531 585.300781 C 2062.058594 584.839844 2061.597656 584.839844 2061.597656 584.839844 Z M 2061.597656 584.839844 " fill-opacity="1" fill-rule="nonzero"/><path fill="#cddbfc" d="M 2177.042969 313.167969 C 2168.761719 318.683594 2163.242188 325.582031 2157.265625 332.015625 C 2122.769531 368.332031 2147.605469 412.917969 2139.789062 456.589844 C 2137.488281 468.082031 2123.230469 481.871094 2131.96875 491.066406 C 2139.789062 499.339844 2153.125 501.640625 2165.542969 502.558594 C 2188.539062 504.398438 2211.539062 503.9375 2234.535156 501.179688 C 2254.769531 498.878906 2276.386719 493.824219 2289.726562 480.953125 C 2322.839844 448.773438 2306.742188 366.953125 2298.925781 329.257812 C 2297.546875 322.363281 2295.707031 315.007812 2289.265625 309.949219 C 2257.070312 283.75 2206.9375 293.402344 2177.042969 313.167969 Z M 2177.042969 313.167969 " fill-opacity="1" fill-rule="nonzero"/><g clip-path="url(#cbc2c749d8)"><path fill="#f8c208" d="M 2501.296875 127.917969 C 2491.179688 133.890625 2483.359375 143.546875 2474.160156 151.359375 C 2472.78125 152.28125 2471.859375 153.660156 2470.480469 154.578125 C 2465.882812 158.714844 2461.28125 162.394531 2456.683594 166.53125 C 2463.582031 174.34375 2470.941406 181.238281 2479.21875 186.753906 C 2481.980469 183.539062 2484.738281 180.320312 2487.5 177.5625 C 2491.179688 173.882812 2494.855469 170.667969 2498.535156 167.910156 C 2508.195312 160.554688 2516.472656 150.441406 2526.132812 142.625 C 2526.132812 142.625 2526.59375 142.625 2526.59375 142.167969 C 2529.8125 139.867188 2533.492188 137.570312 2536.710938 136.191406 C 2539.011719 134.8125 2542.691406 134.351562 2544.53125 132.054688 C 2544.992188 131.59375 2544.53125 130.675781 2543.609375 130.675781 C 2536.25 132.511719 2527.972656 135.730469 2521.992188 139.867188 C 2521.535156 140.328125 2521.074219 139.867188 2520.613281 139.410156 C 2520.152344 138.949219 2520.613281 138.488281 2521.074219 138.03125 C 2527.972656 133.433594 2537.171875 130.214844 2545.449219 127.917969 C 2545.910156 127.917969 2545.910156 127.457031 2545.910156 126.996094 C 2545.910156 126.539062 2545.910156 126.078125 2545.910156 125.160156 C 2545.910156 124.699219 2545.449219 124.238281 2544.992188 124.238281 C 2537.171875 125.617188 2528.433594 128.835938 2519.234375 133.890625 C 2518.773438 134.351562 2518.3125 133.890625 2517.855469 133.433594 C 2517.855469 132.972656 2517.855469 132.511719 2518.3125 132.054688 C 2527.511719 126.996094 2536.25 123.777344 2544.53125 121.941406 C 2544.992188 121.941406 2545.449219 121.480469 2544.992188 121.019531 C 2544.992188 120.5625 2544.992188 120.5625 2544.53125 120.101562 C 2544.53125 119.640625 2544.070312 119.640625 2543.609375 119.640625 C 2534.410156 121.019531 2524.753906 123.777344 2516.472656 128.375 C 2516.015625 128.835938 2515.554688 128.375 2515.09375 127.917969 C 2515.09375 127.457031 2515.09375 126.996094 2515.554688 126.539062 C 2523.832031 121.941406 2532.570312 119.183594 2541.3125 117.804688 C 2542.230469 117.804688 2542.230469 116.882812 2541.769531 116.425781 C 2540.390625 115.503906 2537.171875 115.503906 2536.25 115.964844 C 2527.054688 116.425781 2517.394531 119.183594 2508.195312 123.320312 C 2506.355469 125.160156 2503.597656 126.539062 2501.296875 127.917969 Z M 2501.296875 127.917969 " fill-opacity="1" fill-rule="nonzero"/></g><path fill="#cddbfc" d="M 2457.144531 162.851562 C 2445.183594 176.644531 2435.527344 194.109375 2423.566406 207.441406 C 2390.453125 245.136719 2351.359375 279.152344 2302.605469 294.320312 C 2277.308594 302.136719 2250.171875 304.433594 2227.175781 316.386719 C 2219.816406 320.0625 2211.996094 327.417969 2214.757812 335.234375 C 2215.675781 338.453125 2218.4375 340.75 2220.734375 342.589844 C 2242.351562 359.136719 2273.167969 357.757812 2299.84375 351.78125 C 2384.011719 332.015625 2456.222656 268.578125 2488.417969 189.054688 C 2498.996094 162.851562 2504.976562 124.699219 2471.402344 149.519531 C 2466.339844 153.660156 2461.742188 158.253906 2457.144531 162.851562 Z M 2457.144531 162.851562 " fill-opacity="1" fill-rule="nonzero"/><path fill="#f8c208" d="M 2280.527344 237.320312 C 2275.929688 229.046875 2272.25 202.84375 2257.070312 212.039062 C 2253.390625 214.335938 2246.492188 224.910156 2243.734375 229.046875 C 2239.59375 235.480469 2237.292969 242.835938 2236.375 250.652344 C 2235.914062 254.328125 2236.375 258.464844 2237.753906 262.144531 C 2240.054688 267.660156 2245.574219 271.335938 2251.089844 272.714844 C 2267.648438 276.855469 2281.90625 270.417969 2280.527344 250.652344 C 2280.527344 248.8125 2280.066406 246.515625 2280.527344 244.675781 C 2280.527344 243.757812 2280.988281 243.296875 2281.449219 242.378906 C 2282.367188 241.457031 2282.367188 240.078125 2281.449219 239.160156 C 2280.988281 238.242188 2280.527344 237.78125 2280.527344 237.320312 Z M 2280.527344 237.320312 " fill-opacity="1" fill-rule="nonzero"/><path fill="#15203d" d="M 2265.347656 210.199219 C 2263.96875 208.359375 2258.910156 206.980469 2257.070312 206.523438 C 2251.089844 205.144531 2245.113281 205.144531 2239.132812 206.523438 C 2232.695312 208.359375 2226.253906 211.578125 2221.195312 216.636719 C 2201.417969 235.480469 2184.402344 256.628906 2159.5625 269.957031 C 2137.488281 281.910156 2111.730469 288.347656 2095.171875 307.191406 C 2082.753906 320.984375 2077.695312 340.289062 2077.234375 358.675781 C 2077.234375 373.847656 2080.914062 389.9375 2092.414062 399.589844 C 2102.53125 408.324219 2117.25 409.703125 2130.589844 406.484375 C 2143.925781 403.265625 2154.964844 395.910156 2165.542969 387.636719 C 2175.203125 379.824219 2184.859375 371.089844 2191.300781 360.515625 C 2201.417969 344.425781 2205.097656 325.121094 2211.078125 307.191406 C 2216.136719 291.5625 2223.496094 280.992188 2233.613281 268.121094 C 2246.953125 250.652344 2248.332031 246.515625 2255.230469 223.988281 C 2256.609375 219.851562 2258.449219 216.175781 2261.671875 213.878906 C 2265.808594 211.578125 2267.1875 212.957031 2265.347656 210.199219 Z M 2265.347656 210.199219 " fill-opacity="1" fill-rule="nonzero"/><path fill="#15203d" d="M 2272.707031 253.871094 C 2271.789062 253.871094 2271.328125 253.871094 2270.410156 253.410156 C 2269.027344 252.492188 2267.648438 251.113281 2268.109375 249.273438 L 2269.949219 249.273438 C 2269.949219 250.652344 2270.410156 251.570312 2271.328125 252.03125 C 2272.707031 252.492188 2274.089844 252.492188 2275.46875 251.113281 L 2276.847656 252.492188 C 2275.46875 252.949219 2274.089844 253.871094 2272.707031 253.871094 Z M 2272.707031 253.871094 " fill-opacity="1" fill-rule="nonzero"/><path fill="#15203d" d="M 2271.789062 236.402344 C 2272.707031 236.402344 2273.167969 235.480469 2273.167969 234.5625 C 2273.167969 233.644531 2272.25 233.183594 2271.328125 233.183594 C 2270.410156 233.183594 2269.949219 234.101562 2269.949219 235.023438 C 2270.410156 235.941406 2271.328125 236.402344 2271.789062 236.402344 Z M 2271.789062 236.402344 " fill-opacity="1" fill-rule="nonzero"/><path fill="#f6c50a" d="M 2257.992188 241.457031 C 2257.992188 242.09375 2257.929688 242.71875 2257.804688 243.339844 C 2257.679688 243.964844 2257.496094 244.566406 2257.253906 245.152344 C 2257.011719 245.738281 2256.714844 246.292969 2256.363281 246.820312 C 2256.011719 247.347656 2255.609375 247.835938 2255.160156 248.285156 C 2254.714844 248.730469 2254.226562 249.132812 2253.699219 249.484375 C 2253.171875 249.835938 2252.613281 250.132812 2252.027344 250.375 C 2251.441406 250.621094 2250.839844 250.800781 2250.214844 250.925781 C 2249.59375 251.050781 2248.964844 251.113281 2248.332031 251.113281 C 2247.699219 251.113281 2247.070312 251.050781 2246.449219 250.925781 C 2245.824219 250.800781 2245.222656 250.621094 2244.636719 250.375 C 2244.050781 250.132812 2243.492188 249.835938 2242.964844 249.484375 C 2242.4375 249.132812 2241.949219 248.730469 2241.503906 248.285156 C 2241.054688 247.835938 2240.652344 247.347656 2240.300781 246.820312 C 2239.949219 246.292969 2239.652344 245.738281 2239.410156 245.152344 C 2239.164062 244.566406 2238.984375 243.964844 2238.859375 243.339844 C 2238.734375 242.71875 2238.671875 242.09375 2238.671875 241.457031 C 2238.671875 240.824219 2238.734375 240.195312 2238.859375 239.574219 C 2238.984375 238.953125 2239.164062 238.347656 2239.410156 237.765625 C 2239.652344 237.179688 2239.949219 236.621094 2240.300781 236.09375 C 2240.652344 235.566406 2241.054688 235.082031 2241.503906 234.632812 C 2241.949219 234.183594 2242.4375 233.785156 2242.964844 233.429688 C 2243.492188 233.078125 2244.050781 232.78125 2244.636719 232.539062 C 2245.222656 232.296875 2245.824219 232.113281 2246.449219 231.988281 C 2247.070312 231.867188 2247.699219 231.804688 2248.332031 231.804688 C 2248.964844 231.804688 2249.59375 231.867188 2250.214844 231.988281 C 2250.839844 232.113281 2251.441406 232.296875 2252.027344 232.539062 C 2252.613281 232.78125 2253.171875 233.078125 2253.699219 233.429688 C 2254.226562 233.785156 2254.714844 234.183594 2255.160156 234.632812 C 2255.609375 235.082031 2256.011719 235.566406 2256.363281 236.09375 C 2256.714844 236.621094 2257.011719 237.179688 2257.253906 237.765625 C 2257.496094 238.347656 2257.679688 238.953125 2257.804688 239.574219 C 2257.929688 240.195312 2257.992188 240.824219 2257.992188 241.457031 Z M 2257.992188 241.457031 " fill-opacity="1" fill-rule="nonzero"/><g fill="#000000" fill-opacity="1"><g transform="translate(288.71923, 346.183508)"><g><path d="M 7.167969 0 L 20.738281 0 L 20.738281 -20.566406 L 42.414062 -20.566406 L 42.414062 -32.511719 L 20.738281 -32.511719 L 20.738281 -47.449219 L 44.632812 -47.449219 L 44.632812 -59.734375 L 7.167969 -59.734375 Z M 7.167969 0 "/></g></g></g><g fill="#000000" fill-opacity="1"><g transform="translate(337.098353, 346.183508)"><g><path d="M 6.484375 0 L 19.457031 0 L 19.457031 -44.800781 L 6.484375 -44.800781 Z M 4.609375 -59.308594 C 4.609375 -54.53125 8.023438 -51.203125 12.972656 -51.203125 C 17.921875 -51.203125 21.335938 -54.53125 21.335938 -59.308594 C 21.335938 -64.089844 17.921875 -67.417969 12.972656 -67.417969 C 8.023438 -67.417969 4.609375 -64.089844 4.609375 -59.308594 Z M 4.609375 -59.308594 "/></g></g></g><g fill="#000000" fill-opacity="1"><g transform="translate(363.03706, 346.183508)"><g><path d="M 6.484375 0 L 19.457031 0 L 19.457031 -23.46875 C 19.457031 -30.550781 23.382812 -34.902344 29.355469 -34.902344 C 34.902344 -34.902344 38.230469 -30.976562 38.230469 -24.40625 L 38.230469 0 L 51.203125 0 L 51.203125 -25.773438 C 51.203125 -38.144531 44.121094 -45.996094 32.429688 -45.996094 C 26.453125 -45.996094 21.078125 -43.949219 17.492188 -39.765625 L 16.128906 -44.800781 L 6.484375 -44.800781 Z M 6.484375 0 "/></g></g></g><g fill="#000000" fill-opacity="1"><g transform="translate(419.863289, 346.183508)"><g><path d="M 28.332031 18.945312 C 42.667969 18.945312 51.800781 10.921875 51.800781 -2.476562 L 51.800781 -44.800781 L 42.15625 -44.800781 L 40.792969 -39.851562 C 36.867188 -43.777344 31.402344 -45.996094 25.003906 -45.996094 C 12.375 -45.996094 3.328125 -36.695312 3.328125 -23.636719 C 3.328125 -10.496094 12.375 -1.195312 25.003906 -1.195312 C 30.378906 -1.195312 35.160156 -2.816406 38.828125 -5.632812 L 38.828125 -2.476562 C 38.828125 4.777344 35.160156 8.449219 28.074219 8.449219 C 22.699219 8.449219 19.117188 6.230469 18.175781 2.304688 L 5.546875 2.304688 C 6.65625 12.628906 15.359375 18.945312 28.332031 18.945312 Z M 16.128906 -23.636719 C 16.128906 -30.464844 20.90625 -35.246094 27.734375 -35.246094 C 34.5625 -35.246094 39.425781 -30.464844 39.425781 -23.636719 C 39.425781 -16.726562 34.5625 -11.945312 27.734375 -11.945312 C 20.90625 -11.945312 16.128906 -16.726562 16.128906 -23.636719 Z M 16.128906 -23.636719 "/></g></g></g><g fill="#000000" fill-opacity="1"><g transform="translate(478.225367, 346.183508)"><g><path d="M 27.648438 1.195312 C 38.65625 1.195312 47.363281 -4.4375 51.289062 -13.910156 L 38.144531 -13.910156 C 36.011719 -10.921875 32.171875 -9.214844 27.90625 -9.214844 C 22.015625 -9.214844 17.410156 -12.542969 16.214844 -18.6875 L 52.140625 -18.6875 C 52.910156 -35.074219 43.179688 -45.996094 27.820312 -45.996094 C 13.3125 -45.996094 3.328125 -36.355469 3.328125 -22.445312 C 3.328125 -8.449219 13.226562 1.195312 27.648438 1.195312 Z M 16.300781 -26.882812 C 17.75 -32.34375 22.1875 -35.671875 27.90625 -35.671875 C 33.878906 -35.671875 38.144531 -32.34375 39.597656 -26.882812 Z M 16.300781 -26.882812 "/></g></g></g><g fill="#000000" fill-opacity="1"><g transform="translate(533.601072, 346.183508)"><g><path d="M 6.484375 0 L 19.457031 0 L 19.457031 -19.796875 C 19.457031 -29.441406 23.980469 -33.027344 31.402344 -33.027344 L 36.355469 -33.027344 L 36.355469 -44.800781 L 31.488281 -44.800781 C 24.917969 -44.800781 20.738281 -43.011719 17.835938 -38.828125 L 16.128906 -44.800781 L 6.484375 -44.800781 Z M 6.484375 0 "/></g></g></g><g fill="#000000" fill-opacity="1"><g transform="translate(572.850419, 346.183508)"><g/></g></g><g fill="#000000" fill-opacity="1"><g transform="translate(592.901707, 346.183508)"><g><path d="M 10.921875 -48.386719 L 10.921875 -44.800781 L 1.960938 -44.800781 L 1.960938 -34.21875 L 10.921875 -34.21875 L 10.921875 0 L 23.894531 0 L 23.894531 -34.21875 L 37.035156 -34.21875 L 37.035156 -44.800781 L 23.636719 -44.800781 L 23.636719 -47.703125 C 23.636719 -52.398438 25.6875 -54.53125 30.378906 -54.53125 L 37.464844 -54.53125 L 37.464844 -64.769531 L 27.5625 -64.769531 C 16.8125 -64.769531 10.921875 -58.96875 10.921875 -48.386719 Z M 10.921875 -48.386719 "/></g></g></g><g fill="#000000" fill-opacity="1"><g transform="translate(631.212498, 346.183508)"><g><path d="M 6.484375 0 L 19.457031 0 L 19.457031 -63.148438 L 6.484375 -63.148438 Z M 6.484375 0 "/></g></g></g><g fill="#000000" fill-opacity="1"><g transform="translate(657.151205, 346.183508)"><g><path d="M 27.648438 1.195312 C 38.65625 1.195312 47.363281 -4.4375 51.289062 -13.910156 L 38.144531 -13.910156 C 36.011719 -10.921875 32.171875 -9.214844 27.90625 -9.214844 C 22.015625 -9.214844 17.410156 -12.542969 16.214844 -18.6875 L 52.140625 -18.6875 C 52.910156 -35.074219 43.179688 -45.996094 27.820312 -45.996094 C 13.3125 -45.996094 3.328125 -36.355469 3.328125 -22.445312 C 3.328125 -8.449219 13.226562 1.195312 27.648438 1.195312 Z M 16.300781 -26.882812 C 17.75 -32.34375 22.1875 -35.671875 27.90625 -35.671875 C 33.878906 -35.671875 38.144531 -32.34375 39.597656 -26.882812 Z M 16.300781 -26.882812 "/></g></g></g><g fill="#000000" fill-opacity="1"><g transform="translate(712.52691, 346.183508)"><g><path d="M 2.046875 0 L 16.980469 0 L 21.847656 -7.167969 L 26.199219 -13.570312 L 30.464844 -7.167969 L 35.328125 0 L 50.261719 0 L 34.390625 -22.785156 L 49.582031 -44.800781 L 34.902344 -44.800781 L 30.292969 -37.976562 L 26.113281 -31.574219 L 17.410156 -44.800781 L 2.730469 -44.800781 L 18.007812 -22.785156 Z M 2.046875 0 "/></g></g></g><g fill="#000000" fill-opacity="1"><g transform="translate(764.830962, 346.183508)"><g><path d="M 6.484375 0 L 19.457031 0 L 19.457031 -44.800781 L 6.484375 -44.800781 Z M 4.609375 -59.308594 C 4.609375 -54.53125 8.023438 -51.203125 12.972656 -51.203125 C 17.921875 -51.203125 21.335938 -54.53125 21.335938 -59.308594 C 21.335938 -64.089844 17.921875 -67.417969 12.972656 -67.417969 C 8.023438 -67.417969 4.609375 -64.089844 4.609375 -59.308594 Z M 4.609375 -59.308594 "/></g></g></g><g fill="#000000" fill-opacity="1"><g transform="translate(790.769669, 346.183508)"><g><path d="M 28.503906 1.195312 C 43.351562 1.195312 53.589844 -8.449219 53.589844 -22.445312 C 53.589844 -36.355469 43.351562 -45.996094 28.503906 -45.996094 C 13.570312 -45.996094 3.328125 -36.355469 3.328125 -22.445312 C 3.328125 -8.449219 13.570312 1.195312 28.503906 1.195312 Z M 16.128906 -22.445312 C 16.128906 -29.78125 21.25 -34.902344 28.503906 -34.902344 C 35.757812 -34.902344 40.792969 -29.78125 40.792969 -22.445312 C 40.792969 -15.105469 35.757812 -9.984375 28.503906 -9.984375 C 21.25 -9.984375 16.128906 -15.105469 16.128906 -22.445312 Z M 16.128906 -22.445312 "/></g></g></g><g fill="#000000" fill-opacity="1"><g transform="translate(847.681226, 346.183508)"><g><path d="M 6.484375 0 L 19.457031 0 L 19.457031 -23.46875 C 19.457031 -30.550781 23.382812 -34.902344 29.355469 -34.902344 C 34.902344 -34.902344 38.230469 -30.976562 38.230469 -24.40625 L 38.230469 0 L 51.203125 0 L 51.203125 -25.773438 C 51.203125 -38.144531 44.121094 -45.996094 32.429688 -45.996094 C 26.453125 -45.996094 21.078125 -43.949219 17.492188 -39.765625 L 16.128906 -44.800781 L 6.484375 -44.800781 Z M 6.484375 0 "/></g></g></g><g fill="#000000" fill-opacity="1"><g transform="translate(904.507455, 346.183508)"><g/></g></g><g fill="#000000" fill-opacity="1"><g transform="translate(924.558743, 346.183508)"><g><path d="M 25.34375 1.195312 C 32 1.195312 37.804688 -0.511719 42.496094 -3.5 L 45.910156 0 L 60.246094 0 L 50.09375 -10.667969 C 53.507812 -15.53125 55.46875 -21.675781 55.640625 -28.757812 L 44.460938 -28.757812 C 44.375 -25.089844 43.523438 -21.761719 42.070312 -18.945312 L 33.367188 -28.074219 C 41.984375 -32 46.507812 -37.890625 46.507812 -45.144531 C 46.507812 -54.617188 38.742188 -60.929688 27.050781 -60.929688 C 15.53125 -60.929688 7.851562 -54.871094 7.851562 -45.910156 C 7.851562 -41.21875 9.984375 -37.035156 14.507812 -31.832031 C 7.082031 -27.90625 3.242188 -22.445312 3.242188 -15.445312 C 3.242188 -5.207031 11.777344 1.195312 25.34375 1.195312 Z M 15.957031 -16.300781 C 15.957031 -19.457031 17.835938 -21.929688 22.015625 -23.894531 L 34.304688 -11.351562 C 31.832031 -10.15625 28.929688 -9.472656 25.773438 -9.472656 C 19.542969 -9.472656 15.957031 -12.03125 15.957031 -16.300781 Z M 20.054688 -45.144531 C 20.054688 -48.386719 22.699219 -50.347656 26.964844 -50.347656 C 31.488281 -50.347656 34.304688 -48.214844 34.304688 -44.632812 C 34.304688 -41.132812 31.660156 -38.316406 25.773438 -36.097656 C 21.335938 -40.792969 20.054688 -42.925781 20.054688 -45.144531 Z M 20.054688 -45.144531 "/></g></g></g><g fill="#000000" fill-opacity="1"><g transform="translate(987.101736, 346.183508)"><g/></g></g><g fill="#000000" fill-opacity="1"><g transform="translate(1007.153024, 346.183508)"><g><path d="M 27.648438 1.195312 C 38.65625 1.195312 47.363281 -4.4375 51.289062 -13.910156 L 38.144531 -13.910156 C 36.011719 -10.921875 32.171875 -9.214844 27.90625 -9.214844 C 22.015625 -9.214844 17.410156 -12.542969 16.214844 -18.6875 L 52.140625 -18.6875 C 52.910156 -35.074219 43.179688 -45.996094 27.820312 -45.996094 C 13.3125 -45.996094 3.328125 -36.355469 3.328125 -22.445312 C 3.328125 -8.449219 13.226562 1.195312 27.648438 1.195312 Z M 16.300781 -26.882812 C 17.75 -32.34375 22.1875 -35.671875 27.90625 -35.671875 C 33.878906 -35.671875 38.144531 -32.34375 39.597656 -26.882812 Z M 16.300781 -26.882812 "/></g></g></g><g fill="#000000" fill-opacity="1"><g transform="translate(1062.528728, 346.183508)"><g><path d="M 2.046875 0 L 16.980469 0 L 21.847656 -7.167969 L 26.199219 -13.570312 L 30.464844 -7.167969 L 35.328125 0 L 50.261719 0 L 34.390625 -22.785156 L 49.582031 -44.800781 L 34.902344 -44.800781 L 30.292969 -37.976562 L 26.113281 -31.574219 L 17.410156 -44.800781 L 2.730469 -44.800781 L 18.007812 -22.785156 Z M 2.046875 0 "/></g></g></g><g fill="#000000" fill-opacity="1"><g transform="translate(1114.832781, 346.183508)"><g><path d="M 28.074219 0 L 36.269531 0 L 36.269531 -11.265625 L 30.890625 -11.265625 C 25.773438 -11.265625 23.382812 -13.738281 23.382812 -18.945312 L 23.382812 -34.21875 L 35.671875 -34.21875 L 35.671875 -44.800781 L 23.382812 -44.800781 L 23.382812 -56.40625 L 13.3125 -56.40625 L 12.542969 -50.605469 C 11.863281 -45.996094 10.582031 -44.800781 5.71875 -44.800781 L 1.707031 -44.800781 L 1.707031 -34.21875 L 10.410156 -34.21875 L 10.410156 -16.980469 C 10.410156 -6.058594 16.726562 0 28.074219 0 Z M 28.074219 0 "/></g></g></g><g fill="#000000" fill-opacity="1"><g transform="translate(1154.679423, 346.183508)"><g><path d="M 27.648438 1.195312 C 38.65625 1.195312 47.363281 -4.4375 51.289062 -13.910156 L 38.144531 -13.910156 C 36.011719 -10.921875 32.171875 -9.214844 27.90625 -9.214844 C 22.015625 -9.214844 17.410156 -12.542969 16.214844 -18.6875 L 52.140625 -18.6875 C 52.910156 -35.074219 43.179688 -45.996094 27.820312 -45.996094 C 13.3125 -45.996094 3.328125 -36.355469 3.328125 -22.445312 C 3.328125 -8.449219 13.226562 1.195312 27.648438 1.195312 Z M 16.300781 -26.882812 C 17.75 -32.34375 22.1875 -35.671875 27.90625 -35.671875 C 33.878906 -35.671875 38.144531 -32.34375 39.597656 -26.882812 Z M 16.300781 -26.882812 "/></g></g></g><g fill="#000000" fill-opacity="1"><g transform="translate(1210.055127, 346.183508)"><g><path d="M 6.484375 0 L 19.457031 0 L 19.457031 -23.46875 C 19.457031 -30.550781 23.382812 -34.902344 29.355469 -34.902344 C 34.902344 -34.902344 38.230469 -30.976562 38.230469 -24.40625 L 38.230469 0 L 51.203125 0 L 51.203125 -25.773438 C 51.203125 -38.144531 44.121094 -45.996094 32.429688 -45.996094 C 26.453125 -45.996094 21.078125 -43.949219 17.492188 -39.765625 L 16.128906 -44.800781 L 6.484375 -44.800781 Z M 6.484375 0 "/></g></g></g><g fill="#000000" fill-opacity="1"><g transform="translate(1266.881356, 346.183508)"><g><path d="M 28.074219 0 L 36.269531 0 L 36.269531 -11.265625 L 30.890625 -11.265625 C 25.773438 -11.265625 23.382812 -13.738281 23.382812 -18.945312 L 23.382812 -34.21875 L 35.671875 -34.21875 L 35.671875 -44.800781 L 23.382812 -44.800781 L 23.382812 -56.40625 L 13.3125 -56.40625 L 12.542969 -50.605469 C 11.863281 -45.996094 10.582031 -44.800781 5.71875 -44.800781 L 1.707031 -44.800781 L 1.707031 -34.21875 L 10.410156 -34.21875 L 10.410156 -16.980469 C 10.410156 -6.058594 16.726562 0 28.074219 0 Z M 28.074219 0 "/></g></g></g><g fill="#000000" fill-opacity="1"><g transform="translate(1306.727998, 346.183508)"><g><path d="M 6.484375 0 L 19.457031 0 L 19.457031 -44.800781 L 6.484375 -44.800781 Z M 4.609375 -59.308594 C 4.609375 -54.53125 8.023438 -51.203125 12.972656 -51.203125 C 17.921875 -51.203125 21.335938 -54.53125 21.335938 -59.308594 C 21.335938 -64.089844 17.921875 -67.417969 12.972656 -67.417969 C 8.023438 -67.417969 4.609375 -64.089844 4.609375 -59.308594 Z M 4.609375 -59.308594 "/></g></g></g><g fill="#000000" fill-opacity="1"><g transform="translate(1332.666656, 346.183508)"><g><path d="M 28.503906 1.195312 C 43.351562 1.195312 53.589844 -8.449219 53.589844 -22.445312 C 53.589844 -36.355469 43.351562 -45.996094 28.503906 -45.996094 C 13.570312 -45.996094 3.328125 -36.355469 3.328125 -22.445312 C 3.328125 -8.449219 13.570312 1.195312 28.503906 1.195312 Z M 16.128906 -22.445312 C 16.128906 -29.78125 21.25 -34.902344 28.503906 -34.902344 C 35.757812 -34.902344 40.792969 -29.78125 40.792969 -22.445312 C 40.792969 -15.105469 35.757812 -9.984375 28.503906 -9.984375 C 21.25 -9.984375 16.128906 -15.105469 16.128906 -22.445312 Z M 16.128906 -22.445312 "/></g></g></g><g fill="#000000" fill-opacity="1"><g transform="translate(1389.578261, 346.183508)"><g><path d="M 6.484375 0 L 19.457031 0 L 19.457031 -23.46875 C 19.457031 -30.550781 23.382812 -34.902344 29.355469 -34.902344 C 34.902344 -34.902344 38.230469 -30.976562 38.230469 -24.40625 L 38.230469 0 L 51.203125 0 L 51.203125 -25.773438 C 51.203125 -38.144531 44.121094 -45.996094 32.429688 -45.996094 C 26.453125 -45.996094 21.078125 -43.949219 17.492188 -39.765625 L 16.128906 -44.800781 L 6.484375 -44.800781 Z M 6.484375 0 "/></g></g></g><g fill="#000000" fill-opacity="1"><g transform="translate(281.336348, 622.835258)"><g><path d="M 34.988281 1.195312 C 54.699219 1.195312 67.417969 -13.398438 66.050781 -33.878906 L 32.34375 -33.878906 L 32.34375 -23.382812 L 51.714844 -23.382812 C 50.007812 -16.128906 43.863281 -11.265625 35.160156 -11.265625 C 24.234375 -11.265625 17.238281 -19.117188 17.238281 -29.867188 C 17.238281 -40.792969 24.492188 -48.472656 34.988281 -48.472656 C 41.644531 -48.472656 47.191406 -45.398438 50.09375 -40.195312 L 64.683594 -40.195312 C 61.101562 -52.738281 49.238281 -60.929688 34.730469 -60.929688 C 16.554688 -60.929688 3.667969 -48.042969 3.667969 -29.867188 C 3.667969 -11.605469 16.640625 1.195312 34.988281 1.195312 Z M 34.988281 1.195312 "/></g></g></g><g fill="#000000" fill-opacity="1"><g transform="translate(350.961298, 622.835258)"><g><path d="M 6.484375 0 L 19.457031 0 L 19.457031 -19.796875 C 19.457031 -29.441406 23.980469 -33.027344 31.402344 -33.027344 L 36.355469 -33.027344 L 36.355469 -44.800781 L 31.488281 -44.800781 C 24.917969 -44.800781 20.738281 -43.011719 17.835938 -38.828125 L 16.128906 -44.800781 L 6.484375 -44.800781 Z M 6.484375 0 "/></g></g></g><g fill="#000000" fill-opacity="1"><g transform="translate(390.210646, 622.835258)"><g><path d="M 28.503906 1.195312 C 43.351562 1.195312 53.589844 -8.449219 53.589844 -22.445312 C 53.589844 -36.355469 43.351562 -45.996094 28.503906 -45.996094 C 13.570312 -45.996094 3.328125 -36.355469 3.328125 -22.445312 C 3.328125 -8.449219 13.570312 1.195312 28.503906 1.195312 Z M 16.128906 -22.445312 C 16.128906 -29.78125 21.25 -34.902344 28.503906 -34.902344 C 35.757812 -34.902344 40.792969 -29.78125 40.792969 -22.445312 C 40.792969 -15.105469 35.757812 -9.984375 28.503906 -9.984375 C 21.25 -9.984375 16.128906 -15.105469 16.128906 -22.445312 Z M 16.128906 -22.445312 "/></g></g></g><g fill="#000000" fill-opacity="1"><g transform="translate(447.122202, 622.835258)"><g><path d="M 23.722656 1.195312 C 35.839844 1.195312 43.179688 -4.097656 43.179688 -12.628906 C 43.179688 -19.96875 37.71875 -24.664062 26.625 -26.882812 C 18.945312 -28.417969 16.554688 -29.699219 16.554688 -32.429688 C 16.554688 -35.074219 18.945312 -36.609375 22.785156 -36.609375 C 27.136719 -36.609375 29.78125 -34.648438 30.039062 -31.234375 L 42.414062 -31.234375 C 41.816406 -40.707031 34.816406 -45.996094 22.871094 -45.996094 C 10.835938 -45.996094 4.011719 -41.132812 4.011719 -32.429688 C 4.011719 -25.003906 9.132812 -20.566406 20.566406 -18.519531 C 27.480469 -17.324219 30.378906 -15.53125 30.378906 -12.714844 C 30.378906 -10.070312 27.992188 -8.449219 23.894531 -8.449219 C 19.117188 -8.449219 16.214844 -10.753906 16.128906 -14.421875 L 3.414062 -14.421875 C 3.414062 -5.035156 11.433594 1.195312 23.722656 1.195312 Z M 23.722656 1.195312 "/></g></g></g><g fill="#000000" fill-opacity="1"><g transform="translate(493.794819, 622.835258)"><g><path d="M 23.722656 1.195312 C 35.839844 1.195312 43.179688 -4.097656 43.179688 -12.628906 C 43.179688 -19.96875 37.71875 -24.664062 26.625 -26.882812 C 18.945312 -28.417969 16.554688 -29.699219 16.554688 -32.429688 C 16.554688 -35.074219 18.945312 -36.609375 22.785156 -36.609375 C 27.136719 -36.609375 29.78125 -34.648438 30.039062 -31.234375 L 42.414062 -31.234375 C 41.816406 -40.707031 34.816406 -45.996094 22.871094 -45.996094 C 10.835938 -45.996094 4.011719 -41.132812 4.011719 -32.429688 C 4.011719 -25.003906 9.132812 -20.566406 20.566406 -18.519531 C 27.480469 -17.324219 30.378906 -15.53125 30.378906 -12.714844 C 30.378906 -10.070312 27.992188 -8.449219 23.894531 -8.449219 C 19.117188 -8.449219 16.214844 -10.753906 16.128906 -14.421875 L 3.414062 -14.421875 C 3.414062 -5.035156 11.433594 1.195312 23.722656 1.195312 Z M 23.722656 1.195312 "/></g></g></g><g fill="#000000" fill-opacity="1"><g transform="translate(540.467436, 622.835258)"><g/></g></g><g fill="#000000" fill-opacity="1"><g transform="translate(560.518724, 622.835258)"><g><path d="M 6.484375 0 L 19.457031 0 L 19.457031 -24.234375 C 19.457031 -30.722656 23.039062 -34.902344 28.589844 -34.902344 C 33.964844 -34.902344 37.292969 -30.890625 37.292969 -24.578125 L 37.292969 0 L 50.09375 0 L 50.09375 -24.234375 C 50.09375 -30.722656 53.675781 -34.902344 59.222656 -34.902344 C 64.601562 -34.902344 67.929688 -30.890625 67.929688 -24.578125 L 67.929688 0 L 80.898438 0 L 80.898438 -26.113281 C 80.898438 -38.402344 73.558594 -45.996094 62.125 -45.996094 C 55.296875 -45.996094 49.667969 -43.351562 45.996094 -38.65625 C 42.839844 -43.4375 37.632812 -45.996094 31.234375 -45.996094 C 25.515625 -45.996094 20.652344 -44.035156 17.410156 -40.195312 L 16.128906 -44.800781 L 6.484375 -44.800781 Z M 6.484375 0 "/></g></g></g><g fill="#000000" fill-opacity="1"><g transform="translate(647.037984, 622.835258)"><g><path d="M 28.503906 1.195312 C 43.351562 1.195312 53.589844 -8.449219 53.589844 -22.445312 C 53.589844 -36.355469 43.351562 -45.996094 28.503906 -45.996094 C 13.570312 -45.996094 3.328125 -36.355469 3.328125 -22.445312 C 3.328125 -8.449219 13.570312 1.195312 28.503906 1.195312 Z M 16.128906 -22.445312 C 16.128906 -29.78125 21.25 -34.902344 28.503906 -34.902344 C 35.757812 -34.902344 40.792969 -29.78125 40.792969 -22.445312 C 40.792969 -15.105469 35.757812 -9.984375 28.503906 -9.984375 C 21.25 -9.984375 16.128906 -15.105469 16.128906 -22.445312 Z M 16.128906 -22.445312 "/></g></g></g><g fill="#000000" fill-opacity="1"><g transform="translate(703.94954, 622.835258)"><g><path d="M 28.074219 0 L 36.269531 0 L 36.269531 -11.265625 L 30.890625 -11.265625 C 25.773438 -11.265625 23.382812 -13.738281 23.382812 -18.945312 L 23.382812 -34.21875 L 35.671875 -34.21875 L 35.671875 -44.800781 L 23.382812 -44.800781 L 23.382812 -56.40625 L 13.3125 -56.40625 L 12.542969 -50.605469 C 11.863281 -45.996094 10.582031 -44.800781 5.71875 -44.800781 L 1.707031 -44.800781 L 1.707031 -34.21875 L 10.410156 -34.21875 L 10.410156 -16.980469 C 10.410156 -6.058594 16.726562 0 28.074219 0 Z M 28.074219 0 "/></g></g></g><g fill="#000000" fill-opacity="1"><g transform="translate(743.796182, 622.835258)"><g><path d="M 28.503906 1.195312 C 43.351562 1.195312 53.589844 -8.449219 53.589844 -22.445312 C 53.589844 -36.355469 43.351562 -45.996094 28.503906 -45.996094 C 13.570312 -45.996094 3.328125 -36.355469 3.328125 -22.445312 C 3.328125 -8.449219 13.570312 1.195312 28.503906 1.195312 Z M 16.128906 -22.445312 C 16.128906 -29.78125 21.25 -34.902344 28.503906 -34.902344 C 35.757812 -34.902344 40.792969 -29.78125 40.792969 -22.445312 C 40.792969 -15.105469 35.757812 -9.984375 28.503906 -9.984375 C 21.25 -9.984375 16.128906 -15.105469 16.128906 -22.445312 Z M 16.128906 -22.445312 "/></g></g></g><g fill="#000000" fill-opacity="1"><g transform="translate(800.707738, 622.835258)"><g><path d="M 6.484375 0 L 19.457031 0 L 19.457031 -19.796875 C 19.457031 -29.441406 23.980469 -33.027344 31.402344 -33.027344 L 36.355469 -33.027344 L 36.355469 -44.800781 L 31.488281 -44.800781 C 24.917969 -44.800781 20.738281 -43.011719 17.835938 -38.828125 L 16.128906 -44.800781 L 6.484375 -44.800781 Z M 6.484375 0 "/></g></g></g><g fill="#000000" fill-opacity="1"><g transform="translate(839.957086, 622.835258)"><g/></g></g><g fill="#000000" fill-opacity="1"><g transform="translate(860.008374, 622.835258)"><g><path d="M 6.484375 0 L 19.457031 0 L 19.457031 -24.234375 C 19.457031 -30.722656 23.039062 -34.902344 28.589844 -34.902344 C 33.964844 -34.902344 37.292969 -30.890625 37.292969 -24.578125 L 37.292969 0 L 50.09375 0 L 50.09375 -24.234375 C 50.09375 -30.722656 53.675781 -34.902344 59.222656 -34.902344 C 64.601562 -34.902344 67.929688 -30.890625 67.929688 -24.578125 L 67.929688 0 L 80.898438 0 L 80.898438 -26.113281 C 80.898438 -38.402344 73.558594 -45.996094 62.125 -45.996094 C 55.296875 -45.996094 49.667969 -43.351562 45.996094 -38.65625 C 42.839844 -43.4375 37.632812 -45.996094 31.234375 -45.996094 C 25.515625 -45.996094 20.652344 -44.035156 17.410156 -40.195312 L 16.128906 -44.800781 L 6.484375 -44.800781 Z M 6.484375 0 "/></g></g></g><g fill="#000000" fill-opacity="1"><g transform="translate(946.527633, 622.835258)"><g><path d="M 28.503906 1.195312 C 43.351562 1.195312 53.589844 -8.449219 53.589844 -22.445312 C 53.589844 -36.355469 43.351562 -45.996094 28.503906 -45.996094 C 13.570312 -45.996094 3.328125 -36.355469 3.328125 -22.445312 C 3.328125 -8.449219 13.570312 1.195312 28.503906 1.195312 Z M 16.128906 -22.445312 C 16.128906 -29.78125 21.25 -34.902344 28.503906 -34.902344 C 35.757812 -34.902344 40.792969 -29.78125 40.792969 -22.445312 C 40.792969 -15.105469 35.757812 -9.984375 28.503906 -9.984375 C 21.25 -9.984375 16.128906 -15.105469 16.128906 -22.445312 Z M 16.128906 -22.445312 "/></g></g></g><g fill="#000000" fill-opacity="1"><g transform="translate(1003.43919, 622.835258)"><g><path d="M 19.371094 0 L 32.34375 0 L 51.03125 -44.800781 L 36.949219 -44.800781 L 31.832031 -30.722656 L 25.941406 -15.53125 L 19.96875 -30.722656 L 14.933594 -44.800781 L 0.769531 -44.800781 Z M 19.371094 0 "/></g></g></g><g fill="#000000" fill-opacity="1"><g transform="translate(1055.231276, 622.835258)"><g><path d="M 27.648438 1.195312 C 38.65625 1.195312 47.363281 -4.4375 51.289062 -13.910156 L 38.144531 -13.910156 C 36.011719 -10.921875 32.171875 -9.214844 27.90625 -9.214844 C 22.015625 -9.214844 17.410156 -12.542969 16.214844 -18.6875 L 52.140625 -18.6875 C 52.910156 -35.074219 43.179688 -45.996094 27.820312 -45.996094 C 13.3125 -45.996094 3.328125 -36.355469 3.328125 -22.445312 C 3.328125 -8.449219 13.226562 1.195312 27.648438 1.195312 Z M 16.300781 -26.882812 C 17.75 -32.34375 22.1875 -35.671875 27.90625 -35.671875 C 33.878906 -35.671875 38.144531 -32.34375 39.597656 -26.882812 Z M 16.300781 -26.882812 "/></g></g></g><g fill="#000000" fill-opacity="1"><g transform="translate(1110.606981, 622.835258)"><g><path d="M 6.484375 0 L 19.457031 0 L 19.457031 -24.234375 C 19.457031 -30.722656 23.039062 -34.902344 28.589844 -34.902344 C 33.964844 -34.902344 37.292969 -30.890625 37.292969 -24.578125 L 37.292969 0 L 50.09375 0 L 50.09375 -24.234375 C 50.09375 -30.722656 53.675781 -34.902344 59.222656 -34.902344 C 64.601562 -34.902344 67.929688 -30.890625 67.929688 -24.578125 L 67.929688 0 L 80.898438 0 L 80.898438 -26.113281 C 80.898438 -38.402344 73.558594 -45.996094 62.125 -45.996094 C 55.296875 -45.996094 49.667969 -43.351562 45.996094 -38.65625 C 42.839844 -43.4375 37.632812 -45.996094 31.234375 -45.996094 C 25.515625 -45.996094 20.652344 -44.035156 17.410156 -40.195312 L 16.128906 -44.800781 L 6.484375 -44.800781 Z M 6.484375 0 "/></g></g></g><g fill="#000000" fill-opacity="1"><g transform="translate(1197.126288, 622.835258)"><g><path d="M 27.648438 1.195312 C 38.65625 1.195312 47.363281 -4.4375 51.289062 -13.910156 L 38.144531 -13.910156 C 36.011719 -10.921875 32.171875 -9.214844 27.90625 -9.214844 C 22.015625 -9.214844 17.410156 -12.542969 16.214844 -18.6875 L 52.140625 -18.6875 C 52.910156 -35.074219 43.179688 -45.996094 27.820312 -45.996094 C 13.3125 -45.996094 3.328125 -36.355469 3.328125 -22.445312 C 3.328125 -8.449219 13.226562 1.195312 27.648438 1.195312 Z M 16.300781 -26.882812 C 17.75 -32.34375 22.1875 -35.671875 27.90625 -35.671875 C 33.878906 -35.671875 38.144531 -32.34375 39.597656 -26.882812 Z M 16.300781 -26.882812 "/></g></g></g><g fill="#000000" fill-opacity="1"><g transform="translate(1252.501993, 622.835258)"><g><path d="M 6.484375 0 L 19.457031 0 L 19.457031 -23.46875 C 19.457031 -30.550781 23.382812 -34.902344 29.355469 -34.902344 C 34.902344 -34.902344 38.230469 -30.976562 38.230469 -24.40625 L 38.230469 0 L 51.203125 0 L 51.203125 -25.773438 C 51.203125 -38.144531 44.121094 -45.996094 32.429688 -45.996094 C 26.453125 -45.996094 21.078125 -43.949219 17.492188 -39.765625 L 16.128906 -44.800781 L 6.484375 -44.800781 Z M 6.484375 0 "/></g></g></g><g fill="#000000" fill-opacity="1"><g transform="translate(1309.328222, 622.835258)"><g><path d="M 28.074219 0 L 36.269531 0 L 36.269531 -11.265625 L 30.890625 -11.265625 C 25.773438 -11.265625 23.382812 -13.738281 23.382812 -18.945312 L 23.382812 -34.21875 L 35.671875 -34.21875 L 35.671875 -44.800781 L 23.382812 -44.800781 L 23.382812 -56.40625 L 13.3125 -56.40625 L 12.542969 -50.605469 C 11.863281 -45.996094 10.582031 -44.800781 5.71875 -44.800781 L 1.707031 -44.800781 L 1.707031 -34.21875 L 10.410156 -34.21875 L 10.410156 -16.980469 C 10.410156 -6.058594 16.726562 0 28.074219 0 Z M 28.074219 0 "/></g></g></g><g fill="#000000" fill-opacity="1"><g transform="translate(2564.783372, 465.330354)"><g><path d="M 8.882812 0 L 25.699219 0 L 25.699219 -23.054688 L 36.804688 -23.054688 L 50.027344 0 L 69.488281 0 L 54.152344 -25.699219 C 63.035156 -29.613281 68.21875 -37.652344 68.21875 -48.546875 C 68.21875 -64.304688 57.429688 -74.035156 40.507812 -74.035156 L 8.882812 -74.035156 Z M 25.488281 -37.230469 L 25.488281 -59.652344 L 38.285156 -59.652344 C 46.535156 -59.652344 51.191406 -55.632812 51.191406 -48.441406 C 51.191406 -41.246094 46.535156 -37.230469 38.285156 -37.230469 Z M 25.488281 -37.230469 "/></g></g></g><g fill="#000000" fill-opacity="1"><g transform="translate(2639.222637, 465.330354)"><g><path d="M 34.265625 1.480469 C 47.910156 1.480469 58.699219 -5.5 63.5625 -17.238281 L 47.277344 -17.238281 C 44.632812 -13.539062 39.875 -11.421875 34.585938 -11.421875 C 27.289062 -11.421875 21.574219 -15.546875 20.09375 -23.164062 L 64.621094 -23.164062 C 65.574219 -43.46875 53.515625 -57.007812 34.480469 -57.007812 C 16.5 -57.007812 4.125 -45.054688 4.125 -27.816406 C 4.125 -10.46875 16.394531 1.480469 34.265625 1.480469 Z M 20.199219 -33.316406 C 22 -40.085938 27.5 -44.210938 34.585938 -44.210938 C 41.988281 -44.210938 47.277344 -40.085938 49.074219 -33.316406 Z M 20.199219 -33.316406 "/></g></g></g><g fill="#000000" fill-opacity="1"><g transform="translate(2707.846315, 465.330354)"><g><path d="M 26.546875 1.058594 C 34.796875 1.058594 41.566406 -1.585938 46.324219 -6.453125 L 48.121094 0 L 60.074219 0 L 60.074219 -33.421875 C 60.074219 -48.121094 50.132812 -57.007812 33.527344 -57.007812 C 19.355469 -57.007812 10.046875 -50.238281 8.039062 -38.179688 L 23.480469 -38.179688 C 24.429688 -42.09375 28.449219 -44.738281 33.632812 -44.738281 C 39.980469 -44.738281 44.316406 -41.140625 44.316406 -35.640625 L 44.316406 -33.105469 L 24.21875 -33.105469 C 12.691406 -33.105469 5.289062 -26.441406 5.289062 -16.183594 C 5.289062 -5.5 13.433594 1.058594 26.546875 1.058594 Z M 21.152344 -16.816406 C 21.152344 -20.625 24.324219 -23.054688 29.191406 -23.054688 L 44.421875 -23.054688 C 44.105469 -15.546875 38.285156 -10.46875 30.25 -10.46875 C 24.75 -10.46875 21.152344 -13.007812 21.152344 -16.816406 Z M 21.152344 -16.816406 "/></g></g></g><g fill="#000000" fill-opacity="1"><g transform="translate(2774.88396, 465.330354)"><g><path d="M 34.480469 1.480469 C 50.132812 1.480469 61.871094 -7.722656 64.832031 -22.316406 L 49.179688 -22.316406 C 46.960938 -16.289062 41.460938 -12.375 34.691406 -12.375 C 26.019531 -12.375 19.988281 -18.71875 19.988281 -27.816406 C 19.988281 -36.910156 26.019531 -43.257812 34.691406 -43.257812 C 41.035156 -43.257812 46.21875 -39.875 48.863281 -34.265625 L 64.304688 -34.265625 C 61.765625 -48.015625 49.921875 -57.007812 34.480469 -57.007812 C 16.710938 -57.007812 4.125 -44.84375 4.125 -27.816406 C 4.125 -10.683594 16.605469 1.480469 34.480469 1.480469 Z M 34.480469 1.480469 "/></g></g></g><g fill="#000000" fill-opacity="1"><g transform="translate(2843.613374, 465.330354)"><g><path d="M 8.039062 0 L 24.113281 0 L 24.113281 -29.191406 C 24.113281 -37.96875 28.980469 -43.257812 36.382812 -43.257812 C 43.257812 -43.257812 47.382812 -38.605469 47.382812 -30.460938 L 47.382812 0 L 63.457031 0 L 63.457031 -32.046875 C 63.457031 -47.488281 54.785156 -57.007812 40.402344 -57.007812 C 34.160156 -57.007812 28.34375 -55.101562 24.113281 -51.296875 L 24.113281 -78.265625 L 8.039062 -78.265625 Z M 8.039062 0 "/></g></g></g><g fill="#000000" fill-opacity="1"><g transform="translate(2914.0346, 465.330354)"><g><path d="M 8.039062 0 L 24.113281 0 L 24.113281 -55.527344 L 8.039062 -55.527344 Z M 5.710938 -73.507812 C 5.710938 -67.582031 9.941406 -63.457031 16.074219 -63.457031 C 22.210938 -63.457031 26.441406 -67.582031 26.441406 -73.507812 C 26.441406 -79.429688 22.210938 -83.554688 16.074219 -83.554688 C 9.941406 -83.554688 5.710938 -79.429688 5.710938 -73.507812 Z M 5.710938 -73.507812 "/></g></g></g><g fill="#000000" fill-opacity="1"><g transform="translate(2946.178816, 465.330354)"><g><path d="M 8.039062 0 L 24.113281 0 L 24.113281 -29.085938 C 24.113281 -37.863281 28.980469 -43.257812 36.382812 -43.257812 C 43.257812 -43.257812 47.382812 -38.390625 47.382812 -30.25 L 47.382812 0 L 63.457031 0 L 63.457031 -31.941406 C 63.457031 -47.277344 54.679688 -57.007812 40.191406 -57.007812 C 32.785156 -57.007812 26.125 -54.46875 21.679688 -49.285156 L 19.988281 -55.527344 L 8.039062 -55.527344 Z M 8.039062 0 "/></g></g></g><g fill="#000000" fill-opacity="1"><g transform="translate(3016.600042, 465.330354)"><g><path d="M 35.113281 23.480469 C 52.882812 23.480469 64.199219 13.539062 64.199219 -3.066406 L 64.199219 -55.527344 L 52.246094 -55.527344 L 50.554688 -49.390625 C 45.691406 -54.257812 38.921875 -57.007812 30.988281 -57.007812 C 15.335938 -57.007812 4.125 -45.480469 4.125 -29.296875 C 4.125 -13.007812 15.335938 -1.480469 30.988281 -1.480469 C 37.652344 -1.480469 43.574219 -3.488281 48.121094 -6.980469 L 48.121094 -3.066406 C 48.121094 5.921875 43.574219 10.46875 34.796875 10.46875 C 28.132812 10.46875 23.691406 7.722656 22.527344 2.855469 L 6.875 2.855469 C 8.25 15.652344 19.039062 23.480469 35.113281 23.480469 Z M 19.988281 -29.296875 C 19.988281 -37.757812 25.914062 -43.679688 34.375 -43.679688 C 42.835938 -43.679688 48.863281 -37.757812 48.863281 -29.296875 C 48.863281 -20.730469 42.835938 -14.808594 34.375 -14.808594 C 25.914062 -14.808594 19.988281 -20.730469 19.988281 -29.296875 Z M 19.988281 -29.296875 "/></g></g></g><g fill="#000000" fill-opacity="1"><g transform="translate(3088.924553, 465.330354)"><g><path d="M 8.882812 8.988281 L 8.882812 17.027344 C 19.882812 16.289062 26.125 6.132812 26.125 -3.914062 C 26.125 -11.738281 21.894531 -17.980469 14.382812 -17.980469 C 8.355469 -17.980469 4.335938 -13.855469 4.335938 -8.355469 C 4.335938 -2.960938 8.355469 1.058594 14.066406 1.058594 C 14.59375 1.058594 15.230469 1.058594 15.863281 0.953125 C 15.546875 5.289062 13.113281 7.933594 8.882812 8.988281 Z M 8.882812 8.988281 "/></g></g></g><g fill="#000000" fill-opacity="1"><g transform="translate(2543.492383, 612.309944)"><g><path d="M 35.113281 23.480469 C 52.882812 23.480469 64.199219 13.539062 64.199219 -3.066406 L 64.199219 -55.527344 L 52.246094 -55.527344 L 50.554688 -49.390625 C 45.691406 -54.257812 38.921875 -57.007812 30.988281 -57.007812 C 15.335938 -57.007812 4.125 -45.480469 4.125 -29.296875 C 4.125 -13.007812 15.335938 -1.480469 30.988281 -1.480469 C 37.652344 -1.480469 43.574219 -3.488281 48.121094 -6.980469 L 48.121094 -3.066406 C 48.121094 5.921875 43.574219 10.46875 34.796875 10.46875 C 28.132812 10.46875 23.691406 7.722656 22.527344 2.855469 L 6.875 2.855469 C 8.25 15.652344 19.039062 23.480469 35.113281 23.480469 Z M 19.988281 -29.296875 C 19.988281 -37.757812 25.914062 -43.679688 34.375 -43.679688 C 42.835938 -43.679688 48.863281 -37.757812 48.863281 -29.296875 C 48.863281 -20.730469 42.835938 -14.808594 34.375 -14.808594 C 25.914062 -14.808594 19.988281 -20.730469 19.988281 -29.296875 Z M 19.988281 -29.296875 "/></g></g></g><g fill="#000000" fill-opacity="1"><g transform="translate(2615.816893, 612.309944)"><g><path d="M 8.039062 0 L 24.113281 0 L 24.113281 -24.539062 C 24.113281 -36.488281 29.71875 -40.929688 38.921875 -40.929688 L 45.054688 -40.929688 L 45.054688 -55.527344 L 39.027344 -55.527344 C 30.882812 -55.527344 25.699219 -53.304688 22.105469 -48.121094 L 19.988281 -55.527344 L 8.039062 -55.527344 Z M 8.039062 0 "/></g></g></g><g fill="#000000" fill-opacity="1"><g transform="translate(2664.456206, 612.309944)"><g><path d="M 26.546875 1.058594 C 34.796875 1.058594 41.566406 -1.585938 46.324219 -6.453125 L 48.121094 0 L 60.074219 0 L 60.074219 -33.421875 C 60.074219 -48.121094 50.132812 -57.007812 33.527344 -57.007812 C 19.355469 -57.007812 10.046875 -50.238281 8.039062 -38.179688 L 23.480469 -38.179688 C 24.429688 -42.09375 28.449219 -44.738281 33.632812 -44.738281 C 39.980469 -44.738281 44.316406 -41.140625 44.316406 -35.640625 L 44.316406 -33.105469 L 24.21875 -33.105469 C 12.691406 -33.105469 5.289062 -26.441406 5.289062 -16.183594 C 5.289062 -5.5 13.433594 1.058594 26.546875 1.058594 Z M 21.152344 -16.816406 C 21.152344 -20.625 24.324219 -23.054688 29.191406 -23.054688 L 44.421875 -23.054688 C 44.105469 -15.546875 38.285156 -10.46875 30.25 -10.46875 C 24.75 -10.46875 21.152344 -13.007812 21.152344 -16.816406 Z M 21.152344 -16.816406 "/></g></g></g><g fill="#000000" fill-opacity="1"><g transform="translate(2731.493851, 612.309944)"><g><path d="M 29.402344 1.480469 C 44.421875 1.480469 53.515625 -5.078125 53.515625 -15.652344 C 53.515625 -24.75 46.746094 -30.566406 33 -33.316406 C 23.480469 -35.21875 20.519531 -36.804688 20.519531 -40.191406 C 20.519531 -43.46875 23.480469 -45.371094 28.238281 -45.371094 C 33.632812 -45.371094 36.910156 -42.941406 37.230469 -38.710938 L 52.566406 -38.710938 C 51.824219 -50.449219 43.152344 -57.007812 28.34375 -57.007812 C 13.433594 -57.007812 4.972656 -50.976562 4.972656 -40.191406 C 4.972656 -30.988281 11.316406 -25.488281 25.488281 -22.949219 C 34.054688 -21.46875 37.652344 -19.25 37.652344 -15.757812 C 37.652344 -12.480469 34.691406 -10.46875 29.613281 -10.46875 C 23.691406 -10.46875 20.09375 -13.328125 19.988281 -17.875 L 4.230469 -17.875 C 4.230469 -6.238281 14.171875 1.480469 29.402344 1.480469 Z M 29.402344 1.480469 "/></g></g></g><g fill="#000000" fill-opacity="1"><g transform="translate(2789.332332, 612.309944)"><g><path d="M 41.671875 1.480469 C 58.277344 1.480469 70.015625 -10.578125 70.015625 -27.816406 C 70.015625 -44.84375 58.277344 -57.007812 41.671875 -57.007812 C 33.632812 -57.007812 26.757812 -54.152344 21.789062 -49.179688 L 19.988281 -55.527344 L 8.039062 -55.527344 L 8.039062 21.152344 L 24.113281 21.152344 L 24.113281 -4.335938 C 28.769531 -0.632812 34.796875 1.480469 41.671875 1.480469 Z M 23.480469 -27.816406 C 23.480469 -36.804688 29.824219 -43.257812 38.816406 -43.257812 C 47.910156 -43.257812 54.152344 -36.804688 54.152344 -27.816406 C 54.152344 -18.71875 47.910156 -12.375 38.816406 -12.375 C 29.824219 -12.375 23.480469 -18.71875 23.480469 -27.816406 Z M 23.480469 -27.816406 "/></g></g></g><g fill="#000000" fill-opacity="1"><g transform="translate(2863.454391, 612.309944)"><g><path d="M 8.039062 0 L 24.113281 0 L 24.113281 -55.527344 L 8.039062 -55.527344 Z M 5.710938 -73.507812 C 5.710938 -67.582031 9.941406 -63.457031 16.074219 -63.457031 C 22.210938 -63.457031 26.441406 -67.582031 26.441406 -73.507812 C 26.441406 -79.429688 22.210938 -83.554688 16.074219 -83.554688 C 9.941406 -83.554688 5.710938 -79.429688 5.710938 -73.507812 Z M 5.710938 -73.507812 "/></g></g></g><g fill="#000000" fill-opacity="1"><g transform="translate(2895.598607, 612.309944)"><g><path d="M 8.039062 0 L 24.113281 0 L 24.113281 -29.085938 C 24.113281 -37.863281 28.980469 -43.257812 36.382812 -43.257812 C 43.257812 -43.257812 47.382812 -38.390625 47.382812 -30.25 L 47.382812 0 L 63.457031 0 L 63.457031 -31.941406 C 63.457031 -47.277344 54.679688 -57.007812 40.191406 -57.007812 C 32.785156 -57.007812 26.125 -54.46875 21.679688 -49.285156 L 19.988281 -55.527344 L 8.039062 -55.527344 Z M 8.039062 0 "/></g></g></g><g fill="#000000" fill-opacity="1"><g transform="translate(2966.019833, 612.309944)"><g><path d="M 35.113281 23.480469 C 52.882812 23.480469 64.199219 13.539062 64.199219 -3.066406 L 64.199219 -55.527344 L 52.246094 -55.527344 L 50.554688 -49.390625 C 45.691406 -54.257812 38.921875 -57.007812 30.988281 -57.007812 C 15.335938 -57.007812 4.125 -45.480469 4.125 -29.296875 C 4.125 -13.007812 15.335938 -1.480469 30.988281 -1.480469 C 37.652344 -1.480469 43.574219 -3.488281 48.121094 -6.980469 L 48.121094 -3.066406 C 48.121094 5.921875 43.574219 10.46875 34.796875 10.46875 C 28.132812 10.46875 23.691406 7.722656 22.527344 2.855469 L 6.875 2.855469 C 8.25 15.652344 19.039062 23.480469 35.113281 23.480469 Z M 19.988281 -29.296875 C 19.988281 -37.757812 25.914062 -43.679688 34.375 -43.679688 C 42.835938 -43.679688 48.863281 -37.757812 48.863281 -29.296875 C 48.863281 -20.730469 42.835938 -14.808594 34.375 -14.808594 C 25.914062 -14.808594 19.988281 -20.730469 19.988281 -29.296875 Z M 19.988281 -29.296875 "/></g></g></g><g fill="#000000" fill-opacity="1"><g transform="translate(3038.344343, 612.309944)"><g/></g></g><g fill="#000000" fill-opacity="1"><g transform="translate(3063.192677, 612.309944)"><g><path d="M 31.410156 1.480469 C 39.660156 1.480469 46.851562 -0.632812 52.671875 -4.335938 L 56.902344 0 L 74.667969 0 L 62.082031 -13.21875 C 66.3125 -19.25 68.746094 -26.863281 68.957031 -35.640625 L 55.101562 -35.640625 C 54.996094 -31.09375 53.941406 -26.96875 52.140625 -23.480469 L 41.355469 -34.796875 C 52.035156 -39.660156 57.640625 -46.960938 57.640625 -55.949219 C 57.640625 -67.6875 48.015625 -75.515625 33.527344 -75.515625 C 19.25 -75.515625 9.730469 -68.007812 9.730469 -56.902344 C 9.730469 -51.085938 12.375 -45.902344 17.980469 -39.449219 C 8.777344 -34.585938 4.019531 -27.816406 4.019531 -19.144531 C 4.019531 -6.453125 14.59375 1.480469 31.410156 1.480469 Z M 19.777344 -20.199219 C 19.777344 -24.113281 22.105469 -27.179688 27.289062 -29.613281 L 42.515625 -14.066406 C 39.449219 -12.585938 35.855469 -11.738281 31.941406 -11.738281 C 24.21875 -11.738281 19.777344 -14.914062 19.777344 -20.199219 Z M 24.855469 -55.949219 C 24.855469 -59.96875 28.132812 -62.402344 33.421875 -62.402344 C 39.027344 -62.402344 42.515625 -59.757812 42.515625 -55.316406 C 42.515625 -50.976562 39.238281 -47.488281 31.941406 -44.738281 C 26.441406 -50.554688 24.855469 -53.199219 24.855469 -55.949219 Z M 24.855469 -55.949219 "/></g></g></g><g fill="#000000" fill-opacity="1"><g transform="translate(2467.371117, 759.289535)"><g><path d="M 34.480469 1.480469 C 50.132812 1.480469 61.871094 -7.722656 64.832031 -22.316406 L 49.179688 -22.316406 C 46.960938 -16.289062 41.460938 -12.375 34.691406 -12.375 C 26.019531 -12.375 19.988281 -18.71875 19.988281 -27.816406 C 19.988281 -36.910156 26.019531 -43.257812 34.691406 -43.257812 C 41.035156 -43.257812 46.21875 -39.875 48.863281 -34.265625 L 64.304688 -34.265625 C 61.765625 -48.015625 49.921875 -57.007812 34.480469 -57.007812 C 16.710938 -57.007812 4.125 -44.84375 4.125 -27.816406 C 4.125 -10.683594 16.605469 1.480469 34.480469 1.480469 Z M 34.480469 1.480469 "/></g></g></g><g fill="#000000" fill-opacity="1"><g transform="translate(2536.100531, 759.289535)"><g><path d="M 35.324219 1.480469 C 53.726562 1.480469 66.417969 -10.46875 66.417969 -27.816406 C 66.417969 -45.054688 53.726562 -57.007812 35.324219 -57.007812 C 16.816406 -57.007812 4.125 -45.054688 4.125 -27.816406 C 4.125 -10.46875 16.816406 1.480469 35.324219 1.480469 Z M 19.988281 -27.816406 C 19.988281 -36.910156 26.335938 -43.257812 35.324219 -43.257812 C 44.316406 -43.257812 50.554688 -36.910156 50.554688 -27.816406 C 50.554688 -18.71875 44.316406 -12.375 35.324219 -12.375 C 26.335938 -12.375 19.988281 -18.71875 19.988281 -27.816406 Z M 19.988281 -27.816406 "/></g></g></g><g fill="#000000" fill-opacity="1"><g transform="translate(2606.627494, 759.289535)"><g><path d="M 35.324219 1.480469 C 53.726562 1.480469 66.417969 -10.46875 66.417969 -27.816406 C 66.417969 -45.054688 53.726562 -57.007812 35.324219 -57.007812 C 16.816406 -57.007812 4.125 -45.054688 4.125 -27.816406 C 4.125 -10.46875 16.816406 1.480469 35.324219 1.480469 Z M 19.988281 -27.816406 C 19.988281 -36.910156 26.335938 -43.257812 35.324219 -43.257812 C 44.316406 -43.257812 50.554688 -36.910156 50.554688 -27.816406 C 50.554688 -18.71875 44.316406 -12.375 35.324219 -12.375 C 26.335938 -12.375 19.988281 -18.71875 19.988281 -27.816406 Z M 19.988281 -27.816406 "/></g></g></g><g fill="#000000" fill-opacity="1"><g transform="translate(2677.154456, 759.289535)"><g><path d="M 8.039062 0 L 24.113281 0 L 24.113281 -24.539062 C 24.113281 -36.488281 29.71875 -40.929688 38.921875 -40.929688 L 45.054688 -40.929688 L 45.054688 -55.527344 L 39.027344 -55.527344 C 30.882812 -55.527344 25.699219 -53.304688 22.105469 -48.121094 L 19.988281 -55.527344 L 8.039062 -55.527344 Z M 8.039062 0 "/></g></g></g><g fill="#000000" fill-opacity="1"><g transform="translate(2725.793769, 759.289535)"><g><path d="M 32.363281 1.480469 C 40.402344 1.480469 47.277344 -1.375 52.246094 -6.347656 L 54.152344 0 L 66.101562 0 L 66.101562 -78.265625 L 50.027344 -78.265625 L 50.027344 -51.191406 C 45.265625 -54.890625 39.238281 -57.007812 32.363281 -57.007812 C 15.863281 -57.007812 4.125 -44.84375 4.125 -27.816406 C 4.125 -10.578125 15.863281 1.480469 32.363281 1.480469 Z M 19.988281 -27.816406 C 19.988281 -36.804688 26.230469 -43.257812 35.324219 -43.257812 C 44.316406 -43.257812 50.554688 -36.804688 50.554688 -27.816406 C 50.554688 -18.71875 44.316406 -12.375 35.324219 -12.375 C 26.230469 -12.375 19.988281 -18.71875 19.988281 -27.816406 Z M 19.988281 -27.816406 "/></g></g></g><g fill="#000000" fill-opacity="1"><g transform="translate(2799.915827, 759.289535)"><g><path d="M 8.039062 0 L 24.113281 0 L 24.113281 -55.527344 L 8.039062 -55.527344 Z M 5.710938 -73.507812 C 5.710938 -67.582031 9.941406 -63.457031 16.074219 -63.457031 C 22.210938 -63.457031 26.441406 -67.582031 26.441406 -73.507812 C 26.441406 -79.429688 22.210938 -83.554688 16.074219 -83.554688 C 9.941406 -83.554688 5.710938 -79.429688 5.710938 -73.507812 Z M 5.710938 -73.507812 "/></g></g></g><g fill="#000000" fill-opacity="1"><g transform="translate(2832.060043, 759.289535)"><g><path d="M 8.039062 0 L 24.113281 0 L 24.113281 -29.085938 C 24.113281 -37.863281 28.980469 -43.257812 36.382812 -43.257812 C 43.257812 -43.257812 47.382812 -38.390625 47.382812 -30.25 L 47.382812 0 L 63.457031 0 L 63.457031 -31.941406 C 63.457031 -47.277344 54.679688 -57.007812 40.191406 -57.007812 C 32.785156 -57.007812 26.125 -54.46875 21.679688 -49.285156 L 19.988281 -55.527344 L 8.039062 -55.527344 Z M 8.039062 0 "/></g></g></g><g fill="#000000" fill-opacity="1"><g transform="translate(2902.481269, 759.289535)"><g><path d="M 26.546875 1.058594 C 34.796875 1.058594 41.566406 -1.585938 46.324219 -6.453125 L 48.121094 0 L 60.074219 0 L 60.074219 -33.421875 C 60.074219 -48.121094 50.132812 -57.007812 33.527344 -57.007812 C 19.355469 -57.007812 10.046875 -50.238281 8.039062 -38.179688 L 23.480469 -38.179688 C 24.429688 -42.09375 28.449219 -44.738281 33.632812 -44.738281 C 39.980469 -44.738281 44.316406 -41.140625 44.316406 -35.640625 L 44.316406 -33.105469 L 24.21875 -33.105469 C 12.691406 -33.105469 5.289062 -26.441406 5.289062 -16.183594 C 5.289062 -5.5 13.433594 1.058594 26.546875 1.058594 Z M 21.152344 -16.816406 C 21.152344 -20.625 24.324219 -23.054688 29.191406 -23.054688 L 44.421875 -23.054688 C 44.105469 -15.546875 38.285156 -10.46875 30.25 -10.46875 C 24.75 -10.46875 21.152344 -13.007812 21.152344 -16.816406 Z M 21.152344 -16.816406 "/></g></g></g><g fill="#000000" fill-opacity="1"><g transform="translate(2969.518915, 759.289535)"><g><path d="M 34.796875 0 L 44.949219 0 L 44.949219 -13.960938 L 38.285156 -13.960938 C 31.941406 -13.960938 28.980469 -17.027344 28.980469 -23.480469 L 28.980469 -42.410156 L 44.210938 -42.410156 L 44.210938 -55.527344 L 28.980469 -55.527344 L 28.980469 -69.910156 L 16.5 -69.910156 L 15.546875 -62.71875 C 14.703125 -57.007812 13.113281 -55.527344 7.085938 -55.527344 L 2.117188 -55.527344 L 2.117188 -42.410156 L 12.902344 -42.410156 L 12.902344 -21.046875 C 12.902344 -7.507812 20.730469 0 34.796875 0 Z M 34.796875 0 "/></g></g></g><g fill="#000000" fill-opacity="1"><g transform="translate(3018.898375, 759.289535)"><g><path d="M 8.039062 0 L 24.113281 0 L 24.113281 -55.527344 L 8.039062 -55.527344 Z M 5.710938 -73.507812 C 5.710938 -67.582031 9.941406 -63.457031 16.074219 -63.457031 C 22.210938 -63.457031 26.441406 -67.582031 26.441406 -73.507812 C 26.441406 -79.429688 22.210938 -83.554688 16.074219 -83.554688 C 9.941406 -83.554688 5.710938 -79.429688 5.710938 -73.507812 Z M 5.710938 -73.507812 "/></g></g></g><g fill="#000000" fill-opacity="1"><g transform="translate(3051.042591, 759.289535)"><g><path d="M 35.324219 1.480469 C 53.726562 1.480469 66.417969 -10.46875 66.417969 -27.816406 C 66.417969 -45.054688 53.726562 -57.007812 35.324219 -57.007812 C 16.816406 -57.007812 4.125 -45.054688 4.125 -27.816406 C 4.125 -10.46875 16.816406 1.480469 35.324219 1.480469 Z M 19.988281 -27.816406 C 19.988281 -36.910156 26.335938 -43.257812 35.324219 -43.257812 C 44.316406 -43.257812 50.554688 -36.910156 50.554688 -27.816406 C 50.554688 -18.71875 44.316406 -12.375 35.324219 -12.375 C 26.335938 -12.375 19.988281 -18.71875 19.988281 -27.816406 Z M 19.988281 -27.816406 "/></g></g></g><g fill="#000000" fill-opacity="1"><g transform="translate(3121.569554, 759.289535)"><g><path d="M 8.039062 0 L 24.113281 0 L 24.113281 -29.085938 C 24.113281 -37.863281 28.980469 -43.257812 36.382812 -43.257812 C 43.257812 -43.257812 47.382812 -38.390625 47.382812 -30.25 L 47.382812 0 L 63.457031 0 L 63.457031 -31.941406 C 63.457031 -47.277344 54.679688 -57.007812 40.191406 -57.007812 C 32.785156 -57.007812 26.125 -54.46875 21.679688 -49.285156 L 19.988281 -55.527344 L 8.039062 -55.527344 Z M 8.039062 0 "/></g></g></g><g fill="#000000" fill-opacity="1"><g transform="translate(3191.982412, 759.289535)"><g/></g></g><g clip-path="url(#80e62f2b99)"><path fill="#83c5be" d="M 244.46875 829.871094 L 244.46875 904.070312 L 133.097656 904.070312 L 133.097656 792.773438 L 229.097656 792.773438 L 247.660156 774.222656 L 114.535156 774.222656 L 114.535156 922.621094 L 263.027344 922.621094 L 263.027344 811.3125 Z M 244.46875 829.871094 " fill-opacity="1" fill-rule="nonzero"/></g><g clip-path="url(#e62096d763)"><path fill="#83c5be" d="M 188.78125 846.167969 L 162.527344 819.929688 L 149.402344 833.042969 L 188.78125 872.40625 L 293.777344 767.460938 L 280.652344 754.347656 Z M 188.78125 846.167969 " fill-opacity="1" fill-rule="nonzero"/></g><g fill="#000000" fill-opacity="1"><g transform="translate(293.670685, 865.48663)"><g><path d="M 23.722656 0 L 37.035156 0 L 59.992188 -59.734375 L 45.484375 -59.734375 L 30.464844 -19.542969 L 23.296875 -38.488281 L 15.359375 -59.734375 L 0.769531 -59.734375 Z M 23.722656 0 "/></g></g></g><g fill="#000000" fill-opacity="1"><g transform="translate(354.421891, 865.48663)"><g><path d="M 6.484375 0 L 19.457031 0 L 19.457031 -44.800781 L 6.484375 -44.800781 Z M 4.609375 -59.308594 C 4.609375 -54.53125 8.023438 -51.203125 12.972656 -51.203125 C 17.921875 -51.203125 21.335938 -54.53125 21.335938 -59.308594 C 21.335938 -64.089844 17.921875 -67.417969 12.972656 -67.417969 C 8.023438 -67.417969 4.609375 -64.089844 4.609375 -59.308594 Z M 4.609375 -59.308594 "/></g></g></g><g fill="#000000" fill-opacity="1"><g transform="translate(380.360598, 865.48663)"><g><path d="M 23.722656 1.195312 C 35.839844 1.195312 43.179688 -4.097656 43.179688 -12.628906 C 43.179688 -19.96875 37.71875 -24.664062 26.625 -26.882812 C 18.945312 -28.417969 16.554688 -29.699219 16.554688 -32.429688 C 16.554688 -35.074219 18.945312 -36.609375 22.785156 -36.609375 C 27.136719 -36.609375 29.78125 -34.648438 30.039062 -31.234375 L 42.414062 -31.234375 C 41.816406 -40.707031 34.816406 -45.996094 22.871094 -45.996094 C 10.835938 -45.996094 4.011719 -41.132812 4.011719 -32.429688 C 4.011719 -25.003906 9.132812 -20.566406 20.566406 -18.519531 C 27.480469 -17.324219 30.378906 -15.53125 30.378906 -12.714844 C 30.378906 -10.070312 27.992188 -8.449219 23.894531 -8.449219 C 19.117188 -8.449219 16.214844 -10.753906 16.128906 -14.421875 L 3.414062 -14.421875 C 3.414062 -5.035156 11.433594 1.195312 23.722656 1.195312 Z M 23.722656 1.195312 "/></g></g></g><g fill="#000000" fill-opacity="1"><g transform="translate(427.033216, 865.48663)"><g><path d="M 24.320312 1.195312 C 30.210938 1.195312 35.5 -0.851562 39.085938 -5.035156 L 40.449219 0 L 50.09375 0 L 50.09375 -44.800781 L 37.121094 -44.800781 L 37.121094 -21.417969 C 37.121094 -14.335938 33.28125 -9.984375 27.394531 -9.984375 C 21.929688 -9.984375 18.601562 -13.824219 18.601562 -20.394531 L 18.601562 -44.800781 L 5.632812 -44.800781 L 5.632812 -19.117188 C 5.632812 -6.65625 12.714844 1.195312 24.320312 1.195312 Z M 24.320312 1.195312 "/></g></g></g><g fill="#000000" fill-opacity="1"><g transform="translate(483.60351, 865.48663)"><g><path d="M 21.417969 0.851562 C 28.074219 0.851562 33.539062 -1.28125 37.378906 -5.207031 L 38.828125 0 L 48.472656 0 L 48.472656 -26.964844 C 48.472656 -38.828125 40.449219 -45.996094 27.050781 -45.996094 C 15.617188 -45.996094 8.105469 -40.535156 6.484375 -30.808594 L 18.945312 -30.808594 C 19.710938 -33.964844 22.957031 -36.097656 27.136719 -36.097656 C 32.257812 -36.097656 35.757812 -33.195312 35.757812 -28.757812 L 35.757812 -26.710938 L 19.542969 -26.710938 C 10.242188 -26.710938 4.265625 -21.335938 4.265625 -13.054688 C 4.265625 -4.4375 10.835938 0.851562 21.417969 0.851562 Z M 17.066406 -13.570312 C 17.066406 -16.640625 19.628906 -18.601562 23.554688 -18.601562 L 35.839844 -18.601562 C 35.585938 -12.542969 30.890625 -8.449219 24.40625 -8.449219 C 19.96875 -8.449219 17.066406 -10.496094 17.066406 -13.570312 Z M 17.066406 -13.570312 "/></g></g></g><g fill="#000000" fill-opacity="1"><g transform="translate(537.699349, 865.48663)"><g><path d="M 6.484375 0 L 19.457031 0 L 19.457031 -63.148438 L 6.484375 -63.148438 Z M 6.484375 0 "/></g></g></g><g fill="#000000" fill-opacity="1"><g transform="translate(563.638056, 865.48663)"><g/></g></g><g fill="#000000" fill-opacity="1"><g transform="translate(583.689344, 865.48663)"><g><path d="M 27.992188 1.195312 C 42.15625 1.195312 50.859375 -5.546875 50.859375 -16.8125 C 50.859375 -26.285156 44.632812 -31.917969 29.78125 -35.414062 C 20.652344 -37.546875 17.492188 -39.851562 17.492188 -43.523438 C 17.492188 -47.449219 20.992188 -49.835938 26.710938 -49.835938 C 32.941406 -49.835938 36.695312 -46.59375 36.695312 -41.21875 L 49.75 -41.21875 C 49.75 -53.25 40.707031 -60.929688 26.539062 -60.929688 C 12.800781 -60.929688 4.265625 -54.1875 4.265625 -43.265625 C 4.265625 -33.539062 10.835938 -27.734375 24.832031 -24.746094 C 33.28125 -22.957031 37.121094 -20.480469 37.121094 -16.300781 C 37.121094 -12.289062 33.539062 -9.984375 27.90625 -9.984375 C 21.335938 -9.984375 17.066406 -13.3125 17.066406 -19.03125 L 3.753906 -19.03125 C 3.753906 -6.65625 12.972656 1.195312 27.992188 1.195312 Z M 27.992188 1.195312 "/></g></g></g><g fill="#000000" fill-opacity="1"><g transform="translate(638.382477, 865.48663)"><g><path d="M 27.820312 1.195312 C 40.449219 1.195312 49.921875 -6.230469 52.3125 -18.007812 L 39.683594 -18.007812 C 37.890625 -13.140625 33.453125 -9.984375 27.992188 -9.984375 C 20.992188 -9.984375 16.128906 -15.105469 16.128906 -22.445312 C 16.128906 -29.78125 20.992188 -34.902344 27.992188 -34.902344 C 33.109375 -34.902344 37.292969 -32.171875 39.425781 -27.648438 L 51.886719 -27.648438 C 49.835938 -38.742188 40.277344 -45.996094 27.820312 -45.996094 C 13.484375 -45.996094 3.328125 -36.183594 3.328125 -22.445312 C 3.328125 -8.617188 13.398438 1.195312 27.820312 1.195312 Z M 27.820312 1.195312 "/></g></g></g><g fill="#000000" fill-opacity="1"><g transform="translate(693.843509, 865.48663)"><g><path d="M 21.417969 0.851562 C 28.074219 0.851562 33.539062 -1.28125 37.378906 -5.207031 L 38.828125 0 L 48.472656 0 L 48.472656 -26.964844 C 48.472656 -38.828125 40.449219 -45.996094 27.050781 -45.996094 C 15.617188 -45.996094 8.105469 -40.535156 6.484375 -30.808594 L 18.945312 -30.808594 C 19.710938 -33.964844 22.957031 -36.097656 27.136719 -36.097656 C 32.257812 -36.097656 35.757812 -33.195312 35.757812 -28.757812 L 35.757812 -26.710938 L 19.542969 -26.710938 C 10.242188 -26.710938 4.265625 -21.335938 4.265625 -13.054688 C 4.265625 -4.4375 10.835938 0.851562 21.417969 0.851562 Z M 17.066406 -13.570312 C 17.066406 -16.640625 19.628906 -18.601562 23.554688 -18.601562 L 35.839844 -18.601562 C 35.585938 -12.542969 30.890625 -8.449219 24.40625 -8.449219 C 19.96875 -8.449219 17.066406 -10.496094 17.066406 -13.570312 Z M 17.066406 -13.570312 "/></g></g></g><g fill="#000000" fill-opacity="1"><g transform="translate(747.939347, 865.48663)"><g><path d="M 6.484375 0 L 19.457031 0 L 19.457031 -23.46875 C 19.457031 -30.550781 23.382812 -34.902344 29.355469 -34.902344 C 34.902344 -34.902344 38.230469 -30.976562 38.230469 -24.40625 L 38.230469 0 L 51.203125 0 L 51.203125 -25.773438 C 51.203125 -38.144531 44.121094 -45.996094 32.429688 -45.996094 C 26.453125 -45.996094 21.078125 -43.949219 17.492188 -39.765625 L 16.128906 -44.800781 L 6.484375 -44.800781 Z M 6.484375 0 "/></g></g></g><g fill="#000000" fill-opacity="1"><g transform="translate(804.765576, 865.48663)"><g><path d="M 6.484375 0 L 19.457031 0 L 19.457031 -23.46875 C 19.457031 -30.550781 23.382812 -34.902344 29.355469 -34.902344 C 34.902344 -34.902344 38.230469 -30.976562 38.230469 -24.40625 L 38.230469 0 L 51.203125 0 L 51.203125 -25.773438 C 51.203125 -38.144531 44.121094 -45.996094 32.429688 -45.996094 C 26.453125 -45.996094 21.078125 -43.949219 17.492188 -39.765625 L 16.128906 -44.800781 L 6.484375 -44.800781 Z M 6.484375 0 "/></g></g></g><g fill="#000000" fill-opacity="1"><g transform="translate(861.591805, 865.48663)"><g><path d="M 6.484375 0 L 19.457031 0 L 19.457031 -44.800781 L 6.484375 -44.800781 Z M 4.609375 -59.308594 C 4.609375 -54.53125 8.023438 -51.203125 12.972656 -51.203125 C 17.921875 -51.203125 21.335938 -54.53125 21.335938 -59.308594 C 21.335938 -64.089844 17.921875 -67.417969 12.972656 -67.417969 C 8.023438 -67.417969 4.609375 -64.089844 4.609375 -59.308594 Z M 4.609375 -59.308594 "/></g></g></g><g fill="#000000" fill-opacity="1"><g transform="translate(887.530512, 865.48663)"><g><path d="M 6.484375 0 L 19.457031 0 L 19.457031 -23.46875 C 19.457031 -30.550781 23.382812 -34.902344 29.355469 -34.902344 C 34.902344 -34.902344 38.230469 -30.976562 38.230469 -24.40625 L 38.230469 0 L 51.203125 0 L 51.203125 -25.773438 C 51.203125 -38.144531 44.121094 -45.996094 32.429688 -45.996094 C 26.453125 -45.996094 21.078125 -43.949219 17.492188 -39.765625 L 16.128906 -44.800781 L 6.484375 -44.800781 Z M 6.484375 0 "/></g></g></g><g fill="#000000" fill-opacity="1"><g transform="translate(944.356741, 865.48663)"><g><path d="M 28.332031 18.945312 C 42.667969 18.945312 51.800781 10.921875 51.800781 -2.476562 L 51.800781 -44.800781 L 42.15625 -44.800781 L 40.792969 -39.851562 C 36.867188 -43.777344 31.402344 -45.996094 25.003906 -45.996094 C 12.375 -45.996094 3.328125 -36.695312 3.328125 -23.636719 C 3.328125 -10.496094 12.375 -1.195312 25.003906 -1.195312 C 30.378906 -1.195312 35.160156 -2.816406 38.828125 -5.632812 L 38.828125 -2.476562 C 38.828125 4.777344 35.160156 8.449219 28.074219 8.449219 C 22.699219 8.449219 19.117188 6.230469 18.175781 2.304688 L 5.546875 2.304688 C 6.65625 12.628906 15.359375 18.945312 28.332031 18.945312 Z M 16.128906 -23.636719 C 16.128906 -30.464844 20.90625 -35.246094 27.734375 -35.246094 C 34.5625 -35.246094 39.425781 -30.464844 39.425781 -23.636719 C 39.425781 -16.726562 34.5625 -11.945312 27.734375 -11.945312 C 20.90625 -11.945312 16.128906 -16.726562 16.128906 -23.636719 Z M 16.128906 -23.636719 "/></g></g></g></svg>